<svg width="118" height="138" viewBox="0 0 118 138" fill="none" xmlns="http://www.w3.org/2000/svg">
<circle cx="59" cy="59" r="57" stroke="#FF2929" stroke-width="4"/>
<path d="M29.5 67.5L33 69L34.5 66.5L37.5 63H42L45.5 66.5V71H62V66.5L65 63H70L74 66.5L74.5 71H87.5L95.5 67.5V61L93.5 57.5H45.5V48L34.5 55.5H32L29.5 61V67.5Z" fill="#FF2929" fill-opacity="0.5"/>
<path d="M30.3503 58.8735L29.3428 60.4857V67.4104L33.9044 69.3734" stroke="white" stroke-width="2"/>
<circle cx="39.7491" cy="69.0225" r="6.23937" stroke="white" stroke-width="2"/>
<circle cx="67.9601" cy="69.0226" r="6.23937" stroke="white" stroke-width="2"/>
<path d="M87.4424 71.1025L86.2861 72.6914C85.1535 74.2472 83.3148 75.2616 81.2393 75.2617C79.1635 75.2617 77.3241 74.2474 76.1914 72.6914L75.0352 71.1025H87.4424Z" stroke="white" stroke-width="2"/>
<path d="M59.4424 71.1025L58.2861 72.6914C57.1535 74.2472 55.3148 75.2616 53.2393 75.2617C51.1635 75.2617 49.3241 74.2474 48.1914 72.6914L47.0352 71.1025H59.4424Z" stroke="white" stroke-width="2"/>
<path d="M59 47.5L67.3479 57.5757" stroke="white" stroke-width="2"/>
<path d="M30.3135 55.4688H34.7468C39.1606 52.3439 44.1593 47.0571 49.8976 47.0571H71.1394L82 57.9999M45.7026 57.5359H93.1682L94.9818 59.3495V67.0071L88.2584 71.0587H74.3539" stroke="white" stroke-width="2"/>
<path d="M62.1166 70.4331H45.7939" stroke="white" stroke-width="2"/>
<path d="M12 55.4478L28.427 55.4478" stroke="white" stroke-width="2"/>
<path d="M21.8984 50.3916L35.1681 50.3916" stroke="white" stroke-width="2"/>
<path d="M22.5283 62.1893L26.7418 62.1893" stroke="white" stroke-width="2"/>
<path d="M79.8311 63.0531H85.7299" stroke="white" stroke-width="2"/>
<path d="M95 63.0531H91.5" stroke="white" stroke-width="2"/>
<path d="M46.124 58.5756V48.3059" stroke="white" stroke-width="2"/>
<path d="M40.8916 137L44.6787 126.979H45.8545L49.6416 137H48.2744L45.54 129.48C45.4854 129.33 45.4375 129.184 45.3965 129.043C45.3555 128.902 45.319 128.756 45.2871 128.605H45.2188C45.1868 128.756 45.1504 128.902 45.1094 129.043C45.0684 129.184 45.0205 129.33 44.9658 129.48L42.2041 137H40.8916ZM42.5186 134.402L42.9219 133.322H47.5977L47.9941 134.402H42.5186ZM50.2227 133.514V133.295C50.2227 132.21 50.5166 131.324 51.1045 130.636C51.6969 129.948 52.5104 129.604 53.5449 129.604C54.502 129.604 55.2288 129.863 55.7256 130.383C56.2223 130.898 56.4707 131.474 56.4707 132.112V132.146H55.2402V132.112C55.2402 131.725 55.1058 131.383 54.8369 131.087C54.568 130.791 54.1374 130.643 53.5449 130.643C52.8522 130.643 52.3418 130.9 52.0137 131.415C51.6855 131.925 51.5215 132.552 51.5215 133.295V133.514C51.5215 134.257 51.6855 134.885 52.0137 135.4C52.3418 135.911 52.8522 136.166 53.5449 136.166C54.1374 136.166 54.568 136.018 54.8369 135.722C55.1058 135.425 55.2402 135.084 55.2402 134.696V134.662H56.4707V134.696C56.4707 135.334 56.2223 135.913 55.7256 136.433C55.2288 136.948 54.502 137.205 53.5449 137.205C52.5104 137.205 51.6969 136.861 51.1045 136.173C50.5166 135.485 50.2227 134.598 50.2227 133.514ZM56.9424 130.779V129.809H61.0439V130.779H56.9424ZM58.2275 135.223V130.396V130.191V128.031H59.499V135.223C59.499 135.542 59.5628 135.77 59.6904 135.906C59.818 136.043 60.0186 136.111 60.292 136.111C60.4196 136.111 60.5449 136.098 60.668 136.07C60.791 136.043 60.9163 136.007 61.0439 135.961V137C60.9255 137.055 60.7705 137.103 60.5791 137.144C60.3877 137.185 60.1781 137.205 59.9502 137.205C59.4261 137.205 59.0068 137.046 58.6924 136.727C58.3825 136.408 58.2275 135.906 58.2275 135.223ZM62.459 137V129.809H63.7305V137H62.459ZM62.3018 127.635C62.3018 127.421 62.3701 127.241 62.5068 127.095C62.6436 126.949 62.8395 126.876 63.0947 126.876C63.3499 126.876 63.5459 126.949 63.6826 127.095C63.8193 127.241 63.8877 127.421 63.8877 127.635C63.8877 127.849 63.8193 128.029 63.6826 128.175C63.5459 128.321 63.3499 128.394 63.0947 128.394C62.8395 128.394 62.6436 128.321 62.5068 128.175C62.3701 128.029 62.3018 127.849 62.3018 127.635ZM65.3848 133.514V133.295C65.3848 132.21 65.6924 131.324 66.3076 130.636C66.9229 129.948 67.7454 129.604 68.7754 129.604C69.8053 129.604 70.6279 129.948 71.2432 130.636C71.8584 131.324 72.166 132.21 72.166 133.295V133.514C72.166 134.598 71.8584 135.485 71.2432 136.173C70.6279 136.861 69.8053 137.205 68.7754 137.205C67.7454 137.205 66.9229 136.861 66.3076 136.173C65.6924 135.485 65.3848 134.598 65.3848 133.514ZM66.6836 133.295V133.514C66.6836 134.257 66.859 134.885 67.21 135.4C67.5609 135.911 68.0827 136.166 68.7754 136.166C69.4681 136.166 69.9899 135.911 70.3408 135.4C70.6917 134.885 70.8672 134.257 70.8672 133.514V133.295C70.8672 132.552 70.6917 131.925 70.3408 131.415C69.9899 130.9 69.4681 130.643 68.7754 130.643C68.0827 130.643 67.5609 130.9 67.21 131.415C66.859 131.925 66.6836 132.552 66.6836 133.295ZM73.7588 137V129.809H74.9072L74.9619 130.731H75.0029C75.2627 130.403 75.5794 130.146 75.9531 129.959C76.3314 129.768 76.7484 129.672 77.2041 129.672C77.9287 129.672 78.5052 129.879 78.9336 130.294C79.3665 130.704 79.583 131.392 79.583 132.358V137H78.3115V132.345C78.3115 131.771 78.1816 131.36 77.9219 131.114C77.6667 130.864 77.3021 130.738 76.8281 130.738C76.4225 130.738 76.0648 130.848 75.7549 131.066C75.445 131.285 75.2035 131.568 75.0303 131.914V137H73.7588Z" fill="white"/>
</svg>
