<svg width="118" height="138" viewBox="0 0 118 138" fill="none" xmlns="http://www.w3.org/2000/svg">
<circle cx="59" cy="59" r="57" stroke="#E0B366" stroke-width="4"/>
<path d="M27.6777 137L31.4648 126.979H32.6406L36.4277 137H35.0605L32.3262 129.48C32.2715 129.33 32.2236 129.184 32.1826 129.043C32.1416 128.902 32.1051 128.756 32.0732 128.605H32.0049C31.973 128.756 31.9365 128.902 31.8955 129.043C31.8545 129.184 31.8066 129.33 31.752 129.48L28.9902 137H27.6777ZM29.3047 134.402L29.708 133.322H34.3838L34.7803 134.402H29.3047ZM37.0088 133.514V133.295C37.0088 132.247 37.2822 131.381 37.8291 130.697C38.376 130.014 39.1051 129.672 40.0166 129.672C40.5179 129.672 40.944 129.763 41.2949 129.945C41.6504 130.123 41.9329 130.36 42.1426 130.656V126.5H43.4141V137H42.2656L42.2109 136.063H42.1699C41.9876 136.36 41.7074 136.613 41.3291 136.822C40.9554 137.032 40.5179 137.137 40.0166 137.137C39.1051 137.137 38.376 136.795 37.8291 136.111C37.2822 135.428 37.0088 134.562 37.0088 133.514ZM38.3076 133.514C38.3076 134.243 38.4671 134.856 38.7861 135.353C39.1051 135.849 39.6064 136.098 40.29 136.098C40.7458 136.098 41.1331 135.972 41.4521 135.722C41.7712 135.471 42.0013 135.186 42.1426 134.867V131.941C42.0013 131.622 41.7712 131.338 41.4521 131.087C41.1331 130.836 40.7458 130.711 40.29 130.711C39.6064 130.711 39.1051 130.959 38.7861 131.456C38.4671 131.953 38.3076 132.566 38.3076 133.295V133.514ZM44.4258 129.809H45.6562L47.3926 134.607C47.4564 134.79 47.5088 134.961 47.5498 135.12C47.5954 135.28 47.6273 135.405 47.6455 135.496H47.6865C47.7048 135.405 47.7344 135.28 47.7754 135.12C47.821 134.961 47.8757 134.79 47.9395 134.607L49.6621 129.809H50.8652L48.1309 137H47.1602L44.4258 129.809ZM51.3643 133.514V133.295C51.3643 132.21 51.6605 131.324 52.2529 130.636C52.8499 129.948 53.6383 129.604 54.6182 129.604C55.598 129.604 56.3522 129.925 56.8809 130.567C57.4095 131.21 57.6738 132.078 57.6738 133.172V133.691H52.1436V132.68H56.3955V132.516C56.3955 131.996 56.2474 131.554 55.9512 131.189C55.6549 130.825 55.2288 130.643 54.6729 130.643C53.9984 130.643 53.4948 130.9 53.1621 131.415C52.8294 131.925 52.6631 132.552 52.6631 133.295V133.514C52.6631 134.257 52.8385 134.885 53.1895 135.4C53.5404 135.911 54.085 136.166 54.8232 136.166C55.279 136.166 55.6709 136.066 55.999 135.865C56.3271 135.665 56.5938 135.428 56.7988 135.154L57.6191 135.804C57.3913 136.146 57.0381 136.465 56.5596 136.761C56.0856 137.057 55.5068 137.205 54.8232 137.205C53.7067 137.205 52.8499 136.861 52.2529 136.173C51.6605 135.485 51.3643 134.598 51.3643 133.514ZM59.2324 137V129.809H60.3809L60.4355 130.731H60.4766C60.7363 130.403 61.0531 130.146 61.4268 129.959C61.805 129.768 62.222 129.672 62.6777 129.672C63.4023 129.672 63.9788 129.879 64.4072 130.294C64.8402 130.704 65.0566 131.392 65.0566 132.358V137H63.7852V132.345C63.7852 131.771 63.6553 131.36 63.3955 131.114C63.1403 130.864 62.7757 130.738 62.3018 130.738C61.8962 130.738 61.5384 130.848 61.2285 131.066C60.9186 131.285 60.6771 131.568 60.5039 131.914V137H59.2324ZM66 130.779V129.809H70.1016V130.779H66ZM67.2852 135.223V130.396V130.191V128.031H68.5566V135.223C68.5566 135.542 68.6204 135.77 68.748 135.906C68.8757 136.043 69.0762 136.111 69.3496 136.111C69.4772 136.111 69.6025 136.098 69.7256 136.07C69.8486 136.043 69.974 136.007 70.1016 135.961V137C69.9831 137.055 69.8281 137.103 69.6367 137.144C69.4453 137.185 69.2357 137.205 69.0078 137.205C68.4837 137.205 68.0645 137.046 67.75 136.727C67.4401 136.408 67.2852 135.906 67.2852 135.223ZM71.3867 134.45V129.809H72.6582V134.464C72.6582 135.038 72.7858 135.451 73.041 135.701C73.3008 135.947 73.6676 136.07 74.1416 136.07C74.5472 136.07 74.9049 135.961 75.2148 135.742C75.5247 135.523 75.7663 135.241 75.9395 134.895V129.809H77.2109V137H76.0625L76.0078 136.077H75.9668C75.707 136.405 75.388 136.665 75.0098 136.856C74.6361 137.043 74.2214 137.137 73.7656 137.137C73.041 137.137 72.4622 136.932 72.0293 136.521C71.6009 136.107 71.3867 135.416 71.3867 134.45ZM79.2344 137V129.809H80.3828L80.4375 130.731H80.4785C80.6608 130.431 80.9001 130.169 81.1963 129.945C81.4925 129.717 81.8457 129.604 82.2559 129.604C82.3561 129.604 82.4609 129.615 82.5703 129.638C82.6797 129.66 82.7572 129.681 82.8027 129.699V130.875C82.7116 130.857 82.6159 130.843 82.5156 130.834C82.4154 130.825 82.306 130.82 82.1875 130.82C81.7773 130.82 81.4287 130.927 81.1416 131.142C80.8545 131.356 80.6426 131.622 80.5059 131.941V137H79.2344ZM83.4658 133.514V133.295C83.4658 132.21 83.762 131.324 84.3545 130.636C84.9515 129.948 85.7399 129.604 86.7197 129.604C87.6995 129.604 88.4538 129.925 88.9824 130.567C89.5111 131.21 89.7754 132.078 89.7754 133.172V133.691H84.2451V132.68H88.4971V132.516C88.4971 131.996 88.349 131.554 88.0527 131.189C87.7565 130.825 87.3304 130.643 86.7744 130.643C86.0999 130.643 85.5964 130.9 85.2637 131.415C84.931 131.925 84.7646 132.552 84.7646 133.295V133.514C84.7646 134.257 84.9401 134.885 85.291 135.4C85.6419 135.911 86.1865 136.166 86.9248 136.166C87.3805 136.166 87.7725 136.066 88.1006 135.865C88.4287 135.665 88.6953 135.428 88.9004 135.154L89.7207 135.804C89.4928 136.146 89.1396 136.465 88.6611 136.761C88.1872 137.057 87.6084 137.205 86.9248 137.205C85.8083 137.205 84.9515 136.861 84.3545 136.173C83.762 135.485 83.4658 134.598 83.4658 133.514Z" fill="white"/>
<path d="M75.5 86C81.8513 86 87 80.8513 87 74.5C87 68.1487 81.8513 63 75.5 63" stroke="#FFDA9B" stroke-width="2"/>
<path d="M87 40.5C87 34.1487 81.8513 29 75.5 29" stroke="#FFDA9B" stroke-width="2"/>
<path d="M75 64L75 28" stroke="#FFDA9B" stroke-width="2"/>
<path d="M87 74.5L87 40.5" stroke="#FFDA9B" stroke-width="2"/>
<path d="M76 86H58L56 85.5L54 86H45.5L42 84.5L37.75 86H34V37H43L44.5 37.5L46.5 37H58.5H62.5L64.5 38L66 37H75M62.5 37H46.5" stroke="#FFDA9B" stroke-width="2"/>
<path d="M52.4914 42.3083C52.8832 42.0831 53.3779 42.1489 53.6975 42.4685C54.0169 42.7881 54.082 43.2828 53.8566 43.6745L50.8459 48.906L53.8332 53.5983C54.0849 53.9938 54.0279 54.511 53.6965 54.8425C53.365 55.1739 52.8477 55.2309 52.4523 54.9792L47.51 51.8317L42.5676 54.9792C42.1722 55.2309 41.6549 55.1738 41.3234 54.8425C40.992 54.511 40.935 53.9938 41.1867 53.5983L44.173 48.9069L41.1623 43.6745C40.937 43.2827 41.0029 42.7881 41.3225 42.4685C41.642 42.1489 42.1367 42.083 42.5285 42.3083L47.51 45.1745L52.4914 42.3083Z" fill="#E0B366"/>
<path d="M54.9068 48.0043C54.3569 48.0558 53.9529 48.5433 54.0044 49.0932C54.0558 49.6431 54.5434 50.0471 55.0932 49.9956L55 49L54.9068 48.0043ZM63 58L63.8617 58.5074L63.9307 58.3902L63.9659 58.2588L63 58ZM68 79L68.2588 78.0341L68 79ZM56.2125 49.9562C56.7646 49.9671 57.2211 49.5283 57.232 48.9761C57.243 48.424 56.8042 47.9675 56.252 47.9565L56.2322 48.9563L56.2125 49.9562ZM61.4855 49.4019C61.0226 49.1008 60.4031 49.2319 60.102 49.6949C59.8008 50.1578 59.932 50.7773 60.3949 51.0784L60.9402 50.2402L61.4855 49.4019ZM61.7838 52.5029C62.0641 52.9788 62.6771 53.1374 63.153 52.8571C63.6288 52.5768 63.7874 51.9638 63.5071 51.4879L62.6455 51.9954L61.7838 52.5029ZM64.2535 56.9591C64.347 56.4148 63.9816 55.8977 63.4373 55.8042C62.893 55.7107 62.3759 56.0761 62.2824 56.6204L63.2679 56.7898L64.2535 56.9591ZM61.5959 58.465C61.3378 58.9533 61.5245 59.5584 62.0127 59.8164C62.501 60.0745 63.1061 59.8879 63.3641 59.3996L62.48 58.9323L61.5959 58.465ZM61.7491 63.1841C61.923 62.6599 61.639 62.094 61.1148 61.9201C60.5906 61.7462 60.0247 62.0302 59.8508 62.5544L60.8 62.8693L61.7491 63.1841ZM59.2442 64.7053C59.1197 65.2434 59.455 65.7805 59.9931 65.905C60.5312 66.0294 61.0683 65.6941 61.1927 65.1561L60.2184 64.9307L59.2442 64.7053ZM60.7422 69.1548C60.7298 68.6026 60.2721 68.1651 59.72 68.1776C59.1678 68.19 58.7303 68.6477 58.7427 69.1999L59.7425 69.1773L60.7422 69.1548ZM58.991 71.5015C59.1 72.0429 59.6273 72.3934 60.1687 72.2844C60.7101 72.1754 61.0606 71.6481 60.9516 71.1067L59.9713 71.3041L58.991 71.5015ZM62.4944 74.567C62.1561 74.1304 61.5279 74.0508 61.0914 74.3892C60.6549 74.7275 60.5753 75.3556 60.9136 75.7922L61.704 75.1796L62.4944 74.567ZM62.5764 77.4776C63.0069 77.8235 63.6364 77.7549 63.9823 77.3244C64.3282 76.8938 64.2596 76.2644 63.829 75.9185L63.2027 76.698L62.5764 77.4776ZM67.292 77.743C66.7686 77.5668 66.2014 77.8483 66.0253 78.3718C65.8491 78.8952 66.1307 79.4624 66.6541 79.6385L66.9731 78.6907L67.292 77.743ZM68.4607 80.2045C68.974 80.4083 69.5554 80.1575 69.7592 79.6442C69.9631 79.1309 69.7123 78.5496 69.199 78.3457L68.8299 79.2751L68.4607 80.2045ZM72.4188 80.4779C72.0211 80.0948 71.388 80.1065 71.0048 80.5043C70.6216 80.902 70.6334 81.535 71.0311 81.9182L71.725 81.1981L72.4188 80.4779ZM72.122 83.1201C72.4688 83.55 73.0983 83.6174 73.5282 83.2707C73.9581 82.9239 74.0255 82.2944 73.6788 81.8645L72.9004 82.4923L72.122 83.1201ZM75.7396 84.75C75.4139 84.304 74.7883 84.2065 74.3422 84.5322C73.8962 84.8579 73.7987 85.4835 74.1244 85.9295L74.932 85.3398L75.7396 84.75ZM55 49L55.0932 49.9956C55.4362 49.9635 55.814 49.9483 56.2125 49.9562L56.2322 48.9563L56.252 47.9565C55.7789 47.9472 55.3256 47.9651 54.9068 48.0043L55 49ZM60.9402 50.2402L60.3949 51.0784C60.9615 51.447 61.4373 51.9145 61.7838 52.5029L62.6455 51.9954L63.5071 51.4879C62.9835 50.5988 62.2758 49.916 61.4855 49.4019L60.9402 50.2402ZM63.2679 56.7898L62.2824 56.6204C62.2217 56.9736 62.1397 57.3469 62.0341 57.7412L63 58L63.9659 58.2588C64.0863 57.8097 64.1818 57.3767 64.2535 56.9591L63.2679 56.7898ZM63 58L62.1383 57.4925C61.9572 57.8001 61.7756 58.125 61.5959 58.465L62.48 58.9323L63.3641 59.3996C63.5299 59.0861 63.6965 58.788 63.8617 58.5074L63 58ZM60.8 62.8693L59.8508 62.5544C59.6198 63.2509 59.414 63.9711 59.2442 64.7053L60.2184 64.9307L61.1927 65.1561C61.3474 64.4873 61.5359 63.8268 61.7491 63.1841L60.8 62.8693ZM59.7425 69.1773L58.7427 69.1999C58.7602 69.9724 58.8384 70.7436 58.991 71.5015L59.9713 71.3041L60.9516 71.1067C60.8247 70.4763 60.7573 69.823 60.7422 69.1548L59.7425 69.1773ZM61.704 75.1796L60.9136 75.7922C61.3824 76.3971 61.9344 76.9618 62.5764 77.4776L63.2027 76.698L63.829 75.9185C63.3074 75.4994 62.8659 75.0464 62.4944 74.567L61.704 75.1796ZM66.9731 78.6907L66.6541 79.6385C67.0035 79.7561 67.3658 79.8653 67.7412 79.9659L68 79L68.2588 78.0341C67.9223 77.9439 67.6002 77.8467 67.292 77.743L66.9731 78.6907ZM68 79L67.7412 79.9659C67.9897 80.0325 68.2294 80.1126 68.4607 80.2045L68.8299 79.2751L69.199 78.3457C68.8975 78.226 68.5842 78.1213 68.2588 78.0341L68 79ZM71.725 81.1981L71.0311 81.9182C71.4262 82.2989 71.7881 82.706 72.122 83.1201L72.9004 82.4923L73.6788 81.8645C73.3047 81.4006 72.8867 80.9287 72.4188 80.4779L71.725 81.1981ZM74.932 85.3398L74.1244 85.9295C74.3394 86.2239 74.5847 86.5339 74.8515 86.7612L75.5 86L76.1485 85.2388C76.0726 85.1742 75.9429 85.0284 75.7396 84.75L74.932 85.3398Z" fill="#FFDA9B"/>
</svg>
