<svg width="118" height="138" viewBox="0 0 118 138" fill="none" xmlns="http://www.w3.org/2000/svg">
<circle cx="59" cy="59" r="57" stroke="#FFD735" stroke-width="4"/>
<path d="M53.3533 88.1432C49.2844 88.7183 45.0062 86.7124 41.6508 84.5812C39.3975 83.1046 35.883 80.359 35.1454 77.6615C35.0323 77.2478 35.1147 76.6436 35.3756 76.2914C36.0972 75.3174 37.1681 75.1063 38.2485 74.8811C37.8651 74.0784 37.5276 73.4011 37.2381 72.5518C36.2613 69.6871 36.5346 66.858 37.1014 63.9643L37.2209 63.4379C33.8691 61.3194 28.8829 56.9419 27.1417 53.3294C26.3457 51.6777 25.754 50.0706 26.3892 48.2509C26.7999 47.0373 27.9512 45.5967 29.1635 45.0867" stroke="#FFD735" stroke-opacity="0.6" stroke-width="2" stroke-linecap="round"/>
<path d="M45.2605 92.9519C41.1916 93.527 36.9134 91.5211 33.558 89.3899C31.3048 87.9134 27.7903 85.1677 27.0526 82.4702C26.9395 82.0565 27.0219 81.4523 27.2828 81.1001C28.0044 80.1261 29.0753 79.915 30.1557 79.6898C29.7723 78.8871 29.4349 78.2098 29.1453 77.3606C28.1685 74.4959 28.4418 71.6668 29.0087 68.773L29.1281 68.2467C25.7763 66.1282 20.7901 61.7506 19.049 58.1381C18.2529 56.4865 17.6613 54.8793 18.2964 53.0596C18.7071 51.846 19.8584 50.4054 21.0707 49.8954" stroke="#FFD735" stroke-opacity="0.6" stroke-width="2" stroke-linecap="round"/>
<path d="M85.6714 35.8162C86.605 37.1551 86.8125 39.0576 86.6395 40.4511C86.2292 43.7543 84.4373 47.3502 82.2391 50.5435C80.2212 53.4749 77.7973 56.1556 75.6031 58.0734C75.9933 58.83 76.295 59.4391 76.547 60.0728C76.7605 60.6097 76.9356 61.1558 77.1071 61.8208C80.9249 60.1009 85.2489 59.4255 89.4437 61.2763C91.1854 62.0449 92.6817 63.4598 93.5348 65.1624C94.3946 66.8786 94.6188 68.9355 93.705 70.8999C92.8487 72.7401 91.3324 73.6869 89.6975 74.1045C88.098 74.5131 86.3481 74.4303 84.858 74.2253C83.2998 74.0107 82.0887 73.7098 80.6629 73.6388L80.6573 73.6384C78.9646 73.544 77.2696 73.7803 75.6671 74.3338L75.6593 74.3356C75.0509 74.5403 74.8149 74.6956 74.6377 74.856C74.3855 75.0845 74.2384 75.3138 73.7163 75.9228L73.3792 76.2999C73.1488 76.546 72.9069 76.7812 72.6549 77.0052L72.2685 77.3329L72.2654 77.3356C70.679 78.6092 69.2176 79.3073 67.5432 79.9435C67.6541 80.2705 67.7482 80.6171 67.8056 80.9729C67.9275 81.7294 67.896 82.5932 67.4581 83.4067C67.1802 83.9231 66.7209 84.3245 66.2854 84.604C65.841 84.8891 65.3259 85.1093 64.8365 85.2087C60.4344 86.1032 55.7657 84.193 52.2575 82.2499L52.2453 82.243C51.0437 81.5549 49.4838 80.5528 48.0979 79.368C46.7378 78.2051 45.4245 76.7656 44.8865 75.1797C44.7635 74.8167 44.7351 74.4163 44.7702 74.0561C44.8049 73.699 44.9108 73.2867 45.1429 72.9305C45.7213 72.0432 46.529 71.5842 47.2969 71.297C47.0863 70.8964 46.8815 70.4793 46.69 70.0115C45.4589 67.0051 45.5708 63.9924 45.9563 61.0608C44.2766 60.0751 42.3097 58.6915 40.5006 57.1498C38.4803 55.4282 36.5749 53.4435 35.5111 51.5382C34.6057 49.9164 33.7255 48.0306 34.3641 45.7622C34.5715 45.0021 34.9856 44.2033 35.5036 43.5161C36.0184 42.8331 36.6918 42.1858 37.4651 41.8043C40.9654 40.0776 44.4628 41.9064 47.1191 44.2717C49.4464 46.3441 51.4091 49.0592 52.6533 51.1074C52.7819 51.0301 52.9103 50.9549 53.0349 50.8841C53.1926 50.7945 53.3528 50.709 53.5071 50.6255C53.1518 49.8082 52.8511 48.9566 52.5777 48.1691L52.5759 48.1635C51.1596 44.0029 49.7411 38.9928 50.6635 34.3027C51.3301 30.9141 53.9293 28.9831 56.7404 28.6481C59.532 28.3154 62.583 29.545 64.2373 32.4359C67.2969 37.7827 67.3156 44.1502 66.1025 49.8426C66.2905 49.9089 66.4749 49.9753 66.6584 50.0446C66.8596 49.3216 67.116 48.5068 67.2599 48.0764L67.2621 48.0698C68.8791 43.3407 71.1801 37.95 75.422 34.5814C78.4691 32.1617 83.2945 32.4073 85.6714 35.8162Z" stroke="white" stroke-width="2"/>
<path d="M53.6523 72.3588L53.5936 64.5969M58.0393 73.2274L63.2361 61.9472" stroke="white" stroke-width="2" stroke-linecap="round"/>
<path d="M61.5947 74.8431L66.9828 71.8069" stroke="white" stroke-width="2" stroke-linecap="round"/>
<path d="M27.4248 137L31.2119 126.979H32.3877L36.1748 137H34.8076L32.0732 129.48C32.0186 129.33 31.9707 129.184 31.9297 129.043C31.8887 128.902 31.8522 128.756 31.8203 128.605H31.752C31.7201 128.756 31.6836 128.902 31.6426 129.043C31.6016 129.184 31.5537 129.33 31.499 129.48L28.7373 137H27.4248ZM29.0518 134.402L29.4551 133.322H34.1309L34.5273 134.402H29.0518ZM37.1865 137V129.809H38.335L38.3896 130.731H38.4307C38.6904 130.403 39.0072 130.146 39.3809 129.959C39.7591 129.768 40.1761 129.672 40.6318 129.672C41.3564 129.672 41.9329 129.879 42.3613 130.294C42.7943 130.704 43.0107 131.392 43.0107 132.358V137H41.7393V132.345C41.7393 131.771 41.6094 131.36 41.3496 131.114C41.0944 130.864 40.7298 130.738 40.2559 130.738C39.8503 130.738 39.4925 130.848 39.1826 131.066C38.8727 131.285 38.6312 131.568 38.458 131.914V137H37.1865ZM45.0273 137V129.809H46.2988V137H45.0273ZM44.8701 127.635C44.8701 127.421 44.9385 127.241 45.0752 127.095C45.2119 126.949 45.4079 126.876 45.6631 126.876C45.9183 126.876 46.1143 126.949 46.251 127.095C46.3877 127.241 46.4561 127.421 46.4561 127.635C46.4561 127.849 46.3877 128.029 46.251 128.175C46.1143 128.321 45.9183 128.394 45.6631 128.394C45.4079 128.394 45.2119 128.321 45.0752 128.175C44.9385 128.029 44.8701 127.849 44.8701 127.635ZM48.3838 137V129.809H49.5322L49.5869 130.731H49.6279C49.8831 130.408 50.1908 130.15 50.5508 129.959C50.9154 129.768 51.3187 129.672 51.7607 129.672C52.2438 129.672 52.6608 129.768 53.0117 129.959C53.3626 130.15 53.6292 130.46 53.8115 130.889H53.8525C54.1533 130.46 54.486 130.15 54.8506 129.959C55.2152 129.768 55.6344 129.672 56.1084 129.672C56.8558 129.672 57.4391 129.879 57.8584 130.294C58.2777 130.704 58.4873 131.392 58.4873 132.358V137H57.2158V132.345C57.2158 131.771 57.0928 131.36 56.8467 131.114C56.6006 130.864 56.252 130.738 55.8008 130.738C55.4089 130.738 55.0648 130.848 54.7686 131.066C54.4769 131.285 54.2445 131.568 54.0713 131.914V137H52.7998V132.345C52.7998 131.771 52.6768 131.36 52.4307 131.114C52.1846 130.864 51.8359 130.738 51.3848 130.738C50.9928 130.738 50.6488 130.848 50.3525 131.066C50.0609 131.285 49.8285 131.568 49.6553 131.914V137H48.3838ZM60.0459 134.881C60.0459 134.152 60.3353 133.584 60.9141 133.179C61.4928 132.773 62.2288 132.57 63.1221 132.57H64.749V132.078C64.749 131.645 64.6374 131.294 64.4141 131.025C64.1908 130.752 63.8057 130.615 63.2588 130.615C62.7119 130.615 62.32 130.729 62.083 130.957C61.8506 131.18 61.7344 131.44 61.7344 131.736V131.771H60.4697V131.736C60.4697 131.167 60.7227 130.67 61.2285 130.246C61.7389 129.818 62.4271 129.604 63.293 129.604C64.1589 129.604 64.8288 129.811 65.3027 130.226C65.7812 130.64 66.0205 131.258 66.0205 132.078V135.359C66.0205 135.656 66.0433 135.936 66.0889 136.2C66.1344 136.46 66.1982 136.69 66.2803 136.891V137H65.0498C64.986 136.886 64.9268 136.738 64.8721 136.556C64.8219 136.373 64.79 136.191 64.7764 136.009C64.6077 136.305 64.3343 136.567 63.9561 136.795C63.5824 137.023 63.0993 137.137 62.5068 137.137C61.8232 137.137 61.2422 136.943 60.7637 136.556C60.2852 136.168 60.0459 135.61 60.0459 134.881ZM61.3174 134.812C61.3174 135.223 61.4359 135.544 61.6729 135.776C61.9098 136.009 62.279 136.125 62.7803 136.125C63.2816 136.125 63.735 135.952 64.1406 135.605C64.5462 135.259 64.749 134.892 64.749 134.505V133.473H63.2588C62.6208 133.473 62.1377 133.593 61.8096 133.835C61.4814 134.076 61.3174 134.402 61.3174 134.812ZM66.9912 130.779V129.809H71.0928V130.779H66.9912ZM68.2764 135.223V130.396V130.191V128.031H69.5479V135.223C69.5479 135.542 69.6117 135.77 69.7393 135.906C69.8669 136.043 70.0674 136.111 70.3408 136.111C70.4684 136.111 70.5938 136.098 70.7168 136.07C70.8398 136.043 70.9652 136.007 71.0928 135.961V137C70.9743 137.055 70.8193 137.103 70.6279 137.144C70.4365 137.185 70.2269 137.205 69.999 137.205C69.4749 137.205 69.0557 137.046 68.7412 136.727C68.4313 136.408 68.2764 135.906 68.2764 135.223ZM72.5078 137V129.809H73.7793V137H72.5078ZM72.3506 127.635C72.3506 127.421 72.4189 127.241 72.5557 127.095C72.6924 126.949 72.8883 126.876 73.1436 126.876C73.3988 126.876 73.5947 126.949 73.7314 127.095C73.8682 127.241 73.9365 127.421 73.9365 127.635C73.9365 127.849 73.8682 128.029 73.7314 128.175C73.5947 128.321 73.3988 128.394 73.1436 128.394C72.8883 128.394 72.6924 128.321 72.5557 128.175C72.4189 128.029 72.3506 127.849 72.3506 127.635ZM75.4336 133.514V133.295C75.4336 132.21 75.7412 131.324 76.3564 130.636C76.9717 129.948 77.7943 129.604 78.8242 129.604C79.8542 129.604 80.6768 129.948 81.292 130.636C81.9072 131.324 82.2148 132.21 82.2148 133.295V133.514C82.2148 134.598 81.9072 135.485 81.292 136.173C80.6768 136.861 79.8542 137.205 78.8242 137.205C77.7943 137.205 76.9717 136.861 76.3564 136.173C75.7412 135.485 75.4336 134.598 75.4336 133.514ZM76.7324 133.295V133.514C76.7324 134.257 76.9079 134.885 77.2588 135.4C77.6097 135.911 78.1315 136.166 78.8242 136.166C79.5169 136.166 80.0387 135.911 80.3896 135.4C80.7406 134.885 80.916 134.257 80.916 133.514V133.295C80.916 132.552 80.7406 131.925 80.3896 131.415C80.0387 130.9 79.5169 130.643 78.8242 130.643C78.1315 130.643 77.6097 130.9 77.2588 131.415C76.9079 131.925 76.7324 132.552 76.7324 133.295ZM83.8076 137V129.809H84.9561L85.0107 130.731H85.0518C85.3115 130.403 85.6283 130.146 86.002 129.959C86.3802 129.768 86.7972 129.672 87.2529 129.672C87.9775 129.672 88.554 129.879 88.9824 130.294C89.4154 130.704 89.6318 131.392 89.6318 132.358V137H88.3604V132.345C88.3604 131.771 88.2305 131.36 87.9707 131.114C87.7155 130.864 87.3509 130.738 86.877 130.738C86.4714 130.738 86.1136 130.848 85.8037 131.066C85.4938 131.285 85.2523 131.568 85.0791 131.914V137H83.8076Z" fill="white"/>
</svg>
