<svg width="118" height="140" viewBox="0 0 118 140" fill="none" xmlns="http://www.w3.org/2000/svg">
<path d="M41.5 49L39.5 53.5C46.7 68.3001 65.5 63 74 58.5L79.5 55.5L81 57.5L94 52.5L94 47L92.5 44L89 30L85.5 29L85.5 33C86.1667 32.6667 87.5 32.6 87.5 35C87.5 37.4 80.1667 37.3333 76.5 37L75.5 31L70 33L64.5 39C60.1 43.4 56.3333 42.8334 55 42C49 39.2 44.8333 43.1667 43.5 45.5L41.5 49Z" fill="#BF26DE" fill-opacity="0.3" stroke="#E66AFF" stroke-width="2" stroke-linejoin="round"/>
<path d="M85.4995 29.4955C86.3714 28.5037 86.5186 29.3675 88.0508 29.4955C91.5163 29.9408 92.3378 40.2147 92.3154 44.296C92.1914 46.4934 86.6807 48.4204 83.9408 49.1092C81.9744 49.6464 77.1451 51.3466 73.5587 53.8495C69.9723 56.3523 64.3329 57.346 61.9615 57.53C48.8675 58.6116 43.4194 51.5589 42.332 47.8973C45.0072 39.8503 52.3235 40.8737 55.6472 42.3912C61.9661 42.8811 65.6036 38.6841 66.9995 36.5393C70.0824 30.9076 74.7311 30.3698 76.4995 31.5001" stroke="#E66AFF" stroke-width="2"/>
<path d="M42.2305 47.9904C40.8202 49.1725 38.4018 52.2389 40.0103 55.0479C47.9985 66.5001 66.4985 65.0001 79.6013 54.7547L80.7475 57.3358C84.6086 56.4857 92.5894 54.2002 93.6247 51.8598C94.2231 49.3853 94.8343 44.3692 92.4916 44.1007" stroke="#E66AFF" stroke-width="2"/>
<path d="M64.4668 47.6886C64.1824 46.9112 63.8281 44.9721 64.686 43.4352C65.544 41.8982 70.4167 38.1975 72.7458 36.5393C77.2289 37.3684 86.4509 38.2629 87.474 35.2073C87.6362 34.424 87.3793 32.7892 85.0542 32.5167" stroke="#E66AFF" stroke-width="2"/>
<path d="M31 98.6206C42.2473 104.24 46.1691 97.0185 46.724 92.7051C46.724 98.6206 52.767 102.441 55.7885 103.612C64.076 106.126 66.3945 104.659 66.5179 103.612C59.8583 101.394 56.0968 95.4164 55.0485 92.7051L52.8287 83.0923C50.4238 74.5887 46.724 72.74 44.1342 74.0341C42.0623 75.0693 41.791 79.5183 41.9143 81.6134V88.823C41.6184 95.7738 34.5148 98.2509 31 98.6206Z" fill="#BF26DE" fill-opacity="0.3" stroke="#E66AFF" stroke-width="2" stroke-linejoin="round"/>
<path d="M66.5181 84.1072C66.5181 91.35 59.2671 93.1607 55.6416 93.1607L53.9824 88.5V86.182C56.4896 89.0489 63.3842 85.9933 66.5181 84.1072Z" fill="#BF26DE" fill-opacity="0.3" stroke="#E66AFF" stroke-width="2" stroke-linejoin="round"/>
<path d="M47.0181 87.5893C47.0181 83.3229 46.461 74.5642 44.2324 73.6608" stroke="#E66AFF" stroke-width="2" stroke-linecap="round" stroke-linejoin="round"/>
<path d="M40.7495 67.7829L43.0286 74.3571L43.5 74L44.9281 73.2429L44.41 66L40.7495 67.7829Z" fill="#BF26DE" fill-opacity="0.3" stroke="#E66AFF" stroke-width="2" stroke-linejoin="round"/>
<path d="M34.1992 132.338V131.709C34.1992 130.178 34.5911 128.984 35.375 128.127C36.1634 127.27 37.1501 126.842 38.335 126.842C39.5199 126.842 40.4473 127.168 41.1172 127.819C41.7917 128.466 42.1289 129.248 42.1289 130.164V130.232H40.8164V130.164C40.8164 129.531 40.6113 129.007 40.2012 128.592C39.791 128.173 39.1689 127.963 38.335 127.963C37.5192 127.963 36.847 128.271 36.3184 128.886C35.7897 129.501 35.5254 130.442 35.5254 131.709V132.338C35.5254 133.505 35.7874 134.421 36.3115 135.086C36.8402 135.751 37.5146 136.084 38.335 136.084C39.1188 136.084 39.7113 135.872 40.1123 135.448C40.5133 135.024 40.7458 134.503 40.8096 133.883L40.8164 133.814H42.1289L42.1221 133.883C42.0309 134.794 41.6732 135.576 41.0488 136.228C40.4245 136.879 39.5199 137.205 38.335 137.205C37.1501 137.205 36.1634 136.777 35.375 135.92C34.5911 135.063 34.1992 133.869 34.1992 132.338ZM43.291 133.514V133.295C43.291 132.21 43.5986 131.324 44.2139 130.636C44.8291 129.948 45.6517 129.604 46.6816 129.604C47.7116 129.604 48.5342 129.948 49.1494 130.636C49.7646 131.324 50.0723 132.21 50.0723 133.295V133.514C50.0723 134.598 49.7646 135.485 49.1494 136.173C48.5342 136.861 47.7116 137.205 46.6816 137.205C45.6517 137.205 44.8291 136.861 44.2139 136.173C43.5986 135.485 43.291 134.598 43.291 133.514ZM44.5898 133.295V133.514C44.5898 134.257 44.7653 134.885 45.1162 135.4C45.4671 135.911 45.9889 136.166 46.6816 136.166C47.3743 136.166 47.8962 135.911 48.2471 135.4C48.598 134.885 48.7734 134.257 48.7734 133.514V133.295C48.7734 132.552 48.598 131.925 48.2471 131.415C47.8962 130.9 47.3743 130.643 46.6816 130.643C45.9889 130.643 45.4671 130.9 45.1162 131.415C44.7653 131.925 44.5898 132.552 44.5898 133.295ZM51.665 137V129.809H52.8135L52.8682 130.731H52.9092C53.1644 130.408 53.472 130.15 53.832 129.959C54.1966 129.768 54.5999 129.672 55.042 129.672C55.5251 129.672 55.9421 129.768 56.293 129.959C56.6439 130.15 56.9105 130.46 57.0928 130.889H57.1338C57.4346 130.46 57.7673 130.15 58.1318 129.959C58.4964 129.768 58.9157 129.672 59.3896 129.672C60.137 129.672 60.7204 129.879 61.1396 130.294C61.5589 130.704 61.7686 131.392 61.7686 132.358V137H60.4971V132.345C60.4971 131.771 60.374 131.36 60.1279 131.114C59.8818 130.864 59.5332 130.738 59.082 130.738C58.6901 130.738 58.346 130.848 58.0498 131.066C57.7581 131.285 57.5257 131.568 57.3525 131.914V137H56.0811V132.345C56.0811 131.771 55.958 131.36 55.7119 131.114C55.4658 130.864 55.1172 130.738 54.666 130.738C54.2741 130.738 53.93 130.848 53.6338 131.066C53.3421 131.285 53.1097 131.568 52.9365 131.914V137H51.665ZM63.293 133.514V133.295C63.293 132.21 63.5892 131.324 64.1816 130.636C64.7786 129.948 65.5671 129.604 66.5469 129.604C67.5267 129.604 68.2809 129.925 68.8096 130.567C69.3382 131.21 69.6025 132.078 69.6025 133.172V133.691H64.0723V132.68H68.3242V132.516C68.3242 131.996 68.1761 131.554 67.8799 131.189C67.5837 130.825 67.1576 130.643 66.6016 130.643C65.9271 130.643 65.4235 130.9 65.0908 131.415C64.7581 131.925 64.5918 132.552 64.5918 133.295V133.514C64.5918 134.257 64.7673 134.885 65.1182 135.4C65.4691 135.911 66.0137 136.166 66.752 136.166C67.2077 136.166 67.5996 136.066 67.9277 135.865C68.2559 135.665 68.5225 135.428 68.7275 135.154L69.5479 135.804C69.32 136.146 68.9668 136.465 68.4883 136.761C68.0143 137.057 67.4355 137.205 66.752 137.205C65.6354 137.205 64.7786 136.861 64.1816 136.173C63.5892 135.485 63.293 134.598 63.293 133.514ZM70.7305 133.514V133.295C70.7305 132.247 71.0039 131.381 71.5508 130.697C72.0977 130.014 72.8268 129.672 73.7383 129.672C74.2396 129.672 74.6657 129.763 75.0166 129.945C75.3721 130.123 75.6546 130.36 75.8643 130.656V126.5H77.1357V137H75.9873L75.9326 136.063H75.8916C75.7093 136.36 75.429 136.613 75.0508 136.822C74.6771 137.032 74.2396 137.137 73.7383 137.137C72.8268 137.137 72.0977 136.795 71.5508 136.111C71.0039 135.428 70.7305 134.562 70.7305 133.514ZM72.0293 133.514C72.0293 134.243 72.1888 134.856 72.5078 135.353C72.8268 135.849 73.3281 136.098 74.0117 136.098C74.4674 136.098 74.8548 135.972 75.1738 135.722C75.4928 135.471 75.723 135.186 75.8643 134.867V131.941C75.723 131.622 75.4928 131.338 75.1738 131.087C74.8548 130.836 74.4674 130.711 74.0117 130.711C73.3281 130.711 72.8268 130.959 72.5078 131.456C72.1888 131.953 72.0293 132.566 72.0293 133.295V133.514ZM78.4893 139.844V138.764C78.6077 138.8 78.7399 138.83 78.8857 138.853C79.0316 138.875 79.1729 138.887 79.3096 138.887C79.6286 138.887 79.9066 138.766 80.1436 138.524C80.3805 138.287 80.6312 137.77 80.8955 136.973V136.966L78.2158 129.809H79.4463L81.1484 134.539C81.2122 134.721 81.2692 134.892 81.3193 135.052C81.3695 135.211 81.4128 135.359 81.4492 135.496H81.4902C81.5312 135.359 81.5768 135.211 81.627 135.052C81.6816 134.892 81.7386 134.721 81.7979 134.539L83.3838 129.809H84.5869L81.668 137.957C81.4401 138.595 81.137 139.092 80.7588 139.447C80.3851 139.803 79.9248 139.98 79.3779 139.98C79.1956 139.98 79.0339 139.969 78.8926 139.946C78.7513 139.924 78.6169 139.889 78.4893 139.844Z" fill="white"/>
<path d="M76.5 32.5L71 4" stroke="#E66AFF" stroke-width="2"/>
<path d="M85.5 33.5L87.5 9.5" stroke="#E66AFF" stroke-width="2"/>
<circle cx="59" cy="59" r="57" stroke="#BF26DE" stroke-width="4"/>
</svg>
