<svg width="118" height="138" viewBox="0 0 118 138" fill="none" xmlns="http://www.w3.org/2000/svg">
<circle cx="59" cy="59" r="57" stroke="#9097F2" stroke-width="4"/>
<path d="M41.2881 132.338V131.709C41.2881 130.178 41.68 128.984 42.4639 128.127C43.2523 127.27 44.2389 126.842 45.4238 126.842C46.6087 126.842 47.5361 127.168 48.2061 127.819C48.8805 128.466 49.2178 129.248 49.2178 130.164V130.232H47.9053V130.164C47.9053 129.531 47.7002 129.007 47.29 128.592C46.8799 128.173 46.2578 127.963 45.4238 127.963C44.6081 127.963 43.9359 128.271 43.4072 128.886C42.8786 129.501 42.6143 130.442 42.6143 131.709V132.338C42.6143 133.505 42.8763 134.421 43.4004 135.086C43.929 135.751 44.6035 136.084 45.4238 136.084C46.2077 136.084 46.8001 135.872 47.2012 135.448C47.6022 135.024 47.8346 134.503 47.8984 133.883L47.9053 133.814H49.2178L49.2109 133.883C49.1198 134.794 48.762 135.576 48.1377 136.228C47.5133 136.879 46.6087 137.205 45.4238 137.205C44.2389 137.205 43.2523 136.777 42.4639 135.92C41.68 135.063 41.2881 133.869 41.2881 132.338ZM50.8105 137V129.809H51.959L52.0137 130.731H52.0547C52.237 130.431 52.4762 130.169 52.7725 129.945C53.0687 129.717 53.4219 129.604 53.832 129.604C53.9323 129.604 54.0371 129.615 54.1465 129.638C54.2559 129.66 54.3333 129.681 54.3789 129.699V130.875C54.2878 130.857 54.1921 130.843 54.0918 130.834C53.9915 130.825 53.8822 130.82 53.7637 130.82C53.3535 130.82 53.0049 130.927 52.7178 131.142C52.4307 131.356 52.2188 131.622 52.082 131.941V137H50.8105ZM55.6572 137V129.809H56.9287V137H55.6572ZM55.5 127.635C55.5 127.421 55.5684 127.241 55.7051 127.095C55.8418 126.949 56.0378 126.876 56.293 126.876C56.5482 126.876 56.7441 126.949 56.8809 127.095C57.0176 127.241 57.0859 127.421 57.0859 127.635C57.0859 127.849 57.0176 128.029 56.8809 128.175C56.7441 128.321 56.5482 128.394 56.293 128.394C56.0378 128.394 55.8418 128.321 55.7051 128.175C55.5684 128.029 55.5 127.849 55.5 127.635ZM59.0137 137V129.809H60.1621L60.2168 130.731H60.2578C60.513 130.408 60.8206 130.15 61.1807 129.959C61.5452 129.768 61.9486 129.672 62.3906 129.672C62.8737 129.672 63.2907 129.768 63.6416 129.959C63.9925 130.15 64.2591 130.46 64.4414 130.889H64.4824C64.7832 130.46 65.1159 130.15 65.4805 129.959C65.8451 129.768 66.2643 129.672 66.7383 129.672C67.4857 129.672 68.069 129.879 68.4883 130.294C68.9076 130.704 69.1172 131.392 69.1172 132.358V137H67.8457V132.345C67.8457 131.771 67.7227 131.36 67.4766 131.114C67.2305 130.864 66.8818 130.738 66.4307 130.738C66.0387 130.738 65.6947 130.848 65.3984 131.066C65.1068 131.285 64.8743 131.568 64.7012 131.914V137H63.4297V132.345C63.4297 131.771 63.3066 131.36 63.0605 131.114C62.8145 130.864 62.4658 130.738 62.0146 130.738C61.6227 130.738 61.2786 130.848 60.9824 131.066C60.6908 131.285 60.4583 131.568 60.2852 131.914V137H59.0137ZM70.6416 133.514V133.295C70.6416 132.21 70.9378 131.324 71.5303 130.636C72.1273 129.948 72.9157 129.604 73.8955 129.604C74.8753 129.604 75.6296 129.925 76.1582 130.567C76.6868 131.21 76.9512 132.078 76.9512 133.172V133.691H71.4209V132.68H75.6729V132.516C75.6729 131.996 75.5247 131.554 75.2285 131.189C74.9323 130.825 74.5062 130.643 73.9502 130.643C73.2757 130.643 72.7721 130.9 72.4395 131.415C72.1068 131.925 71.9404 132.552 71.9404 133.295V133.514C71.9404 134.257 72.1159 134.885 72.4668 135.4C72.8177 135.911 73.3623 136.166 74.1006 136.166C74.5563 136.166 74.9482 136.066 75.2764 135.865C75.6045 135.665 75.8711 135.428 76.0762 135.154L76.8965 135.804C76.6686 136.146 76.3154 136.465 75.8369 136.761C75.363 137.057 74.7842 137.205 74.1006 137.205C72.984 137.205 72.1273 136.861 71.5303 136.173C70.9378 135.485 70.6416 134.598 70.6416 133.514Z" fill="white"/>
<path d="M48 57.5L35 64.5L40.5 77L12 90.5L23 101.5L34 110.5L59.5 116.5L86 110.5L105.5 92.5L79.5 77V62.5C80.3 56.9 74.8333 56.1667 72 56.5L71.5 43.5C73.1 28.3 64.1667 25.1666 59.5 25.5C48.7 26.7 47.3333 35.6666 48 40V57.5Z" fill="#9097F2" fill-opacity="0.3"/>
<path d="M53.2432 50V64H56.2432" stroke="white" stroke-width="2.40541"/>
<path d="M54.8447 105.5V74.919L76.4934 64.0947C77.4956 63.4933 79.5001 61.6893 79.5001 59.2839C79.5001 57.2094 77.2101 56.2799 75 56.1005H72" stroke="white" stroke-width="2.40541"/>
<path d="M79.5 82V59.6757" stroke="white" stroke-width="2.40541"/>
<path d="M48 57.5L35 65.0878L48 93.5" stroke="white" stroke-width="2.40541"/>
<path d="M31.0508 49H88" stroke="white" stroke-width="2.40541"/>
<mask id="path-9-inside-1_172_5624" fill="white">
<path d="M59.8115 24.2227C66.8867 24.2229 72.6221 29.9589 72.6221 37.0342V45.0654H47V37.0342C47 29.9588 52.7361 24.2227 59.8115 24.2227Z"/>
</mask>
<path d="M59.8115 24.2227L59.8116 21.8173H59.8115V24.2227ZM72.6221 45.0654V47.4708H75.0275V45.0654H72.6221ZM47 45.0654H44.5946V47.4708H47V45.0654ZM59.8115 24.2227L59.8114 26.6281C65.5581 26.6282 70.2167 31.2872 70.2167 37.0342H72.6221H75.0275C75.0275 28.6306 68.2154 21.8175 59.8116 21.8173L59.8115 24.2227ZM72.6221 37.0342H70.2167V45.0654H72.6221H75.0275V37.0342H72.6221ZM72.6221 45.0654V42.66H47V45.0654V47.4708H72.6221V45.0654ZM47 45.0654H49.4054V37.0342H47H44.5946V45.0654H47ZM47 37.0342H49.4054C49.4054 31.2873 54.0646 26.6281 59.8115 26.6281V24.2227V21.8173C51.4077 21.8173 44.5946 28.6303 44.5946 37.0342H47Z" fill="white" mask="url(#path-9-inside-1_172_5624)"/>
<path d="M51 68.5H58" stroke="white" stroke-width="2"/>
<path d="M48 42V73.5H51" stroke="white" stroke-width="2"/>
<path d="M72 61.5V49" stroke="white" stroke-width="2"/>
<path d="M39.5 76.5L28.2412 83" stroke="white" stroke-width="2"/>
<path d="M79 76.5L95 86.5" stroke="white" stroke-width="2"/>
</svg>
