<svg width="118" height="140" viewBox="0 0 118 140" fill="none" xmlns="http://www.w3.org/2000/svg">
<circle cx="59" cy="59" r="57" stroke="#70DD79" stroke-width="4"/>
<circle cx="59" cy="61" r="22" fill="#70DD79" fill-opacity="0.4" stroke="#9DFFA5" stroke-width="2"/>
<path d="M37.5 56.5L42 60.7423C42.3261 61.5525 45.2369 62.6867 44 65.5C44.1223 66.5127 44.9923 67.9608 46.949 68.6413C47.4381 68.8034 48.3186 70.0267 47.9273 73.6238C47.536 77.2208 49.5578 78.0391 50.6177 77.9986C51.0661 77.7555 51.9384 76.5403 51.8406 73.6238C52.9412 72.8541 55.2159 71.0475 55.5094 69.9781C56.3246 69.0059 57.7595 66.5997 56.9769 64.7526C55.9578 64.3475 53.9196 63.3672 53.9196 62.6867C53.9196 61.836 49.425 59.5271 46.949 60.7423L45.726 58.5549L44.6254 57.7043C43.9324 56.9346 43.0845 55.2495 45.2369 54.6662C46.5413 54.9092 49.1991 54.9092 49.3948 52.9649C49.5171 52.2762 50.1774 50.7775 51.8406 50.2914C52.8189 50.1698 54.6044 49.3678 53.9196 47.1318C52.8189 46.4026 50.74 44.5555 51.2292 43M69.5729 44.3368C67.6162 44.3368 67.1271 45.39 67.1271 45.9165C67.1271 47.0913 66.9559 49.4407 66.271 49.4407C65.5862 49.4407 64.6812 50.737 64.3144 51.3851C64.3144 53.8155 66.1895 53.856 67.1271 53.5725C69.3772 51.8226 72.4671 52.8434 73.7308 53.5725C74.5135 55.2252 73.4047 56.0435 72.7525 56.246H67.1271C63.9964 55.9543 63.0507 58.3119 62.9691 59.5271C62.9691 62.3464 63.866 63.7804 64.3144 64.145C65.6596 65.6438 68.8881 68.6413 71.0404 68.6413C73.7308 68.6413 73.7308 71.6794 73.7308 73.6238" stroke="#9DFFA5" stroke-width="2"/>
<path d="M18.6543 137V127.047H21.6074C22.8835 127.047 23.9453 127.468 24.793 128.312C25.6452 129.155 26.0713 130.287 26.0713 131.709V132.338C26.0713 133.76 25.6452 134.892 24.793 135.735C23.9453 136.578 22.8835 137 21.6074 137H18.6543ZM19.9668 135.92H21.6074C22.5645 135.92 23.3255 135.603 23.8906 134.97C24.4603 134.336 24.7451 133.459 24.7451 132.338V131.709C24.7451 130.588 24.4603 129.711 23.8906 129.077C23.3255 128.444 22.5645 128.127 21.6074 128.127H19.9668V135.92ZM27.4385 133.514V133.295C27.4385 132.21 27.7461 131.324 28.3613 130.636C28.9766 129.948 29.7992 129.604 30.8291 129.604C31.859 129.604 32.6816 129.948 33.2969 130.636C33.9121 131.324 34.2197 132.21 34.2197 133.295V133.514C34.2197 134.598 33.9121 135.485 33.2969 136.173C32.6816 136.861 31.859 137.205 30.8291 137.205C29.7992 137.205 28.9766 136.861 28.3613 136.173C27.7461 135.485 27.4385 134.598 27.4385 133.514ZM28.7373 133.295V133.514C28.7373 134.257 28.9128 134.885 29.2637 135.4C29.6146 135.911 30.1364 136.166 30.8291 136.166C31.5218 136.166 32.0436 135.911 32.3945 135.4C32.7454 134.885 32.9209 134.257 32.9209 133.514V133.295C32.9209 132.552 32.7454 131.925 32.3945 131.415C32.0436 130.9 31.5218 130.643 30.8291 130.643C30.1364 130.643 29.6146 130.9 29.2637 131.415C28.9128 131.925 28.7373 132.552 28.7373 133.295ZM35.3818 133.514V133.295C35.3818 132.21 35.6758 131.324 36.2637 130.636C36.8561 129.948 37.6696 129.604 38.7041 129.604C39.6611 129.604 40.388 129.863 40.8848 130.383C41.3815 130.898 41.6299 131.474 41.6299 132.112V132.146H40.3994V132.112C40.3994 131.725 40.265 131.383 39.9961 131.087C39.7272 130.791 39.2965 130.643 38.7041 130.643C38.0114 130.643 37.501 130.9 37.1729 131.415C36.8447 131.925 36.6807 132.552 36.6807 133.295V133.514C36.6807 134.257 36.8447 134.885 37.1729 135.4C37.501 135.911 38.0114 136.166 38.7041 136.166C39.2965 136.166 39.7272 136.018 39.9961 135.722C40.265 135.425 40.3994 135.084 40.3994 134.696V134.662H41.6299V134.696C41.6299 135.334 41.3815 135.913 40.8848 136.433C40.388 136.948 39.6611 137.205 38.7041 137.205C37.6696 137.205 36.8561 136.861 36.2637 136.173C35.6758 135.485 35.3818 134.598 35.3818 133.514ZM43.0449 134.45V129.809H44.3164V134.464C44.3164 135.038 44.444 135.451 44.6992 135.701C44.959 135.947 45.3258 136.07 45.7998 136.07C46.2054 136.07 46.5632 135.961 46.873 135.742C47.1829 135.523 47.4245 135.241 47.5977 134.895V129.809H48.8691V137H47.7207L47.666 136.077H47.625C47.3652 136.405 47.0462 136.665 46.668 136.856C46.2943 137.043 45.8796 137.137 45.4238 137.137C44.6992 137.137 44.1204 136.932 43.6875 136.521C43.2591 136.107 43.0449 135.416 43.0449 134.45ZM50.8926 137V129.809H52.041L52.0957 130.731H52.1367C52.3919 130.408 52.6995 130.15 53.0596 129.959C53.4242 129.768 53.8275 129.672 54.2695 129.672C54.7526 129.672 55.1696 129.768 55.5205 129.959C55.8714 130.15 56.138 130.46 56.3203 130.889H56.3613C56.6621 130.46 56.9948 130.15 57.3594 129.959C57.724 129.768 58.1432 129.672 58.6172 129.672C59.3646 129.672 59.9479 129.879 60.3672 130.294C60.7865 130.704 60.9961 131.392 60.9961 132.358V137H59.7246V132.345C59.7246 131.771 59.6016 131.36 59.3555 131.114C59.1094 130.864 58.7607 130.738 58.3096 130.738C57.9176 130.738 57.5736 130.848 57.2773 131.066C56.9857 131.285 56.7533 131.568 56.5801 131.914V137H55.3086V132.345C55.3086 131.771 55.1855 131.36 54.9395 131.114C54.6934 130.864 54.3447 130.738 53.8936 130.738C53.5016 130.738 53.1576 130.848 52.8613 131.066C52.5697 131.285 52.3372 131.568 52.1641 131.914V137H50.8926ZM62.5205 133.514V133.295C62.5205 132.21 62.8167 131.324 63.4092 130.636C64.0062 129.948 64.7946 129.604 65.7744 129.604C66.7542 129.604 67.5085 129.925 68.0371 130.567C68.5658 131.21 68.8301 132.078 68.8301 133.172V133.691H63.2998V132.68H67.5518V132.516C67.5518 131.996 67.4036 131.554 67.1074 131.189C66.8112 130.825 66.3851 130.643 65.8291 130.643C65.1546 130.643 64.651 130.9 64.3184 131.415C63.9857 131.925 63.8193 132.552 63.8193 133.295V133.514C63.8193 134.257 63.9948 134.885 64.3457 135.4C64.6966 135.911 65.2412 136.166 65.9795 136.166C66.4352 136.166 66.8271 136.066 67.1553 135.865C67.4834 135.665 67.75 135.428 67.9551 135.154L68.7754 135.804C68.5475 136.146 68.1943 136.465 67.7158 136.761C67.2419 137.057 66.6631 137.205 65.9795 137.205C64.863 137.205 64.0062 136.861 63.4092 136.173C62.8167 135.485 62.5205 134.598 62.5205 133.514ZM70.3887 137V129.809H71.5371L71.5918 130.731H71.6328C71.8926 130.403 72.2093 130.146 72.583 129.959C72.9613 129.768 73.3783 129.672 73.834 129.672C74.5586 129.672 75.1351 129.879 75.5635 130.294C75.9964 130.704 76.2129 131.392 76.2129 132.358V137H74.9414V132.345C74.9414 131.771 74.8115 131.36 74.5518 131.114C74.2965 130.864 73.932 130.738 73.458 130.738C73.0524 130.738 72.6947 130.848 72.3848 131.066C72.0749 131.285 71.8333 131.568 71.6602 131.914V137H70.3887ZM77.1562 130.779V129.809H81.2578V130.779H77.1562ZM78.4414 135.223V130.396V130.191V128.031H79.7129V135.223C79.7129 135.542 79.7767 135.77 79.9043 135.906C80.0319 136.043 80.2324 136.111 80.5059 136.111C80.6335 136.111 80.7588 136.098 80.8818 136.07C81.0049 136.043 81.1302 136.007 81.2578 135.961V137C81.1393 137.055 80.9844 137.103 80.793 137.144C80.6016 137.185 80.3919 137.205 80.1641 137.205C79.64 137.205 79.2207 137.046 78.9062 136.727C78.5964 136.408 78.4414 135.906 78.4414 135.223ZM82.2148 134.881C82.2148 134.152 82.5042 133.584 83.083 133.179C83.6618 132.773 84.3978 132.57 85.291 132.57H86.918V132.078C86.918 131.645 86.8063 131.294 86.583 131.025C86.3597 130.752 85.9746 130.615 85.4277 130.615C84.8809 130.615 84.4889 130.729 84.252 130.957C84.0195 131.18 83.9033 131.44 83.9033 131.736V131.771H82.6387V131.736C82.6387 131.167 82.8916 130.67 83.3975 130.246C83.9079 129.818 84.596 129.604 85.4619 129.604C86.3278 129.604 86.9977 129.811 87.4717 130.226C87.9502 130.64 88.1895 131.258 88.1895 132.078V135.359C88.1895 135.656 88.2122 135.936 88.2578 136.2C88.3034 136.46 88.3672 136.69 88.4492 136.891V137H87.2188C87.1549 136.886 87.0957 136.738 87.041 136.556C86.9909 136.373 86.959 136.191 86.9453 136.009C86.7767 136.305 86.5033 136.567 86.125 136.795C85.7513 137.023 85.2682 137.137 84.6758 137.137C83.9922 137.137 83.4111 136.943 82.9326 136.556C82.4541 136.168 82.2148 135.61 82.2148 134.881ZM83.4863 134.812C83.4863 135.223 83.6048 135.544 83.8418 135.776C84.0788 136.009 84.4479 136.125 84.9492 136.125C85.4505 136.125 85.904 135.952 86.3096 135.605C86.7152 135.259 86.918 134.892 86.918 134.505V133.473H85.4277C84.7897 133.473 84.3066 133.593 83.9785 133.835C83.6504 134.076 83.4863 134.402 83.4863 134.812ZM90.1719 137V129.809H91.3203L91.375 130.731H91.416C91.5983 130.431 91.8376 130.169 92.1338 129.945C92.43 129.717 92.7832 129.604 93.1934 129.604C93.2936 129.604 93.3984 129.615 93.5078 129.638C93.6172 129.66 93.6947 129.681 93.7402 129.699V130.875C93.6491 130.857 93.5534 130.843 93.4531 130.834C93.3529 130.825 93.2435 130.82 93.125 130.82C92.7148 130.82 92.3662 130.927 92.0791 131.142C91.792 131.356 91.5801 131.622 91.4434 131.941V137H90.1719ZM94.4102 139.844V138.764C94.5286 138.8 94.6608 138.83 94.8066 138.853C94.9525 138.875 95.0938 138.887 95.2305 138.887C95.5495 138.887 95.8275 138.766 96.0645 138.524C96.3014 138.287 96.5521 137.77 96.8164 136.973V136.966L94.1367 129.809H95.3672L97.0693 134.539C97.1331 134.721 97.1901 134.892 97.2402 135.052C97.2904 135.211 97.3337 135.359 97.3701 135.496H97.4111C97.4521 135.359 97.4977 135.211 97.5479 135.052C97.6025 134.892 97.6595 134.721 97.7188 134.539L99.3047 129.809H100.508L97.5889 137.957C97.361 138.595 97.0579 139.092 96.6797 139.447C96.306 139.803 95.8457 139.98 95.2988 139.98C95.1165 139.98 94.9548 139.969 94.8135 139.946C94.6722 139.924 94.5378 139.889 94.4102 139.844Z" fill="white"/>
<path d="M36 37H24V49" stroke="#9DFFA5" stroke-width="2"/>
<path d="M80 88L92 88L92 76" stroke="#9DFFA5" stroke-width="2"/>
<path d="M80 37H92V49" stroke="#9DFFA5" stroke-width="2"/>
<path d="M36 88L24 88L24 76" stroke="#9DFFA5" stroke-width="2"/>
</svg>
