<svg width="118" height="139" viewBox="0 0 118 139" fill="none" xmlns="http://www.w3.org/2000/svg">
<path d="M41.7666 138H38.6246V127.818H41.9058C42.8935 127.818 43.7387 128.022 44.4413 128.43C45.144 128.834 45.6826 129.416 46.0571 130.175C46.4316 130.93 46.6189 131.835 46.6189 132.889C46.6189 133.95 46.43 134.863 46.0521 135.629C45.6743 136.391 45.1241 136.978 44.4015 137.388C43.679 137.796 42.8007 138 41.7666 138ZM39.8575 136.906H41.6871C42.5289 136.906 43.2266 136.744 43.7801 136.419C44.3336 136.094 44.7462 135.632 45.018 135.032C45.2898 134.432 45.4257 133.718 45.4257 132.889C45.4257 132.067 45.2915 131.36 45.023 130.766C44.7545 130.17 44.3535 129.712 43.8199 129.394C43.2863 129.073 42.6217 128.912 41.8263 128.912H39.8575V136.906ZM48.528 138V130.364H49.6615V131.517H49.741C49.8802 131.139 50.1321 130.833 50.4967 130.597C50.8613 130.362 51.2723 130.244 51.7297 130.244C51.8158 130.244 51.9236 130.246 52.0528 130.249C52.1821 130.253 52.2799 130.258 52.3461 130.264V131.457C52.3064 131.447 52.2152 131.433 52.0727 131.413C51.9335 131.389 51.786 131.378 51.6302 131.378C51.259 131.378 50.9276 131.456 50.6359 131.612C50.3476 131.764 50.1189 131.976 49.9498 132.248C49.7841 132.516 49.7013 132.823 49.7013 133.168V138H48.528ZM55.9841 138.179C55.5002 138.179 55.0611 138.088 54.6666 137.906C54.2722 137.72 53.959 137.453 53.727 137.105C53.495 136.754 53.379 136.33 53.379 135.832C53.379 135.395 53.4652 135.04 53.6375 134.768C53.8099 134.493 54.0402 134.278 54.3286 134.122C54.6169 133.966 54.9351 133.85 55.2831 133.774C55.6344 133.695 55.9874 133.632 56.3421 133.585C56.8061 133.526 57.1823 133.481 57.4706 133.451C57.7623 133.418 57.9744 133.363 58.107 133.287C58.2429 133.211 58.3108 133.078 58.3108 132.889V132.849C58.3108 132.359 58.1766 131.978 57.9081 131.706C57.643 131.434 57.2403 131.298 56.7 131.298C56.1399 131.298 55.7007 131.421 55.3825 131.666C55.0644 131.911 54.8406 132.173 54.7114 132.452L53.5977 132.054C53.7966 131.59 54.0618 131.229 54.3932 130.97C54.728 130.708 55.0925 130.526 55.4869 130.423C55.8847 130.317 56.2758 130.264 56.6602 130.264C56.9055 130.264 57.1872 130.294 57.5054 130.354C57.8269 130.41 58.1368 130.528 58.4351 130.707C58.7367 130.886 58.9869 131.156 59.1858 131.517C59.3847 131.878 59.4841 132.362 59.4841 132.969V138H58.3108V136.966H58.2512C58.1716 137.132 58.039 137.309 57.8534 137.498C57.6678 137.687 57.4209 137.848 57.1127 137.98C56.8044 138.113 56.4282 138.179 55.9841 138.179ZM56.1631 137.125C56.6271 137.125 57.0182 137.034 57.3364 136.852C57.6579 136.669 57.8998 136.434 58.0622 136.146C58.228 135.857 58.3108 135.554 58.3108 135.236V134.162C58.2611 134.222 58.1517 134.276 57.9827 134.326C57.817 134.372 57.6247 134.414 57.406 134.45C57.1905 134.483 56.9801 134.513 56.7746 134.54C56.5724 134.563 56.4084 134.583 56.2824 134.599C55.9775 134.639 55.6924 134.704 55.4273 134.793C55.1655 134.879 54.9533 135.01 54.7909 135.186C54.6318 135.358 54.5523 135.594 54.5523 135.892C54.5523 136.3 54.7031 136.608 55.0047 136.817C55.3096 137.022 55.6958 137.125 56.1631 137.125ZM61.6256 138V130.364H62.7591V131.557H62.8586C63.0177 131.149 63.2745 130.833 63.6292 130.607C63.9838 130.379 64.4097 130.264 64.9069 130.264C65.4107 130.264 65.8299 130.379 66.1647 130.607C66.5028 130.833 66.7662 131.149 66.9552 131.557H67.0347C67.2303 131.162 67.5236 130.849 67.9147 130.617C68.3058 130.382 68.7748 130.264 69.3216 130.264C70.0044 130.264 70.5629 130.478 70.9971 130.906C71.4313 131.33 71.6483 131.991 71.6483 132.889V138H70.4751V132.889C70.4751 132.326 70.3209 131.923 70.0127 131.681C69.7045 131.439 69.3415 131.318 68.9239 131.318C68.387 131.318 67.971 131.481 67.676 131.805C67.3811 132.127 67.2336 132.535 67.2336 133.028V138H66.0404V132.77C66.0404 132.336 65.8995 131.986 65.6178 131.721C65.3361 131.452 64.9732 131.318 64.529 131.318C64.2241 131.318 63.9391 131.399 63.6739 131.562C63.4121 131.724 63.2 131.95 63.0376 132.238C62.8785 132.523 62.7989 132.853 62.7989 133.227V138H61.6256ZM76.0407 138.179C75.5568 138.179 75.1177 138.088 74.7233 137.906C74.3289 137.72 74.0157 137.453 73.7836 137.105C73.5516 136.754 73.4356 136.33 73.4356 135.832C73.4356 135.395 73.5218 135.04 73.6942 134.768C73.8665 134.493 74.0969 134.278 74.3852 134.122C74.6736 133.966 74.9917 133.85 75.3398 133.774C75.6911 133.695 76.0441 133.632 76.3987 133.585C76.8627 133.526 77.2389 133.481 77.5273 133.451C77.8189 133.418 78.031 133.363 78.1636 133.287C78.2995 133.211 78.3675 133.078 78.3675 132.889V132.849C78.3675 132.359 78.2332 131.978 77.9648 131.706C77.6996 131.434 77.2969 131.298 76.7567 131.298C76.1965 131.298 75.7574 131.421 75.4392 131.666C75.121 131.911 74.8973 132.173 74.768 132.452L73.6544 132.054C73.8532 131.59 74.1184 131.229 74.4498 130.97C74.7846 130.708 75.1492 130.526 75.5436 130.423C75.9413 130.317 76.3324 130.264 76.7169 130.264C76.9622 130.264 77.2439 130.294 77.5621 130.354C77.8836 130.41 78.1934 130.528 78.4917 130.707C78.7934 130.886 79.0436 131.156 79.2425 131.517C79.4413 131.878 79.5407 132.362 79.5407 132.969V138H78.3675V136.966H78.3078C78.2282 137.132 78.0957 137.309 77.9101 137.498C77.7245 137.687 77.4775 137.848 77.1693 137.98C76.8611 138.113 76.4849 138.179 76.0407 138.179ZM76.2197 137.125C76.6837 137.125 77.0748 137.034 77.393 136.852C77.7145 136.669 77.9565 136.434 78.1189 136.146C78.2846 135.857 78.3675 135.554 78.3675 135.236V134.162C78.3177 134.222 78.2084 134.276 78.0393 134.326C77.8736 134.372 77.6814 134.414 77.4626 134.45C77.2472 134.483 77.0367 134.513 76.8312 134.54C76.6291 134.563 76.465 134.583 76.339 134.599C76.0341 134.639 75.7491 134.704 75.4839 134.793C75.2221 134.879 75.01 135.01 74.8476 135.186C74.6885 135.358 74.6089 135.594 74.6089 135.892C74.6089 136.3 74.7597 136.608 75.0613 136.817C75.3663 137.022 75.7524 137.125 76.2197 137.125Z" fill="white"/>
<path d="M46.2548 78.5647C45.4638 72.2668 48.2651 71.0443 53.9815 70.3263L54.1877 69.5055" stroke="white" stroke-width="2"/>
<path d="M40.5 66.9999H55L57 59.5L60.5 57.9999L62 61L60.5 70H62L70 55.5H73.5L74.5 59.5L67.5 72L89.5 65L93.5 59.5L95 49.9999C98.6 30.7999 82.1667 22.9999 73.5 21.4999C55.5 21.0999 49.6667 32.9999 49 38.9999L46.5 47.9999L43.5 49.9999V57.9999L40.5 66.9999Z" fill="#3077F2" fill-opacity="0.4"/>
<path d="M53.8555 70.4929L56.6022 60.4493C57.0328 58.893 58.6435 57.9804 60.1998 58.411C61.7561 58.8416 62.6687 60.4523 62.2382 62.0086L59.8435 70.6639" stroke="white" stroke-width="2"/>
<path d="M61.6291 71.5678L68.6574 56.67C69.355 55.2136 71.101 54.5984 72.5574 55.2959C74.0138 55.9935 74.629 57.7395 73.9314 59.1959L67.9532 70.7735" stroke="white" stroke-width="2"/>
<path d="M80.1792 75.2856L88.6333 72.2567C90.1535 71.712 90.9443 70.0381 90.3997 68.518C89.855 66.9978 88.1812 66.207 86.661 66.7516L68.6698 71.8727L67.1561 72.4525L69.572 67.6137" stroke="white" stroke-width="2"/>
<path d="M81.0001 75.0001L50.5446 86.2526C46.5003 88.0001 41.6352 93.3096 39.7601 96.5141L35.0003 107L34.0001 110" stroke="white" stroke-width="2"/>
<path d="M54.0002 67L40.5 67.5L44 57L43.367 50.0411C44.6628 49.6257 47.3374 48.4158 47.6691 46.8991" stroke="white" stroke-width="2"/>
<path d="M83.9999 67.5C93.4823 65.8405 94.6919 58.7581 95.7786 48.7082C97.0952 36.5332 88.2903 23.4442 76.1153 22.1276C68.1525 20.6724 51.6952 23.4651 49.5589 37.6702L47.5 47.5" stroke="white" stroke-width="2"/>
<path d="M71.7152 39.3131C69.6966 41.9438 66.8691 47.6422 71.7085 49.391C76.548 51.1399 78.6241 51.7893 79.0572 51.8954" stroke="white" stroke-width="2"/>
<path d="M19 97.5L46.0001 67.5" stroke="white" stroke-width="2"/>
<path d="M51 66.5V61" stroke="white" stroke-width="2"/>
<path d="M46 66.5V61" stroke="white" stroke-width="2"/>
<circle cx="59" cy="59" r="57" stroke="#3077F2" stroke-width="4"/>
<path d="M58.9039 45.4134C57.7359 50.5298 55.7155 50.327 53.2926 49.7738C50.8697 49.2206 52.3359 46.917 53.0121 43.9557C53.6882 40.9943 53.3181 38.4965 55.7411 39.0497C58.164 39.6029 59.4423 43.0553 58.9039 45.4134Z" fill="white"/>
</svg>
