<svg width="118" height="137" viewBox="0 0 118 137" fill="none" xmlns="http://www.w3.org/2000/svg">
<circle cx="59" cy="59" r="57" stroke="#3077F2" stroke-width="4"/>
<path d="M44.2285 136H41.5353V127.273H44.3478C45.1944 127.273 45.9189 127.447 46.5211 127.797C47.1234 128.143 47.585 128.642 47.9061 129.293C48.2271 129.94 48.3876 130.716 48.3876 131.619C48.3876 132.528 48.2257 133.311 47.9018 133.967C47.5779 134.621 47.1064 135.124 46.487 135.476C45.8677 135.825 45.1149 136 44.2285 136ZM42.5922 135.062H44.1603C44.8819 135.062 45.4799 134.923 45.9544 134.645C46.4288 134.366 46.7825 133.97 47.0154 133.456C47.2484 132.942 47.3649 132.33 47.3649 131.619C47.3649 130.915 47.2498 130.308 47.0197 129.8C46.7896 129.288 46.4458 128.896 45.9885 128.624C45.5311 128.348 44.9615 128.21 44.2797 128.21H42.5922V135.062ZM50.024 136V129.455H50.9956V130.443H51.0637C51.1831 130.119 51.399 129.857 51.7115 129.655C52.024 129.453 52.3762 129.352 52.7683 129.352C52.8422 129.352 52.9345 129.354 53.0453 129.357C53.1561 129.359 53.2399 129.364 53.2967 129.369V130.392C53.2626 130.384 53.1845 130.371 53.0623 130.354C52.943 130.334 52.8166 130.324 52.6831 130.324C52.3649 130.324 52.0808 130.391 51.8308 130.524C51.5836 130.655 51.3876 130.837 51.2427 131.07C51.1007 131.3 51.0297 131.562 51.0297 131.858V136H50.024ZM56.415 136.153C56.0002 136.153 55.6238 136.075 55.2857 135.919C54.9476 135.76 54.6792 135.531 54.4803 135.233C54.2814 134.932 54.182 134.568 54.182 134.142C54.182 133.767 54.2559 133.463 54.4036 133.23C54.5513 132.994 54.7488 132.81 54.9959 132.676C55.2431 132.543 55.5158 132.443 55.8141 132.378C56.1152 132.31 56.4178 132.256 56.7218 132.216C57.1195 132.165 57.4419 132.126 57.6891 132.101C57.9391 132.072 58.1209 132.026 58.2346 131.96C58.351 131.895 58.4093 131.781 58.4093 131.619V131.585C58.4093 131.165 58.2942 130.838 58.0641 130.605C57.8368 130.372 57.4917 130.256 57.0286 130.256C56.5485 130.256 56.1721 130.361 55.8993 130.571C55.6266 130.781 55.4348 131.006 55.324 131.244L54.3695 130.903C54.54 130.506 54.7672 130.196 55.0513 129.974C55.3382 129.75 55.6507 129.594 55.9888 129.506C56.3297 129.415 56.665 129.369 56.9945 129.369C57.2047 129.369 57.4462 129.395 57.7189 129.446C57.9945 129.494 58.2601 129.595 58.5158 129.749C58.7743 129.902 58.9888 130.134 59.1593 130.443C59.3297 130.753 59.415 131.168 59.415 131.688V136H58.4093V135.114H58.3581C58.29 135.256 58.1763 135.408 58.0172 135.57C57.8581 135.732 57.6465 135.869 57.3823 135.983C57.1181 136.097 56.7956 136.153 56.415 136.153ZM56.5684 135.25C56.9661 135.25 57.3013 135.172 57.574 135.016C57.8496 134.859 58.057 134.658 58.1962 134.411C58.3382 134.163 58.4093 133.903 58.4093 133.631V132.71C58.3667 132.761 58.2729 132.808 58.128 132.851C57.986 132.891 57.8212 132.926 57.6337 132.957C57.449 132.986 57.2686 133.011 57.0925 133.034C56.9192 133.054 56.7786 133.071 56.6706 133.085C56.4093 133.119 56.165 133.175 55.9377 133.251C55.7132 133.325 55.5314 133.437 55.3922 133.588C55.2559 133.736 55.1877 133.937 55.1877 134.193C55.1877 134.543 55.3169 134.807 55.5755 134.986C55.8368 135.162 56.1678 135.25 56.5684 135.25ZM61.2505 136V129.455H62.2221V130.477H62.3074C62.4437 130.128 62.6639 129.857 62.9679 129.663C63.2718 129.467 63.6369 129.369 64.063 129.369C64.4949 129.369 64.8542 129.467 65.1412 129.663C65.4309 129.857 65.6568 130.128 65.8187 130.477H65.8869C66.0545 130.139 66.3059 129.871 66.6412 129.672C66.9764 129.47 67.3784 129.369 67.8471 129.369C68.4324 129.369 68.911 129.553 69.2832 129.919C69.6554 130.283 69.8414 130.849 69.8414 131.619V136H68.8358V131.619C68.8358 131.136 68.7037 130.791 68.4395 130.584C68.1752 130.376 67.8642 130.273 67.5062 130.273C67.046 130.273 66.6895 130.412 66.4366 130.69C66.1838 130.966 66.0574 131.315 66.0574 131.739V136H65.0346V131.517C65.0346 131.145 64.9139 130.845 64.6724 130.618C64.4309 130.388 64.1199 130.273 63.7392 130.273C63.4778 130.273 63.2335 130.342 63.0062 130.482C62.7818 130.621 62.6 130.814 62.4608 131.061C62.3244 131.305 62.2562 131.588 62.2562 131.909V136H61.2505ZM73.6064 136.153C73.1916 136.153 72.8152 136.075 72.4771 135.919C72.139 135.76 71.8706 135.531 71.6717 135.233C71.4728 134.932 71.3734 134.568 71.3734 134.142C71.3734 133.767 71.4473 133.463 71.595 133.23C71.7427 132.994 71.9402 132.81 72.1873 132.676C72.4345 132.543 72.7072 132.443 73.0055 132.378C73.3066 132.31 73.6092 132.256 73.9132 132.216C74.3109 132.165 74.6333 132.126 74.8805 132.101C75.1305 132.072 75.3123 132.026 75.426 131.96C75.5424 131.895 75.6007 131.781 75.6007 131.619V131.585C75.6007 131.165 75.4856 130.838 75.2555 130.605C75.0282 130.372 74.6831 130.256 74.22 130.256C73.7399 130.256 73.3635 130.361 73.0907 130.571C72.818 130.781 72.6262 131.006 72.5154 131.244L71.5609 130.903C71.7314 130.506 71.9586 130.196 72.2427 129.974C72.5297 129.75 72.8422 129.594 73.1802 129.506C73.5211 129.415 73.8564 129.369 74.1859 129.369C74.3961 129.369 74.6376 129.395 74.9103 129.446C75.1859 129.494 75.4515 129.595 75.7072 129.749C75.9657 129.902 76.1802 130.134 76.3507 130.443C76.5211 130.753 76.6064 131.168 76.6064 131.688V136H75.6007V135.114H75.5495C75.4814 135.256 75.3677 135.408 75.2086 135.57C75.0495 135.732 74.8379 135.869 74.5737 135.983C74.3095 136.097 73.987 136.153 73.6064 136.153ZM73.7598 135.25C74.1575 135.25 74.4927 135.172 74.7654 135.016C75.041 134.859 75.2484 134.658 75.3876 134.411C75.5297 134.163 75.6007 133.903 75.6007 133.631V132.71C75.5581 132.761 75.4643 132.808 75.3194 132.851C75.1774 132.891 75.0126 132.926 74.8251 132.957C74.6404 132.986 74.46 133.011 74.2839 133.034C74.1106 133.054 73.97 133.071 73.862 133.085C73.6007 133.119 73.3564 133.175 73.1291 133.251C72.9047 133.325 72.7228 133.437 72.5836 133.588C72.4473 133.736 72.3791 133.937 72.3791 134.193C72.3791 134.543 72.5083 134.807 72.7669 134.986C73.0282 135.162 73.3592 135.25 73.7598 135.25Z" fill="white"/>
<path d="M46.2548 78.5647C45.4638 72.2668 48.2651 71.0443 53.9815 70.3263L54.1877 69.5055" stroke="white" stroke-width="2"/>
<path d="M40.5 66.9999H55L57 59.5L60.5 57.9999L62 61L60.5 70H62L70 55.5H73.5L74.5 59.5L67.5 72L89.5 65L93.5 59.5L95 49.9999C98.6 30.7999 82.1667 22.9999 73.5 21.4999C55.5 21.0999 49.6667 32.9999 49 38.9999L46.5 47.9999L43.5 49.9999V57.9999L40.5 66.9999Z" fill="#3077F2" fill-opacity="0.4"/>
<path d="M53.8555 70.4929L56.6022 60.4493C57.0328 58.893 58.6435 57.9804 60.1998 58.411C61.7561 58.8416 62.6687 60.4523 62.2382 62.0086L59.8435 70.6639" stroke="white" stroke-width="2"/>
<path d="M61.6291 71.5678L68.6574 56.67C69.355 55.2136 71.101 54.5984 72.5574 55.2959C74.0138 55.9935 74.629 57.7395 73.9314 59.1959L67.9532 70.7735" stroke="white" stroke-width="2"/>
<path d="M80.1792 75.2856L88.6333 72.2567C90.1535 71.712 90.9443 70.0381 90.3997 68.518C89.855 66.9978 88.1812 66.207 86.661 66.7516L68.6698 71.8727L67.1561 72.4525L69.572 67.6137" stroke="white" stroke-width="2"/>
<path d="M81 75L50.5444 86.2526C46.5002 88 41.635 93.3096 39.7599 96.5141L35.0002 107" stroke="white" stroke-width="2"/>
<path d="M54.0002 67L40.5 67.5L44 57L43.367 50.0411C44.6628 49.6257 47.3374 48.4158 47.6691 46.8991" stroke="white" stroke-width="2"/>
<path d="M83.9999 67.5C93.4823 65.8405 94.6919 58.7581 95.7786 48.7082C97.0952 36.5332 88.2903 23.4442 76.1153 22.1276C68.1525 20.6724 51.6952 23.4651 49.5589 37.6702L47.5 47.5" stroke="white" stroke-width="2"/>
<path d="M71.7152 39.3131C69.6966 41.9438 66.8691 47.6422 71.7085 49.391C76.548 51.1399 78.6241 51.7893 79.0572 51.8954" stroke="white" stroke-width="2"/>
<path d="M20.4997 95.4997L46 67.5" stroke="white" stroke-width="2"/>
<ellipse cx="56.5" cy="43.5" rx="4.5" ry="5.5" transform="rotate(7.96168 56.5 43.5)" fill="white"/>
<path d="M51 66.5V61" stroke="white" stroke-width="2"/>
<path d="M46 66.5V61" stroke="white" stroke-width="2"/>
</svg>
