<svg width="118" height="139" viewBox="0 0 118 139" fill="none" xmlns="http://www.w3.org/2000/svg">
<circle cx="59" cy="59" r="57" stroke="#E9D447" stroke-width="4"/>
<path d="M41.7521 136V127.273H46.9851V128.21H42.8089V131.159H46.593V132.097H42.8089V136H41.7521ZM50.5849 136.153C50.1701 136.153 49.7937 136.075 49.4556 135.919C49.1175 135.76 48.8491 135.531 48.6502 135.233C48.4513 134.932 48.3519 134.568 48.3519 134.142C48.3519 133.767 48.4258 133.463 48.5735 133.23C48.7212 132.994 48.9187 132.81 49.1658 132.676C49.413 132.543 49.6857 132.443 49.984 132.378C50.2852 132.31 50.5877 132.256 50.8917 132.216C51.2894 132.165 51.6119 132.126 51.859 132.101C52.109 132.072 52.2908 132.026 52.4045 131.96C52.521 131.895 52.5792 131.781 52.5792 131.619V131.585C52.5792 131.165 52.4641 130.838 52.234 130.605C52.0067 130.372 51.6616 130.256 51.1985 130.256C50.7184 130.256 50.342 130.361 50.0692 130.571C49.7965 130.781 49.6048 131.006 49.494 131.244L48.5394 130.903C48.7099 130.506 48.9371 130.196 49.2212 129.974C49.5082 129.75 49.8207 129.594 50.1587 129.506C50.4996 129.415 50.8349 129.369 51.1644 129.369C51.3746 129.369 51.6161 129.395 51.8888 129.446C52.1644 129.494 52.43 129.595 52.6857 129.749C52.9442 129.902 53.1587 130.134 53.3292 130.443C53.4996 130.753 53.5849 131.168 53.5849 131.688V136H52.5792V135.114H52.5281C52.4599 135.256 52.3462 135.408 52.1871 135.57C52.0281 135.732 51.8164 135.869 51.5522 135.983C51.288 136.097 50.9656 136.153 50.5849 136.153ZM50.7383 135.25C51.136 135.25 51.4712 135.172 51.744 135.016C52.0195 134.859 52.2269 134.658 52.3661 134.411C52.5082 134.163 52.5792 133.903 52.5792 133.631V132.71C52.5366 132.761 52.4428 132.808 52.2979 132.851C52.1559 132.891 51.9911 132.926 51.8036 132.957C51.619 132.986 51.4386 133.011 51.2624 133.034C51.0891 133.054 50.9485 133.071 50.8406 133.085C50.5792 133.119 50.3349 133.175 50.1076 133.251C49.8832 133.325 49.7013 133.437 49.5621 133.588C49.4258 133.736 49.3576 133.937 49.3576 134.193C49.3576 134.543 49.4869 134.807 49.7454 134.986C50.0067 135.162 50.3377 135.25 50.7383 135.25ZM55.4205 136V129.455H56.392V130.477H56.4773C56.6136 130.128 56.8338 129.857 57.1378 129.663C57.4418 129.467 57.8068 129.369 58.233 129.369C58.6648 129.369 59.0241 129.467 59.3111 129.663C59.6009 129.857 59.8267 130.128 59.9886 130.477H60.0568C60.2244 130.139 60.4759 129.871 60.8111 129.672C61.1463 129.47 61.5483 129.369 62.017 129.369C62.6023 129.369 63.081 129.553 63.4531 129.919C63.8253 130.283 64.0114 130.849 64.0114 131.619V136H63.0057V131.619C63.0057 131.136 62.8736 130.791 62.6094 130.584C62.3452 130.376 62.0341 130.273 61.6761 130.273C61.2159 130.273 60.8594 130.412 60.6065 130.69C60.3537 130.966 60.2273 131.315 60.2273 131.739V136H59.2045V131.517C59.2045 131.145 59.0838 130.845 58.8423 130.618C58.6009 130.388 58.2898 130.273 57.9091 130.273C57.6477 130.273 57.4034 130.342 57.1761 130.482C56.9517 130.621 56.7699 130.814 56.6307 131.061C56.4943 131.305 56.4261 131.588 56.4261 131.909V136H55.4205ZM65.8501 136V129.455H66.8558V136H65.8501ZM66.3615 128.364C66.1655 128.364 65.9964 128.297 65.8544 128.163C65.7152 128.03 65.6456 127.869 65.6456 127.682C65.6456 127.494 65.7152 127.334 65.8544 127.2C65.9964 127.067 66.1655 127 66.3615 127C66.5575 127 66.7251 127.067 66.8643 127.2C67.0064 127.334 67.0774 127.494 67.0774 127.682C67.0774 127.869 67.0064 128.03 66.8643 128.163C66.7251 128.297 66.5575 128.364 66.3615 128.364ZM69.7035 127.273V136H68.6978V127.273H69.7035ZM72.1932 138.455C72.0227 138.455 71.8707 138.44 71.7372 138.412C71.6037 138.386 71.5114 138.361 71.4602 138.335L71.7159 137.449C71.9602 137.511 72.1761 137.534 72.3636 137.517C72.5511 137.5 72.7173 137.416 72.8622 137.266C73.0099 137.118 73.1449 136.878 73.267 136.545L73.4545 136.034L71.0341 129.455H72.125L73.9318 134.67H74L75.8068 129.455H76.8977L74.1193 136.955C73.9943 137.293 73.8395 137.572 73.6548 137.794C73.4702 138.018 73.2557 138.185 73.0114 138.293C72.7699 138.401 72.4972 138.455 72.1932 138.455Z" fill="white"/>
<path d="M69.8887 32C79.2519 32 86.8887 39.809 86.8887 49.5C86.8887 59.191 79.2519 67 69.8887 67C60.5255 67 52.8887 59.191 52.8887 49.5C52.8887 39.809 60.5255 32 69.8887 32Z" stroke="white" stroke-width="2"/>
<path d="M36.8887 55C46.2519 55 53.8887 62.809 53.8887 72.5C53.8887 82.191 46.2519 90 36.8887 90C27.5255 90 19.8887 82.191 19.8887 72.5C19.8887 62.809 27.5255 55 36.8887 55Z" stroke="white" stroke-width="2"/>
<path d="M69 67C76.3333 67.1667 94 69 89 108L83 111.5L59 115L58.4932 113.698C58.5094 114.285 58.5125 114.885 58.5 115.5H52L31.5 108.5L20 101.5V100C22.5 97 29.4 90.9 37 90.5C41.0419 90.5919 47.2804 92.2237 52 96.9512V76.5C54.5 73.5 61.4 67.4 69 67Z" fill="#E9D447" fill-opacity="0.3"/>
<path d="M58 112C58 100.402 48.8218 91 37.5 91C31.3089 91 25.7589 93.8114 22 98.2559" stroke="white" stroke-width="2"/>
<path d="M30 74V71.5" stroke="white" stroke-width="2" stroke-linecap="round" stroke-linejoin="round"/>
<path d="M44 74V71.5" stroke="white" stroke-width="2" stroke-linecap="round" stroke-linejoin="round"/>
<path d="M62 51.5V49" stroke="white" stroke-width="2" stroke-linecap="round" stroke-linejoin="round"/>
<path d="M76 51.5V49" stroke="white" stroke-width="2" stroke-linecap="round" stroke-linejoin="round"/>
<path d="M53.8887 46C61.0609 46 68.8887 39.732 68.8887 32" stroke="white" stroke-width="2"/>
<path d="M85.8887 46C78.2383 46 69.8887 39.732 69.8887 32" stroke="white" stroke-width="2"/>
<path d="M52 65.9999C41.6105 68.7838 32.7916 66.2385 30.0049 55.8381" stroke="white" stroke-width="2"/>
<path d="M19.8887 67C25.4115 67 29.8887 62.5228 29.8887 57" stroke="white" stroke-width="2"/>
<path d="M52.9361 29.3139C55.9697 31.0654 57.4286 34.4987 56.8131 37.7588C54.2975 39.922 50.5947 40.3752 47.5611 38.6237C44.5272 36.872 43.0675 33.4383 43.6832 30.1783C46.1986 28.0151 49.9022 27.5624 52.9361 29.3139Z" stroke="white" stroke-width="2"/>
<path d="M87.0698 29.3139C84.0362 31.0654 82.5773 34.4987 83.1928 37.7588C85.7083 39.922 89.4111 40.3752 92.4448 38.6237C95.4786 36.872 96.9384 33.4383 96.3227 30.1783C93.8072 28.0151 90.1037 27.5624 87.0698 29.3139Z" stroke="white" stroke-width="2"/>
<path d="M35.7438 82.5967C31.9931 83.6017 28.1378 81.3758 27.1328 77.6251" stroke="white" stroke-width="2"/>
<path d="M70.2074 59.6505C73.9581 60.6555 77.8134 58.4297 78.8184 54.679" stroke="white" stroke-width="2"/>
<path d="M52 97V85.5C52 75.2827 60.2827 67 70.5 67C80.7173 67 89 75.2827 89 85.5V103.5" stroke="white" stroke-width="2"/>
</svg>
