<svg width="118" height="141" viewBox="0 0 118 141" fill="none" xmlns="http://www.w3.org/2000/svg">
<path d="M38.8775 138V127.818H44.9826V128.912H40.1104V132.352H44.5252V133.446H40.1104V138H38.8775ZM49.1824 138.179C48.6984 138.179 48.2593 138.088 47.8649 137.906C47.4705 137.72 47.1573 137.453 46.9252 137.105C46.6932 136.754 46.5772 136.33 46.5772 135.832C46.5772 135.395 46.6634 135.04 46.8358 134.768C47.0081 134.493 47.2385 134.278 47.5268 134.122C47.8152 133.966 48.1333 133.85 48.4814 133.774C48.8327 133.695 49.1857 133.632 49.5403 133.585C50.0043 133.526 50.3805 133.481 50.6689 133.451C50.9605 133.418 51.1726 133.363 51.3052 133.287C51.4411 133.211 51.5091 133.078 51.5091 132.889V132.849C51.5091 132.359 51.3748 131.978 51.1064 131.706C50.8412 131.434 50.4385 131.298 49.8983 131.298C49.3381 131.298 48.899 131.421 48.5808 131.666C48.2626 131.911 48.0389 132.173 47.9096 132.452L46.796 132.054C46.9949 131.59 47.26 131.229 47.5914 130.97C47.9262 130.708 48.2908 130.526 48.6852 130.423C49.0829 130.317 49.474 130.264 49.8585 130.264C50.1038 130.264 50.3855 130.294 50.7037 130.354C51.0252 130.41 51.335 130.528 51.6333 130.707C51.935 130.886 52.1852 131.156 52.3841 131.517C52.5829 131.878 52.6824 132.362 52.6824 132.969V138H51.5091V136.966H51.4494C51.3699 137.132 51.2373 137.309 51.0517 137.498C50.8661 137.687 50.6191 137.848 50.3109 137.98C50.0027 138.113 49.6265 138.179 49.1824 138.179ZM49.3613 137.125C49.8253 137.125 50.2164 137.034 50.5346 136.852C50.8561 136.669 51.0981 136.434 51.2605 136.146C51.4262 135.857 51.5091 135.554 51.5091 135.236V134.162C51.4593 134.222 51.35 134.276 51.1809 134.326C51.0152 134.372 50.823 134.414 50.6042 134.45C50.3888 134.483 50.1783 134.513 49.9728 134.54C49.7707 134.563 49.6066 134.583 49.4806 134.599C49.1757 134.639 48.8907 134.704 48.6255 134.793C48.3637 134.879 48.1516 135.01 47.9892 135.186C47.8301 135.358 47.7505 135.594 47.7505 135.892C47.7505 136.3 47.9013 136.608 48.2029 136.817C48.5079 137.022 48.894 137.125 49.3613 137.125ZM54.8239 138V130.364H55.9574V131.557H56.0568C56.2159 131.149 56.4728 130.833 56.8274 130.607C57.1821 130.379 57.608 130.264 58.1051 130.264C58.6089 130.264 59.0282 130.379 59.3629 130.607C59.701 130.833 59.9645 131.149 60.1534 131.557H60.233C60.4285 131.162 60.7218 130.849 61.1129 130.617C61.504 130.382 61.973 130.264 62.5199 130.264C63.2027 130.264 63.7611 130.478 64.1953 130.906C64.6295 131.33 64.8466 131.991 64.8466 132.889V138H63.6733V132.889C63.6733 132.326 63.5192 131.923 63.2109 131.681C62.9027 131.439 62.5398 131.318 62.1222 131.318C61.5852 131.318 61.1693 131.481 60.8743 131.805C60.5793 132.127 60.4318 132.535 60.4318 133.028V138H59.2386V132.77C59.2386 132.336 59.0978 131.986 58.8161 131.721C58.5343 131.452 58.1714 131.318 57.7273 131.318C57.4223 131.318 57.1373 131.399 56.8722 131.562C56.6103 131.724 56.3982 131.95 56.2358 132.238C56.0767 132.523 55.9972 132.853 55.9972 133.227V138H54.8239ZM66.9918 138V130.364H68.1651V138H66.9918ZM67.5884 129.091C67.3597 129.091 67.1625 129.013 66.9968 128.857C66.8344 128.701 66.7532 128.514 66.7532 128.295C66.7532 128.077 66.8344 127.889 66.9968 127.734C67.1625 127.578 67.3597 127.5 67.5884 127.5C67.8171 127.5 68.0127 127.578 68.1751 127.734C68.3408 127.889 68.4237 128.077 68.4237 128.295C68.4237 128.514 68.3408 128.701 68.1751 128.857C68.0127 129.013 67.8171 129.091 67.5884 129.091ZM71.4874 127.818V138H70.3141V127.818H71.4874ZM74.392 140.864C74.1932 140.864 74.0159 140.847 73.8601 140.814C73.7043 140.784 73.5966 140.754 73.5369 140.724L73.8352 139.69C74.1203 139.763 74.3722 139.79 74.5909 139.77C74.8097 139.75 75.0036 139.652 75.1726 139.477C75.3449 139.304 75.5024 139.024 75.6449 138.636L75.8636 138.04L73.0398 130.364H74.3125L76.4205 136.449H76.5L78.608 130.364H79.8807L76.6392 139.114C76.4934 139.508 76.3127 139.835 76.0973 140.093C75.8819 140.355 75.6316 140.549 75.3466 140.675C75.0649 140.801 74.7467 140.864 74.392 140.864Z" fill="white"/>
<path d="M69.8887 32C79.2519 32 86.8887 39.809 86.8887 49.5C86.8887 59.191 79.2519 67 69.8887 67C60.5255 67 52.8887 59.191 52.8887 49.5C52.8887 39.809 60.5255 32 69.8887 32Z" stroke="#FFE325" stroke-width="2"/>
<path d="M36.8887 55C46.2519 55 53.8887 62.809 53.8887 72.5C53.8887 82.191 46.2519 90 36.8887 90C27.5255 90 19.8887 82.191 19.8887 72.5C19.8887 62.809 27.5255 55 36.8887 55Z" stroke="#FFE325" stroke-width="2"/>
<path d="M69 67C76.3333 67.1667 94 69 89 108L83 111.5L59 115L58.4932 113.698C58.5094 114.285 58.5125 114.885 58.5 115.5H52L31.5 108.5L20 101.5V100C22.5 97 29.4 90.9 37 90.5C41.0419 90.5919 47.2804 92.2237 52 96.9512V76.5C54.5 73.5 61.4 67.4 69 67Z" fill="#E9D447" fill-opacity="0.3"/>
<path d="M20.5 100.5L22 98.2559C25.7589 93.8114 31.3089 91 37.5 91C48.8218 91 58 100.402 58 112V115.5" stroke="#FFE325" stroke-width="2"/>
<path d="M30 74V71.5" stroke="#FFE325" stroke-width="2" stroke-linecap="round" stroke-linejoin="round"/>
<path d="M44 74V71.5" stroke="#FFE325" stroke-width="2" stroke-linecap="round" stroke-linejoin="round"/>
<path d="M62 51.5V49" stroke="#FFE325" stroke-width="2" stroke-linecap="round" stroke-linejoin="round"/>
<path d="M76 51.5V49" stroke="#FFE325" stroke-width="2" stroke-linecap="round" stroke-linejoin="round"/>
<path d="M53.8887 46C61.0609 46 68.8887 39.732 68.8887 32" stroke="#FFE325" stroke-width="2"/>
<path d="M85.8887 46C78.2383 46 69.8887 39.732 69.8887 32" stroke="#FFE325" stroke-width="2"/>
<path d="M52 65.9999C41.6105 68.7838 32.7916 66.2385 30.0049 55.8381" stroke="#FFE325" stroke-width="2"/>
<path d="M19.8887 67C25.4115 67 29.8887 62.5228 29.8887 57" stroke="#FFE325" stroke-width="2"/>
<path d="M52.9361 29.3139C55.9697 31.0654 57.4286 34.4988 56.8131 37.7588C54.2975 39.922 50.5947 40.3752 47.5611 38.6237C44.5272 36.872 43.0675 33.4383 43.6832 30.1783C46.1986 28.0151 49.9022 27.5624 52.9361 29.3139Z" stroke="#FFE325" stroke-width="2"/>
<path d="M87.0698 29.3139C84.0362 31.0654 82.5773 34.4988 83.1928 37.7588C85.7083 39.922 89.4111 40.3752 92.4448 38.6237C95.4786 36.872 96.9384 33.4383 96.3227 30.1783C93.8072 28.0151 90.1037 27.5624 87.0698 29.3139Z" stroke="#FFE325" stroke-width="2"/>
<path d="M35.7438 82.5967C31.9931 83.6017 28.1378 81.3758 27.1328 77.6251" stroke="#FFE325" stroke-width="2"/>
<path d="M70.2074 59.6505C73.9581 60.6555 77.8134 58.4297 78.8184 54.679" stroke="#FFE325" stroke-width="2"/>
<path d="M52 97V85.5C52 75.2827 60.2827 67 70.5 67C80.7173 67 89 75.2827 89 85.5V106.5" stroke="#FFE325" stroke-width="2"/>
<circle cx="59" cy="59" r="57" stroke="#E9D447" stroke-width="4"/>
</svg>
