<svg width="118" height="139" viewBox="0 0 118 139" fill="none" xmlns="http://www.w3.org/2000/svg">
<circle cx="59" cy="59" r="57" stroke="#42A95E" stroke-width="4"/>
<path d="M59.5 61L56 116.5C76.8 116.5 94.3333 104.833 100.5 99C84.5 91.8 78.8333 60 78 45L79.5 40C75.5 45 67.4 55.5 67 57.5C66.6 59.5 61.8333 60.6667 59.5 61Z" fill="#42A95E" fill-opacity="0.3"/>
<path d="M50.5001 42.5C63.3001 39.7 68.1667 41.3333 69.0001 42.5L77.5 37.5C78.3 33.1 72.1667 26 69.0001 23C66.2001 21.4 55.5001 21 50.5001 21H44.0001V23.5C32.0003 26 36.4998 38 36.9998 35.5C37.3998 33.5 41.8333 31 44.0001 30C43.6001 37.2 48.1667 41.3333 50.5001 42.5Z" fill="#42A95E" fill-opacity="0.3"/>
<path d="M37.6096 136V127.273H42.8425V128.21H38.6664V131.159H42.4505V132.097H38.6664V136H37.6096ZM46.4423 136.153C46.0275 136.153 45.6511 136.075 45.313 135.919C44.975 135.76 44.7065 135.531 44.5076 135.233C44.3088 134.932 44.2093 134.568 44.2093 134.142C44.2093 133.767 44.2832 133.463 44.4309 133.23C44.5787 132.994 44.7761 132.81 45.0233 132.676C45.2704 132.543 45.5431 132.443 45.8414 132.378C46.1426 132.31 46.4451 132.256 46.7491 132.216C47.1468 132.165 47.4693 132.126 47.7164 132.101C47.9664 132.072 48.1483 132.026 48.2619 131.96C48.3784 131.895 48.4366 131.781 48.4366 131.619V131.585C48.4366 131.165 48.3216 130.838 48.0914 130.605C47.8642 130.372 47.519 130.256 47.0559 130.256C46.5758 130.256 46.1994 130.361 45.9267 130.571C45.6539 130.781 45.4622 131.006 45.3514 131.244L44.3968 130.903C44.5673 130.506 44.7946 130.196 45.0787 129.974C45.3656 129.75 45.6781 129.594 46.0162 129.506C46.3571 129.415 46.6923 129.369 47.0218 129.369C47.2321 129.369 47.4735 129.395 47.7463 129.446C48.0218 129.494 48.2875 129.595 48.5431 129.749C48.8017 129.902 49.0162 130.134 49.1866 130.443C49.3571 130.753 49.4423 131.168 49.4423 131.688V136H48.4366V135.114H48.3855C48.3173 135.256 48.2037 135.408 48.0446 135.57C47.8855 135.732 47.6738 135.869 47.4096 135.983C47.1454 136.097 46.823 136.153 46.4423 136.153ZM46.5957 135.25C46.9934 135.25 47.3287 135.172 47.6014 135.016C47.877 134.859 48.0843 134.658 48.2235 134.411C48.3656 134.163 48.4366 133.903 48.4366 133.631V132.71C48.394 132.761 48.3002 132.808 48.1554 132.851C48.0133 132.891 47.8485 132.926 47.661 132.957C47.4764 132.986 47.296 133.011 47.1199 133.034C46.9466 133.054 46.8059 133.071 46.698 133.085C46.4366 133.119 46.1923 133.175 45.965 133.251C45.7406 133.325 45.5588 133.437 45.4196 133.588C45.2832 133.736 45.215 133.937 45.215 134.193C45.215 134.543 45.3443 134.807 45.6028 134.986C45.8642 135.162 46.1951 135.25 46.5957 135.25ZM52.2836 132.062V136H51.2779V129.455H52.2495V130.477H52.3347C52.4881 130.145 52.7211 129.878 53.0336 129.676C53.3461 129.472 53.7495 129.369 54.2438 129.369C54.687 129.369 55.0748 129.46 55.4071 129.642C55.7395 129.821 55.998 130.094 56.1827 130.46C56.3674 130.824 56.4597 131.284 56.4597 131.841V136H55.454V131.909C55.454 131.395 55.3205 130.994 55.0534 130.707C54.7864 130.418 54.4199 130.273 53.954 130.273C53.633 130.273 53.3461 130.342 53.0932 130.482C52.8432 130.621 52.6458 130.824 52.5009 131.091C52.356 131.358 52.2836 131.682 52.2836 132.062ZM61.144 129.455V130.307H57.752V129.455H61.144ZM58.7406 127.886H59.7463V134.125C59.7463 134.409 59.7875 134.622 59.8699 134.764C59.9551 134.903 60.063 134.997 60.1937 135.045C60.3272 135.091 60.4679 135.114 60.6156 135.114C60.7264 135.114 60.8173 135.108 60.8883 135.097C60.9593 135.082 61.0162 135.071 61.0588 135.062L61.2633 135.966C61.1951 135.991 61.1 136.017 60.9778 136.043C60.8556 136.071 60.7008 136.085 60.5133 136.085C60.2292 136.085 59.9508 136.024 59.6781 135.902C59.4082 135.78 59.1838 135.594 59.0048 135.344C58.8287 135.094 58.7406 134.778 58.7406 134.398V127.886ZM64.5829 136.153C64.1681 136.153 63.7917 136.075 63.4537 135.919C63.1156 135.76 62.8471 135.531 62.6483 135.233C62.4494 134.932 62.35 134.568 62.35 134.142C62.35 133.767 62.4238 133.463 62.5716 133.23C62.7193 132.994 62.9167 132.81 63.1639 132.676C63.411 132.543 63.6838 132.443 63.9821 132.378C64.2832 132.31 64.5858 132.256 64.8897 132.216C65.2875 132.165 65.6099 132.126 65.8571 132.101C66.1071 132.072 66.2889 132.026 66.4025 131.96C66.519 131.895 66.5772 131.781 66.5772 131.619V131.585C66.5772 131.165 66.4622 130.838 66.2321 130.605C66.0048 130.372 65.6596 130.256 65.1966 130.256C64.7164 130.256 64.34 130.361 64.0673 130.571C63.7946 130.781 63.6028 131.006 63.492 131.244L62.5375 130.903C62.7079 130.506 62.9352 130.196 63.2193 129.974C63.5062 129.75 63.8187 129.594 64.1568 129.506C64.4977 129.415 64.8329 129.369 65.1625 129.369C65.3727 129.369 65.6142 129.395 65.8869 129.446C66.1625 129.494 66.4281 129.595 66.6838 129.749C66.9423 129.902 67.1568 130.134 67.3272 130.443C67.4977 130.753 67.5829 131.168 67.5829 131.688V136H66.5772V135.114H66.5261C66.4579 135.256 66.3443 135.408 66.1852 135.57C66.0261 135.732 65.8145 135.869 65.5502 135.983C65.286 136.097 64.9636 136.153 64.5829 136.153ZM64.7363 135.25C65.1341 135.25 65.4693 135.172 65.742 135.016C66.0176 134.859 66.225 134.658 66.3642 134.411C66.5062 134.163 66.5772 133.903 66.5772 133.631V132.71C66.5346 132.761 66.4409 132.808 66.296 132.851C66.1539 132.891 65.9892 132.926 65.8017 132.957C65.617 132.986 65.4366 133.011 65.2605 133.034C65.0872 133.054 64.9466 133.071 64.8386 133.085C64.5772 133.119 64.3329 133.175 64.1056 133.251C63.8812 133.325 63.6994 133.437 63.5602 133.588C63.4238 133.736 63.3556 133.937 63.3556 134.193C63.3556 134.543 63.4849 134.807 63.7434 134.986C64.0048 135.162 64.3358 135.25 64.7363 135.25ZM74.0549 130.92L73.1515 131.176C73.0946 131.026 73.0108 130.879 72.9 130.737C72.7921 130.592 72.6444 130.473 72.4569 130.379C72.2694 130.286 72.0293 130.239 71.7367 130.239C71.3361 130.239 71.0023 130.331 70.7353 130.516C70.4711 130.697 70.339 130.929 70.339 131.21C70.339 131.46 70.4299 131.658 70.6117 131.803C70.7935 131.947 71.0776 132.068 71.464 132.165L72.4355 132.403C73.0208 132.545 73.4569 132.763 73.7438 133.055C74.0307 133.345 74.1742 133.719 74.1742 134.176C74.1742 134.551 74.0662 134.886 73.8503 135.182C73.6373 135.477 73.339 135.71 72.9554 135.881C72.5719 136.051 72.1259 136.136 71.6174 136.136C70.9498 136.136 70.3972 135.991 69.9597 135.702C69.5222 135.412 69.2452 134.989 69.1287 134.432L70.0833 134.193C70.1742 134.545 70.3461 134.81 70.5989 134.986C70.8546 135.162 71.1884 135.25 71.6003 135.25C72.0691 135.25 72.4412 135.151 72.7168 134.952C72.9952 134.75 73.1344 134.509 73.1344 134.227C73.1344 134 73.0549 133.81 72.8958 133.656C72.7367 133.5 72.4924 133.384 72.1628 133.307L71.0719 133.051C70.4725 132.909 70.0321 132.689 69.7509 132.391C69.4725 132.089 69.3333 131.713 69.3333 131.261C69.3333 130.892 69.437 130.565 69.6444 130.281C69.8546 129.997 70.1401 129.774 70.5009 129.612C70.8645 129.45 71.2765 129.369 71.7367 129.369C72.3844 129.369 72.8929 129.511 73.2623 129.795C73.6344 130.08 73.8986 130.455 74.0549 130.92ZM76.3358 138.455C76.1653 138.455 76.0133 138.44 75.8798 138.412C75.7463 138.386 75.6539 138.361 75.6028 138.335L75.8585 137.449C76.1028 137.511 76.3187 137.534 76.5062 137.517C76.6937 137.5 76.8599 137.416 77.0048 137.266C77.1525 137.118 77.2875 136.878 77.4096 136.545L77.5971 136.034L75.1767 129.455H76.2676L78.0744 134.67H78.1426L79.9494 129.455H81.0403L78.2619 136.955C78.1369 137.293 77.9821 137.572 77.7974 137.794C77.6127 138.018 77.3983 138.185 77.1539 138.293C76.9125 138.401 76.6397 138.455 76.3358 138.455Z" fill="white"/>
<path d="M55 70.3276C49.5886 75.1401 44.1162 86 38.8232 86C34.6811 86 31.3232 82.6421 31.3232 78.5C31.3232 73.4481 31.3617 68.7457 31.749 63.7129L25.1172 65.4932C24.7523 65.5361 24.3928 65.3749 24.1816 65.0742C23.9706 64.7735 23.9411 64.3813 24.1054 64.0527L33.0908 45.0801C33.7375 38.2897 37.7796 32.4894 43.5 29.3959" stroke="white" stroke-width="2" stroke-linecap="round"/>
<path d="M59.5806 60.5C62.683 61.1971 66.4981 58.644 67.6924 55.8141L81.1146 37.1464C81.3887 36.765 81.3604 36.2435 81.0467 35.894C80.7327 35.5446 80.2172 35.4611 79.8087 35.6929L59.5806 47.1881" stroke="white" stroke-width="2" stroke-linecap="round" stroke-linejoin="round"/>
<path d="M46 47C46 48.6569 44.433 50 42.5 50C40.567 50 39 48.6569 39 47" stroke="white" stroke-width="2"/>
<path d="M38.7694 68.4751C38.0711 71.0812 35.0402 72.5335 31.9998 71.7188" stroke="white" stroke-width="2"/>
<path d="M96.5 52C96.9106 52 97.28 52.2508 97.4307 52.6328L98.2598 54.7393L100.367 55.5693C100.749 55.72 101 56.0894 101 56.5C101 56.9106 100.749 57.28 100.367 57.4307L98.2598 58.2598L97.4307 60.3672C97.28 60.7492 96.9106 61 96.5 61C96.0894 61 95.72 60.7492 95.5693 60.3672L94.7393 58.2598L92.6328 57.4307C92.2508 57.28 92 56.9106 92 56.5C92 56.0894 92.2508 55.72 92.6328 55.5693L94.7393 54.7393L95.5693 52.6328L95.6357 52.4961C95.8129 52.1921 96.1406 52 96.5 52Z" stroke="white" stroke-width="2" stroke-linejoin="round"/>
<path d="M21.5 39C21.9106 39 22.28 39.2508 22.4307 39.6328L23.2598 41.7393L25.3672 42.5693C25.7492 42.72 26 43.0894 26 43.5C26 43.9106 25.7492 44.28 25.3672 44.4307L23.2598 45.2598L22.4307 47.3672C22.28 47.7492 21.9106 48 21.5 48C21.0894 48 20.72 47.7492 20.5693 47.3672L19.7393 45.2598L17.6328 44.4307C17.2508 44.28 17 43.9106 17 43.5C17 43.0894 17.2508 42.72 17.6328 42.5693L19.7393 41.7393L20.5693 39.6328L20.6357 39.4961C20.8129 39.1921 21.1406 39 21.5 39Z" stroke="white" stroke-width="2" stroke-linejoin="round"/>
<path d="M44.0005 30C45.5005 51 56.1005 37.5 68.5005 41.5" stroke="white" stroke-width="2" stroke-linecap="round" stroke-linejoin="round"/>
<path d="M44 31.5C43.6667 29 44.0408 20.0831 45.5 20.5C59.5002 24.5 71 14 77.5 36.5" stroke="white" stroke-width="2" stroke-linecap="round" stroke-linejoin="round"/>
<path d="M36.4995 35C35.3328 31.5 35.2002 25.1 44.0002 23.5" stroke="white" stroke-width="2" stroke-linecap="round" stroke-linejoin="round"/>
<path d="M59.5 60.5L56 113" stroke="white" stroke-width="2" stroke-linecap="round" stroke-linejoin="round"/>
<path d="M78.4997 41.5C77.1664 60 87.6 90.8 96 96" stroke="white" stroke-width="2" stroke-linecap="round" stroke-linejoin="round"/>
<path d="M55 70.5L42 110" stroke="white" stroke-width="2" stroke-linecap="round" stroke-linejoin="round"/>
</svg>
