<svg width="118" height="141" viewBox="0 0 118 141" fill="none" xmlns="http://www.w3.org/2000/svg">
<path d="M59.5 61L56 116.5C76.8 116.5 94.3333 104.833 100.5 99C84.5 91.8 78.8333 60 78 45L79.5 40C75.5 45 67.4 55.5 67 57.5C66.6 59.5 61.8333 60.6667 59.5 61Z" fill="#42A95E" fill-opacity="0.3"/>
<path d="M50.5001 42.5C63.3001 39.7 68.1667 41.3333 69.0001 42.5L77.5 37.5C78.3 33.1 72.1667 26 69.0001 23C66.2001 21.4 55.5001 21 50.5001 21H44.0001V23.5C32.0003 26 36.4998 38 36.9998 35.5C37.3998 33.5 41.8333 31 44.0001 30C43.6001 37.2 48.1667 41.3333 50.5001 42.5Z" fill="#42A95E" fill-opacity="0.3"/>
<path d="M34.0445 138V127.818H40.1496V128.912H35.2774V132.352H39.6922V133.446H35.2774V138H34.0445ZM44.3493 138.179C43.8654 138.179 43.4263 138.088 43.0319 137.906C42.6375 137.72 42.3242 137.453 42.0922 137.105C41.8602 136.754 41.7442 136.33 41.7442 135.832C41.7442 135.395 41.8304 135.04 42.0028 134.768C42.1751 134.493 42.4055 134.278 42.6938 134.122C42.9822 133.966 43.3003 133.85 43.6483 133.774C43.9997 133.695 44.3527 133.632 44.7073 133.585C45.1713 133.526 45.5475 133.481 45.8358 133.451C46.1275 133.418 46.3396 133.363 46.4722 133.287C46.6081 133.211 46.676 133.078 46.676 132.889V132.849C46.676 132.359 46.5418 131.978 46.2733 131.706C46.0082 131.434 45.6055 131.298 45.0653 131.298C44.5051 131.298 44.066 131.421 43.7478 131.666C43.4296 131.911 43.2059 132.173 43.0766 132.452L41.963 132.054C42.1618 131.59 42.427 131.229 42.7584 130.97C43.0932 130.708 43.4578 130.526 43.8522 130.423C44.2499 130.317 44.641 130.264 45.0255 130.264C45.2707 130.264 45.5525 130.294 45.8706 130.354C46.1921 130.41 46.502 130.528 46.8003 130.707C47.1019 130.886 47.3522 131.156 47.551 131.517C47.7499 131.878 47.8493 132.362 47.8493 132.969V138H46.676V136.966H46.6164C46.5368 137.132 46.4043 137.309 46.2187 137.498C46.0331 137.687 45.7861 137.848 45.4779 137.98C45.1697 138.113 44.7935 138.179 44.3493 138.179ZM44.5283 137.125C44.9923 137.125 45.3834 137.034 45.7016 136.852C46.0231 136.669 46.2651 136.434 46.4275 136.146C46.5932 135.857 46.676 135.554 46.676 135.236V134.162C46.6263 134.222 46.517 134.276 46.3479 134.326C46.1822 134.372 45.99 134.414 45.7712 134.45C45.5558 134.483 45.3453 134.513 45.1398 134.54C44.9376 134.563 44.7736 134.583 44.6476 134.599C44.3427 134.639 44.0577 134.704 43.7925 134.793C43.5307 134.879 43.3186 135.01 43.1562 135.186C42.9971 135.358 42.9175 135.594 42.9175 135.892C42.9175 136.3 43.0683 136.608 43.3699 136.817C43.6749 137.022 44.061 137.125 44.5283 137.125ZM51.1642 133.406V138H49.9909V130.364H51.1244V131.557H51.2238C51.4028 131.169 51.6746 130.857 52.0392 130.622C52.4037 130.384 52.8744 130.264 53.4511 130.264C53.9681 130.264 54.4205 130.37 54.8083 130.582C55.1961 130.791 55.4977 131.109 55.7132 131.537C55.9286 131.961 56.0363 132.498 56.0363 133.148V138H54.863V133.227C54.863 132.627 54.7072 132.16 54.3957 131.825C54.0841 131.487 53.6566 131.318 53.113 131.318C52.7385 131.318 52.4037 131.399 52.1088 131.562C51.8171 131.724 51.5867 131.961 51.4177 132.273C51.2487 132.584 51.1642 132.962 51.1642 133.406ZM61.5013 130.364V131.358H57.5439V130.364H61.5013ZM58.6974 128.534H59.8706V135.812C59.8706 136.144 59.9187 136.393 60.0148 136.558C60.1143 136.721 60.2402 136.83 60.3927 136.886C60.5484 136.939 60.7125 136.966 60.8849 136.966C61.0141 136.966 61.1202 136.959 61.203 136.946C61.2859 136.929 61.3522 136.916 61.4019 136.906L61.6405 137.96C61.561 137.99 61.45 138.02 61.3074 138.05C61.1649 138.083 60.9843 138.099 60.7655 138.099C60.4341 138.099 60.1093 138.028 59.7911 137.886C59.4762 137.743 59.2144 137.526 59.0056 137.234C58.8001 136.943 58.6974 136.575 58.6974 136.131V128.534ZM65.5134 138.179C65.0295 138.179 64.5903 138.088 64.1959 137.906C63.8015 137.72 63.4883 137.453 63.2563 137.105C63.0243 136.754 62.9083 136.33 62.9083 135.832C62.9083 135.395 62.9945 135.04 63.1668 134.768C63.3392 134.493 63.5695 134.278 63.8579 134.122C64.1462 133.966 64.4644 133.85 64.8124 133.774C65.1637 133.695 65.5167 133.632 65.8714 133.585C66.3354 133.526 66.7116 133.481 66.9999 133.451C67.2916 133.418 67.5037 133.363 67.6363 133.287C67.7722 133.211 67.8401 133.078 67.8401 132.889V132.849C67.8401 132.359 67.7059 131.978 67.4374 131.706C67.1723 131.434 66.7696 131.298 66.2293 131.298C65.6692 131.298 65.23 131.421 64.9118 131.666C64.5937 131.911 64.3699 132.173 64.2407 132.452L63.127 132.054C63.3259 131.59 63.5911 131.229 63.9225 130.97C64.2573 130.708 64.6218 130.526 65.0162 130.423C65.414 130.317 65.8051 130.264 66.1895 130.264C66.4348 130.264 66.7165 130.294 67.0347 130.354C67.3562 130.41 67.6661 130.528 67.9644 130.707C68.266 130.886 68.5162 131.156 68.7151 131.517C68.914 131.878 69.0134 132.362 69.0134 132.969V138H67.8401V136.966H67.7805C67.7009 137.132 67.5683 137.309 67.3827 137.498C67.1971 137.687 66.9502 137.848 66.642 137.98C66.3337 138.113 65.9575 138.179 65.5134 138.179ZM65.6924 137.125C66.1564 137.125 66.5475 137.034 66.8657 136.852C67.1872 136.669 67.4291 136.434 67.5915 136.146C67.7573 135.857 67.8401 135.554 67.8401 135.236V134.162C67.7904 134.222 67.681 134.276 67.512 134.326C67.3463 134.372 67.154 134.414 66.9353 134.45C66.7198 134.483 66.5094 134.513 66.3039 134.54C66.1017 134.563 65.9376 134.583 65.8117 134.599C65.5068 134.639 65.2217 134.704 64.9566 134.793C64.6948 134.879 64.4826 135.01 64.3202 135.186C64.1611 135.358 64.0816 135.594 64.0816 135.892C64.0816 136.3 64.2324 136.608 64.534 136.817C64.8389 137.022 65.2251 137.125 65.6924 137.125ZM76.564 132.074L75.51 132.372C75.4437 132.196 75.346 132.026 75.2167 131.86C75.0908 131.691 74.9184 131.552 74.6997 131.442C74.4809 131.333 74.2008 131.278 73.8595 131.278C73.3921 131.278 73.0027 131.386 72.6911 131.602C72.3829 131.814 72.2288 132.084 72.2288 132.412C72.2288 132.704 72.3348 132.934 72.547 133.103C72.7591 133.272 73.0905 133.413 73.5413 133.526L74.6748 133.804C75.3576 133.97 75.8663 134.223 76.2011 134.565C76.5358 134.903 76.7032 135.339 76.7032 135.872C76.7032 136.31 76.5773 136.701 76.3254 137.045C76.0768 137.39 75.7288 137.662 75.2813 137.861C74.8339 138.06 74.3135 138.159 73.7203 138.159C72.9414 138.159 72.2967 137.99 71.7863 137.652C71.2759 137.314 70.9527 136.82 70.8169 136.17L71.9305 135.892C72.0365 136.303 72.2371 136.611 72.532 136.817C72.8303 137.022 73.2198 137.125 73.7004 137.125C74.2472 137.125 74.6814 137.009 75.0029 136.777C75.3277 136.542 75.4901 136.26 75.4901 135.932C75.4901 135.667 75.3973 135.445 75.2117 135.266C75.0261 135.083 74.7411 134.947 74.3566 134.858L73.0839 134.56C72.3846 134.394 71.8708 134.137 71.5427 133.789C71.2179 133.438 71.0555 132.999 71.0555 132.472C71.0555 132.041 71.1765 131.66 71.4184 131.328C71.6637 130.997 71.9968 130.737 72.4177 130.548C72.8419 130.359 73.3225 130.264 73.8595 130.264C74.6151 130.264 75.2084 130.43 75.6393 130.761C76.0735 131.093 76.3817 131.53 76.564 132.074ZM79.2251 140.864C79.0262 140.864 78.8489 140.847 78.6931 140.814C78.5373 140.784 78.4296 140.754 78.3699 140.724L78.6682 139.69C78.9533 139.763 79.2052 139.79 79.4239 139.77C79.6427 139.75 79.8366 139.652 80.0056 139.477C80.1779 139.304 80.3354 139.024 80.4779 138.636L80.6966 138.04L77.8728 130.364H79.1455L81.2535 136.449H81.333L83.441 130.364H84.7137L81.4722 139.114C81.3264 139.508 81.1457 139.835 80.9303 140.093C80.7149 140.355 80.4646 140.549 80.1796 140.675C79.8979 140.801 79.5797 140.864 79.2251 140.864Z" fill="white"/>
<path d="M55 70.3276C49.5886 75.1401 44.1162 86 38.8232 86C34.6811 86 31.3232 82.6421 31.3232 78.5C31.3232 73.4481 31.3617 68.7457 31.749 63.7129L25.1172 65.4932C24.7523 65.5361 24.3928 65.3749 24.1816 65.0742C23.9706 64.7735 23.9411 64.3813 24.1054 64.0527L33.0908 45.0801C33.7375 38.2897 37.7796 32.4894 43.5 29.3959" stroke="#83F7A2" stroke-width="2" stroke-linecap="round"/>
<path d="M59.5806 60.5C62.683 61.1971 66.4981 58.644 67.6924 55.8141L81.1146 37.1464C81.3887 36.765 81.3604 36.2435 81.0467 35.894C80.7327 35.5446 80.2172 35.4611 79.8087 35.6929L59.5806 47.1881" stroke="#83F7A2" stroke-width="2" stroke-linecap="round" stroke-linejoin="round"/>
<path d="M46 47C46 48.6569 44.433 50 42.5 50C40.567 50 39 48.6569 39 47" stroke="#83F7A2" stroke-width="2"/>
<path d="M38.7694 68.4751C38.0711 71.0812 35.0402 72.5335 31.9998 71.7188" stroke="#83F7A2" stroke-width="2"/>
<path d="M96.5 52C96.9106 52 97.28 52.2508 97.4307 52.6328L98.2598 54.7393L100.367 55.5693C100.749 55.72 101 56.0894 101 56.5C101 56.9106 100.749 57.28 100.367 57.4307L98.2598 58.2598L97.4307 60.3672C97.28 60.7492 96.9106 61 96.5 61C96.0894 61 95.72 60.7492 95.5693 60.3672L94.7393 58.2598L92.6328 57.4307C92.2508 57.28 92 56.9106 92 56.5C92 56.0894 92.2508 55.72 92.6328 55.5693L94.7393 54.7393L95.5693 52.6328L95.6357 52.4961C95.8129 52.1921 96.1406 52 96.5 52Z" fill="#42A95E" fill-opacity="0.3" stroke="#83F7A2" stroke-width="2" stroke-linejoin="round"/>
<path d="M21.5 39C21.9106 39 22.28 39.2508 22.4307 39.6328L23.2598 41.7393L25.3672 42.5693C25.7492 42.72 26 43.0894 26 43.5C26 43.9106 25.7492 44.28 25.3672 44.4307L23.2598 45.2598L22.4307 47.3672C22.28 47.7492 21.9106 48 21.5 48C21.0894 48 20.72 47.7492 20.5693 47.3672L19.7393 45.2598L17.6328 44.4307C17.2508 44.28 17 43.9106 17 43.5C17 43.0894 17.2508 42.72 17.6328 42.5693L19.7393 41.7393L20.5693 39.6328L20.6357 39.4961C20.8129 39.1921 21.1406 39 21.5 39Z" fill="#42A95E" fill-opacity="0.3" stroke="#83F7A2" stroke-width="2" stroke-linejoin="round"/>
<path d="M44.0005 30C45.5005 51 56.1005 37.5 68.5005 41.5" stroke="#83F7A2" stroke-width="2" stroke-linecap="round" stroke-linejoin="round"/>
<path d="M44 31.5C43.6667 29 44.0408 20.0831 45.5 20.5C59.5002 24.5 71 14 77.5 36.5" stroke="#83F7A2" stroke-width="2" stroke-linecap="round" stroke-linejoin="round"/>
<path d="M36.4995 35C35.3328 31.5 35.2002 25.1 44.0002 23.5" stroke="#83F7A2" stroke-width="2" stroke-linecap="round" stroke-linejoin="round"/>
<path d="M59.5 60.5L56 114.5" stroke="#83F7A2" stroke-width="2" stroke-linecap="round" stroke-linejoin="round"/>
<path d="M78.4999 41.5C77.1665 60 89.6 92.8 98 98" stroke="#83F7A2" stroke-width="2" stroke-linecap="round" stroke-linejoin="round"/>
<path d="M55 70.5L41.5 112" stroke="#83F7A2" stroke-width="2" stroke-linecap="round" stroke-linejoin="round"/>
<circle cx="59" cy="59" r="57" stroke="#42A95E" stroke-width="4"/>
</svg>
