<svg width="118" height="139" viewBox="0 0 118 139" fill="none" xmlns="http://www.w3.org/2000/svg">
<path d="M65 65.5C58.2 61.1 53.5 65.3333 52 68L66 72C82.4 73.6 89.1667 71.3333 90.5 70C89.3 66.8 78.3333 66.3333 73 66.5C70.2 68.5 66.5 66.6667 65 65.5Z" fill="#A00028"/>
<circle cx="59" cy="59" r="57" stroke="#A00028" stroke-width="4"/>
<path d="M40.9693 138V127.818H42.2022V132.352H47.6312V127.818H48.8642V138H47.6312V133.446H42.2022V138H40.9693ZM54.2757 138.159C53.5864 138.159 52.9815 137.995 52.4611 137.667C51.9441 137.339 51.5397 136.88 51.248 136.29C50.9597 135.7 50.8155 135.01 50.8155 134.222C50.8155 133.426 50.9597 132.732 51.248 132.138C51.5397 131.545 51.9441 131.085 52.4611 130.756C52.9815 130.428 53.5864 130.264 54.2757 130.264C54.9651 130.264 55.5684 130.428 56.0854 130.756C56.6058 131.085 57.0101 131.545 57.2985 132.138C57.5901 132.732 57.736 133.426 57.736 134.222C57.736 135.01 57.5901 135.7 57.2985 136.29C57.0101 136.88 56.6058 137.339 56.0854 137.667C55.5684 137.995 54.9651 138.159 54.2757 138.159ZM54.2757 137.105C54.7994 137.105 55.2303 136.971 55.5684 136.702C55.9064 136.434 56.1567 136.081 56.3191 135.643C56.4815 135.206 56.5627 134.732 56.5627 134.222C56.5627 133.711 56.4815 133.236 56.3191 132.795C56.1567 132.354 55.9064 131.998 55.5684 131.726C55.2303 131.454 54.7994 131.318 54.2757 131.318C53.7521 131.318 53.3212 131.454 52.9831 131.726C52.6451 131.998 52.3948 132.354 52.2324 132.795C52.07 133.236 51.9888 133.711 51.9888 134.222C51.9888 134.732 52.07 135.206 52.2324 135.643C52.3948 136.081 52.6451 136.434 52.9831 136.702C53.3212 136.971 53.7521 137.105 54.2757 137.105ZM59.527 138V130.364H60.6605V131.517H60.7401C60.8793 131.139 61.1312 130.833 61.4957 130.597C61.8603 130.362 62.2713 130.244 62.7287 130.244C62.8149 130.244 62.9226 130.246 63.0518 130.249C63.1811 130.253 63.2789 130.258 63.3452 130.264V131.457C63.3054 131.447 63.2143 131.433 63.0717 131.413C62.9325 131.389 62.785 131.378 62.6293 131.378C62.258 131.378 61.9266 131.456 61.6349 131.612C61.3466 131.764 61.1179 131.976 60.9489 132.248C60.7831 132.516 60.7003 132.823 60.7003 133.168V138H59.527ZM64.736 138V130.364H65.8695V131.517H65.949C66.0882 131.139 66.3401 130.833 66.7047 130.597C67.0693 130.362 67.4803 130.244 67.9377 130.244C68.0239 130.244 68.1316 130.246 68.2608 130.249C68.3901 130.253 68.4879 130.258 68.5542 130.264V131.457C68.5144 131.447 68.4232 131.433 68.2807 131.413C68.1415 131.389 67.994 131.378 67.8382 131.378C67.467 131.378 67.1356 131.456 66.8439 131.612C66.5556 131.764 66.3269 131.976 66.1578 132.248C65.9921 132.516 65.9093 132.823 65.9093 133.168V138H64.736ZM72.8148 138.159C72.1254 138.159 71.5205 137.995 71.0002 137.667C70.4831 137.339 70.0788 136.88 69.7871 136.29C69.4988 135.7 69.3546 135.01 69.3546 134.222C69.3546 133.426 69.4988 132.732 69.7871 132.138C70.0788 131.545 70.4831 131.085 71.0002 130.756C71.5205 130.428 72.1254 130.264 72.8148 130.264C73.5042 130.264 74.1074 130.428 74.6245 130.756C75.1448 131.085 75.5492 131.545 75.8375 132.138C76.1292 132.732 76.275 133.426 76.275 134.222C76.275 135.01 76.1292 135.7 75.8375 136.29C75.5492 136.88 75.1448 137.339 74.6245 137.667C74.1074 137.995 73.5042 138.159 72.8148 138.159ZM72.8148 137.105C73.3385 137.105 73.7694 136.971 74.1074 136.702C74.4455 136.434 74.6957 136.081 74.8581 135.643C75.0205 135.206 75.1017 134.732 75.1017 134.222C75.1017 133.711 75.0205 133.236 74.8581 132.795C74.6957 132.354 74.4455 131.998 74.1074 131.726C73.7694 131.454 73.3385 131.318 72.8148 131.318C72.2911 131.318 71.8603 131.454 71.5222 131.726C71.1841 131.998 70.9339 132.354 70.7715 132.795C70.6091 133.236 70.5279 133.711 70.5279 134.222C70.5279 134.732 70.6091 135.206 70.7715 135.643C70.9339 136.081 71.1841 136.434 71.5222 136.702C71.8603 136.971 72.2911 137.105 72.8148 137.105ZM78.0661 138V130.364H79.1996V131.517H79.2791C79.4183 131.139 79.6702 130.833 80.0348 130.597C80.3994 130.362 80.8104 130.244 81.2678 130.244C81.3539 130.244 81.4616 130.246 81.5909 130.249C81.7202 130.253 81.8179 130.258 81.8842 130.264V131.457C81.8445 131.447 81.7533 131.433 81.6108 131.413C81.4716 131.389 81.3241 131.378 81.1683 131.378C80.7971 131.378 80.4657 131.456 80.174 131.612C79.8857 131.764 79.657 131.976 79.4879 132.248C79.3222 132.516 79.2393 132.823 79.2393 133.168V138H78.0661Z" fill="white"/>
<path d="M91.4831 68.6054C91.7939 68.7848 91.9846 69.1171 91.983 69.4759C91.9814 69.8347 91.7874 70.1652 91.4751 70.3419C88.5565 71.9929 84.7158 72.7488 80.5004 72.8936C76.2696 73.039 71.5748 72.5718 66.8845 71.7036C57.5175 69.9698 48.0299 66.6117 42.1043 63.1906C41.0538 62.584 40.045 61.9331 39.0771 61.2444C38.6571 60.9454 38.5329 60.3764 38.7907 59.9299L47.7072 44.4861C47.9834 44.0078 48.5949 43.8439 49.0732 44.1201L91.4831 68.6054Z" stroke="#FF0E4A" stroke-width="2" stroke-linejoin="round"/>
<path d="M21.5 32.4641C22.6046 30.5509 25.0509 29.8954 26.9641 31L45.1506 41.5L40.6506 49.2942L22.4641 38.7942C20.5509 37.6897 19.8954 35.2433 21 33.3301L21.5 32.4641Z" fill="#FF0E4A"/>
<path d="M51.9715 67.0865C53.5671 65.7221 58.0495 61.6 61.9536 63.5966C66.8337 66.0924 68.7988 69.0214 72.1887 66.9072C75.5786 64.7931 88.7534 65.889 91.0026 71.2719" stroke="#FF0E4A" stroke-width="2"/>
<path d="M92 75.75C92.453 75.75 92.849 76.0546 92.9658 76.4922L94.6699 82.8857C94.879 83.2937 95 83.7574 95 84.25C95 85.9069 93.6569 87.25 92 87.25C90.3431 87.25 89 85.9069 89 84.25C89 83.7574 89.121 83.2937 89.3301 82.8857L91.0342 76.4922L91.0898 76.335C91.2501 75.9832 91.6035 75.75 92 75.75Z" fill="#A00028" stroke="#FF0E4A" stroke-width="2" stroke-linejoin="round"/>
</svg>
