<svg width="118" height="137" viewBox="0 0 118 137" fill="none" xmlns="http://www.w3.org/2000/svg">
<path d="M65 65.5C58.2 61.1 53.5 65.3333 52 68L66 72C82.4 73.6 89.1667 71.3333 90.5 70C89.3 66.8 78.3333 66.3333 73 66.5C70.2 68.5 66.5 66.6667 65 65.5Z" fill="#A00028"/>
<circle cx="59" cy="59" r="57" stroke="#A00028" stroke-width="4"/>
<path d="M43.5451 136V127.273H44.6019V131.159H49.2553V127.273H50.3121V136H49.2553V132.097H44.6019V136H43.5451ZM54.9506 136.136C54.3597 136.136 53.8413 135.996 53.3952 135.714C52.9521 135.433 52.6055 135.04 52.3555 134.534C52.1083 134.028 51.9847 133.437 51.9847 132.761C51.9847 132.08 52.1083 131.484 52.3555 130.976C52.6055 130.467 52.9521 130.072 53.3952 129.791C53.8413 129.51 54.3597 129.369 54.9506 129.369C55.5415 129.369 56.0586 129.51 56.5018 129.791C56.9478 130.072 57.2944 130.467 57.5415 130.976C57.7915 131.484 57.9165 132.08 57.9165 132.761C57.9165 133.437 57.7915 134.028 57.5415 134.534C57.2944 135.04 56.9478 135.433 56.5018 135.714C56.0586 135.996 55.5415 136.136 54.9506 136.136ZM54.9506 135.233C55.3995 135.233 55.7688 135.118 56.0586 134.888C56.3484 134.658 56.5629 134.355 56.7021 133.98C56.8413 133.605 56.9109 133.199 56.9109 132.761C56.9109 132.324 56.8413 131.916 56.7021 131.538C56.5629 131.161 56.3484 130.855 56.0586 130.622C55.7688 130.389 55.3995 130.273 54.9506 130.273C54.5018 130.273 54.1325 130.389 53.8427 130.622C53.5529 130.855 53.3384 131.161 53.1992 131.538C53.06 131.916 52.9904 132.324 52.9904 132.761C52.9904 133.199 53.06 133.605 53.1992 133.98C53.3384 134.355 53.5529 134.658 53.8427 134.888C54.1325 135.118 54.5018 135.233 54.9506 135.233ZM59.4517 136V129.455H60.4233V130.443H60.4915C60.6108 130.119 60.8267 129.857 61.1392 129.655C61.4517 129.453 61.804 129.352 62.196 129.352C62.2699 129.352 62.3622 129.354 62.473 129.357C62.5838 129.359 62.6676 129.364 62.7244 129.369V130.392C62.6903 130.384 62.6122 130.371 62.4901 130.354C62.3707 130.334 62.2443 130.324 62.1108 130.324C61.7926 130.324 61.5085 130.391 61.2585 130.524C61.0114 130.655 60.8153 130.837 60.6705 131.07C60.5284 131.3 60.4574 131.562 60.4574 131.858V136H59.4517ZM63.9165 136V129.455H64.8881V130.443H64.9563C65.0756 130.119 65.2915 129.857 65.604 129.655C65.9165 129.453 66.2688 129.352 66.6609 129.352C66.7347 129.352 66.8271 129.354 66.9379 129.357C67.0487 129.359 67.1325 129.364 67.1893 129.369V130.392C67.1552 130.384 67.0771 130.371 66.9549 130.354C66.8356 130.334 66.7092 130.324 66.5756 130.324C66.2575 130.324 65.9734 130.391 65.7234 130.524C65.4762 130.655 65.2802 130.837 65.1353 131.07C64.9933 131.3 64.9222 131.562 64.9222 131.858V136H63.9165ZM70.8413 136.136C70.2504 136.136 69.7319 135.996 69.2859 135.714C68.8427 135.433 68.4961 135.04 68.2461 134.534C67.9989 134.028 67.8754 133.437 67.8754 132.761C67.8754 132.08 67.9989 131.484 68.2461 130.976C68.4961 130.467 68.8427 130.072 69.2859 129.791C69.7319 129.51 70.2504 129.369 70.8413 129.369C71.4322 129.369 71.9492 129.51 72.3924 129.791C72.8384 130.072 73.185 130.467 73.4322 130.976C73.6822 131.484 73.8072 132.08 73.8072 132.761C73.8072 133.437 73.6822 134.028 73.4322 134.534C73.185 135.04 72.8384 135.433 72.3924 135.714C71.9492 135.996 71.4322 136.136 70.8413 136.136ZM70.8413 135.233C71.2901 135.233 71.6594 135.118 71.9492 134.888C72.239 134.658 72.4535 134.355 72.5927 133.98C72.7319 133.605 72.8015 133.199 72.8015 132.761C72.8015 132.324 72.7319 131.916 72.5927 131.538C72.4535 131.161 72.239 130.855 71.9492 130.622C71.6594 130.389 71.2901 130.273 70.8413 130.273C70.3924 130.273 70.0231 130.389 69.7333 130.622C69.4435 130.855 69.229 131.161 69.0898 131.538C68.9506 131.916 68.881 132.324 68.881 132.761C68.881 133.199 68.9506 133.605 69.0898 133.98C69.229 134.355 69.4435 134.658 69.7333 134.888C70.0231 135.118 70.3924 135.233 70.8413 135.233ZM75.3423 136V129.455H76.3139V130.443H76.3821C76.5014 130.119 76.7173 129.857 77.0298 129.655C77.3423 129.453 77.6946 129.352 78.0866 129.352C78.1605 129.352 78.2528 129.354 78.3636 129.357C78.4744 129.359 78.5582 129.364 78.6151 129.369V130.392C78.581 130.384 78.5028 130.371 78.3807 130.354C78.2614 130.334 78.1349 130.324 78.0014 130.324C77.6832 130.324 77.3991 130.391 77.1491 130.524C76.902 130.655 76.706 130.837 76.5611 131.07C76.419 131.3 76.348 131.562 76.348 131.858V136H75.3423Z" fill="white"/>
<path d="M91.4831 68.6054C91.7939 68.7848 91.9846 69.1171 91.983 69.4759C91.9814 69.8347 91.7874 70.1652 91.4751 70.3419C88.5565 71.9929 84.7158 72.7488 80.5004 72.8936C76.2696 73.039 71.5748 72.5718 66.8845 71.7036C57.8103 70.024 48.6226 66.8204 42.67 63.5115L42.1043 63.1906C41.0538 62.584 40.045 61.9331 39.0771 61.2444C38.6571 60.9454 38.5329 60.3764 38.7907 59.9299L47.7072 44.4861C47.9834 44.0078 48.5949 43.8439 49.0732 44.1201L91.4831 68.6054Z" stroke="white" stroke-width="2" stroke-linejoin="round"/>
<path d="M21.5 32.4641C22.6046 30.5509 25.0509 29.8954 26.9641 31L45.1506 41.5L40.6506 49.2942L22.4641 38.7942C20.5509 37.6897 19.8954 35.2433 21 33.3301L21.5 32.4641Z" fill="white"/>
<path d="M51.9715 67.0865C53.5671 65.7221 58.0495 61.6 61.9536 63.5966C66.8337 66.0924 68.7988 69.0214 72.1887 66.9072C75.5786 64.7931 88.7534 65.889 91.0026 71.2719" stroke="white" stroke-width="2"/>
<path d="M92 75.75C92.453 75.75 92.849 76.0546 92.9658 76.4922L94.6699 82.8857C94.879 83.2937 95 83.7574 95 84.25C95 85.9069 93.6569 87.25 92 87.25C90.3431 87.25 89 85.9069 89 84.25C89 83.7574 89.121 83.2937 89.3301 82.8857L91.0342 76.4922L91.0898 76.335C91.2501 75.9832 91.6035 75.75 92 75.75Z" fill="#A00028" stroke="white" stroke-width="2" stroke-linejoin="round"/>
</svg>
