<svg width="118" height="139" viewBox="0 0 118 139" fill="none" xmlns="http://www.w3.org/2000/svg">
<circle cx="59" cy="59" r="57" stroke="#E0A32A" stroke-width="4"/>
<rect x="43" y="43" width="8" height="23" fill="#E0A32A" fill-opacity="0.3"/>
<rect x="57" y="43" width="8" height="23" fill="#E0A32A" fill-opacity="0.3"/>
<rect x="71" y="43" width="8" height="23" fill="#E0A32A" fill-opacity="0.3"/>
<path d="M40.7095 127.818H42.1811L45.6413 136.27H45.7607L49.2209 127.818H50.6925V138H49.5391V130.264H49.4396L46.2578 138H45.1442L41.9624 130.264H41.8629V138H40.7095V127.818ZM57.818 134.878V130.364H58.9913V138H57.818V136.707H57.7385C57.5595 137.095 57.2811 137.425 56.9032 137.697C56.5254 137.965 56.0481 138.099 55.4714 138.099C54.9941 138.099 54.5699 137.995 54.1987 137.786C53.8275 137.574 53.5358 137.256 53.3237 136.832C53.1116 136.404 53.0055 135.866 53.0055 135.216V130.364H54.1788V135.136C54.1788 135.693 54.3346 136.137 54.6461 136.469C54.961 136.8 55.362 136.966 55.8493 136.966C56.1409 136.966 56.4376 136.891 56.7392 136.742C57.0441 136.593 57.2993 136.364 57.5048 136.056C57.7136 135.748 57.818 135.355 57.818 134.878ZM66.5494 132.074L65.4954 132.372C65.4291 132.196 65.3313 132.026 65.2021 131.86C65.0761 131.691 64.9038 131.552 64.685 131.442C64.4663 131.333 64.1862 131.278 63.8448 131.278C63.3775 131.278 62.988 131.386 62.6765 131.602C62.3683 131.814 62.2141 132.084 62.2141 132.412C62.2141 132.704 62.3202 132.934 62.5323 133.103C62.7444 133.272 63.0759 133.413 63.5266 133.526L64.6602 133.804C65.3429 133.97 65.8517 134.223 66.1864 134.565C66.5212 134.903 66.6886 135.339 66.6886 135.872C66.6886 136.31 66.5626 136.701 66.3107 137.045C66.0621 137.39 65.7141 137.662 65.2667 137.861C64.8192 138.06 64.2989 138.159 63.7056 138.159C62.9267 138.159 62.2821 137.99 61.7717 137.652C61.2612 137.314 60.9381 136.82 60.8022 136.17L61.9158 135.892C62.0219 136.303 62.2224 136.611 62.5174 136.817C62.8157 137.022 63.2051 137.125 63.6857 137.125C64.2326 137.125 64.6668 137.009 64.9883 136.777C65.3131 136.542 65.4755 136.26 65.4755 135.932C65.4755 135.667 65.3827 135.445 65.1971 135.266C65.0115 135.083 64.7264 134.947 64.342 134.858L63.0692 134.56C62.3699 134.394 61.8562 134.137 61.5281 133.789C61.2032 133.438 61.0408 132.999 61.0408 132.472C61.0408 132.041 61.1618 131.66 61.4038 131.328C61.649 130.997 61.9821 130.737 62.4031 130.548C62.8273 130.359 63.3079 130.264 63.8448 130.264C64.6005 130.264 65.1938 130.43 65.6246 130.761C66.0588 131.093 66.3671 131.53 66.5494 132.074ZM68.4547 138V130.364H69.628V138H68.4547ZM69.0513 129.091C68.8226 129.091 68.6254 129.013 68.4597 128.857C68.2973 128.701 68.2161 128.514 68.2161 128.295C68.2161 128.077 68.2973 127.889 68.4597 127.734C68.6254 127.578 68.8226 127.5 69.0513 127.5C69.28 127.5 69.4756 127.578 69.638 127.734C69.8037 127.889 69.8865 128.077 69.8865 128.295C69.8865 128.514 69.8037 128.701 69.638 128.857C69.4756 129.013 69.28 129.091 69.0513 129.091ZM74.8793 138.159C74.1634 138.159 73.5469 137.99 73.0298 137.652C72.5128 137.314 72.1151 136.848 71.8366 136.255C71.5582 135.662 71.419 134.984 71.419 134.222C71.419 133.446 71.5616 132.762 71.8466 132.168C72.1349 131.572 72.536 131.106 73.0497 130.771C73.5668 130.433 74.17 130.264 74.8594 130.264C75.3963 130.264 75.8802 130.364 76.3111 130.562C76.742 130.761 77.0949 131.04 77.37 131.398C77.6451 131.756 77.8158 132.173 77.8821 132.651H76.7088C76.6193 132.303 76.4205 131.994 76.1122 131.726C75.8073 131.454 75.3963 131.318 74.8793 131.318C74.4219 131.318 74.0208 131.437 73.6761 131.676C73.3348 131.911 73.0679 132.245 72.8757 132.675C72.6868 133.103 72.5923 133.605 72.5923 134.182C72.5923 134.772 72.6851 135.286 72.8707 135.723C73.0597 136.161 73.3248 136.5 73.6662 136.742C74.0109 136.984 74.4152 137.105 74.8793 137.105C75.1842 137.105 75.4609 137.052 75.7095 136.946C75.9581 136.84 76.1686 136.688 76.3409 136.489C76.5133 136.29 76.6359 136.051 76.7088 135.773H77.8821C77.8158 136.223 77.6518 136.629 77.3899 136.991C77.1314 137.349 76.7884 137.634 76.3608 137.846C75.9366 138.055 75.4427 138.159 74.8793 138.159Z" fill="white"/>
<path d="M90 82H31V42H90V82ZM33 80H46V67H42V44H33V80ZM52 67H48V80H60V67H56V44H52V67ZM66 67H62V80H74V67H70V44H66V67ZM80 67H76V80H88V44H80V67ZM44 65H50V44H44V65ZM58 65H64V44H58V65ZM72 44V65H78V44H72Z" fill="#FAC65C"/>
</svg>
