<svg width="118" height="137" viewBox="0 0 118 137" fill="none" xmlns="http://www.w3.org/2000/svg">
<circle cx="59" cy="59" r="57" stroke="#E0A32A" stroke-width="4"/>
<rect x="43" y="43" width="8" height="23" fill="#E0A32A" fill-opacity="0.3"/>
<rect x="57" y="43" width="8" height="23" fill="#E0A32A" fill-opacity="0.3"/>
<rect x="71" y="43" width="8" height="23" fill="#E0A32A" fill-opacity="0.3"/>
<path d="M43.3224 127.273H44.5838L47.5497 134.517H47.652L50.6179 127.273H51.8793V136H50.8906V129.369H50.8054L48.0781 136H47.1236L44.3963 129.369H44.3111V136H43.3224V127.273ZM57.9869 133.324V129.455H58.9925V136H57.9869V134.892H57.9187C57.7653 135.224 57.5266 135.507 57.2028 135.74C56.8789 135.97 56.4698 136.085 55.9755 136.085C55.5664 136.085 55.2028 135.996 54.8846 135.817C54.5664 135.635 54.3164 135.362 54.1346 134.999C53.9528 134.632 53.8619 134.17 53.8619 133.614V129.455H54.8675V133.545C54.8675 134.023 55.0011 134.403 55.2681 134.688C55.538 134.972 55.8817 135.114 56.2994 135.114C56.5494 135.114 56.8036 135.05 57.0621 134.922C57.3235 134.794 57.5423 134.598 57.7184 134.334C57.8974 134.07 57.9869 133.733 57.9869 133.324ZM65.4709 130.92L64.5675 131.176C64.5107 131.026 64.4268 130.879 64.3161 130.737C64.2081 130.592 64.0604 130.473 63.8729 130.379C63.6854 130.286 63.4453 130.239 63.1527 130.239C62.7521 130.239 62.4183 130.331 62.1513 130.516C61.8871 130.697 61.755 130.929 61.755 131.21C61.755 131.46 61.8459 131.658 62.0277 131.803C62.2095 131.947 62.4936 132.068 62.88 132.165L63.8516 132.403C64.4368 132.545 64.8729 132.763 65.1598 133.055C65.4467 133.345 65.5902 133.719 65.5902 134.176C65.5902 134.551 65.4822 134.886 65.2663 135.182C65.0533 135.477 64.755 135.71 64.3714 135.881C63.9879 136.051 63.5419 136.136 63.0334 136.136C62.3658 136.136 61.8132 135.991 61.3757 135.702C60.9382 135.412 60.6612 134.989 60.5447 134.432L61.4993 134.193C61.5902 134.545 61.7621 134.81 62.0149 134.986C62.2706 135.162 62.6044 135.25 63.0163 135.25C63.4851 135.25 63.8572 135.151 64.1328 134.952C64.4112 134.75 64.5504 134.509 64.5504 134.227C64.5504 134 64.4709 133.81 64.3118 133.656C64.1527 133.5 63.9084 133.384 63.5788 133.307L62.4879 133.051C61.8885 132.909 61.4482 132.689 61.1669 132.391C60.8885 132.089 60.7493 131.713 60.7493 131.261C60.7493 130.892 60.853 130.565 61.0604 130.281C61.2706 129.997 61.5561 129.774 61.9169 129.612C62.2805 129.45 62.6925 129.369 63.1527 129.369C63.8004 129.369 64.3089 129.511 64.6783 129.795C65.0504 130.08 65.3146 130.455 65.4709 130.92ZM67.104 136V129.455H68.1097V136H67.104ZM67.6154 128.364C67.4194 128.364 67.2504 128.297 67.1083 128.163C66.9691 128.03 66.8995 127.869 66.8995 127.682C66.8995 127.494 66.9691 127.334 67.1083 127.2C67.2504 127.067 67.4194 127 67.6154 127C67.8114 127 67.979 127.067 68.1183 127.2C68.2603 127.334 68.3313 127.494 68.3313 127.682C68.3313 127.869 68.2603 128.03 68.1183 128.163C67.979 128.297 67.8114 128.364 67.6154 128.364ZM72.6108 136.136C71.9972 136.136 71.4688 135.991 71.0256 135.702C70.5824 135.412 70.2415 135.013 70.0028 134.504C69.7642 133.996 69.6449 133.415 69.6449 132.761C69.6449 132.097 69.767 131.51 70.0114 131.001C70.2585 130.49 70.6023 130.091 71.0426 129.804C71.4858 129.514 72.0028 129.369 72.5938 129.369C73.054 129.369 73.4688 129.455 73.8381 129.625C74.2074 129.795 74.5099 130.034 74.7457 130.341C74.9815 130.648 75.1278 131.006 75.1847 131.415H74.179C74.1023 131.116 73.9318 130.852 73.6676 130.622C73.4063 130.389 73.054 130.273 72.6108 130.273C72.2188 130.273 71.875 130.375 71.5795 130.58C71.2869 130.781 71.0582 131.067 70.8935 131.436C70.7315 131.803 70.6506 132.233 70.6506 132.727C70.6506 133.233 70.7301 133.673 70.8892 134.048C71.0511 134.423 71.2784 134.714 71.571 134.922C71.8665 135.129 72.2131 135.233 72.6108 135.233C72.8722 135.233 73.1094 135.188 73.3224 135.097C73.5355 135.006 73.7159 134.875 73.8636 134.705C74.0114 134.534 74.1165 134.33 74.179 134.091H75.1847C75.1278 134.477 74.9872 134.825 74.7628 135.135C74.5412 135.442 74.2472 135.686 73.8807 135.868C73.517 136.047 73.0938 136.136 72.6108 136.136Z" fill="white"/>
<path d="M90 82H31V42H90V82ZM33 80H46V67H42V44H33V80ZM52 67H48V80H60V67H56V44H52V67ZM66 67H62V80H74V67H70V44H66V67ZM80 67H76V80H88V44H80V67ZM44 65H50V44H44V65ZM58 65H64V44H58V65ZM72 44V65H78V44H72Z" fill="white"/>
</svg>
