<svg width="118" height="139" viewBox="0 0 118 139" fill="none" xmlns="http://www.w3.org/2000/svg">
<circle cx="59" cy="59" r="57" stroke="#5361AE" stroke-width="4"/>
<path d="M36.9357 127.273H38.1971L41.163 134.517H41.2653L44.2312 127.273H45.4925V136H44.5039V129.369H44.4187L41.6914 136H40.7369L38.0096 129.369H37.9244V136H36.9357V127.273ZM48.1229 138.455C47.9524 138.455 47.8004 138.44 47.6669 138.412C47.5334 138.386 47.4411 138.361 47.3899 138.335L47.6456 137.449C47.8899 137.511 48.1058 137.534 48.2933 137.517C48.4808 137.5 48.647 137.416 48.7919 137.266C48.9396 137.118 49.0746 136.878 49.1967 136.545L49.3842 136.034L46.9638 129.455H48.0547L49.8615 134.67H49.9297L51.7365 129.455H52.8274L50.049 136.955C49.924 137.293 49.7692 137.572 49.5845 137.794C49.3999 138.018 49.1854 138.185 48.9411 138.293C48.6996 138.401 48.4268 138.455 48.1229 138.455ZM58.7912 130.92L57.8878 131.176C57.831 131.026 57.7472 130.879 57.6364 130.737C57.5284 130.592 57.3807 130.473 57.1932 130.379C57.0057 130.286 56.7656 130.239 56.473 130.239C56.0724 130.239 55.7386 130.331 55.4716 130.516C55.2074 130.697 55.0753 130.929 55.0753 131.21C55.0753 131.46 55.1662 131.658 55.348 131.803C55.5298 131.947 55.8139 132.068 56.2003 132.165L57.1719 132.403C57.7571 132.545 58.1932 132.763 58.4801 133.055C58.767 133.345 58.9105 133.719 58.9105 134.176C58.9105 134.551 58.8026 134.886 58.5866 135.182C58.3736 135.477 58.0753 135.71 57.6918 135.881C57.3082 136.051 56.8622 136.136 56.3537 136.136C55.6861 136.136 55.1335 135.991 54.696 135.702C54.2585 135.412 53.9815 134.989 53.8651 134.432L54.8196 134.193C54.9105 134.545 55.0824 134.81 55.3352 134.986C55.5909 135.162 55.9247 135.25 56.3366 135.25C56.8054 135.25 57.1776 135.151 57.4531 134.952C57.7315 134.75 57.8707 134.509 57.8707 134.227C57.8707 134 57.7912 133.81 57.6321 133.656C57.473 133.5 57.2287 133.384 56.8991 133.307L55.8082 133.051C55.2088 132.909 54.7685 132.689 54.4872 132.391C54.2088 132.089 54.0696 131.713 54.0696 131.261C54.0696 130.892 54.1733 130.565 54.3807 130.281C54.5909 129.997 54.8764 129.774 55.2372 129.612C55.6009 129.45 56.0128 129.369 56.473 129.369C57.1207 129.369 57.6293 129.511 57.9986 129.795C58.3707 130.08 58.6349 130.455 58.7912 130.92ZM63.271 129.455V130.307H59.8789V129.455H63.271ZM60.8675 127.886H61.8732V134.125C61.8732 134.409 61.9144 134.622 61.9968 134.764C62.082 134.903 62.19 134.997 62.3207 135.045C62.4542 135.091 62.5948 135.114 62.7425 135.114C62.8533 135.114 62.9442 135.108 63.0153 135.097C63.0863 135.082 63.1431 135.071 63.1857 135.062L63.3903 135.966C63.3221 135.991 63.2269 136.017 63.1048 136.043C62.9826 136.071 62.8278 136.085 62.6403 136.085C62.3562 136.085 62.0778 136.024 61.805 135.902C61.5352 135.78 61.3107 135.594 61.1317 135.344C60.9556 135.094 60.8675 134.778 60.8675 134.398V127.886ZM67.4577 136.136C66.8271 136.136 66.283 135.997 65.8256 135.719C65.3711 135.438 65.0202 135.045 64.7731 134.543C64.5288 134.037 64.4066 133.449 64.4066 132.778C64.4066 132.108 64.5288 131.517 64.7731 131.006C65.0202 130.491 65.364 130.091 65.8043 129.804C66.2475 129.514 66.7646 129.369 67.3555 129.369C67.6964 129.369 68.033 129.426 68.3654 129.54C68.6978 129.653 69.0004 129.838 69.2731 130.094C69.5458 130.347 69.7631 130.682 69.9251 131.099C70.087 131.517 70.168 132.031 70.168 132.642V133.068H65.1225V132.199H69.1452C69.1452 131.83 69.0714 131.5 68.9237 131.21C68.7788 130.92 68.5714 130.692 68.3015 130.524C68.0344 130.357 67.7191 130.273 67.3555 130.273C66.9549 130.273 66.6083 130.372 66.3157 130.571C66.0259 130.767 65.8029 131.023 65.6467 131.338C65.4904 131.653 65.4123 131.991 65.4123 132.352V132.932C65.4123 133.426 65.4975 133.845 65.668 134.189C65.8413 134.53 66.0813 134.79 66.3881 134.969C66.695 135.145 67.0515 135.233 67.4577 135.233C67.7219 135.233 67.9606 135.196 68.1737 135.122C68.3896 135.045 68.5756 134.932 68.7319 134.781C68.8881 134.628 69.0089 134.437 69.0941 134.21L70.0657 134.483C69.9634 134.812 69.7915 135.102 69.5501 135.352C69.3086 135.599 69.0103 135.793 68.6552 135.932C68.3001 136.068 67.9009 136.136 67.4577 136.136ZM71.6978 136V129.455H72.6694V130.443H72.7376C72.8569 130.119 73.0728 129.857 73.3853 129.655C73.6978 129.453 74.0501 129.352 74.4421 129.352C74.516 129.352 74.6083 129.354 74.7191 129.357C74.8299 129.359 74.9137 129.364 74.9705 129.369V130.392C74.9364 130.384 74.8583 130.371 74.7362 130.354C74.6168 130.334 74.4904 130.324 74.3569 130.324C74.0387 130.324 73.7546 130.391 73.5046 130.524C73.2575 130.655 73.0614 130.837 72.9165 131.07C72.7745 131.3 72.7035 131.562 72.7035 131.858V136H71.6978ZM77.0096 138.455C76.8391 138.455 76.6871 138.44 76.5536 138.412C76.4201 138.386 76.3278 138.361 76.2766 138.335L76.5323 137.449C76.7766 137.511 76.9925 137.534 77.18 137.517C77.3675 137.5 77.5337 137.416 77.6786 137.266C77.8263 137.118 77.9613 136.878 78.0835 136.545L78.271 136.034L75.8505 129.455H76.9414L78.7482 134.67H78.8164L80.6232 129.455H81.7141L78.9357 136.955C78.8107 137.293 78.6559 137.572 78.4712 137.794C78.2866 138.018 78.0721 138.185 77.8278 138.293C77.5863 138.401 77.3136 138.455 77.0096 138.455Z" fill="white"/>
<circle cx="58" cy="57" r="27" fill="#5361AE" fill-opacity="0.3" stroke="white" stroke-width="2"/>
<path d="M77 76.5L84 83.5" stroke="white" stroke-width="2"/>
<path d="M100.168 93.8255L87.0269 80.6843L81.1738 86.5374L94.3151 99.6786" stroke="white" stroke-width="2"/>
<mask id="path-6-outside-1_108_3598" maskUnits="userSpaceOnUse" x="42" y="46" width="32" height="22" fill="black">
<rect fill="white" x="42" y="46" width="32" height="22"/>
<path d="M58.001 48C63.3304 48.0001 68.0559 51.5405 71 57C68.0559 62.4594 63.3303 65.9999 58.001 66C52.6713 66 47.9442 62.4598 45 57C47.9442 51.5401 52.6713 48 58.001 48Z"/>
</mask>
<path d="M58.001 48L58.001 46H58.001V48ZM71 57L72.7603 57.9493L73.2723 57L72.7603 56.0507L71 57ZM58.001 66V68H58.001L58.001 66ZM45 57L43.2396 56.0507L42.7277 57L43.2396 57.9493L45 57ZM58.001 48L58.0009 50C62.3699 50.0001 66.5228 52.9113 69.2397 57.9493L71 57L72.7603 56.0507C69.589 50.1698 64.2909 46.0001 58.001 46L58.001 48ZM71 57L69.2397 56.0507C66.5228 61.0886 62.3698 63.9999 58.0009 64L58.001 66L58.001 68C64.2908 67.9998 69.589 63.8301 72.7603 57.9493L71 57ZM58.001 66V64C53.6315 64 49.4771 61.0888 46.7604 56.0507L45 57L43.2396 57.9493C46.4112 63.8308 51.7111 68 58.001 68V66ZM45 57L46.7604 57.9493C49.4771 52.9112 53.6315 50 58.001 50V48V46C51.711 46 46.4112 50.1691 43.2396 56.0507L45 57Z" fill="white" mask="url(#path-6-outside-1_108_3598)"/>
<path d="M58 47C61.3137 47 64 49.6863 64 53C64 56.3137 61.3137 59 58 59C54.6863 59 52 56.3137 52 53C52 49.6863 54.6863 47 58 47ZM60 49C58.8954 49 58 49.8954 58 51C58 52.1046 58.8954 53 60 53C61.1046 53 62 52.1046 62 51C62 49.8954 61.1046 49 60 49Z" fill="white"/>
</svg>
