<svg width="118" height="141" viewBox="0 0 118 141" fill="none" xmlns="http://www.w3.org/2000/svg">
<path d="M33.2583 127.818H34.7299L38.1902 136.27H38.3095L41.7697 127.818H43.2413V138H42.0879V130.264H41.9885L38.8066 138H37.693L34.5112 130.264H34.4118V138H33.2583V127.818ZM46.31 140.864C46.1112 140.864 45.9338 140.847 45.7781 140.814C45.6223 140.784 45.5146 140.754 45.4549 140.724L45.7532 139.69C46.0382 139.763 46.2901 139.79 46.5089 139.77C46.7276 139.75 46.9215 139.652 47.0906 139.477C47.2629 139.304 47.4203 139.024 47.5629 138.636L47.7816 138.04L44.9577 130.364H46.2305L48.3384 136.449H48.418L50.5259 130.364H51.7987L48.5572 139.114C48.4113 139.508 48.2307 139.835 48.0153 140.093C47.7998 140.355 47.5496 140.549 47.2646 140.675C46.9828 140.801 46.6647 140.864 46.31 140.864ZM58.7564 132.074L57.7024 132.372C57.6361 132.196 57.5384 132.026 57.4091 131.86C57.2831 131.691 57.1108 131.552 56.892 131.442C56.6733 131.333 56.3932 131.278 56.0518 131.278C55.5845 131.278 55.1951 131.386 54.8835 131.602C54.5753 131.814 54.4212 132.084 54.4212 132.412C54.4212 132.704 54.5272 132.934 54.7393 133.103C54.9515 133.272 55.2829 133.413 55.7337 133.526L56.8672 133.804C57.55 133.97 58.0587 134.223 58.3935 134.565C58.7282 134.903 58.8956 135.339 58.8956 135.872C58.8956 136.31 58.7696 136.701 58.5178 137.045C58.2692 137.39 57.9212 137.662 57.4737 137.861C57.0263 138.06 56.5059 138.159 55.9126 138.159C55.1338 138.159 54.4891 137.99 53.9787 137.652C53.4683 137.314 53.1451 136.82 53.0092 136.17L54.1229 135.892C54.2289 136.303 54.4295 136.611 54.7244 136.817C55.0227 137.022 55.4122 137.125 55.8928 137.125C56.4396 137.125 56.8738 137.009 57.1953 136.777C57.5201 136.542 57.6825 136.26 57.6825 135.932C57.6825 135.667 57.5897 135.445 57.4041 135.266C57.2185 135.083 56.9335 134.947 56.549 134.858L55.2763 134.56C54.5769 134.394 54.0632 134.137 53.7351 133.789C53.4103 133.438 53.2479 132.999 53.2479 132.472C53.2479 132.041 53.3688 131.66 53.6108 131.328C53.8561 130.997 54.1892 130.737 54.6101 130.548C55.0343 130.359 55.5149 130.264 56.0518 130.264C56.8075 130.264 57.4008 130.43 57.8317 130.761C58.2659 131.093 58.5741 131.53 58.7564 132.074ZM63.9828 130.364V131.358H60.0254V130.364H63.9828ZM61.1788 128.534H62.3521V135.812C62.3521 136.144 62.4002 136.393 62.4963 136.558C62.5957 136.721 62.7217 136.83 62.8741 136.886C63.0299 136.939 63.194 136.966 63.3663 136.966C63.4956 136.966 63.6016 136.959 63.6845 136.946C63.7673 136.929 63.8336 136.916 63.8833 136.906L64.122 137.96C64.0424 137.99 63.9314 138.02 63.7889 138.05C63.6464 138.083 63.4657 138.099 63.247 138.099C62.9155 138.099 62.5907 138.028 62.2725 137.886C61.9577 137.743 61.6958 137.526 61.487 137.234C61.2815 136.943 61.1788 136.575 61.1788 136.131V128.534ZM68.8674 138.159C68.1316 138.159 67.4969 137.997 66.9632 137.672C66.4329 137.344 66.0236 136.886 65.7353 136.3C65.4502 135.71 65.3077 135.024 65.3077 134.241C65.3077 133.459 65.4502 132.77 65.7353 132.173C66.0236 131.573 66.4247 131.106 66.9384 130.771C67.4554 130.433 68.0587 130.264 68.748 130.264C69.1458 130.264 69.5385 130.33 69.9263 130.463C70.3141 130.596 70.6671 130.811 70.9853 131.109C71.3034 131.404 71.557 131.795 71.7459 132.283C71.9348 132.77 72.0293 133.37 72.0293 134.082V134.58H66.1429V133.565H70.8361C70.8361 133.134 70.7499 132.75 70.5776 132.412C70.4086 132.074 70.1666 131.807 69.8517 131.612C69.5402 131.416 69.1723 131.318 68.748 131.318C68.2807 131.318 67.8764 131.434 67.535 131.666C67.1969 131.895 66.9367 132.193 66.7544 132.561C66.5721 132.929 66.481 133.323 66.481 133.744V134.42C66.481 134.997 66.5804 135.486 66.7793 135.887C66.9815 136.285 67.2615 136.588 67.6195 136.797C67.9775 137.002 68.3934 137.105 68.8674 137.105C69.1756 137.105 69.454 137.062 69.7026 136.976C69.9545 136.886 70.1716 136.754 70.3539 136.578C70.5362 136.399 70.677 136.177 70.7765 135.912L71.91 136.23C71.7907 136.615 71.5901 136.953 71.3084 137.244C71.0267 137.533 70.6787 137.758 70.2644 137.92C69.8501 138.08 69.3844 138.159 68.8674 138.159ZM73.8141 138V130.364H74.9476V131.517H75.0272C75.1664 131.139 75.4183 130.833 75.7828 130.597C76.1474 130.362 76.5584 130.244 77.0158 130.244C77.102 130.244 77.2097 130.246 77.339 130.249C77.4682 130.253 77.566 130.258 77.6323 130.264V131.457C77.5925 131.447 77.5014 131.433 77.3588 131.413C77.2196 131.389 77.0721 131.378 76.9164 131.378C76.5452 131.378 76.2137 131.456 75.9221 131.612C75.6337 131.764 75.405 131.976 75.236 132.248C75.0703 132.516 74.9874 132.823 74.9874 133.168V138H73.8141ZM80.0112 140.864C79.8123 140.864 79.635 140.847 79.4792 140.814C79.3234 140.784 79.2157 140.754 79.1561 140.724L79.4544 139.69C79.7394 139.763 79.9913 139.79 80.21 139.77C80.4288 139.75 80.6227 139.652 80.7917 139.477C80.9641 139.304 81.1215 139.024 81.264 138.636L81.4828 138.04L78.6589 130.364H79.9316L82.0396 136.449H82.1191L84.2271 130.364H85.4998L82.2583 139.114C82.1125 139.508 81.9319 139.835 81.7164 140.093C81.501 140.355 81.2508 140.549 80.9657 140.675C80.684 140.801 80.3658 140.864 80.0112 140.864Z" fill="white"/>
<circle cx="58" cy="57" r="27" fill="#5361AE" fill-opacity="0.3" stroke="#7385E9" stroke-width="2"/>
<path d="M77 76.5L84 83.5" stroke="#7385E9" stroke-width="2"/>
<path d="M101.5 95.1573L87.0269 80.6843L81.1738 86.5374L95.6365 101" stroke="#7385E9" stroke-width="2"/>
<mask id="path-5-outside-1_108_3598" maskUnits="userSpaceOnUse" x="42" y="46" width="32" height="22" fill="black">
<rect fill="white" x="42" y="46" width="32" height="22"/>
<path d="M58.001 48C63.3304 48.0001 68.0559 51.5405 71 57C68.0559 62.4594 63.3303 65.9999 58.001 66C52.6713 66 47.9442 62.4598 45 57C47.9442 51.5401 52.6713 48 58.001 48Z"/>
</mask>
<path d="M58.001 48L58.001 46H58.001V48ZM71 57L72.7603 57.9493L73.2723 57L72.7603 56.0507L71 57ZM58.001 66V68H58.001L58.001 66ZM45 57L43.2396 56.0507L42.7277 57L43.2396 57.9493L45 57ZM58.001 48L58.0009 50C62.3699 50.0001 66.5228 52.9113 69.2397 57.9493L71 57L72.7603 56.0507C69.589 50.1698 64.2909 46.0001 58.001 46L58.001 48ZM71 57L69.2397 56.0507C66.5228 61.0886 62.3698 63.9999 58.0009 64L58.001 66L58.001 68C64.2908 67.9998 69.589 63.8301 72.7603 57.9493L71 57ZM58.001 66V64C53.6315 64 49.4771 61.0888 46.7604 56.0507L45 57L43.2396 57.9493C46.4112 63.8308 51.7111 68 58.001 68V66ZM45 57L46.7604 57.9493C49.4771 52.9112 53.6315 50 58.001 50V48V46C51.711 46 46.4112 50.1691 43.2396 56.0507L45 57Z" fill="#7385E9" mask="url(#path-5-outside-1_108_3598)"/>
<path d="M58 47C61.3137 47 64 49.6863 64 53C64 56.3137 61.3137 59 58 59C54.6863 59 52 56.3137 52 53C52 49.6863 54.6863 47 58 47ZM60 49C58.8954 49 58 49.8954 58 51C58 52.1046 58.8954 53 60 53C61.1046 53 62 52.1046 62 51C62 49.8954 61.1046 49 60 49Z" fill="#7385E9"/>
<circle cx="59" cy="59" r="57" stroke="#5361AE" stroke-width="4"/>
</svg>
