<svg width="118" height="137" viewBox="0 0 118 137" fill="none" xmlns="http://www.w3.org/2000/svg">
<circle cx="59" cy="59" r="57" stroke="#FC23C6" stroke-width="4"/>
<path d="M33.7248 136V127.273H36.6737C37.3555 127.273 37.9151 127.389 38.3526 127.622C38.7901 127.852 39.114 128.169 39.3242 128.572C39.5344 128.976 39.6396 129.435 39.6396 129.949C39.6396 130.463 39.5344 130.919 39.3242 131.317C39.114 131.714 38.7915 132.027 38.3569 132.254C37.9222 132.479 37.3668 132.591 36.6907 132.591H34.3043V131.636H36.6566C37.1225 131.636 37.4975 131.568 37.7816 131.432C38.0685 131.295 38.2759 131.102 38.4038 130.852C38.5344 130.599 38.5998 130.298 38.5998 129.949C38.5998 129.599 38.5344 129.294 38.4038 129.033C38.2731 128.771 38.0643 128.57 37.7773 128.428C37.4904 128.283 37.1112 128.21 36.6396 128.21H34.7816V136H33.7248ZM37.8327 132.08L39.9805 136H38.7532L36.6396 132.08H37.8327ZM43.853 136.136C43.2621 136.136 42.7436 135.996 42.2976 135.714C41.8544 135.433 41.5078 135.04 41.2578 134.534C41.0107 134.028 40.8871 133.437 40.8871 132.761C40.8871 132.08 41.0107 131.484 41.2578 130.976C41.5078 130.467 41.8544 130.072 42.2976 129.791C42.7436 129.51 43.2621 129.369 43.853 129.369C44.4439 129.369 44.9609 129.51 45.4041 129.791C45.8501 130.072 46.1967 130.467 46.4439 130.976C46.6939 131.484 46.8189 132.08 46.8189 132.761C46.8189 133.437 46.6939 134.028 46.4439 134.534C46.1967 135.04 45.8501 135.433 45.4041 135.714C44.9609 135.996 44.4439 136.136 43.853 136.136ZM43.853 135.233C44.3018 135.233 44.6712 135.118 44.9609 134.888C45.2507 134.658 45.4652 134.355 45.6044 133.98C45.7436 133.605 45.8132 133.199 45.8132 132.761C45.8132 132.324 45.7436 131.916 45.6044 131.538C45.4652 131.161 45.2507 130.855 44.9609 130.622C44.6712 130.389 44.3018 130.273 43.853 130.273C43.4041 130.273 43.0348 130.389 42.745 130.622C42.4553 130.855 42.2408 131.161 42.1016 131.538C41.9624 131.916 41.8928 132.324 41.8928 132.761C41.8928 133.199 41.9624 133.605 42.1016 133.98C42.2408 134.355 42.4553 134.658 42.745 134.888C43.0348 135.118 43.4041 135.233 43.853 135.233ZM48.354 136V129.455H49.3256V130.477H49.4109C49.5472 130.128 49.7674 129.857 50.0714 129.663C50.3754 129.467 50.7404 129.369 51.1665 129.369C51.5984 129.369 51.9577 129.467 52.2447 129.663C52.5344 129.857 52.7603 130.128 52.9222 130.477H52.9904C53.158 130.139 53.4094 129.871 53.7447 129.672C54.0799 129.47 54.4819 129.369 54.9506 129.369C55.5359 129.369 56.0146 129.553 56.3867 129.919C56.7589 130.283 56.945 130.849 56.945 131.619V136H55.9393V131.619C55.9393 131.136 55.8072 130.791 55.543 130.584C55.2788 130.376 54.9677 130.273 54.6097 130.273C54.1495 130.273 53.793 130.412 53.5401 130.69C53.2873 130.966 53.1609 131.315 53.1609 131.739V136H52.1381V131.517C52.1381 131.145 52.0174 130.845 51.7759 130.618C51.5344 130.388 51.2234 130.273 50.8427 130.273C50.5813 130.273 50.337 130.342 50.1097 130.482C49.8853 130.621 49.7035 130.814 49.5643 131.061C49.4279 131.305 49.3597 131.588 49.3597 131.909V136H48.354ZM60.7099 136.153C60.2951 136.153 59.9187 136.075 59.5806 135.919C59.2425 135.76 58.9741 135.531 58.7752 135.233C58.5763 134.932 58.4769 134.568 58.4769 134.142C58.4769 133.767 58.5508 133.463 58.6985 133.23C58.8462 132.994 59.0437 132.81 59.2908 132.676C59.538 132.543 59.8107 132.443 60.109 132.378C60.4102 132.31 60.7127 132.256 61.0167 132.216C61.4144 132.165 61.7369 132.126 61.984 132.101C62.234 132.072 62.4158 132.026 62.5295 131.96C62.646 131.895 62.7042 131.781 62.7042 131.619V131.585C62.7042 131.165 62.5891 130.838 62.359 130.605C62.1317 130.372 61.7866 130.256 61.3235 130.256C60.8434 130.256 60.467 130.361 60.1942 130.571C59.9215 130.781 59.7298 131.006 59.619 131.244L58.6644 130.903C58.8349 130.506 59.0621 130.196 59.3462 129.974C59.6332 129.75 59.9457 129.594 60.2837 129.506C60.6246 129.415 60.9599 129.369 61.2894 129.369C61.4996 129.369 61.7411 129.395 62.0138 129.446C62.2894 129.494 62.555 129.595 62.8107 129.749C63.0692 129.902 63.2837 130.134 63.4542 130.443C63.6246 130.753 63.7099 131.168 63.7099 131.688V136H62.7042V135.114H62.6531C62.5849 135.256 62.4712 135.408 62.3121 135.57C62.1531 135.732 61.9414 135.869 61.6772 135.983C61.413 136.097 61.0906 136.153 60.7099 136.153ZM60.8633 135.25C61.261 135.25 61.5962 135.172 61.869 135.016C62.1445 134.859 62.3519 134.658 62.4911 134.411C62.6332 134.163 62.7042 133.903 62.7042 133.631V132.71C62.6616 132.761 62.5678 132.808 62.4229 132.851C62.2809 132.891 62.1161 132.926 61.9286 132.957C61.744 132.986 61.5636 133.011 61.3874 133.034C61.2141 133.054 61.0735 133.071 60.9656 133.085C60.7042 133.119 60.4599 133.175 60.2326 133.251C60.0082 133.325 59.8263 133.437 59.6871 133.588C59.5508 133.736 59.4826 133.937 59.4826 134.193C59.4826 134.543 59.6119 134.807 59.8704 134.986C60.1317 135.162 60.4627 135.25 60.8633 135.25ZM66.5511 132.062V136H65.5455V129.455H66.517V130.477H66.6023C66.7557 130.145 66.9886 129.878 67.3011 129.676C67.6136 129.472 68.017 129.369 68.5114 129.369C68.9545 129.369 69.3423 129.46 69.6747 129.642C70.0071 129.821 70.2656 130.094 70.4503 130.46C70.6349 130.824 70.7273 131.284 70.7273 131.841V136H69.7216V131.909C69.7216 131.395 69.5881 130.994 69.321 130.707C69.054 130.418 68.6875 130.273 68.2216 130.273C67.9006 130.273 67.6136 130.342 67.3608 130.482C67.1108 130.621 66.9134 130.824 66.7685 131.091C66.6236 131.358 66.5511 131.682 66.5511 132.062ZM75.2241 136.136C74.6104 136.136 74.082 135.991 73.6388 135.702C73.1957 135.412 72.8548 135.013 72.6161 134.504C72.3775 133.996 72.2582 133.415 72.2582 132.761C72.2582 132.097 72.3803 131.51 72.6246 131.001C72.8718 130.49 73.2156 130.091 73.6559 129.804C74.0991 129.514 74.6161 129.369 75.207 129.369C75.6673 129.369 76.082 129.455 76.4513 129.625C76.8207 129.795 77.1232 130.034 77.359 130.341C77.5948 130.648 77.7411 131.006 77.7979 131.415H76.7923C76.7156 131.116 76.5451 130.852 76.2809 130.622C76.0195 130.389 75.6673 130.273 75.2241 130.273C74.832 130.273 74.4883 130.375 74.1928 130.58C73.9002 130.781 73.6715 131.067 73.5067 131.436C73.3448 131.803 73.2638 132.233 73.2638 132.727C73.2638 133.233 73.3434 133.673 73.5025 134.048C73.6644 134.423 73.8917 134.714 74.1843 134.922C74.4798 135.129 74.8263 135.233 75.2241 135.233C75.4854 135.233 75.7227 135.188 75.9357 135.097C76.1488 135.006 76.3292 134.875 76.4769 134.705C76.6246 134.534 76.7298 134.33 76.7923 134.091H77.7979C77.7411 134.477 77.6005 134.825 77.3761 135.135C77.1545 135.442 76.8604 135.686 76.494 135.868C76.1303 136.047 75.707 136.136 75.2241 136.136ZM82.0124 136.136C81.3817 136.136 80.8377 135.997 80.3803 135.719C79.9258 135.438 79.5749 135.045 79.3278 134.543C79.0835 134.037 78.9613 133.449 78.9613 132.778C78.9613 132.108 79.0835 131.517 79.3278 131.006C79.5749 130.491 79.9187 130.091 80.359 129.804C80.8022 129.514 81.3192 129.369 81.9102 129.369C82.2511 129.369 82.5877 129.426 82.9201 129.54C83.2525 129.653 83.555 129.838 83.8278 130.094C84.1005 130.347 84.3178 130.682 84.4798 131.099C84.6417 131.517 84.7227 132.031 84.7227 132.642V133.068H79.6772V132.199H83.6999C83.6999 131.83 83.6261 131.5 83.4783 131.21C83.3335 130.92 83.1261 130.692 82.8562 130.524C82.5891 130.357 82.2738 130.273 81.9102 130.273C81.5096 130.273 81.163 130.372 80.8704 130.571C80.5806 130.767 80.3576 131.023 80.2013 131.338C80.0451 131.653 79.967 131.991 79.967 132.352V132.932C79.967 133.426 80.0522 133.845 80.2227 134.189C80.396 134.53 80.636 134.79 80.9428 134.969C81.2496 135.145 81.6062 135.233 82.0124 135.233C82.2766 135.233 82.5153 135.196 82.7283 135.122C82.9442 135.045 83.1303 134.932 83.2866 134.781C83.4428 134.628 83.5636 134.437 83.6488 134.21L84.6204 134.483C84.5181 134.812 84.3462 135.102 84.1048 135.352C83.8633 135.599 83.565 135.793 83.2099 135.932C82.8548 136.068 82.4556 136.136 82.0124 136.136Z" fill="white"/>
<path d="M66.7373 42.75C74.6132 42.7503 81 49.1271 81 56.9961C81 61.3361 79.0529 65.2192 75.9922 67.8301L57.3184 85.4766C56.942 85.8322 56.3565 85.8421 55.9688 85.499L36.0303 67.8506L35.7451 67.6025C32.8355 64.9963 31 61.2111 31 56.9961C31 49.1271 37.3868 42.7502 45.2627 42.75C49.5465 42.75 53.3871 44.6389 56 47.623C58.6129 44.6389 62.4535 42.75 66.7373 42.75Z" fill="#FC23C6" fill-opacity="0.3" stroke="white" stroke-width="2" stroke-linecap="round" stroke-linejoin="round"/>
<path d="M72 51L82.5 40.5" stroke="white" stroke-width="2"/>
<path d="M88.0848 34.2089L77 38.876L82.834 40.0431L84.0005 45.8765L88.0848 34.2089Z" stroke="white" stroke-width="2" stroke-linejoin="round"/>
<path d="M75 52C72.7909 52 71 50.2091 71 48" stroke="white" stroke-width="2"/>
<path d="M91 31L93 29" stroke="white" stroke-width="2" stroke-linecap="round"/>
<path d="M87.3658 30.366L86.6338 27.6339" stroke="white" stroke-width="2" stroke-linecap="round"/>
<path d="M94.7321 35.7321L92 35" stroke="white" stroke-width="2" stroke-linecap="round"/>
</svg>
