<svg width="118" height="139" viewBox="0 0 118 139" fill="none" xmlns="http://www.w3.org/2000/svg">
<circle cx="59" cy="59" r="57" stroke="#FC23C6" stroke-width="4"/>
<path d="M29.5123 138V127.818H32.9526C33.748 127.818 34.401 127.954 34.9114 128.226C35.4218 128.494 35.7997 128.864 36.0449 129.335C36.2902 129.805 36.4128 130.34 36.4128 130.94C36.4128 131.54 36.2902 132.072 36.0449 132.536C35.7997 133 35.4235 133.365 34.9164 133.63C34.4093 133.892 33.7613 134.023 32.9725 134.023H30.1884V132.909H32.9327C33.4763 132.909 33.9138 132.83 34.2452 132.67C34.58 132.511 34.8219 132.286 34.9711 131.994C35.1235 131.699 35.1998 131.348 35.1998 130.94C35.1998 130.533 35.1235 130.176 34.9711 129.871C34.8186 129.567 34.575 129.331 34.2402 129.165C33.9055 128.996 33.463 128.912 32.9128 128.912H30.7452V138H29.5123ZM34.3049 133.426L36.8105 138H35.3787L32.9128 133.426H34.3049ZM41.3285 138.159C40.6391 138.159 40.0342 137.995 39.5138 137.667C38.9968 137.339 38.5924 136.88 38.3008 136.29C38.0124 135.7 37.8683 135.01 37.8683 134.222C37.8683 133.426 38.0124 132.732 38.3008 132.138C38.5924 131.545 38.9968 131.085 39.5138 130.756C40.0342 130.428 40.6391 130.264 41.3285 130.264C42.0179 130.264 42.6211 130.428 43.1381 130.756C43.6585 131.085 44.0629 131.545 44.3512 132.138C44.6429 132.732 44.7887 133.426 44.7887 134.222C44.7887 135.01 44.6429 135.7 44.3512 136.29C44.0629 136.88 43.6585 137.339 43.1381 137.667C42.6211 137.995 42.0179 138.159 41.3285 138.159ZM41.3285 137.105C41.8522 137.105 42.283 136.971 42.6211 136.702C42.9592 136.434 43.2094 136.081 43.3718 135.643C43.5342 135.206 43.6154 134.732 43.6154 134.222C43.6154 133.711 43.5342 133.236 43.3718 132.795C43.2094 132.354 42.9592 131.998 42.6211 131.726C42.283 131.454 41.8522 131.318 41.3285 131.318C40.8048 131.318 40.3739 131.454 40.0359 131.726C39.6978 131.998 39.4476 132.354 39.2852 132.795C39.1228 133.236 39.0415 133.711 39.0415 134.222C39.0415 134.732 39.1228 135.206 39.2852 135.643C39.4476 136.081 39.6978 136.434 40.0359 136.702C40.3739 136.971 40.8048 137.105 41.3285 137.105ZM46.5797 138V130.364H47.7132V131.557H47.8127C47.9718 131.149 48.2286 130.833 48.5833 130.607C48.9379 130.379 49.3638 130.264 49.861 130.264C50.3648 130.264 50.784 130.379 51.1188 130.607C51.4569 130.833 51.7203 131.149 51.9093 131.557H51.9888C52.1844 131.162 52.4777 130.849 52.8688 130.617C53.2599 130.382 53.7289 130.264 54.2757 130.264C54.9585 130.264 55.517 130.478 55.9512 130.906C56.3854 131.33 56.6025 131.991 56.6025 132.889V138H55.4292V132.889C55.4292 132.326 55.275 131.923 54.9668 131.681C54.6586 131.439 54.2956 131.318 53.878 131.318C53.3411 131.318 52.9251 131.481 52.6301 131.805C52.3352 132.127 52.1877 132.535 52.1877 133.028V138H50.9945V132.77C50.9945 132.336 50.8536 131.986 50.5719 131.721C50.2902 131.452 49.9273 131.318 49.4831 131.318C49.1782 131.318 48.8932 131.399 48.628 131.562C48.3662 131.724 48.1541 131.95 47.9917 132.238C47.8326 132.523 47.753 132.853 47.753 133.227V138H46.5797ZM60.9949 138.179C60.5109 138.179 60.0718 138.088 59.6774 137.906C59.283 137.72 58.9698 137.453 58.7377 137.105C58.5057 136.754 58.3897 136.33 58.3897 135.832C58.3897 135.395 58.4759 135.04 58.6483 134.768C58.8206 134.493 59.051 134.278 59.3393 134.122C59.6277 133.966 59.9458 133.85 60.2939 133.774C60.6452 133.695 60.9982 133.632 61.3528 133.585C61.8168 133.526 62.193 133.481 62.4814 133.451C62.773 133.418 62.9851 133.363 63.1177 133.287C63.2536 133.211 63.3216 133.078 63.3216 132.889V132.849C63.3216 132.359 63.1873 131.978 62.9189 131.706C62.6537 131.434 62.251 131.298 61.7108 131.298C61.1506 131.298 60.7115 131.421 60.3933 131.666C60.0751 131.911 59.8514 132.173 59.7221 132.452L58.6085 132.054C58.8074 131.59 59.0725 131.229 59.4039 130.97C59.7387 130.708 60.1033 130.526 60.4977 130.423C60.8954 130.317 61.2865 130.264 61.671 130.264C61.9163 130.264 62.198 130.294 62.5162 130.354C62.8377 130.41 63.1475 130.528 63.4458 130.707C63.7475 130.886 63.9977 131.156 64.1966 131.517C64.3954 131.878 64.4949 132.362 64.4949 132.969V138H63.3216V136.966H63.2619C63.1824 137.132 63.0498 137.309 62.8642 137.498C62.6786 137.687 62.4316 137.848 62.1234 137.98C61.8152 138.113 61.439 138.179 60.9949 138.179ZM61.1738 137.125C61.6378 137.125 62.0289 137.034 62.3471 136.852C62.6686 136.669 62.9106 136.434 63.073 136.146C63.2387 135.857 63.3216 135.554 63.3216 135.236V134.162C63.2718 134.222 63.1625 134.276 62.9934 134.326C62.8277 134.372 62.6355 134.414 62.4167 134.45C62.2013 134.483 61.9908 134.513 61.7853 134.54C61.5832 134.563 61.4191 134.583 61.2931 134.599C60.9882 134.639 60.7032 134.704 60.438 134.793C60.1762 134.879 59.9641 135.01 59.8017 135.186C59.6426 135.358 59.563 135.594 59.563 135.892C59.563 136.3 59.7138 136.608 60.0154 136.817C60.3204 137.022 60.7065 137.125 61.1738 137.125ZM67.8097 133.406V138H66.6364V130.364H67.7699V131.557H67.8693C68.0483 131.169 68.3201 130.857 68.6847 130.622C69.0492 130.384 69.5199 130.264 70.0966 130.264C70.6136 130.264 71.0661 130.37 71.4538 130.582C71.8416 130.791 72.1432 131.109 72.3587 131.537C72.5741 131.961 72.6818 132.498 72.6818 133.148V138H71.5085V133.227C71.5085 132.627 71.3527 132.16 71.0412 131.825C70.7296 131.487 70.3021 131.318 69.7585 131.318C69.384 131.318 69.0492 131.399 68.7543 131.562C68.4626 131.724 68.2322 131.961 68.0632 132.273C67.8942 132.584 67.8097 132.962 67.8097 133.406ZM77.9281 138.159C77.2122 138.159 76.5957 137.99 76.0787 137.652C75.5616 137.314 75.1639 136.848 74.8855 136.255C74.6071 135.662 74.4679 134.984 74.4679 134.222C74.4679 133.446 74.6104 132.762 74.8954 132.168C75.1838 131.572 75.5848 131.106 76.0985 130.771C76.6156 130.433 77.2188 130.264 77.9082 130.264C78.4451 130.264 78.929 130.364 79.3599 130.562C79.7908 130.761 80.1438 131.04 80.4189 131.398C80.694 131.756 80.8646 132.173 80.9309 132.651H79.7576C79.6681 132.303 79.4693 131.994 79.161 131.726C78.8561 131.454 78.4451 131.318 77.9281 131.318C77.4707 131.318 77.0697 131.437 76.725 131.676C76.3836 131.911 76.1168 132.245 75.9245 132.675C75.7356 133.103 75.6412 133.605 75.6412 134.182C75.6412 134.772 75.734 135.286 75.9196 135.723C76.1085 136.161 76.3736 136.5 76.715 136.742C77.0597 136.984 77.4641 137.105 77.9281 137.105C78.233 137.105 78.5098 137.052 78.7583 136.946C79.0069 136.84 79.2174 136.688 79.3897 136.489C79.5621 136.29 79.6847 136.051 79.7576 135.773H80.9309C80.8646 136.223 80.7006 136.629 80.4387 136.991C80.1802 137.349 79.8372 137.634 79.4096 137.846C78.9854 138.055 78.4915 138.159 77.9281 138.159ZM85.8478 138.159C85.112 138.159 84.4773 137.997 83.9437 137.672C83.4134 137.344 83.0041 136.886 82.7157 136.3C82.4307 135.71 82.2882 135.024 82.2882 134.241C82.2882 133.459 82.4307 132.77 82.7157 132.173C83.0041 131.573 83.4051 131.106 83.9189 130.771C84.4359 130.433 85.0391 130.264 85.7285 130.264C86.1262 130.264 86.519 130.33 86.9068 130.463C87.2946 130.596 87.6476 130.811 87.9657 131.109C88.2839 131.404 88.5375 131.795 88.7264 132.283C88.9153 132.77 89.0098 133.37 89.0098 134.082V134.58H83.1234V133.565H87.8166C87.8166 133.134 87.7304 132.75 87.5581 132.412C87.389 132.074 87.1471 131.807 86.8322 131.612C86.5207 131.416 86.1528 131.318 85.7285 131.318C85.2612 131.318 84.8568 131.434 84.5154 131.666C84.1774 131.895 83.9172 132.193 83.7349 132.561C83.5526 132.929 83.4615 133.323 83.4615 133.744V134.42C83.4615 134.997 83.5609 135.486 83.7598 135.887C83.9619 136.285 84.242 136.588 84.6 136.797C84.9579 137.002 85.3739 137.105 85.8478 137.105C86.1561 137.105 86.4345 137.062 86.6831 136.976C86.935 136.886 87.152 136.754 87.3343 136.578C87.5166 136.399 87.6575 136.177 87.7569 135.912L88.8904 136.23C88.7711 136.615 88.5706 136.953 88.2889 137.244C88.0072 137.533 87.6592 137.758 87.2449 137.92C86.8306 138.08 86.3649 138.159 85.8478 138.159Z" fill="white"/>
<path d="M66.7373 42.75C74.6132 42.7503 81 49.1271 81 56.9961C81 61.3361 79.053 65.2192 75.9922 67.8301L57.3184 85.4766C56.942 85.8322 56.3565 85.8421 55.9688 85.499L36.0303 67.8506L35.7451 67.6025C32.8355 64.9963 31 61.2111 31 56.9961C31 49.1271 37.3868 42.7502 45.2627 42.75C49.5465 42.75 53.3871 44.6389 56 47.623C58.6129 44.6389 62.4535 42.75 66.7373 42.75Z" fill="#FC23C6" fill-opacity="0.3" stroke="white" stroke-width="2" stroke-linecap="round" stroke-linejoin="round"/>
<path d="M72 51L82.5 40.5" stroke="white" stroke-width="2"/>
<path d="M88.0848 34.2089L77 38.876L82.834 40.0431L84.0005 45.8765L88.0848 34.2089Z" stroke="white" stroke-width="2" stroke-linejoin="round"/>
<path d="M75 52C72.7909 52 71 50.2091 71 48" stroke="white" stroke-width="2"/>
<path d="M91 31L93 29" stroke="white" stroke-width="2" stroke-linecap="round"/>
<path d="M87.3658 30.366L86.6338 27.6339" stroke="white" stroke-width="2" stroke-linecap="round"/>
<path d="M94.7321 35.7321L92 35" stroke="white" stroke-width="2" stroke-linecap="round"/>
<path d="M36 87L46 77" stroke="white" stroke-width="2"/>
<path d="M33 90L35.5 87.5" stroke="white" stroke-width="2"/>
<path d="M33.0003 83.9997H38.9997V89.9992" stroke="white" stroke-width="2"/>
<path d="M37.0003 79.9997H42.9997V85.9992" stroke="white" stroke-width="2"/>
</svg>
