<svg width="118" height="137" viewBox="0 0 118 137" fill="none" xmlns="http://www.w3.org/2000/svg">
<path d="M53.5 51L37.5 92.5C57.1 109.7 74.6667 99.6667 81 92.5L65.5 51C61.1 53 55.6667 51.8333 53.5 51Z" fill="#B1FF8A" fill-opacity="0.3"/>
<circle cx="59" cy="59" r="57" stroke="#B1FF8A" stroke-width="4"/>
<path d="M23.392 129.455C23.3409 129.023 23.1335 128.688 22.7699 128.449C22.4063 128.21 21.9602 128.091 21.4318 128.091C21.0455 128.091 20.7074 128.153 20.4176 128.278C20.1307 128.403 19.9063 128.575 19.7443 128.794C19.5852 129.013 19.5057 129.261 19.5057 129.54C19.5057 129.773 19.5611 129.973 19.6719 130.141C19.7855 130.305 19.9304 130.443 20.1065 130.554C20.2827 130.662 20.4673 130.751 20.6605 130.822C20.8537 130.891 21.0312 130.946 21.1932 130.989L22.0795 131.227C22.3068 131.287 22.5597 131.369 22.8381 131.474C23.1193 131.58 23.3878 131.723 23.6435 131.905C23.902 132.084 24.1151 132.314 24.2827 132.595C24.4503 132.876 24.5341 133.222 24.5341 133.631C24.5341 134.102 24.4105 134.528 24.1634 134.909C23.919 135.29 23.5611 135.592 23.0895 135.817C22.6207 136.041 22.0511 136.153 21.3807 136.153C20.7557 136.153 20.2145 136.053 19.7571 135.851C19.3026 135.649 18.9446 135.368 18.6832 135.007C18.4247 134.646 18.2784 134.227 18.2443 133.75H19.3352C19.3636 134.08 19.4744 134.352 19.6676 134.568C19.8636 134.781 20.1108 134.94 20.4091 135.045C20.7102 135.148 21.0341 135.199 21.3807 135.199C21.7841 135.199 22.1463 135.134 22.4673 135.003C22.7884 134.869 23.0426 134.685 23.2301 134.449C23.4176 134.21 23.5114 133.932 23.5114 133.614C23.5114 133.324 23.4304 133.088 23.2685 132.906C23.1065 132.724 22.8935 132.577 22.6293 132.463C22.3651 132.349 22.0795 132.25 21.7727 132.165L20.6989 131.858C20.017 131.662 19.4773 131.382 19.0795 131.018C18.6818 130.655 18.483 130.179 18.483 129.591C18.483 129.102 18.6151 128.676 18.8793 128.312C19.1463 127.946 19.5043 127.662 19.9531 127.46C20.4048 127.256 20.9091 127.153 21.4659 127.153C22.0284 127.153 22.5284 127.254 22.9659 127.456C23.4034 127.655 23.75 127.928 24.0057 128.274C24.2642 128.621 24.4006 129.014 24.4148 129.455H23.392ZM28.7944 136.136C28.1808 136.136 27.6523 135.991 27.2092 135.702C26.766 135.412 26.4251 135.013 26.1864 134.504C25.9478 133.996 25.8285 133.415 25.8285 132.761C25.8285 132.097 25.9506 131.51 26.195 131.001C26.4421 130.49 26.7859 130.091 27.2262 129.804C27.6694 129.514 28.1864 129.369 28.7773 129.369C29.2376 129.369 29.6523 129.455 30.0217 129.625C30.391 129.795 30.6935 130.034 30.9293 130.341C31.1651 130.648 31.3114 131.006 31.3683 131.415H30.3626C30.2859 131.116 30.1154 130.852 29.8512 130.622C29.5898 130.389 29.2376 130.273 28.7944 130.273C28.4023 130.273 28.0586 130.375 27.7631 130.58C27.4705 130.781 27.2418 131.067 27.0771 131.436C26.9151 131.803 26.8342 132.233 26.8342 132.727C26.8342 133.233 26.9137 133.673 27.0728 134.048C27.2347 134.423 27.462 134.714 27.7546 134.922C28.0501 135.129 28.3967 135.233 28.7944 135.233C29.0558 135.233 29.293 135.188 29.506 135.097C29.7191 135.006 29.8995 134.875 30.0472 134.705C30.195 134.534 30.3001 134.33 30.3626 134.091H31.3683C31.3114 134.477 31.1708 134.825 30.9464 135.135C30.7248 135.442 30.4308 135.686 30.0643 135.868C29.7006 136.047 29.2773 136.136 28.7944 136.136ZM32.8384 136V129.455H33.8441V136H32.8384ZM33.3498 128.364C33.1538 128.364 32.9847 128.297 32.8427 128.163C32.7035 128.03 32.6339 127.869 32.6339 127.682C32.6339 127.494 32.7035 127.334 32.8427 127.2C32.9847 127.067 33.1538 127 33.3498 127C33.5458 127 33.7134 127.067 33.8526 127.2C33.9947 127.334 34.0657 127.494 34.0657 127.682C34.0657 127.869 33.9947 128.03 33.8526 128.163C33.7134 128.297 33.5458 128.364 33.3498 128.364ZM38.4304 136.136C37.7997 136.136 37.2557 135.997 36.7983 135.719C36.3438 135.438 35.9929 135.045 35.7457 134.543C35.5014 134.037 35.3793 133.449 35.3793 132.778C35.3793 132.108 35.5014 131.517 35.7457 131.006C35.9929 130.491 36.3366 130.091 36.777 129.804C37.2202 129.514 37.7372 129.369 38.3281 129.369C38.669 129.369 39.0057 129.426 39.3381 129.54C39.6705 129.653 39.973 129.838 40.2457 130.094C40.5185 130.347 40.7358 130.682 40.8977 131.099C41.0597 131.517 41.1406 132.031 41.1406 132.642V133.068H36.0952V132.199H40.1179C40.1179 131.83 40.044 131.5 39.8963 131.21C39.7514 130.92 39.544 130.692 39.2741 130.524C39.0071 130.357 38.6918 130.273 38.3281 130.273C37.9276 130.273 37.581 130.372 37.2884 130.571C36.9986 130.767 36.7756 131.023 36.6193 131.338C36.4631 131.653 36.3849 131.991 36.3849 132.352V132.932C36.3849 133.426 36.4702 133.845 36.6406 134.189C36.8139 134.53 37.054 134.79 37.3608 134.969C37.6676 135.145 38.0241 135.233 38.4304 135.233C38.6946 135.233 38.9332 135.196 39.1463 135.122C39.3622 135.045 39.5483 134.932 39.7045 134.781C39.8608 134.628 39.9815 134.437 40.0668 134.21L41.0384 134.483C40.9361 134.812 40.7642 135.102 40.5227 135.352C40.2813 135.599 39.983 135.793 39.6278 135.932C39.2727 136.068 38.8736 136.136 38.4304 136.136ZM43.6761 132.062V136H42.6705V129.455H43.642V130.477H43.7273C43.8807 130.145 44.1136 129.878 44.4261 129.676C44.7386 129.472 45.142 129.369 45.6364 129.369C46.0795 129.369 46.4673 129.46 46.7997 129.642C47.1321 129.821 47.3906 130.094 47.5753 130.46C47.7599 130.824 47.8523 131.284 47.8523 131.841V136H46.8466V131.909C46.8466 131.395 46.7131 130.994 46.446 130.707C46.179 130.418 45.8125 130.273 45.3466 130.273C45.0256 130.273 44.7386 130.342 44.4858 130.482C44.2358 130.621 44.0384 130.824 43.8935 131.091C43.7486 131.358 43.6761 131.682 43.6761 132.062ZM52.3491 136.136C51.7354 136.136 51.207 135.991 50.7638 135.702C50.3207 135.412 49.9798 135.013 49.7411 134.504C49.5025 133.996 49.3832 133.415 49.3832 132.761C49.3832 132.097 49.5053 131.51 49.7496 131.001C49.9968 130.49 50.3406 130.091 50.7809 129.804C51.2241 129.514 51.7411 129.369 52.332 129.369C52.7923 129.369 53.207 129.455 53.5763 129.625C53.9457 129.795 54.2482 130.034 54.484 130.341C54.7198 130.648 54.8661 131.006 54.9229 131.415H53.9173C53.8406 131.116 53.6701 130.852 53.4059 130.622C53.1445 130.389 52.7923 130.273 52.3491 130.273C51.957 130.273 51.6133 130.375 51.3178 130.58C51.0252 130.781 50.7965 131.067 50.6317 131.436C50.4698 131.803 50.3888 132.233 50.3888 132.727C50.3888 133.233 50.4684 133.673 50.6275 134.048C50.7894 134.423 51.0167 134.714 51.3093 134.922C51.6048 135.129 51.9513 135.233 52.3491 135.233C52.6104 135.233 52.8477 135.188 53.0607 135.097C53.2738 135.006 53.4542 134.875 53.6019 134.705C53.7496 134.534 53.8548 134.33 53.9173 134.091H54.9229C54.8661 134.477 54.7255 134.825 54.5011 135.135C54.2795 135.442 53.9854 135.686 53.619 135.868C53.2553 136.047 52.832 136.136 52.3491 136.136ZM59.1374 136.136C58.5067 136.136 57.9627 135.997 57.5053 135.719C57.0508 135.438 56.6999 135.045 56.4528 134.543C56.2085 134.037 56.0863 133.449 56.0863 132.778C56.0863 132.108 56.2085 131.517 56.4528 131.006C56.6999 130.491 57.0437 130.091 57.484 129.804C57.9272 129.514 58.4442 129.369 59.0352 129.369C59.3761 129.369 59.7127 129.426 60.0451 129.54C60.3775 129.653 60.68 129.838 60.9528 130.094C61.2255 130.347 61.4428 130.682 61.6048 131.099C61.7667 131.517 61.8477 132.031 61.8477 132.642V133.068H56.8022V132.199H60.8249C60.8249 131.83 60.7511 131.5 60.6033 131.21C60.4585 130.92 60.2511 130.692 59.9812 130.524C59.7141 130.357 59.3988 130.273 59.0352 130.273C58.6346 130.273 58.288 130.372 57.9954 130.571C57.7056 130.767 57.4826 131.023 57.3263 131.338C57.1701 131.653 57.092 131.991 57.092 132.352V132.932C57.092 133.426 57.1772 133.845 57.3477 134.189C57.521 134.53 57.761 134.79 58.0678 134.969C58.3746 135.145 58.7312 135.233 59.1374 135.233C59.4016 135.233 59.6403 135.196 59.8533 135.122C60.0692 135.045 60.2553 134.932 60.4116 134.781C60.5678 134.628 60.6886 134.437 60.7738 134.21L61.7454 134.483C61.6431 134.812 61.4712 135.102 61.2298 135.352C60.9883 135.599 60.69 135.793 60.3349 135.932C59.9798 136.068 59.5806 136.136 59.1374 136.136ZM66.8888 136V127.273H72.1218V128.21H67.9457V131.159H71.7298V132.097H67.9457V136H66.8888ZM73.7955 136V129.455H74.8011V136H73.7955ZM74.3068 128.364C74.1108 128.364 73.9418 128.297 73.7997 128.163C73.6605 128.03 73.5909 127.869 73.5909 127.682C73.5909 127.494 73.6605 127.334 73.7997 127.2C73.9418 127.067 74.1108 127 74.3068 127C74.5028 127 74.6705 127.067 74.8097 127.2C74.9517 127.334 75.0227 127.494 75.0227 127.682C75.0227 127.869 74.9517 128.03 74.8097 128.163C74.6705 128.297 74.5028 128.364 74.3068 128.364ZM79.3022 136.136C78.6886 136.136 78.1602 135.991 77.717 135.702C77.2738 135.412 76.9329 135.013 76.6942 134.504C76.4556 133.996 76.3363 133.415 76.3363 132.761C76.3363 132.097 76.4585 131.51 76.7028 131.001C76.9499 130.49 77.2937 130.091 77.734 129.804C78.1772 129.514 78.6942 129.369 79.2852 129.369C79.7454 129.369 80.1602 129.455 80.5295 129.625C80.8988 129.795 81.2013 130.034 81.4371 130.341C81.6729 130.648 81.8192 131.006 81.8761 131.415H80.8704C80.7937 131.116 80.6232 130.852 80.359 130.622C80.0977 130.389 79.7454 130.273 79.3022 130.273C78.9102 130.273 78.5664 130.375 78.271 130.58C77.9783 130.781 77.7496 131.067 77.5849 131.436C77.4229 131.803 77.342 132.233 77.342 132.727C77.342 133.233 77.4215 133.673 77.5806 134.048C77.7425 134.423 77.9698 134.714 78.2624 134.922C78.5579 135.129 78.9045 135.233 79.3022 135.233C79.5636 135.233 79.8008 135.188 80.0138 135.097C80.2269 135.006 80.4073 134.875 80.555 134.705C80.7028 134.534 80.8079 134.33 80.8704 134.091H81.8761C81.8192 134.477 81.6786 134.825 81.4542 135.135C81.2326 135.442 80.9386 135.686 80.5721 135.868C80.2085 136.047 79.7852 136.136 79.3022 136.136ZM86.1928 129.455V130.307H82.8008V129.455H86.1928ZM83.7894 127.886H84.7951V134.125C84.7951 134.409 84.8363 134.622 84.9187 134.764C85.0039 134.903 85.1119 134.997 85.2425 135.045C85.3761 135.091 85.5167 135.114 85.6644 135.114C85.7752 135.114 85.8661 135.108 85.9371 135.097C86.0082 135.082 86.065 135.071 86.1076 135.062L86.3121 135.966C86.244 135.991 86.1488 136.017 86.0266 136.043C85.9045 136.071 85.7496 136.085 85.5621 136.085C85.2781 136.085 84.9996 136.024 84.7269 135.902C84.457 135.78 84.2326 135.594 84.0536 135.344C83.8775 135.094 83.7894 134.778 83.7894 134.398V127.886ZM87.7056 136V129.455H88.7113V136H87.7056ZM88.217 128.364C88.021 128.364 87.8519 128.297 87.7099 128.163C87.5707 128.03 87.5011 127.869 87.5011 127.682C87.5011 127.494 87.5707 127.334 87.7099 127.2C87.8519 127.067 88.021 127 88.217 127C88.413 127 88.5806 127.067 88.7198 127.2C88.8619 127.334 88.9329 127.494 88.9329 127.682C88.9329 127.869 88.8619 128.03 88.7198 128.163C88.5806 128.297 88.413 128.364 88.217 128.364ZM93.2124 136.136C92.6214 136.136 92.103 135.996 91.657 135.714C91.2138 135.433 90.8672 135.04 90.6172 134.534C90.37 134.028 90.2464 133.437 90.2464 132.761C90.2464 132.08 90.37 131.484 90.6172 130.976C90.8672 130.467 91.2138 130.072 91.657 129.791C92.103 129.51 92.6214 129.369 93.2124 129.369C93.8033 129.369 94.3203 129.51 94.7635 129.791C95.2095 130.072 95.5561 130.467 95.8033 130.976C96.0533 131.484 96.1783 132.08 96.1783 132.761C96.1783 133.437 96.0533 134.028 95.8033 134.534C95.5561 135.04 95.2095 135.433 94.7635 135.714C94.3203 135.996 93.8033 136.136 93.2124 136.136ZM93.2124 135.233C93.6612 135.233 94.0305 135.118 94.3203 134.888C94.6101 134.658 94.8246 134.355 94.9638 133.98C95.103 133.605 95.1726 133.199 95.1726 132.761C95.1726 132.324 95.103 131.916 94.9638 131.538C94.8246 131.161 94.6101 130.855 94.3203 130.622C94.0305 130.389 93.6612 130.273 93.2124 130.273C92.7635 130.273 92.3942 130.389 92.1044 130.622C91.8146 130.855 91.6001 131.161 91.4609 131.538C91.3217 131.916 91.2521 132.324 91.2521 132.761C91.2521 133.199 91.3217 133.605 91.4609 133.98C91.6001 134.355 91.8146 134.658 92.1044 134.888C92.3942 135.118 92.7635 135.233 93.2124 135.233ZM98.7191 132.062V136H97.7134V129.455H98.685V130.477H98.7702C98.9237 130.145 99.1566 129.878 99.4691 129.676C99.7816 129.472 100.185 129.369 100.679 129.369C101.123 129.369 101.51 129.46 101.843 129.642C102.175 129.821 102.434 130.094 102.618 130.46C102.803 130.824 102.895 131.284 102.895 131.841V136H101.89V131.909C101.89 131.395 101.756 130.994 101.489 130.707C101.222 130.418 100.855 130.273 100.39 130.273C100.069 130.273 99.7816 130.342 99.5288 130.482C99.2788 130.621 99.0813 130.824 98.9364 131.091C98.7915 131.358 98.7191 131.682 98.7191 132.062Z" fill="white"/>
<path d="M48 31C49.6415 26.3317 53.947 23 59 23C64.053 23 68.3585 26.3317 70 31" stroke="white" stroke-width="2" stroke-linejoin="round"/>
<path d="M54 49.5L38 93" stroke="white" stroke-width="2"/>
<path d="M65 49.5L81 93" stroke="white" stroke-width="2"/>
<path d="M59 31C68.1665 31 76.4974 31.8764 82.5645 33.3086C85.5898 34.0228 88.1076 34.888 89.8936 35.8848C91.5953 36.8345 93 38.1143 93 39.79C93 40.6651 92.6064 41.4368 92.0244 42.084C91.4477 42.7252 90.6438 43.2948 89.6934 43.8047C87.7966 44.8222 85.1244 45.7014 81.918 46.4189L64.9004 51.0957C63.284 51.6697 61.3065 52 59.1895 52C57.2069 52 55.3493 51.7089 53.7959 51.2021L33.8975 45.8857L33.2959 45.7256L33.293 45.7119C30.9809 45.0526 29.0503 44.2905 27.6484 43.4268C26.1848 42.5249 25 41.3262 25 39.79C25 38.1144 26.4039 36.8345 28.1055 35.8848C29.8915 34.888 32.4101 34.0228 35.4355 33.3086C41.5026 31.8764 49.8335 31 59 31Z" stroke="white" stroke-width="2"/>
<path d="M59.5 47C60.8201 47 62.0568 47.1765 62.998 47.4902C63.4635 47.6454 63.9127 47.8527 64.2656 48.1309C64.6073 48.4002 65 48.8553 65 49.5C65 50.1447 64.6073 50.5998 64.2656 50.8691C63.9127 51.1473 63.4635 51.3546 62.998 51.5098C62.0568 51.8235 60.8201 52 59.5 52C58.1799 52 56.9432 51.8235 56.002 51.5098C55.5365 51.3546 55.0873 51.1473 54.7344 50.8691C54.3927 50.5998 54 50.1447 54 49.5C54 48.8553 54.3927 48.4002 54.7344 48.1309C55.0873 47.8527 55.5365 47.6454 56.002 47.4902C56.9432 47.1765 58.1799 47 59.5 47Z" stroke="white" stroke-width="2"/>
<path d="M81 93C81 95.7614 71.3741 102 59.5 102C47.6259 102 38 95.7614 38 93" stroke="white" stroke-width="2" stroke-linecap="round"/>
<path d="M41 58L47.9277 54" stroke="white" stroke-width="2" stroke-linecap="round"/>
<path d="M77.9277 58L71 54" stroke="white" stroke-width="2" stroke-linecap="round"/>
<path d="M59 68.5C59.7301 68.5 60.5 69.2855 60.5 70.5C60.5 71.7145 59.7301 72.5 59 72.5C58.2699 72.5 57.5 71.7145 57.5 70.5C57.5 69.2855 58.2699 68.5 59 68.5Z" fill="white" stroke="white"/>
<path d="M53.5 69.5C54 71 55.8 73.9 59 73.5C62.2 73.9 64 71 64.5 69.5" stroke="white" stroke-width="2" stroke-linecap="round" stroke-linejoin="round"/>
<path d="M55.5 85.5C56 85 56 85 57 85L58 79" stroke="white" stroke-width="2" stroke-linecap="round" stroke-linejoin="round"/>
<path d="M62.5 85.5C62 85 62 85 61 85L60 79" stroke="white" stroke-width="2" stroke-linecap="round" stroke-linejoin="round"/>
<rect x="57.5" y="74.5" width="3" height="4" fill="white" stroke="white"/>
</svg>
