<svg width="118" height="139" viewBox="0 0 118 139" fill="none" xmlns="http://www.w3.org/2000/svg">
<path d="M53.5 51L37.5 92.5C57.1 109.7 74.6667 99.6667 81 92.5L65.5 51C61.1 53 55.6667 51.8333 53.5 51Z" fill="#B1FF8A" fill-opacity="0.3"/>
<circle cx="59" cy="59" r="57" stroke="#B1FF8A" stroke-width="4"/>
<path d="M17.4574 130.364C17.3977 129.86 17.1558 129.469 16.7315 129.19C16.3073 128.912 15.7869 128.773 15.1705 128.773C14.7197 128.773 14.3253 128.846 13.9872 128.991C13.6525 129.137 13.3906 129.338 13.2017 129.593C13.0161 129.848 12.9233 130.138 12.9233 130.463C12.9233 130.735 12.9879 130.969 13.1172 131.164C13.2498 131.356 13.4188 131.517 13.6243 131.646C13.8298 131.772 14.0452 131.877 14.2706 131.96C14.496 132.039 14.7031 132.104 14.892 132.153L15.9261 132.432C16.1913 132.501 16.4863 132.598 16.8111 132.72C17.1392 132.843 17.4524 133.01 17.7507 133.222C18.0523 133.431 18.3009 133.7 18.4964 134.028C18.692 134.356 18.7898 134.759 18.7898 135.236C18.7898 135.786 18.6456 136.283 18.3572 136.727C18.0722 137.171 17.6546 137.524 17.1044 137.786C16.5575 138.048 15.893 138.179 15.1108 138.179C14.3816 138.179 13.7502 138.061 13.2166 137.826C12.6863 137.591 12.2687 137.263 11.9638 136.842C11.6622 136.421 11.4915 135.932 11.4517 135.375H12.7244C12.7576 135.759 12.8868 136.078 13.1122 136.33C13.3409 136.578 13.6293 136.764 13.9773 136.886C14.3286 137.006 14.7064 137.065 15.1108 137.065C15.5814 137.065 16.004 136.989 16.3786 136.837C16.7531 136.681 17.0497 136.465 17.2685 136.19C17.4872 135.912 17.5966 135.587 17.5966 135.216C17.5966 134.878 17.5021 134.603 17.3132 134.391C17.1243 134.179 16.8757 134.006 16.5675 133.874C16.2592 133.741 15.9261 133.625 15.5682 133.526L14.3153 133.168C13.5199 132.939 12.8902 132.612 12.4261 132.188C11.9621 131.764 11.7301 131.209 11.7301 130.523C11.7301 129.953 11.8842 129.455 12.1925 129.031C12.504 128.604 12.9216 128.272 13.4453 128.037C13.9723 127.798 14.5606 127.679 15.2102 127.679C15.8665 127.679 16.4498 127.797 16.9602 128.032C17.4706 128.264 17.875 128.582 18.1733 128.987C18.4749 129.391 18.634 129.85 18.6506 130.364H17.4574ZM23.7601 138.159C23.0442 138.159 22.4277 137.99 21.9107 137.652C21.3936 137.314 20.9959 136.848 20.7175 136.255C20.4391 135.662 20.2999 134.984 20.2999 134.222C20.2999 133.446 20.4424 132.762 20.7275 132.168C21.0158 131.572 21.4168 131.106 21.9306 130.771C22.4476 130.433 23.0508 130.264 23.7402 130.264C24.2772 130.264 24.7611 130.364 25.1919 130.562C25.6228 130.761 25.9758 131.04 26.2509 131.398C26.526 131.756 26.6967 132.173 26.763 132.651H25.5897C25.5002 132.303 25.3013 131.994 24.9931 131.726C24.6882 131.454 24.2772 131.318 23.7601 131.318C23.3027 131.318 22.9017 131.437 22.557 131.676C22.2156 131.911 21.9488 132.245 21.7566 132.675C21.5676 133.103 21.4732 133.605 21.4732 134.182C21.4732 134.772 21.566 135.286 21.7516 135.723C21.9405 136.161 22.2057 136.5 22.5471 136.742C22.8917 136.984 23.2961 137.105 23.7601 137.105C24.065 137.105 24.3418 137.052 24.5904 136.946C24.839 136.84 25.0494 136.688 25.2218 136.489C25.3941 136.29 25.5167 136.051 25.5897 135.773H26.763C26.6967 136.223 26.5326 136.629 26.2708 136.991C26.0123 137.349 25.6692 137.634 25.2417 137.846C24.8174 138.055 24.3236 138.159 23.7601 138.159ZM28.4782 138V130.364H29.6515V138H28.4782ZM29.0748 129.091C28.8461 129.091 28.6489 129.013 28.4831 128.857C28.3207 128.701 28.2395 128.514 28.2395 128.295C28.2395 128.077 28.3207 127.889 28.4831 127.734C28.6489 127.578 28.8461 127.5 29.0748 127.5C29.3034 127.5 29.499 127.578 29.6614 127.734C29.8271 127.889 29.91 128.077 29.91 128.295C29.91 128.514 29.8271 128.701 29.6614 128.857C29.499 129.013 29.3034 129.091 29.0748 129.091ZM35.0021 138.159C34.2663 138.159 33.6316 137.997 33.098 137.672C32.5677 137.344 32.1584 136.886 31.87 136.3C31.585 135.71 31.4425 135.024 31.4425 134.241C31.4425 133.459 31.585 132.77 31.87 132.173C32.1584 131.573 32.5594 131.106 33.0732 130.771C33.5902 130.433 34.1934 130.264 34.8828 130.264C35.2805 130.264 35.6733 130.33 36.0611 130.463C36.4489 130.596 36.8018 130.811 37.12 131.109C37.4382 131.404 37.6918 131.795 37.8807 132.283C38.0696 132.77 38.1641 133.37 38.1641 134.082V134.58H32.2777V133.565H36.9709C36.9709 133.134 36.8847 132.75 36.7124 132.412C36.5433 132.074 36.3014 131.807 35.9865 131.612C35.675 131.416 35.3071 131.318 34.8828 131.318C34.4155 131.318 34.0111 131.434 33.6697 131.666C33.3317 131.895 33.0715 132.193 32.8892 132.561C32.7069 132.929 32.6158 133.323 32.6158 133.744V134.42C32.6158 134.997 32.7152 135.486 32.9141 135.887C33.1162 136.285 33.3963 136.588 33.7543 136.797C34.1122 137.002 34.5282 137.105 35.0021 137.105C35.3104 137.105 35.5888 137.062 35.8374 136.976C36.0893 136.886 36.3063 136.754 36.4886 136.578C36.6709 136.399 36.8118 136.177 36.9112 135.912L38.0447 136.23C37.9254 136.615 37.7249 136.953 37.4432 137.244C37.1615 137.533 36.8134 137.758 36.3991 137.92C35.9848 138.08 35.5192 138.159 35.0021 138.159ZM41.1222 133.406V138H39.9489V130.364H41.0824V131.557H41.1818C41.3608 131.169 41.6326 130.857 41.9972 130.622C42.3617 130.384 42.8324 130.264 43.4091 130.264C43.9261 130.264 44.3786 130.37 44.7663 130.582C45.1541 130.791 45.4557 131.109 45.6712 131.537C45.8866 131.961 45.9943 132.498 45.9943 133.148V138H44.821V133.227C44.821 132.627 44.6652 132.16 44.3537 131.825C44.0421 131.487 43.6146 131.318 43.071 131.318C42.6965 131.318 42.3617 131.399 42.0668 131.562C41.7751 131.724 41.5447 131.961 41.3757 132.273C41.2067 132.584 41.1222 132.962 41.1222 133.406ZM51.2406 138.159C50.5247 138.159 49.9082 137.99 49.3912 137.652C48.8741 137.314 48.4764 136.848 48.198 136.255C47.9196 135.662 47.7804 134.984 47.7804 134.222C47.7804 133.446 47.9229 132.762 48.2079 132.168C48.4963 131.572 48.8973 131.106 49.411 130.771C49.9281 130.433 50.5313 130.264 51.2207 130.264C51.7576 130.264 52.2415 130.364 52.6724 130.562C53.1033 130.761 53.4563 131.04 53.7314 131.398C54.0065 131.756 54.1771 132.173 54.2434 132.651H53.0701C52.9806 132.303 52.7818 131.994 52.4735 131.726C52.1686 131.454 51.7576 131.318 51.2406 131.318C50.7832 131.318 50.3822 131.437 50.0375 131.676C49.6961 131.911 49.4293 132.245 49.237 132.675C49.0481 133.103 48.9537 133.605 48.9537 134.182C48.9537 134.772 49.0465 135.286 49.2321 135.723C49.421 136.161 49.6861 136.5 50.0275 136.742C50.3722 136.984 50.7766 137.105 51.2406 137.105C51.5455 137.105 51.8223 137.052 52.0708 136.946C52.3194 136.84 52.5299 136.688 52.7022 136.489C52.8746 136.29 52.9972 136.051 53.0701 135.773H54.2434C54.1771 136.223 54.0131 136.629 53.7512 136.991C53.4927 137.349 53.1497 137.634 52.7221 137.846C52.2979 138.055 51.804 138.159 51.2406 138.159ZM59.1603 138.159C58.4245 138.159 57.7898 137.997 57.2562 137.672C56.7259 137.344 56.3166 136.886 56.0282 136.3C55.7432 135.71 55.6007 135.024 55.6007 134.241C55.6007 133.459 55.7432 132.77 56.0282 132.173C56.3166 131.573 56.7176 131.106 57.2314 130.771C57.7484 130.433 58.3516 130.264 59.041 130.264C59.4387 130.264 59.8315 130.33 60.2193 130.463C60.6071 130.596 60.9601 130.811 61.2782 131.109C61.5964 131.404 61.85 131.795 62.0389 132.283C62.2278 132.77 62.3223 133.37 62.3223 134.082V134.58H56.4359V133.565H61.1291C61.1291 133.134 61.0429 132.75 60.8706 132.412C60.7015 132.074 60.4596 131.807 60.1447 131.612C59.8332 131.416 59.4653 131.318 59.041 131.318C58.5737 131.318 58.1693 131.434 57.8279 131.666C57.4899 131.895 57.2297 132.193 57.0474 132.561C56.8651 132.929 56.774 133.323 56.774 133.744V134.42C56.774 134.997 56.8734 135.486 57.0723 135.887C57.2744 136.285 57.5545 136.588 57.9125 136.797C58.2704 137.002 58.6864 137.105 59.1603 137.105C59.4686 137.105 59.747 137.062 59.9956 136.976C60.2475 136.886 60.4645 136.754 60.6468 136.578C60.8291 136.399 60.97 136.177 61.0694 135.912L62.2029 136.23C62.0836 136.615 61.8831 136.953 61.6014 137.244C61.3197 137.533 60.9717 137.758 60.5574 137.92C60.1431 138.08 59.6774 138.159 59.1603 138.159ZM68.2037 138V127.818H74.3088V128.912H69.4366V132.352H73.8514V133.446H69.4366V138H68.2037ZM76.2614 138V130.364H77.4347V138H76.2614ZM76.858 129.091C76.6293 129.091 76.4321 129.013 76.2663 128.857C76.1039 128.701 76.0227 128.514 76.0227 128.295C76.0227 128.077 76.1039 127.889 76.2663 127.734C76.4321 127.578 76.6293 127.5 76.858 127.5C77.0866 127.5 77.2822 127.578 77.4446 127.734C77.6103 127.889 77.6932 128.077 77.6932 128.295C77.6932 128.514 77.6103 128.701 77.4446 128.857C77.2822 129.013 77.0866 129.091 76.858 129.091ZM82.6859 138.159C81.97 138.159 81.3535 137.99 80.8365 137.652C80.3194 137.314 79.9217 136.848 79.6433 136.255C79.3649 135.662 79.2257 134.984 79.2257 134.222C79.2257 133.446 79.3682 132.762 79.6532 132.168C79.9416 131.572 80.3426 131.106 80.8564 130.771C81.3734 130.433 81.9766 130.264 82.666 130.264C83.2029 130.264 83.6868 130.364 84.1177 130.562C84.5486 130.761 84.9016 131.04 85.1767 131.398C85.4518 131.756 85.6225 132.173 85.6887 132.651H84.5154C84.426 132.303 84.2271 131.994 83.9189 131.726C83.6139 131.454 83.2029 131.318 82.6859 131.318C82.2285 131.318 81.8275 131.437 81.4828 131.676C81.1414 131.911 80.8746 132.245 80.6824 132.675C80.4934 133.103 80.399 133.605 80.399 134.182C80.399 134.772 80.4918 135.286 80.6774 135.723C80.8663 136.161 81.1315 136.5 81.4728 136.742C81.8175 136.984 82.2219 137.105 82.6859 137.105C82.9908 137.105 83.2676 137.052 83.5162 136.946C83.7647 136.84 83.9752 136.688 84.1475 136.489C84.3199 136.29 84.4425 136.051 84.5154 135.773H85.6887C85.6225 136.223 85.4584 136.629 85.1966 136.991C84.938 137.349 84.595 137.634 84.1674 137.846C83.7432 138.055 83.2493 138.159 82.6859 138.159ZM90.725 130.364V131.358H86.7676V130.364H90.725ZM87.921 128.534H89.0943V135.812C89.0943 136.144 89.1423 136.393 89.2385 136.558C89.3379 136.721 89.4638 136.83 89.6163 136.886C89.7721 136.939 89.9361 136.966 90.1085 136.966C90.2377 136.966 90.3438 136.959 90.4267 136.946C90.5095 136.929 90.5758 136.916 90.6255 136.906L90.8642 137.96C90.7846 137.99 90.6736 138.02 90.5311 138.05C90.3886 138.083 90.2079 138.099 89.9892 138.099C89.6577 138.099 89.3329 138.028 89.0147 137.886C88.6999 137.743 88.438 137.526 88.2292 137.234C88.0237 136.943 87.921 136.575 87.921 136.131V128.534ZM92.4899 138V130.364H93.6632V138H92.4899ZM93.0865 129.091C92.8578 129.091 92.6606 129.013 92.4949 128.857C92.3324 128.701 92.2512 128.514 92.2512 128.295C92.2512 128.077 92.3324 127.889 92.4949 127.734C92.6606 127.578 92.8578 127.5 93.0865 127.5C93.3152 127.5 93.5107 127.578 93.6731 127.734C93.8388 127.889 93.9217 128.077 93.9217 128.295C93.9217 128.514 93.8388 128.701 93.6731 128.857C93.5107 129.013 93.3152 129.091 93.0865 129.091ZM98.9144 138.159C98.225 138.159 97.6201 137.995 97.0998 137.667C96.5827 137.339 96.1784 136.88 95.8867 136.29C95.5984 135.7 95.4542 135.01 95.4542 134.222C95.4542 133.426 95.5984 132.732 95.8867 132.138C96.1784 131.545 96.5827 131.085 97.0998 130.756C97.6201 130.428 98.225 130.264 98.9144 130.264C99.6038 130.264 100.207 130.428 100.724 130.756C101.244 131.085 101.649 131.545 101.937 132.138C102.229 132.732 102.375 133.426 102.375 134.222C102.375 135.01 102.229 135.7 101.937 136.29C101.649 136.88 101.244 137.339 100.724 137.667C100.207 137.995 99.6038 138.159 98.9144 138.159ZM98.9144 137.105C99.4381 137.105 99.869 136.971 100.207 136.702C100.545 136.434 100.795 136.081 100.958 135.643C101.12 135.206 101.201 134.732 101.201 134.222C101.201 133.711 101.12 133.236 100.958 132.795C100.795 132.354 100.545 131.998 100.207 131.726C99.869 131.454 99.4381 131.318 98.9144 131.318C98.3907 131.318 97.9599 131.454 97.6218 131.726C97.2837 131.998 97.0335 132.354 96.8711 132.795C96.7087 133.236 96.6275 133.711 96.6275 134.222C96.6275 134.732 96.7087 135.206 96.8711 135.643C97.0335 136.081 97.2837 136.434 97.6218 136.702C97.9599 136.971 98.3907 137.105 98.9144 137.105ZM105.339 133.406V138H104.166V130.364H105.299V131.557H105.399C105.578 131.169 105.849 130.857 106.214 130.622C106.579 130.384 107.049 130.264 107.626 130.264C108.143 130.264 108.595 130.37 108.983 130.582C109.371 130.791 109.673 131.109 109.888 131.537C110.103 131.961 110.211 132.498 110.211 133.148V138H109.038V133.227C109.038 132.627 108.882 132.16 108.57 131.825C108.259 131.487 107.831 131.318 107.288 131.318C106.913 131.318 106.579 131.399 106.284 131.562C105.992 131.724 105.762 131.961 105.593 132.273C105.423 132.584 105.339 132.962 105.339 133.406Z" fill="white"/>
<path d="M48 31C49.6415 26.3317 53.947 23 59 23C64.053 23 68.3585 26.3317 70 31" stroke="white" stroke-width="2" stroke-linejoin="round"/>
<path d="M54 49.5L38 93" stroke="white" stroke-width="2"/>
<path d="M65 49.5L81 93" stroke="white" stroke-width="2"/>
<path d="M59 31C68.1665 31 76.4974 31.8764 82.5645 33.3086C85.5898 34.0228 88.1076 34.888 89.8936 35.8848C91.5953 36.8345 93 38.1143 93 39.79C93 40.6651 92.6064 41.4368 92.0244 42.084C91.4477 42.7252 90.6438 43.2948 89.6934 43.8047C87.7966 44.8222 85.1244 45.7014 81.918 46.4189L64.9004 51.0957C63.284 51.6697 61.3065 52 59.1895 52C57.2069 52 55.3493 51.7089 53.7959 51.2021L33.8975 45.8857L33.2969 45.7256L33.2939 45.7129C30.9814 45.0535 29.0505 44.2906 27.6484 43.4268C26.1848 42.5249 25 41.3262 25 39.79C25 38.1143 26.4047 36.8345 28.1064 35.8848C29.8924 34.888 32.4102 34.0228 35.4355 33.3086C41.5026 31.8764 49.8335 31 59 31Z" stroke="white" stroke-width="2"/>
<path d="M59.5 47C60.8201 47 62.0568 47.1765 62.998 47.4902C63.4635 47.6454 63.9127 47.8527 64.2656 48.1309C64.6073 48.4002 65 48.8553 65 49.5C65 50.1447 64.6073 50.5998 64.2656 50.8691C63.9127 51.1473 63.4635 51.3546 62.998 51.5098C62.0568 51.8235 60.8201 52 59.5 52C58.1799 52 56.9432 51.8235 56.002 51.5098C55.5365 51.3546 55.0873 51.1473 54.7344 50.8691C54.3927 50.5998 54 50.1447 54 49.5C54 48.8553 54.3927 48.4002 54.7344 48.1309C55.0873 47.8527 55.5365 47.6454 56.002 47.4902C56.9432 47.1765 58.1799 47 59.5 47Z" stroke="white" stroke-width="2"/>
<path d="M81 93C81 95.7614 71.3741 102 59.5 102C47.6259 102 38 95.7614 38 93" stroke="white" stroke-width="2" stroke-linecap="round"/>
<path d="M41 58L47.9277 54" stroke="white" stroke-width="2" stroke-linecap="round"/>
<path d="M77.9277 58L71 54" stroke="white" stroke-width="2" stroke-linecap="round"/>
<path d="M59 68.5C59.7301 68.5 60.5 69.2855 60.5 70.5C60.5 71.7145 59.7301 72.5 59 72.5C58.2699 72.5 57.5 71.7145 57.5 70.5C57.5 69.2855 58.2699 68.5 59 68.5Z" fill="white" stroke="white"/>
<path d="M53.5 69.5C54 71 55.8 73.9 59 73.5C62.2 73.9 64 71 64.5 69.5" stroke="white" stroke-width="2" stroke-linecap="round" stroke-linejoin="round"/>
<path d="M55.5 85.5C56 85 56 85 57 85L58 79" stroke="white" stroke-width="2" stroke-linecap="round" stroke-linejoin="round"/>
<path d="M62.5 85.5C62 85 62 85 61 85L60 79" stroke="white" stroke-width="2" stroke-linecap="round" stroke-linejoin="round"/>
<rect x="57.5" y="74.5" width="3" height="4" fill="white" stroke="white"/>
</svg>
