<svg width="118" height="139" viewBox="0 0 118 139" fill="none" xmlns="http://www.w3.org/2000/svg">
<path d="M48 68.5L50 76.5L52.5 75.5L55 73V71.5L54.5 69.5L55.5 65.5L57.5 61H56.5L52 64L48 68.5Z" fill="#E0A32A" fill-opacity="0.3"/>
<path d="M48 7.5L111 79L105 93.5L90.5 106L77 112L63.5 116.5L58 114.5L51 83.5L63.5 77V81L61 83.5L59.5 86.5L69 92L70 91L66.5 85L71 75V72L64.5 67.5L66.5 65.5L72 68.5H77L81 63L82 58L72 63L67.5 58L63.5 55.5H56L51 57L47 60.5L36 7.5L46 4L48 7.5ZM71 46C68.7909 46 67 47.7909 67 50C67 52.2091 68.7909 54 71 54C73.2091 54 75 52.2091 75 50C75 47.7909 73.2091 46 71 46Z" fill="#E0A32A" fill-opacity="0.3"/>
<path d="M36.7826 128.912V127.818H44.4189V128.912H41.2172V138H39.9843V128.912H36.7826ZM47.336 133.406V138H46.1627V127.818H47.336V131.557H47.4355C47.6144 131.162 47.8829 130.849 48.2409 130.617C48.6021 130.382 49.0827 130.264 49.6826 130.264C50.203 130.264 50.6587 130.369 51.0498 130.577C51.4409 130.783 51.7442 131.099 51.9596 131.527C52.1784 131.951 52.2877 132.491 52.2877 133.148V138H51.1144V133.227C51.1144 132.621 50.957 132.152 50.6421 131.82C50.3306 131.486 49.8981 131.318 49.3445 131.318C48.9601 131.318 48.6154 131.399 48.3105 131.562C48.0088 131.724 47.7702 131.961 47.5945 132.273C47.4222 132.584 47.336 132.962 47.336 133.406ZM54.4342 138V130.364H55.5677V131.517H55.6473C55.7865 131.139 56.0384 130.833 56.403 130.597C56.7675 130.362 57.1785 130.244 57.6359 130.244C57.7221 130.244 57.8298 130.246 57.9591 130.249C58.0883 130.253 58.1861 130.258 58.2524 130.264V131.457C58.2126 131.447 58.1215 131.433 57.979 131.413C57.8398 131.389 57.6923 131.378 57.5365 131.378C57.1653 131.378 56.8338 131.456 56.5422 131.612C56.2538 131.764 56.0251 131.976 55.8561 132.248C55.6904 132.516 55.6075 132.823 55.6075 133.168V138H54.4342ZM59.6432 138V130.364H60.8165V138H59.6432ZM60.2398 129.091C60.0111 129.091 59.8139 129.013 59.6482 128.857C59.4858 128.701 59.4046 128.514 59.4046 128.295C59.4046 128.077 59.4858 127.889 59.6482 127.734C59.8139 127.578 60.0111 127.5 60.2398 127.5C60.4685 127.5 60.664 127.578 60.8264 127.734C60.9922 127.889 61.075 128.077 61.075 128.295C61.075 128.514 60.9922 128.701 60.8264 128.857C60.664 129.013 60.4685 129.091 60.2398 129.091ZM64.1388 127.818V138H62.9655V127.818H64.1388ZM67.461 127.818V138H66.2877V127.818H67.461ZM72.8117 138.159C72.0759 138.159 71.4412 137.997 70.9076 137.672C70.3773 137.344 69.968 136.886 69.6796 136.3C69.3946 135.71 69.252 135.024 69.252 134.241C69.252 133.459 69.3946 132.77 69.6796 132.173C69.968 131.573 70.369 131.106 70.8827 130.771C71.3998 130.433 72.003 130.264 72.6924 130.264C73.0901 130.264 73.4829 130.33 73.8706 130.463C74.2584 130.596 74.6114 130.811 74.9296 131.109C75.2478 131.404 75.5013 131.795 75.6903 132.283C75.8792 132.77 75.9736 133.37 75.9736 134.082V134.58H70.0873V133.565H74.7805C74.7805 133.134 74.6943 132.75 74.5219 132.412C74.3529 132.074 74.1109 131.807 73.7961 131.612C73.4845 131.416 73.1166 131.318 72.6924 131.318C72.2251 131.318 71.8207 131.434 71.4793 131.666C71.1412 131.895 70.8811 132.193 70.6988 132.561C70.5165 132.929 70.4253 133.323 70.4253 133.744V134.42C70.4253 134.997 70.5248 135.486 70.7236 135.887C70.9258 136.285 71.2059 136.588 71.5638 136.797C71.9218 137.002 72.3377 137.105 72.8117 137.105C73.1199 137.105 73.3983 137.062 73.6469 136.976C73.8988 136.886 74.1159 136.754 74.2982 136.578C74.4805 136.399 74.6214 136.177 74.7208 135.912L75.8543 136.23C75.735 136.615 75.5345 136.953 75.2528 137.244C74.971 137.533 74.623 137.758 74.2087 137.92C73.7944 138.08 73.3287 138.159 72.8117 138.159ZM77.7584 138V130.364H78.892V131.517H78.9715C79.1107 131.139 79.3626 130.833 79.7272 130.597C80.0918 130.362 80.5028 130.244 80.9601 130.244C81.0463 130.244 81.154 130.246 81.2833 130.249C81.4126 130.253 81.5103 130.258 81.5766 130.264V131.457C81.5368 131.447 81.4457 131.433 81.3032 131.413C81.164 131.389 81.0165 131.378 80.8607 131.378C80.4895 131.378 80.1581 131.456 79.8664 131.612C79.578 131.764 79.3493 131.976 79.1803 132.248C79.0146 132.516 78.9317 132.823 78.9317 133.168V138H77.7584Z" fill="#FFD684"/>
<path d="M51.5 83L57.5 114.5" stroke="#FFD684" stroke-width="2"/>
<path d="M36.5 8L47 61.5" stroke="#FFD684" stroke-width="2"/>
<path d="M48 67.5L50 76.5" stroke="#FFD684" stroke-width="2"/>
<path d="M46 4.5L111 79" stroke="#FFD684" stroke-width="2"/>
<path d="M62.0605 55.2031C63.2452 55.2294 64.4752 55.4651 65.6719 56.2695C66.1569 56.5956 66.6042 56.8354 67.1406 57.1523C67.6577 57.4579 68.2083 57.8081 68.7598 58.2979V58.2988C69.1398 58.6365 69.5022 59.1443 69.8174 59.626C70.143 60.1236 70.4892 60.7068 70.8096 61.2295C71.1408 61.77 71.4502 62.2562 71.7363 62.6309C71.8786 62.8171 72.0011 62.9568 72.1025 63.0537C72.1051 63.0561 72.1079 63.0582 72.1104 63.0605C74.0232 62.8557 75.1047 62.1433 76.209 61.1768C77.3927 60.1407 78.7469 58.6421 81.0244 57.4092L81.125 57.3613C81.3661 57.2638 81.6376 57.2641 81.8809 57.3643C82.1588 57.4788 82.3702 57.7122 82.457 58C82.8068 59.1593 82.4864 60.3957 81.9561 61.4834C81.4149 62.5932 80.5813 63.7037 79.6562 64.7031C78.7268 65.7074 77.6745 66.6327 76.6641 67.3672C75.6703 68.0895 74.6521 68.6753 73.792 68.9375H73.791C73.0295 69.1692 72.199 68.906 71.5752 68.6377C70.8933 68.3444 70.1651 67.9098 69.4854 67.4707C68.8067 67.0322 68.1168 66.5493 67.5518 66.167C67.1518 65.8964 66.8287 65.6889 66.583 65.5469C66.5 65.614 66.4034 65.6941 66.2969 65.7871C65.9786 66.0649 65.5939 66.4263 65.2168 66.8018C64.8447 67.1721 64.4926 67.5452 64.2256 67.8545C64.2663 67.8797 64.3086 67.908 64.3545 67.9355C64.9245 68.2772 65.7182 68.6925 66.5898 69.1533C67.4435 69.6046 68.3621 70.0946 69.1201 70.5625C69.4992 70.7965 69.8574 71.0372 70.1572 71.2754C70.4382 71.4986 70.7471 71.7804 70.9443 72.1123L71.0557 72.3193C71.2946 72.8084 71.3783 73.3457 71.2754 73.9111V73.9121C71.1653 74.5147 70.936 75.092 70.7051 75.5967C70.5881 75.8522 70.4639 76.1028 70.3486 76.335C70.2311 76.5717 70.1241 76.7868 70.0273 76.9941C69.3996 78.364 68.5969 79.8457 67.9248 81.2129C67.301 82.482 66.7516 83.725 66.3926 84.9502C68.2424 87.7788 68.33 88.108 70.0078 91.3262C70.2017 91.6981 70.1427 92.1518 69.8604 92.4619C69.5778 92.772 69.1315 92.8733 68.7432 92.7148C68.3936 92.5721 67.7337 92.2171 66.9922 91.7969C66.2263 91.3628 65.3077 90.8213 64.4053 90.2705C63.5038 89.7202 62.6103 89.1558 61.8965 88.6768C61.5405 88.4378 61.2213 88.2145 60.9648 88.0215C60.7345 87.8481 60.4777 87.643 60.3135 87.4482C60.0009 87.0772 59.8256 86.6414 59.8428 86.1553C59.8582 85.7213 60.026 85.349 60.166 85.082V85.0811C60.4999 84.446 60.9883 83.9467 61.3662 83.5605C61.7667 83.1512 62.0556 82.8534 62.2559 82.5215C62.2586 82.514 62.2634 82.5049 62.2676 82.4932C62.2878 82.436 62.3152 82.3528 62.3486 82.2412C62.4152 82.0189 62.4978 81.7174 62.5918 81.3564C62.7793 80.6365 63.0039 79.7089 63.2236 78.7656C63.4432 77.8231 63.6563 76.8708 63.8193 76.1025C63.8844 75.796 63.9367 75.5279 63.9805 75.3066C63.2374 75.0095 62.3476 74.7799 61.4697 74.5273C61.4521 74.5223 61.4343 74.5168 61.417 74.5107C61.0317 74.3765 60.5744 74.2558 60.0498 74.1211C59.54 73.9902 58.9705 73.8476 58.4229 73.6768C57.3804 73.3516 56.1328 72.8485 55.4258 71.8408C54.3866 70.3598 54.2099 68.9768 54.541 67.6562C54.8448 66.4451 55.5831 65.3114 56.1611 64.3418L56.1631 64.3389C56.7249 63.4054 57.2745 62.4642 57.8115 61.5166C57.8818 61.3923 57.9427 61.2796 57.999 61.1777C57.8655 61.1727 57.715 61.1663 57.5449 61.1641C56.9564 61.1562 56.3649 61.1698 55.749 61.1797C53.1501 62.5884 51.779 64.1037 50.1318 65.6885C48.4125 67.3426 46.4877 68.9589 42.8291 70.2334C42.4504 70.3653 42.0294 70.2577 41.7598 69.9609C41.4903 69.6641 41.4243 69.2353 41.5918 68.8711C42.3916 67.1322 44.2022 64.3143 46.2939 61.7783C47.3446 60.5045 48.4863 59.278 49.6299 58.2803C50.7587 57.2955 51.9568 56.4735 53.123 56.0957L53.1504 56.0879C54.9364 55.5656 57.0389 55.5076 58.6982 55.4082C59.7003 55.3481 60.9551 55.1786 62.0605 55.2031Z" stroke="#FFD684" stroke-width="2" stroke-linejoin="round"/>
<path d="M55.2031 73.1853C55.4805 72.8191 55.9713 72.689 56.3936 72.8699C58.0876 73.5959 59.6646 74.0812 60.8174 74.3845C61.3927 74.5359 61.8605 74.6415 62.1816 74.7087C62.342 74.7423 62.4657 74.7657 62.5479 74.781C62.5889 74.7887 62.62 74.7941 62.6396 74.7976C62.6491 74.7993 62.656 74.8008 62.6602 74.8015C62.6619 74.8018 62.6633 74.8024 62.6641 74.8025C63.0839 74.8725 63.4134 75.2004 63.4854 75.6199C63.5481 75.9871 63.4017 76.3542 63.1143 76.5779L62.9824 76.6648L62.9746 76.6687C62.9695 76.6715 62.9621 76.6759 62.9521 76.6814C62.9318 76.6926 62.9008 76.7094 62.8613 76.7312C62.7823 76.7748 62.6664 76.8392 62.5186 76.9207C62.2227 77.0837 61.799 77.3169 61.2881 77.5984C60.2656 78.1618 58.8928 78.9185 57.4932 79.6892C54.7013 81.2266 51.7887 82.8273 51.3428 83.0671L51.3438 83.0681L45.7979 86.0632L45.7939 86.0652C45.2956 86.3318 44.5503 86.7008 43.9756 87.0027C43.3423 87.3354 42.7807 87.654 42.3926 87.9402C42.0557 88.1886 41.562 88.6515 40.959 89.2419C40.381 89.8079 39.7169 90.4768 39.1045 91.0535C38.5052 91.6177 37.8698 92.1778 37.332 92.4988C37.0937 92.641 36.696 92.8489 36.25 92.8357C35.986 92.8278 35.6842 92.7409 35.4307 92.5095C35.19 92.2899 35.0794 92.0192 35.0293 91.8025V91.8015C34.9948 91.6511 34.9991 91.5198 35.002 91.4607C35.0056 91.3861 35.0143 91.3144 35.0234 91.2537C35.0419 91.1317 35.0705 90.995 35.1035 90.8562C35.1702 90.5753 35.2702 90.2193 35.3887 89.823C35.6266 89.0268 35.9571 88.0163 36.3027 87.0095C36.6486 86.0019 37.0131 84.9874 37.3203 84.1814C37.4736 83.7792 37.615 83.4223 37.7344 83.1414C37.8369 82.9002 37.9645 82.6128 38.0889 82.4333L38.1807 82.3113C38.6575 81.7347 39.3323 81.6788 39.8115 81.7429C40.2771 81.8053 40.7766 82.0031 41.1367 82.1423C41.5541 82.3037 41.8761 82.4255 42.1602 82.4792C42.4373 82.5317 42.5154 82.4858 42.5244 82.4802L42.6406 82.4031C42.9174 82.2092 43.2265 81.916 43.5771 81.5261C43.9765 81.0821 44.3693 80.5836 44.8076 80.0476C45.2316 79.5291 45.6929 78.9819 46.1787 78.5212C46.6584 78.0664 47.2273 77.6319 47.8848 77.408C48.3863 77.2373 48.8801 77.1993 49.2676 77.1775C49.6932 77.1535 49.9754 77.1466 50.2578 77.0906C51.3104 76.8818 52.5188 75.9947 53.5508 75.0066C54.0452 74.5331 54.4619 74.0729 54.7549 73.7312C54.901 73.5609 55.0161 73.4217 55.0928 73.3259C55.1308 73.2785 55.1591 73.2415 55.1777 73.2175C55.1869 73.2057 55.1941 73.1966 55.1982 73.1912C55.2003 73.1885 55.2024 73.1863 55.2031 73.1853Z" stroke="#FFD684" stroke-width="2" stroke-linejoin="round"/>
<path d="M70.1182 45.084C72.8373 44.5825 75.4471 46.3824 75.9434 49.1025C76.4239 51.7376 74.7441 54.2665 72.165 54.8682L71.9131 54.9199C69.2002 55.4094 66.6024 53.6096 66.1074 50.8975C65.6125 48.1851 67.4076 45.5844 70.1182 45.084Z" stroke="#FFD684" stroke-width="2" stroke-linejoin="round"/>
<circle cx="59" cy="59" r="57" stroke="#E0A32A" stroke-width="4"/>
</svg>
