<svg width="118" height="137" viewBox="0 0 118 137" fill="none" xmlns="http://www.w3.org/2000/svg">
<path d="M48 68.5L50 76.5L52.5 75.5L55 73V71.5L54.5 69.5L55.5 65.5L57.5 61H56.5L52 64L48 68.5Z" fill="#E0A32A" fill-opacity="0.3"/>
<circle cx="59" cy="59" r="57" stroke="#E0A32A" stroke-width="4"/>
<path d="M48 7.5L111 79L105 93.5L90.5 106L77 112L63.5 116.5L58 114.5L51 83.5L63.5 77V81L61 83.5L59.5 86.5L69 92L70 91L66.5 85L71 75V72L64.5 67.5L66.5 65.5L72 68.5H77L81 63L82 58L72 63L67.5 58L63.5 55.5H56L51 57L47 60.5L36 7.5L46 4L48 7.5ZM71 46C68.7909 46 67 47.7909 67 50C67 52.2091 68.7909 54 71 54C73.2091 54 75 52.2091 75 50C75 47.7909 73.2091 46 71 46Z" fill="#E0A32A" fill-opacity="0.3"/>
<path d="M39.9565 128.21V127.273H46.502V128.21H43.7576V136H42.7008V128.21H39.9565ZM49.0023 132.062V136H47.9966V127.273H49.0023V130.477H49.0875C49.2409 130.139 49.4711 129.871 49.7779 129.672C50.0875 129.47 50.4995 129.369 51.0137 129.369C51.4597 129.369 51.8503 129.459 52.1855 129.638C52.5208 129.814 52.7807 130.085 52.9654 130.452C53.1529 130.815 53.2466 131.278 53.2466 131.841V136H52.2409V131.909C52.2409 131.389 52.106 130.987 51.8361 130.703C51.5691 130.416 51.1983 130.273 50.7239 130.273C50.3944 130.273 50.0989 130.342 49.8375 130.482C49.579 130.621 49.3745 130.824 49.2239 131.091C49.0762 131.358 49.0023 131.682 49.0023 132.062ZM55.0865 136V129.455H56.0581V130.443H56.1262C56.2456 130.119 56.4615 129.857 56.774 129.655C57.0865 129.453 57.4387 129.352 57.8308 129.352C57.9047 129.352 57.997 129.354 58.1078 129.357C58.2186 129.359 58.3024 129.364 58.3592 129.369V130.392C58.3251 130.384 58.247 130.371 58.1248 130.354C58.0055 130.334 57.8791 130.324 57.7456 130.324C57.4274 130.324 57.1433 130.391 56.8933 130.524C56.6461 130.655 56.4501 130.837 56.3052 131.07C56.1632 131.3 56.0922 131.562 56.0922 131.858V136H55.0865ZM59.5513 136V129.455H60.557V136H59.5513ZM60.0627 128.364C59.8667 128.364 59.6976 128.297 59.5556 128.163C59.4164 128.03 59.3468 127.869 59.3468 127.682C59.3468 127.494 59.4164 127.334 59.5556 127.2C59.6976 127.067 59.8667 127 60.0627 127C60.2587 127 60.4263 127.067 60.5655 127.2C60.7076 127.334 60.7786 127.494 60.7786 127.682C60.7786 127.869 60.7076 128.03 60.5655 128.163C60.4263 128.297 60.2587 128.364 60.0627 128.364ZM63.4047 127.273V136H62.399V127.273H63.4047ZM66.2523 127.273V136H65.2466V127.273H66.2523ZM70.8386 136.136C70.2079 136.136 69.6639 135.997 69.2065 135.719C68.752 135.438 68.4011 135.045 68.1539 134.543C67.9096 134.037 67.7875 133.449 67.7875 132.778C67.7875 132.108 67.9096 131.517 68.1539 131.006C68.4011 130.491 68.7449 130.091 69.1852 129.804C69.6284 129.514 70.1454 129.369 70.7363 129.369C71.0772 129.369 71.4139 129.426 71.7463 129.54C72.0787 129.653 72.3812 129.838 72.6539 130.094C72.9267 130.347 73.144 130.682 73.3059 131.099C73.4679 131.517 73.5488 132.031 73.5488 132.642V133.068H68.5034V132.199H72.5261C72.5261 131.83 72.4522 131.5 72.3045 131.21C72.1596 130.92 71.9522 130.692 71.6824 130.524C71.4153 130.357 71.1 130.273 70.7363 130.273C70.3358 130.273 69.9892 130.372 69.6966 130.571C69.4068 130.767 69.1838 131.023 69.0275 131.338C68.8713 131.653 68.7931 131.991 68.7931 132.352V132.932C68.7931 133.426 68.8784 133.845 69.0488 134.189C69.2221 134.53 69.4622 134.79 69.769 134.969C70.0758 135.145 70.4324 135.233 70.8386 135.233C71.1028 135.233 71.3414 135.196 71.5545 135.122C71.7704 135.045 71.9565 134.932 72.1127 134.781C72.269 134.628 72.3897 134.437 72.475 134.21L73.4466 134.483C73.3443 134.812 73.1724 135.102 72.9309 135.352C72.6895 135.599 72.3912 135.793 72.036 135.932C71.6809 136.068 71.2818 136.136 70.8386 136.136ZM75.0787 136V129.455H76.0502V130.443H76.1184C76.2377 130.119 76.4537 129.857 76.7662 129.655C77.0787 129.453 77.4309 129.352 77.823 129.352C77.8968 129.352 77.9892 129.354 78.1 129.357C78.2108 129.359 78.2946 129.364 78.3514 129.369V130.392C78.3173 130.384 78.2392 130.371 78.117 130.354C77.9977 130.334 77.8713 130.324 77.7377 130.324C77.4196 130.324 77.1355 130.391 76.8855 130.524C76.6383 130.655 76.4423 130.837 76.2974 131.07C76.1554 131.3 76.0843 131.562 76.0843 131.858V136H75.0787Z" fill="white"/>
<path d="M51.5 83L57.5 113" stroke="white" stroke-width="2"/>
<path d="M37 10.5L47 61.5" stroke="white" stroke-width="2"/>
<path d="M48 67.5L50 76.5" stroke="white" stroke-width="2"/>
<path d="M47 7L109 77" stroke="white" stroke-width="2"/>
<path d="M62.0605 55.2031C63.2452 55.2294 64.4752 55.4651 65.6719 56.2695C66.1569 56.5956 66.6042 56.8354 67.1406 57.1523C67.6577 57.4579 68.2083 57.8081 68.7598 58.2979V58.2988C69.1398 58.6365 69.5022 59.1443 69.8174 59.626C70.143 60.1236 70.4892 60.7068 70.8096 61.2295C71.1408 61.77 71.4502 62.2562 71.7363 62.6309C71.8786 62.8171 72.0011 62.9568 72.1025 63.0537C72.1051 63.0561 72.1079 63.0582 72.1104 63.0605C74.0232 62.8557 75.1047 62.1433 76.209 61.1768C77.3927 60.1407 78.7469 58.6421 81.0244 57.4092L81.125 57.3613C81.3661 57.2638 81.6376 57.2641 81.8809 57.3643C82.1588 57.4788 82.3702 57.7122 82.457 58C82.8068 59.1593 82.4864 60.3957 81.9561 61.4834C81.4149 62.5932 80.5813 63.7037 79.6562 64.7031C78.7268 65.7074 77.6745 66.6327 76.6641 67.3672C75.6703 68.0895 74.6521 68.6753 73.792 68.9375H73.791C73.0295 69.1692 72.199 68.906 71.5752 68.6377C70.8933 68.3444 70.1651 67.9098 69.4854 67.4707C68.8067 67.0322 68.1168 66.5493 67.5518 66.167C67.1518 65.8964 66.8287 65.6889 66.583 65.5469C66.5 65.614 66.4034 65.6941 66.2969 65.7871C65.9786 66.0649 65.5939 66.4263 65.2168 66.8018C64.8447 67.1721 64.4926 67.5452 64.2256 67.8545C64.2663 67.8797 64.3086 67.908 64.3545 67.9355C64.9245 68.2772 65.7182 68.6925 66.5898 69.1533C67.4435 69.6046 68.3621 70.0946 69.1201 70.5625C69.4992 70.7965 69.8574 71.0372 70.1572 71.2754C70.4382 71.4986 70.7471 71.7804 70.9443 72.1123L71.0557 72.3193C71.2946 72.8084 71.3783 73.3457 71.2754 73.9111V73.9121C71.1653 74.5147 70.936 75.092 70.7051 75.5967C70.5881 75.8522 70.4639 76.1028 70.3486 76.335C70.2311 76.5717 70.1241 76.7868 70.0273 76.9941C69.3996 78.364 68.5969 79.8457 67.9248 81.2129C67.301 82.482 66.7516 83.725 66.3926 84.9502C68.2424 87.7788 68.33 88.108 70.0078 91.3262C70.2017 91.6981 70.1427 92.1518 69.8604 92.4619C69.5778 92.772 69.1315 92.8733 68.7432 92.7148C68.3936 92.5721 67.7337 92.2171 66.9922 91.7969C66.2263 91.3628 65.3077 90.8213 64.4053 90.2705C63.5038 89.7202 62.6103 89.1558 61.8965 88.6768C61.5405 88.4378 61.2213 88.2145 60.9648 88.0215C60.7345 87.8481 60.4777 87.643 60.3135 87.4482C60.0009 87.0772 59.8256 86.6414 59.8428 86.1553C59.8582 85.7213 60.026 85.349 60.166 85.082V85.0811C60.4999 84.446 60.9883 83.9467 61.3662 83.5605C61.7667 83.1512 62.0556 82.8534 62.2559 82.5215C62.2586 82.514 62.2634 82.5049 62.2676 82.4932C62.2878 82.436 62.3152 82.3528 62.3486 82.2412C62.4152 82.0189 62.4978 81.7174 62.5918 81.3564C62.7793 80.6365 63.0039 79.7089 63.2236 78.7656C63.4432 77.8231 63.6563 76.8708 63.8193 76.1025C63.8844 75.796 63.9367 75.5279 63.9805 75.3066C63.2374 75.0095 62.3476 74.7799 61.4697 74.5273C61.4521 74.5223 61.4343 74.5168 61.417 74.5107C61.0317 74.3765 60.5744 74.2558 60.0498 74.1211C59.54 73.9902 58.9705 73.8476 58.4229 73.6768C57.3804 73.3516 56.1328 72.8485 55.4258 71.8408C54.3866 70.3598 54.2099 68.9768 54.541 67.6562C54.8448 66.4451 55.5831 65.3114 56.1611 64.3418L56.1631 64.3389C56.7249 63.4054 57.2745 62.4642 57.8115 61.5166C57.8818 61.3923 57.9427 61.2796 57.999 61.1777C57.8655 61.1727 57.715 61.1663 57.5449 61.1641C56.9564 61.1562 56.3649 61.1698 55.749 61.1797C53.1501 62.5884 51.779 64.1037 50.1318 65.6885C48.4125 67.3426 46.4877 68.9589 42.8291 70.2334C42.4504 70.3653 42.0294 70.2577 41.7598 69.9609C41.4903 69.6641 41.4243 69.2353 41.5918 68.8711C42.3916 67.1322 44.2022 64.3143 46.2939 61.7783C47.3446 60.5045 48.4863 59.278 49.6299 58.2803C50.7587 57.2955 51.9568 56.4735 53.123 56.0957L53.1504 56.0879C54.9364 55.5656 57.0389 55.5076 58.6982 55.4082C59.7003 55.3481 60.9551 55.1786 62.0605 55.2031Z" stroke="white" stroke-width="2" stroke-linejoin="round"/>
<path d="M55.2031 73.1853C55.4805 72.8191 55.9713 72.689 56.3936 72.8699C58.0876 73.5959 59.6646 74.0812 60.8174 74.3845C61.3927 74.5359 61.8605 74.6415 62.1816 74.7087C62.342 74.7423 62.4657 74.7657 62.5479 74.781C62.5889 74.7887 62.62 74.7941 62.6396 74.7976C62.6491 74.7993 62.656 74.8008 62.6602 74.8015C62.6619 74.8018 62.6633 74.8024 62.6641 74.8025C63.0839 74.8725 63.4134 75.2004 63.4854 75.6199C63.5481 75.9871 63.4017 76.3542 63.1143 76.5779L62.9824 76.6648L62.9746 76.6687C62.9695 76.6715 62.9621 76.6759 62.9521 76.6814C62.9318 76.6926 62.9008 76.7094 62.8613 76.7312C62.7823 76.7748 62.6664 76.8392 62.5186 76.9207C62.2227 77.0837 61.799 77.3169 61.2881 77.5984C60.2656 78.1618 58.8928 78.9185 57.4932 79.6892C54.7013 81.2266 51.7887 82.8273 51.3428 83.0671L51.3438 83.0681L45.7979 86.0632L45.7939 86.0652C45.2956 86.3318 44.5503 86.7008 43.9756 87.0027C43.3423 87.3354 42.7807 87.654 42.3926 87.9402C42.0557 88.1886 41.562 88.6515 40.959 89.2419C40.381 89.8079 39.7169 90.4768 39.1045 91.0535C38.5052 91.6177 37.8698 92.1778 37.332 92.4988C37.0937 92.641 36.696 92.8489 36.25 92.8357C35.986 92.8278 35.6842 92.7409 35.4307 92.5095C35.19 92.2899 35.0794 92.0192 35.0293 91.8025V91.8015C34.9948 91.6511 34.9991 91.5198 35.002 91.4607C35.0056 91.3861 35.0143 91.3144 35.0234 91.2537C35.0419 91.1317 35.0705 90.995 35.1035 90.8562C35.1702 90.5753 35.2702 90.2193 35.3887 89.823C35.6266 89.0268 35.9571 88.0163 36.3027 87.0095C36.6486 86.0019 37.0131 84.9874 37.3203 84.1814C37.4736 83.7792 37.615 83.4223 37.7344 83.1414C37.8369 82.9002 37.9645 82.6128 38.0889 82.4333L38.1807 82.3113C38.6575 81.7347 39.3323 81.6788 39.8115 81.7429C40.2771 81.8053 40.7766 82.0031 41.1367 82.1423C41.5541 82.3037 41.8761 82.4255 42.1602 82.4792C42.4373 82.5317 42.5154 82.4858 42.5244 82.4802L42.6406 82.4031C42.9174 82.2092 43.2265 81.916 43.5771 81.5261C43.9765 81.0821 44.3693 80.5836 44.8076 80.0476C45.2316 79.5291 45.6929 78.9819 46.1787 78.5212C46.6584 78.0664 47.2273 77.6319 47.8848 77.408C48.3863 77.2373 48.8801 77.1993 49.2676 77.1775C49.6932 77.1535 49.9754 77.1466 50.2578 77.0906C51.3104 76.8818 52.5188 75.9947 53.5508 75.0066C54.0452 74.5331 54.4619 74.0729 54.7549 73.7312C54.901 73.5609 55.0161 73.4217 55.0928 73.3259C55.1308 73.2785 55.1591 73.2415 55.1777 73.2175C55.1869 73.2057 55.1941 73.1966 55.1982 73.1912C55.2003 73.1885 55.2024 73.1863 55.2031 73.1853Z" stroke="white" stroke-width="2" stroke-linejoin="round"/>
<path d="M70.1182 45.084C72.8373 44.5825 75.4471 46.3824 75.9434 49.1025C76.4239 51.7376 74.7441 54.2665 72.165 54.8682L71.9131 54.9199C69.2002 55.4094 66.6024 53.6096 66.1074 50.8975C65.6125 48.1851 67.4076 45.5844 70.1182 45.084Z" stroke="white" stroke-width="2" stroke-linejoin="round"/>
</svg>
