<svg width="60" height="60" viewBox="0 0 60 60" fill="none" xmlns="http://www.w3.org/2000/svg">
<circle cx="30" cy="30" r="26.5" stroke="white" stroke-width="3"/>
<mask id="path-2-outside-1_213_1578" maskUnits="userSpaceOnUse" x="14" y="19" width="32" height="22" fill="black">
<rect fill="white" x="14" y="19" width="32" height="22"/>
<path d="M30.001 21C35.3304 21.0001 40.0559 24.5405 43 30C40.0559 35.4594 35.3303 38.9999 30.001 39C24.6713 39 19.9442 35.4598 17 30C19.9442 24.5401 24.6713 21 30.001 21Z"/>
</mask>
<path d="M30.001 21L30.001 19H30.001V21ZM43 30L44.7603 30.9493L45.2723 30L44.7603 29.0507L43 30ZM30.001 39V41H30.001L30.001 39ZM17 30L15.2396 29.0507L14.7277 30L15.2396 30.9493L17 30ZM30.001 21L30.0009 23C34.3699 23.0001 38.5228 25.9113 41.2397 30.9493L43 30L44.7603 29.0507C41.589 23.1698 36.2909 19.0001 30.001 19L30.001 21ZM43 30L41.2397 29.0507C38.5228 34.0886 34.3698 36.9999 30.0009 37L30.001 39L30.001 41C36.2908 40.9998 41.589 36.8301 44.7603 30.9493L43 30ZM30.001 39V37C25.6315 37 21.4771 34.0888 18.7604 29.0507L17 30L15.2396 30.9493C18.4112 36.8308 23.7111 41 30.001 41V39ZM17 30L18.7604 30.9493C21.4771 25.9112 25.6315 23 30.001 23V21V19C23.711 19 18.4112 23.1691 15.2396 29.0507L17 30Z" fill="white" mask="url(#path-2-outside-1_213_1578)"/>
<path d="M30 20C33.3137 20 36 22.6863 36 26C36 29.3137 33.3137 32 30 32C26.6863 32 24 29.3137 24 26C24 22.6863 26.6863 20 30 20ZM32 22C30.8954 22 30 22.8954 30 24C30 25.1046 30.8954 26 32 26C33.1046 26 34 25.1046 34 24C34 22.8954 33.1046 22 32 22Z" fill="white"/>
</svg>
