<svg width="48" height="48" viewBox="0 0 48 48" fill="none" xmlns="http://www.w3.org/2000/svg">
<path d="M38.4531 6.56445C39.8596 6.5646 40.9999 7.67715 41 9.04883V38.7646C41 40.1369 39.8597 41.2499 38.4531 41.25H9.08008C7.67343 41.2499 6.5332 40.1369 6.5332 38.7646V9.04883C6.53331 7.67711 7.6735 6.56453 9.08008 6.56445H38.4531ZM11.7754 35.5996H16.9814V19.9375H11.7754V35.5996ZM29.7588 19.5703C26.9965 19.5703 25.7591 21.089 25.0674 22.1562V19.9375H19.8613C19.9295 21.4051 19.8616 35.5479 19.8613 35.5996H25.0674V26.8535C25.0674 26.3855 25.1009 25.9176 25.2383 25.583C25.6146 24.6478 26.4712 23.6788 27.9092 23.6787C29.7929 23.6787 30.5469 25.1152 30.5469 27.2207V35.5996H35.752V26.6191C35.7519 21.8084 33.1838 19.5703 29.7588 19.5703ZM25.0674 22.209H25.0322C25.0435 22.1914 25.0558 22.1741 25.0674 22.1562V22.209ZM14.4131 12.3867C12.6325 12.3867 11.468 13.5561 11.4678 15.0928C11.4678 16.5958 12.5977 17.7988 14.3447 17.7988H14.3789C16.1941 17.7986 17.3242 16.5957 17.3242 15.0928C17.2902 13.5562 16.1938 12.3868 14.4131 12.3867Z" fill="#5D5D5D"/>
</svg>
