<svg width="48" height="48" viewBox="0 0 48 48" fill="none" xmlns="http://www.w3.org/2000/svg">
<g clip-path="url(#clip0_219_2591)">
<path d="M38.1128 15.6519C38.1351 15.9756 38.1351 16.2994 38.1351 16.6261C38.1351 26.5818 30.5561 38.0637 16.6975 38.0637V38.0578C12.6036 38.0637 8.59481 36.8911 5.14844 34.68C5.74372 34.7516 6.34199 34.7874 6.94174 34.7889C10.3344 34.7919 13.6301 33.6536 16.2992 31.5574C13.0751 31.4962 10.2479 29.3941 9.26021 26.3252C10.3896 26.543 11.5533 26.4983 12.6618 26.1954C9.14682 25.4852 6.61799 22.3969 6.61799 18.8103V18.7148C7.66533 19.2982 8.83799 19.6219 10.0375 19.6577C6.72691 17.4452 5.70642 13.041 7.70561 9.59761C11.5309 14.3047 17.1749 17.1662 23.2337 17.4691C22.6265 14.8522 23.456 12.11 25.4134 10.2705C28.448 7.41789 33.2207 7.5641 36.0733 10.5972C37.7607 10.2645 39.3779 9.64535 40.8579 8.76809C40.2955 10.5122 39.1183 11.9937 37.5458 12.9351C39.0392 12.759 40.4984 12.3592 41.8724 11.749C40.8609 13.2648 39.5868 14.5851 38.1128 15.6519Z" fill="#5D5D5D"/>
</g>
<defs>
<clipPath id="clip0_219_2591">
<rect width="37" height="30.4355" fill="white" transform="translate(5 8)"/>
</clipPath>
</defs>
</svg>
