<svg width="118" height="140" viewBox="0 0 118 140" fill="none" xmlns="http://www.w3.org/2000/svg">
<circle cx="59" cy="59" r="57" stroke="#41B3F1" stroke-width="4"/>
<path d="M44.2325 45.0424C50.2997 44.5243 54.4748 48.8055 57.2191 53.794C57.8416 54.9256 58.3752 56.1176 59.0283 57.2216C60.1667 54.708 61.6644 52.6638 63.4007 50.5352C65.8395 47.5453 68.3466 45.6255 72.2336 45.3204C74.9576 45.0446 78.7717 46.1296 80.7757 48.0633C88.9297 55.9313 87.6524 74.5696 76.143 78.6337C75.4351 78.8837 74.4925 78.9474 73.7605 78.9886C73.2454 78.995 72.687 79.0107 72.1761 78.9874C66.455 78.7259 62.7358 73.5059 59.8807 68.9847C59.5398 68.4446 59.3675 67.171 58.794 66.8393C58.4394 67.2078 57.8337 68.7545 57.5259 69.3096C55.3594 73.2157 50.4309 78.5724 45.7512 78.7951C37.4737 79.1892 33.1119 71.8978 32.1661 64.4042C31.4958 59.1417 32.8708 53.8194 35.9908 49.5995C38.4213 46.3566 40.3958 45.5426 44.2325 45.0424ZM48.5075 72.3377C51.5107 70.81 52.9128 68.6684 54.4514 65.7434C54.9949 64.7103 55.7529 63.263 56.1079 62.1772C56.1451 62.0631 56.1794 61.9479 56.2106 61.8319C54.4392 57.03 51.1686 50.0999 45.0917 50.9921C36.64 51.9711 35.9996 66.4924 41.3717 71.3108C42.9129 72.6931 46.7437 73.5226 48.5075 72.3377ZM61.9116 62.2643C63.3759 66.2188 65.8962 71.7059 70.1609 72.8825C72.1164 73.2804 74.1856 73.291 75.8728 72.0042C80.8749 68.1895 81.6501 59.5623 78.0026 54.4989C76.6509 52.6224 74.9591 51.1797 72.559 51.2248C69.8698 51.2731 68.5873 51.7191 66.6075 53.7333C64.8896 55.4809 62.5802 59.8344 61.9116 62.2643Z" fill="#41B3F1"/>
<path d="M33.8369 137L37.624 126.979H38.7998L42.5869 137H41.2197L38.4854 129.48C38.4307 129.33 38.3828 129.184 38.3418 129.043C38.3008 128.902 38.2643 128.756 38.2324 128.605H38.1641C38.1322 128.756 38.0957 128.902 38.0547 129.043C38.0137 129.184 37.9658 129.33 37.9111 129.48L35.1494 137H33.8369ZM35.4639 134.402L35.8672 133.322H40.543L40.9395 134.402H35.4639ZM43.5986 137V129.809H44.7471L44.8018 130.731H44.8428C45.1025 130.403 45.4193 130.146 45.793 129.959C46.1712 129.768 46.5882 129.672 47.0439 129.672C47.7686 129.672 48.3451 129.879 48.7734 130.294C49.2064 130.704 49.4229 131.392 49.4229 132.358V137H48.1514V132.345C48.1514 131.771 48.0215 131.36 47.7617 131.114C47.5065 130.864 47.1419 130.738 46.668 130.738C46.2624 130.738 45.9046 130.848 45.5947 131.066C45.2848 131.285 45.0433 131.568 44.8701 131.914V137H43.5986ZM50.708 139.844V138.764C50.8265 138.8 50.9587 138.83 51.1045 138.853C51.2503 138.875 51.3916 138.887 51.5283 138.887C51.8473 138.887 52.1253 138.766 52.3623 138.524C52.5993 138.287 52.8499 137.77 53.1143 136.973V136.966L50.4346 129.809H51.665L53.3672 134.539C53.431 134.721 53.488 134.892 53.5381 135.052C53.5882 135.211 53.6315 135.359 53.668 135.496H53.709C53.75 135.359 53.7956 135.211 53.8457 135.052C53.9004 134.892 53.9574 134.721 54.0166 134.539L55.6025 129.809H56.8057L53.8867 137.957C53.6589 138.595 53.3558 139.092 52.9775 139.447C52.6038 139.803 52.1436 139.98 51.5967 139.98C51.4144 139.98 51.2526 139.969 51.1113 139.946C50.9701 139.924 50.8356 139.889 50.708 139.844ZM56.8057 130.779V129.809H60.9072V130.779H56.8057ZM58.0908 135.223V130.396V130.191V128.031H59.3623V135.223C59.3623 135.542 59.4261 135.77 59.5537 135.906C59.6813 136.043 59.8818 136.111 60.1553 136.111C60.2829 136.111 60.4082 136.098 60.5312 136.07C60.6543 136.043 60.7796 136.007 60.9072 135.961V137C60.7887 137.055 60.6338 137.103 60.4424 137.144C60.251 137.185 60.0413 137.205 59.8135 137.205C59.2894 137.205 58.8701 137.046 58.5557 136.727C58.2458 136.408 58.0908 135.906 58.0908 135.223ZM62.3223 137V129.809H63.5938V137H62.3223ZM62.165 127.635C62.165 127.421 62.2334 127.241 62.3701 127.095C62.5068 126.949 62.7028 126.876 62.958 126.876C63.2132 126.876 63.4092 126.949 63.5459 127.095C63.6826 127.241 63.751 127.421 63.751 127.635C63.751 127.849 63.6826 128.029 63.5459 128.175C63.4092 128.321 63.2132 128.394 62.958 128.394C62.7028 128.394 62.5068 128.321 62.3701 128.175C62.2334 128.029 62.165 127.849 62.165 127.635ZM65.6787 137V129.809H66.8271L66.8818 130.731H66.9229C67.1781 130.408 67.4857 130.15 67.8457 129.959C68.2103 129.768 68.6136 129.672 69.0557 129.672C69.5387 129.672 69.9557 129.768 70.3066 129.959C70.6576 130.15 70.9242 130.46 71.1064 130.889H71.1475C71.4482 130.46 71.7809 130.15 72.1455 129.959C72.5101 129.768 72.9294 129.672 73.4033 129.672C74.1507 129.672 74.734 129.879 75.1533 130.294C75.5726 130.704 75.7822 131.392 75.7822 132.358V137H74.5107V132.345C74.5107 131.771 74.3877 131.36 74.1416 131.114C73.8955 130.864 73.5469 130.738 73.0957 130.738C72.7038 130.738 72.3597 130.848 72.0635 131.066C71.7718 131.285 71.5394 131.568 71.3662 131.914V137H70.0947V132.345C70.0947 131.771 69.9717 131.36 69.7256 131.114C69.4795 130.864 69.1309 130.738 68.6797 130.738C68.2878 130.738 67.9437 130.848 67.6475 131.066C67.3558 131.285 67.1234 131.568 66.9502 131.914V137H65.6787ZM77.3066 133.514V133.295C77.3066 132.21 77.6029 131.324 78.1953 130.636C78.7923 129.948 79.5807 129.604 80.5605 129.604C81.5404 129.604 82.2946 129.925 82.8232 130.567C83.3519 131.21 83.6162 132.078 83.6162 133.172V133.691H78.0859V132.68H82.3379V132.516C82.3379 131.996 82.1898 131.554 81.8936 131.189C81.5973 130.825 81.1712 130.643 80.6152 130.643C79.9408 130.643 79.4372 130.9 79.1045 131.415C78.7718 131.925 78.6055 132.552 78.6055 133.295V133.514C78.6055 134.257 78.7809 134.885 79.1318 135.4C79.4827 135.911 80.0273 136.166 80.7656 136.166C81.2214 136.166 81.6133 136.066 81.9414 135.865C82.2695 135.665 82.5361 135.428 82.7412 135.154L83.5615 135.804C83.3337 136.146 82.9805 136.465 82.502 136.761C82.028 137.057 81.4492 137.205 80.7656 137.205C79.6491 137.205 78.7923 136.861 78.1953 136.173C77.6029 135.485 77.3066 134.598 77.3066 133.514Z" fill="#41B3F1"/>
</svg>
