<svg width="118" height="138" viewBox="0 0 118 138" fill="none" xmlns="http://www.w3.org/2000/svg">
<circle cx="59" cy="59" r="57" stroke="#41B3F1" stroke-width="4"/>
<path d="M34.2207 66.1205V65.3685L40.7969 65.3822V66.0111C40.7969 66.6491 40.9154 67.1231 41.1523 67.433C41.3984 67.7429 41.7767 67.8978 42.2871 67.8978C42.8522 67.8978 43.2214 67.7155 43.3945 67.351C43.5677 66.9773 43.6543 66.3347 43.6543 65.4232C43.6543 64.5482 43.554 63.933 43.3535 63.5775C43.153 63.2129 42.8066 63.0306 42.3145 63.0306C41.877 63.0306 41.5306 63.1446 41.2754 63.3724C41.0202 63.5912 40.8151 63.8737 40.6602 64.2201L34.8359 62.3607L35.8887 52.0931H49.1777V57.0424L40.8652 56.9603L40.6055 59.517C40.9974 59.2709 41.4577 59.0704 41.9863 58.9154C42.515 58.7605 43.1348 58.683 43.8457 58.683C45.7415 58.683 47.2819 59.2299 48.4668 60.3236C49.6517 61.4174 50.2441 62.9896 50.2441 65.0404C50.2441 67.2279 49.597 68.9961 48.3027 70.3451C47.0176 71.6849 45.0306 72.3549 42.3418 72.3549C39.735 72.3549 37.7298 71.7852 36.3262 70.6459C34.9225 69.5066 34.2207 67.9981 34.2207 66.1205ZM51.0234 64.3568V59.7357C51.0234 57.3112 51.6934 55.3744 53.0332 53.9252C54.3822 52.4668 56.3327 51.7377 58.8848 51.7377C61.446 51.7377 63.3965 52.4532 64.7363 53.8842C66.0853 55.3151 66.7598 57.2657 66.7598 59.7357V64.3568C66.7598 66.8451 66.0625 68.8002 64.668 70.222C63.2734 71.6439 61.3457 72.3549 58.8848 72.3549C56.3145 72.3549 54.3594 71.6439 53.0195 70.222C51.6888 68.8002 51.0234 66.8451 51.0234 64.3568ZM57.6816 65.3822C57.6816 66.1387 57.7637 66.7403 57.9277 67.1869C58.1009 67.6244 58.4245 67.8431 58.8984 67.8431C59.3815 67.8431 59.7051 67.6244 59.8691 67.1869C60.0332 66.7403 60.1152 66.1387 60.1152 65.3822V58.7924C60.1152 58.0085 60.0286 57.3978 59.8555 56.9603C59.6914 56.5228 59.3724 56.3041 58.8984 56.3041C58.4245 56.3041 58.1009 56.5228 57.9277 56.9603C57.7637 57.3978 57.6816 58.0085 57.6816 58.7924V65.3822ZM75.5371 52.0795V54.5131C75.5371 55.9441 75.1999 57.1973 74.5254 58.2728C73.86 59.3392 72.7845 60.3601 71.2988 61.3353L67.5801 58.7513C68.0085 58.2227 68.332 57.6257 68.5508 56.9603C68.7695 56.295 68.8789 55.4792 68.8789 54.5131V52.0795H75.5371ZM76.2754 67.3236L82.1953 67.3783V67.7064C82.1953 68.153 82.3275 68.4538 82.5918 68.6088C82.8652 68.7637 83.2435 68.8412 83.7266 68.8412C84.237 68.8412 84.5924 68.7637 84.793 68.6088C84.9935 68.4538 85.0938 68.2442 85.0938 67.9799C85.0938 67.6882 84.9434 67.4877 84.6426 67.3783C84.3509 67.2598 83.362 67.0547 81.6758 66.7631C79.7982 66.4532 78.4993 65.9245 77.7793 65.1771C77.0684 64.4297 76.7129 63.4909 76.7129 62.3607C76.7129 60.8477 77.3555 59.6947 78.6406 58.9017C79.9258 58.0997 81.6849 57.6986 83.918 57.6986C86.1237 57.6986 87.8737 58.1224 89.168 58.9701C90.4622 59.8177 91.1003 60.989 91.082 62.4838V62.7572H85.1758V62.4291C85.1758 62.0918 85.0664 61.8321 84.8477 61.6498C84.6289 61.4584 84.2917 61.3627 83.8359 61.3627C83.3893 61.3627 83.0703 61.4219 82.8789 61.5404C82.6966 61.6498 82.6055 61.8275 82.6055 62.0736C82.6055 62.3197 82.7513 62.5157 83.043 62.6615C83.3346 62.8073 84.3236 63.0124 86.0098 63.2767C87.8418 63.5593 89.1725 64.0469 90.002 64.7396C90.8405 65.4232 91.2598 66.3711 91.2598 67.5834C91.2598 69.1602 90.6126 70.3588 89.3184 71.1791C88.0241 71.9903 86.1921 72.3959 83.8223 72.3959C81.498 72.3959 79.666 71.9903 78.3262 71.1791C76.9954 70.3679 76.3164 69.1602 76.2891 67.556L76.2754 67.3236Z" fill="#41B3F1"/>
<path d="M42.416 137V128.489L39.9004 129.549V128.277L43.5234 126.91H43.7285V137H42.416ZM47.1191 130.15C47.1191 129.166 47.4313 128.368 48.0557 127.758C48.68 127.147 49.4707 126.842 50.4277 126.842C51.3848 126.842 52.2074 127.188 52.8955 127.881C53.5837 128.574 53.9277 129.695 53.9277 131.244V131.449C53.9277 133.058 53.4583 134.386 52.5195 135.435C51.5853 136.478 50.2523 137 48.5205 137H48.377V135.92H48.5137C49.7897 135.92 50.7969 135.555 51.5352 134.826C52.2734 134.092 52.6426 132.99 52.6426 131.518V131.176C52.6426 129.991 52.4329 129.152 52.0137 128.66C51.5944 128.168 51.0658 127.922 50.4277 127.922C49.7897 127.922 49.2952 128.118 48.9443 128.51C48.5934 128.897 48.418 129.444 48.418 130.15C48.418 130.857 48.5934 131.404 48.9443 131.791C49.2952 132.174 49.7897 132.365 50.4277 132.365C51.0202 132.365 51.5443 132.174 52 131.791C52.4557 131.404 52.6836 130.857 52.6836 130.15H53.1621C53.1621 131.135 52.8887 131.93 52.3418 132.536C51.7949 133.142 51.0658 133.445 50.1543 133.445C49.2474 133.445 48.5137 133.142 47.9531 132.536C47.3971 131.93 47.1191 131.135 47.1191 130.15ZM55.2129 134.505V134.437H56.4707V134.505C56.4707 135.006 56.6484 135.403 57.0039 135.694C57.3594 135.981 57.8333 136.125 58.4258 136.125C59.0182 136.125 59.5036 135.924 59.8818 135.523C60.2601 135.118 60.4492 134.55 60.4492 133.821C60.4492 133.092 60.2601 132.536 59.8818 132.153C59.5036 131.771 59.0182 131.579 58.4258 131.579C58.0156 131.579 57.6533 131.654 57.3389 131.805C57.0244 131.951 56.7305 132.16 56.457 132.434L55.5547 132.01L56.0605 127.047H61.2285V128.209H57.127L56.8262 131.012C57.054 130.875 57.3206 130.754 57.626 130.649C57.9313 130.545 58.2663 130.492 58.6309 130.492C59.4967 130.492 60.2327 130.786 60.8389 131.374C61.445 131.957 61.748 132.773 61.748 133.821C61.748 134.869 61.4336 135.697 60.8047 136.303C60.1758 136.904 59.3828 137.205 58.4258 137.205C57.4049 137.205 56.6143 136.95 56.0537 136.439C55.4932 135.924 55.2129 135.28 55.2129 134.505ZM63.1836 133.855V130.191C63.1836 129.189 63.4661 128.38 64.0312 127.765C64.5964 127.149 65.3802 126.842 66.3828 126.842C67.3763 126.842 68.1579 127.149 68.7275 127.765C69.2972 128.38 69.582 129.189 69.582 130.191V133.855C69.582 134.858 69.2972 135.667 68.7275 136.282C68.1579 136.897 67.3763 137.205 66.3828 137.205C65.3802 137.205 64.5964 136.897 64.0312 136.282C63.4661 135.667 63.1836 134.858 63.1836 133.855ZM64.5098 133.924C64.5098 134.562 64.6624 135.088 64.9678 135.503C65.2731 135.918 65.7448 136.125 66.3828 136.125C67.0208 136.125 67.4925 135.918 67.7979 135.503C68.1032 135.088 68.2559 134.562 68.2559 133.924V130.123C68.2559 129.485 68.1032 128.959 67.7979 128.544C67.4925 128.129 67.0208 127.922 66.3828 127.922C65.7448 127.922 65.2731 128.129 64.9678 128.544C64.6624 128.959 64.5098 129.485 64.5098 130.123V133.924ZM72.5078 127.033V127.908C72.5078 128.318 72.403 128.756 72.1934 129.221C71.9883 129.686 71.6989 130.073 71.3252 130.383L70.6006 129.884C70.8148 129.583 70.9766 129.275 71.0859 128.961C71.1953 128.642 71.25 128.298 71.25 127.929V127.033H72.5078ZM72.918 134.881H74.1895V134.915C74.1895 135.33 74.3421 135.642 74.6475 135.852C74.9528 136.061 75.3561 136.166 75.8574 136.166C76.3587 136.166 76.7529 136.066 77.04 135.865C77.3317 135.665 77.4775 135.405 77.4775 135.086C77.4775 134.767 77.3613 134.523 77.1289 134.354C76.8965 134.181 76.3929 134.004 75.6182 133.821C74.8434 133.639 74.2282 133.384 73.7725 133.056C73.3167 132.723 73.0889 132.26 73.0889 131.668C73.0889 131.076 73.3327 130.583 73.8203 130.191C74.3125 129.799 74.9688 129.604 75.7891 129.604C76.6094 129.604 77.2702 129.799 77.7715 130.191C78.2728 130.579 78.5234 131.105 78.5234 131.771V131.805H77.2588V131.743C77.2588 131.401 77.138 131.132 76.8965 130.937C76.6595 130.741 76.2904 130.643 75.7891 130.643C75.2878 130.643 74.9209 130.734 74.6885 130.916C74.4606 131.098 74.3467 131.326 74.3467 131.6C74.3467 131.873 74.4788 132.09 74.7432 132.249C75.0075 132.409 75.527 132.579 76.3018 132.762C77.0765 132.944 77.6735 133.206 78.0928 133.548C78.5166 133.89 78.7285 134.38 78.7285 135.018C78.7285 135.656 78.4893 136.18 78.0107 136.59C77.5322 137 76.8145 137.205 75.8574 137.205C74.9004 137.205 74.1712 136.998 73.6699 136.583C73.1686 136.164 72.918 135.608 72.918 134.915V134.881Z" fill="#41B3F1"/>
</svg>
