<svg width="116" height="137" viewBox="0 0 116 137" fill="none" xmlns="http://www.w3.org/2000/svg">
<circle cx="58" cy="58" r="54" stroke="white" stroke-width="2"/>
<path d="M29.3503 57.8735L28.3428 59.4857V66.4104L32.9044 68.3734" stroke="white" stroke-width="2"/>
<circle cx="38.7491" cy="68.0226" r="6.23937" stroke="white" stroke-width="2"/>
<circle cx="66.9601" cy="68.0226" r="6.23937" stroke="white" stroke-width="2"/>
<path d="M86.4424 70.1026L85.2861 71.6915C84.1535 73.2473 82.3148 74.2617 80.2393 74.2618C78.1635 74.2618 76.3241 73.2475 75.1914 71.6915L74.0352 70.1026H86.4424Z" stroke="white" stroke-width="2"/>
<path d="M58.4424 70.1026L57.2861 71.6915C56.1535 73.2473 54.3148 74.2617 52.2393 74.2618C50.1635 74.2618 48.3241 73.2475 47.1914 71.6915L46.0352 70.1026H58.4424Z" stroke="white" stroke-width="2"/>
<path d="M58 46.5L66.3479 56.5757" stroke="white" stroke-width="2"/>
<path d="M29.3135 54.4689H33.7468C38.1606 51.3439 43.1593 46.0572 48.8976 46.0572H70.1394L81 57M44.7026 56.5359H92.1682L93.9818 58.3496V66.0071L87.2584 70.0588H73.3539" stroke="white" stroke-width="2"/>
<path d="M61.1166 69.4332H44.7939" stroke="white" stroke-width="2"/>
<path d="M11 54.4478L27.427 54.4478" stroke="white" stroke-width="2"/>
<path d="M20.8984 49.3917L34.1681 49.3917" stroke="white" stroke-width="2"/>
<path d="M21.5283 61.1894L25.7418 61.1894" stroke="white" stroke-width="2"/>
<path d="M78.8311 62.0532H84.7299" stroke="white" stroke-width="2"/>
<path d="M94 62.0532H90.5" stroke="white" stroke-width="2"/>
<path d="M45.124 57.5756V47.306" stroke="white" stroke-width="2"/>
<path d="M39.8916 136L43.6787 125.979H44.8545L48.6416 136H47.2744L44.54 128.48C44.4854 128.33 44.4375 128.184 44.3965 128.043C44.3555 127.902 44.319 127.756 44.2871 127.605H44.2188C44.1868 127.756 44.1504 127.902 44.1094 128.043C44.0684 128.184 44.0205 128.33 43.9658 128.48L41.2041 136H39.8916ZM41.5186 133.402L41.9219 132.322H46.5977L46.9941 133.402H41.5186ZM49.2227 132.514V132.295C49.2227 131.21 49.5166 130.324 50.1045 129.636C50.6969 128.948 51.5104 128.604 52.5449 128.604C53.502 128.604 54.2288 128.863 54.7256 129.383C55.2223 129.898 55.4707 130.474 55.4707 131.112V131.146H54.2402V131.112C54.2402 130.725 54.1058 130.383 53.8369 130.087C53.568 129.791 53.1374 129.643 52.5449 129.643C51.8522 129.643 51.3418 129.9 51.0137 130.415C50.6855 130.925 50.5215 131.552 50.5215 132.295V132.514C50.5215 133.257 50.6855 133.885 51.0137 134.4C51.3418 134.911 51.8522 135.166 52.5449 135.166C53.1374 135.166 53.568 135.018 53.8369 134.722C54.1058 134.425 54.2402 134.084 54.2402 133.696V133.662H55.4707V133.696C55.4707 134.334 55.2223 134.913 54.7256 135.433C54.2288 135.948 53.502 136.205 52.5449 136.205C51.5104 136.205 50.6969 135.861 50.1045 135.173C49.5166 134.485 49.2227 133.598 49.2227 132.514ZM55.9424 129.779V128.809H60.0439V129.779H55.9424ZM57.2275 134.223V129.396V129.191V127.031H58.499V134.223C58.499 134.542 58.5628 134.77 58.6904 134.906C58.818 135.043 59.0186 135.111 59.292 135.111C59.4196 135.111 59.5449 135.098 59.668 135.07C59.791 135.043 59.9163 135.007 60.0439 134.961V136C59.9255 136.055 59.7705 136.103 59.5791 136.144C59.3877 136.185 59.1781 136.205 58.9502 136.205C58.4261 136.205 58.0068 136.046 57.6924 135.727C57.3825 135.408 57.2275 134.906 57.2275 134.223ZM61.459 136V128.809H62.7305V136H61.459ZM61.3018 126.635C61.3018 126.421 61.3701 126.241 61.5068 126.095C61.6436 125.949 61.8395 125.876 62.0947 125.876C62.3499 125.876 62.5459 125.949 62.6826 126.095C62.8193 126.241 62.8877 126.421 62.8877 126.635C62.8877 126.849 62.8193 127.029 62.6826 127.175C62.5459 127.321 62.3499 127.394 62.0947 127.394C61.8395 127.394 61.6436 127.321 61.5068 127.175C61.3701 127.029 61.3018 126.849 61.3018 126.635ZM64.3848 132.514V132.295C64.3848 131.21 64.6924 130.324 65.3076 129.636C65.9229 128.948 66.7454 128.604 67.7754 128.604C68.8053 128.604 69.6279 128.948 70.2432 129.636C70.8584 130.324 71.166 131.21 71.166 132.295V132.514C71.166 133.598 70.8584 134.485 70.2432 135.173C69.6279 135.861 68.8053 136.205 67.7754 136.205C66.7454 136.205 65.9229 135.861 65.3076 135.173C64.6924 134.485 64.3848 133.598 64.3848 132.514ZM65.6836 132.295V132.514C65.6836 133.257 65.859 133.885 66.21 134.4C66.5609 134.911 67.0827 135.166 67.7754 135.166C68.4681 135.166 68.9899 134.911 69.3408 134.4C69.6917 133.885 69.8672 133.257 69.8672 132.514V132.295C69.8672 131.552 69.6917 130.925 69.3408 130.415C68.9899 129.9 68.4681 129.643 67.7754 129.643C67.0827 129.643 66.5609 129.9 66.21 130.415C65.859 130.925 65.6836 131.552 65.6836 132.295ZM72.7588 136V128.809H73.9072L73.9619 129.731H74.0029C74.2627 129.403 74.5794 129.146 74.9531 128.959C75.3314 128.768 75.7484 128.672 76.2041 128.672C76.9287 128.672 77.5052 128.879 77.9336 129.294C78.3665 129.704 78.583 130.392 78.583 131.358V136H77.3115V131.345C77.3115 130.771 77.1816 130.36 76.9219 130.114C76.6667 129.864 76.3021 129.738 75.8281 129.738C75.4225 129.738 75.0648 129.848 74.7549 130.066C74.445 130.285 74.2035 130.568 74.0303 130.914V136H72.7588Z" fill="white"/>
</svg>
