<svg width="116" height="137" viewBox="0 0 116 137" fill="none" xmlns="http://www.w3.org/2000/svg">
<circle cx="58" cy="58" r="54" stroke="white" stroke-width="2"/>
<path d="M26.6914 136L30.4785 125.979H31.6543L35.4414 136H34.0742L31.3398 128.48C31.2852 128.33 31.2373 128.184 31.1963 128.043C31.1553 127.902 31.1188 127.756 31.0869 127.605H31.0186C30.9867 127.756 30.9502 127.902 30.9092 128.043C30.8682 128.184 30.8203 128.33 30.7656 128.48L28.0039 136H26.6914ZM28.3184 133.402L28.7217 132.322H33.3975L33.7939 133.402H28.3184ZM36.0225 132.514V132.295C36.0225 131.247 36.2959 130.381 36.8428 129.697C37.3896 129.014 38.1188 128.672 39.0303 128.672C39.5316 128.672 39.9577 128.763 40.3086 128.945C40.6641 129.123 40.9466 129.36 41.1562 129.656V125.5H42.4277V136H41.2793L41.2246 135.063H41.1836C41.0013 135.36 40.721 135.613 40.3428 135.822C39.9691 136.032 39.5316 136.137 39.0303 136.137C38.1188 136.137 37.3896 135.795 36.8428 135.111C36.2959 134.428 36.0225 133.562 36.0225 132.514ZM37.3213 132.514C37.3213 133.243 37.4808 133.856 37.7998 134.353C38.1188 134.849 38.6201 135.098 39.3037 135.098C39.7594 135.098 40.1468 134.972 40.4658 134.722C40.7848 134.471 41.015 134.186 41.1562 133.867V130.941C41.015 130.622 40.7848 130.338 40.4658 130.087C40.1468 129.836 39.7594 129.711 39.3037 129.711C38.6201 129.711 38.1188 129.959 37.7998 130.456C37.4808 130.953 37.3213 131.566 37.3213 132.295V132.514ZM43.4395 128.809H44.6699L46.4062 133.607C46.4701 133.79 46.5225 133.961 46.5635 134.12C46.609 134.28 46.641 134.405 46.6592 134.496H46.7002C46.7184 134.405 46.748 134.28 46.7891 134.12C46.8346 133.961 46.8893 133.79 46.9531 133.607L48.6758 128.809H49.8789L47.1445 136H46.1738L43.4395 128.809ZM50.3643 132.514V132.295C50.3643 131.21 50.6605 130.324 51.2529 129.636C51.8499 128.948 52.6383 128.604 53.6182 128.604C54.598 128.604 55.3522 128.925 55.8809 129.567C56.4095 130.21 56.6738 131.078 56.6738 132.172V132.691H51.1436V131.68H55.3955V131.516C55.3955 130.996 55.2474 130.554 54.9512 130.189C54.6549 129.825 54.2288 129.643 53.6729 129.643C52.9984 129.643 52.4948 129.9 52.1621 130.415C51.8294 130.925 51.6631 131.552 51.6631 132.295V132.514C51.6631 133.257 51.8385 133.885 52.1895 134.4C52.5404 134.911 53.085 135.166 53.8232 135.166C54.279 135.166 54.6709 135.066 54.999 134.865C55.3271 134.665 55.5938 134.428 55.7988 134.154L56.6191 134.804C56.3913 135.146 56.0381 135.465 55.5596 135.761C55.0856 136.057 54.5068 136.205 53.8232 136.205C52.7067 136.205 51.8499 135.861 51.2529 135.173C50.6605 134.485 50.3643 133.598 50.3643 132.514ZM58.2324 136V128.809H59.3809L59.4355 129.731H59.4766C59.7363 129.403 60.0531 129.146 60.4268 128.959C60.805 128.768 61.222 128.672 61.6777 128.672C62.4023 128.672 62.9788 128.879 63.4072 129.294C63.8402 129.704 64.0566 130.392 64.0566 131.358V136H62.7852V131.345C62.7852 130.771 62.6553 130.36 62.3955 130.114C62.1403 129.864 61.7757 129.738 61.3018 129.738C60.8962 129.738 60.5384 129.848 60.2285 130.066C59.9186 130.285 59.6771 130.568 59.5039 130.914V136H58.2324ZM65 129.779V128.809H69.1016V129.779H65ZM66.2852 134.223V129.396V129.191V127.031H67.5566V134.223C67.5566 134.542 67.6204 134.77 67.748 134.906C67.8757 135.043 68.0762 135.111 68.3496 135.111C68.4772 135.111 68.6025 135.098 68.7256 135.07C68.8486 135.043 68.974 135.007 69.1016 134.961V136C68.9831 136.055 68.8281 136.103 68.6367 136.144C68.4453 136.185 68.2357 136.205 68.0078 136.205C67.4837 136.205 67.0645 136.046 66.75 135.727C66.4401 135.408 66.2852 134.906 66.2852 134.223ZM70.3867 133.45V128.809H71.6582V133.464C71.6582 134.038 71.7858 134.451 72.041 134.701C72.3008 134.947 72.6676 135.07 73.1416 135.07C73.5472 135.07 73.9049 134.961 74.2148 134.742C74.5247 134.523 74.7663 134.241 74.9395 133.895V128.809H76.2109V136H75.0625L75.0078 135.077H74.9668C74.707 135.405 74.388 135.665 74.0098 135.856C73.6361 136.043 73.2214 136.137 72.7656 136.137C72.041 136.137 71.4622 135.932 71.0293 135.521C70.6009 135.107 70.3867 134.416 70.3867 133.45ZM78.2344 136V128.809H79.3828L79.4375 129.731H79.4785C79.6608 129.431 79.9001 129.169 80.1963 128.945C80.4925 128.717 80.8457 128.604 81.2559 128.604C81.3561 128.604 81.4609 128.615 81.5703 128.638C81.6797 128.66 81.7572 128.681 81.8027 128.699V129.875C81.7116 129.857 81.6159 129.843 81.5156 129.834C81.4154 129.825 81.306 129.82 81.1875 129.82C80.7773 129.82 80.4287 129.927 80.1416 130.142C79.8545 130.356 79.6426 130.622 79.5059 130.941V136H78.2344ZM82.4521 132.514V132.295C82.4521 131.21 82.7484 130.324 83.3408 129.636C83.9378 128.948 84.7262 128.604 85.7061 128.604C86.6859 128.604 87.4401 128.925 87.9688 129.567C88.4974 130.21 88.7617 131.078 88.7617 132.172V132.691H83.2314V131.68H87.4834V131.516C87.4834 130.996 87.3353 130.554 87.0391 130.189C86.7428 129.825 86.3167 129.643 85.7607 129.643C85.0863 129.643 84.5827 129.9 84.25 130.415C83.9173 130.925 83.751 131.552 83.751 132.295V132.514C83.751 133.257 83.9264 133.885 84.2773 134.4C84.6283 134.911 85.1729 135.166 85.9111 135.166C86.3669 135.166 86.7588 135.066 87.0869 134.865C87.415 134.665 87.6816 134.428 87.8867 134.154L88.707 134.804C88.4792 135.146 88.126 135.465 87.6475 135.761C87.1735 136.057 86.5947 136.205 85.9111 136.205C84.7946 136.205 83.9378 135.861 83.3408 135.173C82.7484 134.485 82.4521 133.598 82.4521 132.514Z" fill="white"/>
<path d="M74.5 85C80.8513 85 86 79.8513 86 73.5C86 67.1487 80.8513 62 74.5 62" stroke="white" stroke-width="2"/>
<path d="M86 39.5C86 33.1487 80.8513 28 74.5 28" stroke="white" stroke-width="2"/>
<path d="M74 63L74 27" stroke="white" stroke-width="2"/>
<path d="M86 73.5L86 39.5" stroke="white" stroke-width="2"/>
<path d="M75 85H57L55 84.5L53 85H44.5L41 83.5L36.75 85H33V36H42L43.5 36.5L45.5 36H57.5H61.5L63.5 37L65 36H74M61.5 36H45.5" stroke="white" stroke-width="2"/>
<path d="M51.4912 41.3081C51.883 41.0829 52.3777 41.1487 52.6973 41.4683C53.0168 41.7879 53.0819 42.2826 52.8564 42.6743L49.8457 47.9058L52.833 52.5981C53.0847 52.9936 53.0277 53.5108 52.6963 53.8423C52.3648 54.1737 51.8475 54.2307 51.4521 53.979L46.5098 50.8315L41.5674 53.979C41.172 54.2307 40.6547 54.1736 40.3232 53.8423C39.9918 53.5108 39.9348 52.9936 40.1865 52.5981L43.1729 47.9067L40.1621 42.6743C39.9368 42.2826 40.0027 41.7879 40.3223 41.4683C40.6419 41.1487 41.1365 41.0828 41.5283 41.3081L46.5098 44.1743L51.4912 41.3081Z" fill="white"/>
<path d="M53.9068 47.0043C53.3569 47.0558 52.9529 47.5433 53.0044 48.0932C53.0558 48.6431 53.5434 49.0471 54.0932 48.9956L54 48L53.9068 47.0043ZM62 57L62.8617 57.5074L62.9307 57.3902L62.9659 57.2588L62 57ZM67 78L67.2588 77.0341L67 78ZM55.2125 48.9562C55.7646 48.9671 56.2211 48.5283 56.232 47.9761C56.243 47.424 55.8042 46.9675 55.252 46.9565L55.2322 47.9563L55.2125 48.9562ZM60.4855 48.4019C60.0226 48.1008 59.4031 48.2319 59.102 48.6949C58.8008 49.1578 58.932 49.7773 59.3949 50.0784L59.9402 49.2402L60.4855 48.4019ZM60.7838 51.5029C61.0641 51.9788 61.6771 52.1374 62.153 51.8571C62.6288 51.5768 62.7874 50.9638 62.5071 50.4879L61.6455 50.9954L60.7838 51.5029ZM63.2535 55.9591C63.347 55.4148 62.9816 54.8977 62.4373 54.8042C61.893 54.7107 61.3759 55.0761 61.2824 55.6204L62.2679 55.7898L63.2535 55.9591ZM60.5959 57.465C60.3378 57.9533 60.5245 58.5584 61.0127 58.8164C61.501 59.0745 62.1061 58.8879 62.3641 58.3996L61.48 57.9323L60.5959 57.465ZM60.7491 62.1841C60.923 61.6599 60.639 61.094 60.1148 60.9201C59.5906 60.7462 59.0247 61.0302 58.8508 61.5544L59.8 61.8693L60.7491 62.1841ZM58.2442 63.7053C58.1197 64.2434 58.455 64.7805 58.9931 64.905C59.5312 65.0294 60.0683 64.6941 60.1927 64.1561L59.2184 63.9307L58.2442 63.7053ZM59.7422 68.1548C59.7298 67.6026 59.2721 67.1651 58.72 67.1776C58.1678 67.19 57.7303 67.6477 57.7427 68.1999L58.7425 68.1773L59.7422 68.1548ZM57.991 70.5015C58.1 71.0429 58.6273 71.3934 59.1687 71.2844C59.7101 71.1754 60.0606 70.6481 59.9516 70.1067L58.9713 70.3041L57.991 70.5015ZM61.4944 73.567C61.1561 73.1304 60.5279 73.0508 60.0914 73.3892C59.6549 73.7275 59.5753 74.3556 59.9136 74.7922L60.704 74.1796L61.4944 73.567ZM61.5764 76.4776C62.0069 76.8235 62.6364 76.7549 62.9823 76.3244C63.3282 75.8938 63.2596 75.2644 62.829 74.9185L62.2027 75.698L61.5764 76.4776ZM66.292 76.743C65.7686 76.5668 65.2014 76.8483 65.0253 77.3718C64.8491 77.8952 65.1307 78.4624 65.6541 78.6385L65.9731 77.6907L66.292 76.743ZM67.4607 79.2045C67.974 79.4083 68.5554 79.1575 68.7592 78.6442C68.9631 78.1309 68.7123 77.5496 68.199 77.3457L67.8299 78.2751L67.4607 79.2045ZM71.4188 79.4779C71.0211 79.0948 70.388 79.1065 70.0048 79.5043C69.6216 79.902 69.6334 80.535 70.0311 80.9182L70.725 80.1981L71.4188 79.4779ZM71.122 82.1201C71.4688 82.55 72.0983 82.6174 72.5282 82.2707C72.9581 81.9239 73.0255 81.2944 72.6788 80.8645L71.9004 81.4923L71.122 82.1201ZM74.7396 83.75C74.4139 83.304 73.7883 83.2065 73.3422 83.5322C72.8962 83.8579 72.7987 84.4835 73.1244 84.9295L73.932 84.3398L74.7396 83.75ZM54 48L54.0932 48.9956C54.4362 48.9635 54.814 48.9483 55.2125 48.9562L55.2322 47.9563L55.252 46.9565C54.7789 46.9472 54.3256 46.9651 53.9068 47.0043L54 48ZM59.9402 49.2402L59.3949 50.0784C59.9615 50.447 60.4373 50.9145 60.7838 51.5029L61.6455 50.9954L62.5071 50.4879C61.9835 49.5988 61.2758 48.916 60.4855 48.4019L59.9402 49.2402ZM62.2679 55.7898L61.2824 55.6204C61.2217 55.9736 61.1397 56.3469 61.0341 56.7412L62 57L62.9659 57.2588C63.0863 56.8097 63.1818 56.3767 63.2535 55.9591L62.2679 55.7898ZM62 57L61.1383 56.4925C60.9572 56.8001 60.7756 57.125 60.5959 57.465L61.48 57.9323L62.3641 58.3996C62.5299 58.0861 62.6965 57.788 62.8617 57.5074L62 57ZM59.8 61.8693L58.8508 61.5544C58.6198 62.2509 58.414 62.9711 58.2442 63.7053L59.2184 63.9307L60.1927 64.1561C60.3474 63.4873 60.5359 62.8268 60.7491 62.1841L59.8 61.8693ZM58.7425 68.1773L57.7427 68.1999C57.7602 68.9724 57.8384 69.7436 57.991 70.5015L58.9713 70.3041L59.9516 70.1067C59.8247 69.4763 59.7573 68.823 59.7422 68.1548L58.7425 68.1773ZM60.704 74.1796L59.9136 74.7922C60.3824 75.3971 60.9344 75.9618 61.5764 76.4776L62.2027 75.698L62.829 74.9185C62.3074 74.4994 61.8659 74.0464 61.4944 73.567L60.704 74.1796ZM65.9731 77.6907L65.6541 78.6385C66.0035 78.7561 66.3658 78.8653 66.7412 78.9659L67 78L67.2588 77.0341C66.9223 76.9439 66.6002 76.8467 66.292 76.743L65.9731 77.6907ZM67 78L66.7412 78.9659C66.9897 79.0325 67.2294 79.1126 67.4607 79.2045L67.8299 78.2751L68.199 77.3457C67.8975 77.226 67.5842 77.1213 67.2588 77.0341L67 78ZM70.725 80.1981L70.0311 80.9182C70.4262 81.2989 70.7881 81.706 71.122 82.1201L71.9004 81.4923L72.6788 80.8645C72.3047 80.4006 71.8867 79.9287 71.4188 79.4779L70.725 80.1981ZM73.932 84.3398L73.1244 84.9295C73.3394 85.2239 73.5847 85.5339 73.8515 85.7612L74.5 85L75.1485 84.2388C75.0726 84.1742 74.9429 84.0284 74.7396 83.75L73.932 84.3398Z" fill="white"/>
</svg>
