<svg width="116" height="137" viewBox="0 0 116 137" fill="none" xmlns="http://www.w3.org/2000/svg">
<circle cx="58" cy="58" r="54" stroke="white" stroke-width="2"/>
<path d="M52.3533 87.1432C48.2844 87.7183 44.0062 85.7124 40.6508 83.5812C38.3975 82.1047 34.883 79.359 34.1454 76.6615C34.0323 76.2478 34.1147 75.6436 34.3756 75.2914C35.0972 74.3174 36.1681 74.1063 37.2485 73.8811C36.8651 73.0784 36.5276 72.4012 36.2381 71.5519C35.2613 68.6872 35.5346 65.8581 36.1014 62.9644L36.2209 62.438C32.8691 60.3195 27.8829 55.9419 26.1417 52.3294C25.3457 50.6778 24.754 49.0706 25.3892 47.2509C25.7999 46.0373 26.9512 44.5967 28.1635 44.0867" stroke="white" stroke-width="2" stroke-linecap="round"/>
<path d="M44.2605 91.9519C40.1916 92.527 35.9134 90.5211 32.558 88.3899C30.3048 86.9133 26.7903 84.1677 26.0526 81.4701C25.9395 81.0565 26.0219 80.4523 26.2828 80.1001C27.0044 79.1261 28.0753 78.9149 29.1557 78.6898C28.7723 77.8871 28.4349 77.2098 28.1453 76.3605C27.1685 73.4958 27.4418 70.6667 28.0087 67.773L28.1281 67.2466C24.7763 65.1281 19.7901 60.7506 18.049 57.138C17.2529 55.4864 16.6613 53.8793 17.2964 52.0595C17.7071 50.846 18.8584 49.4054 20.0707 48.8954" stroke="white" stroke-width="2" stroke-linecap="round"/>
<path d="M84.6714 34.8162C85.605 36.1552 85.8125 38.0577 85.6395 39.4512C85.2292 42.7543 83.4373 46.3503 81.2391 49.5436C79.2212 52.475 76.7973 55.1556 74.6031 57.0734C74.9933 57.83 75.295 58.4392 75.547 59.0728C75.7605 59.6097 75.9356 60.1559 76.1071 60.8208C79.9249 59.101 84.2489 58.4255 88.4437 60.2764C90.1854 61.0449 91.6817 62.4599 92.5348 64.1625C93.3946 65.8787 93.6188 67.9356 92.705 69.8999C91.8487 71.7402 90.3324 72.687 88.6975 73.1046C87.098 73.5131 85.3481 73.4304 83.858 73.2253C82.2998 73.0108 81.0887 72.7099 79.6629 72.6388L79.6573 72.6384C77.9646 72.544 76.2696 72.7803 74.6671 73.3339L74.6593 73.3357C74.0509 73.5404 73.8149 73.6956 73.6377 73.8561C73.3855 74.0845 73.2384 74.3138 72.7163 74.9229L72.3792 75.3C72.1488 75.5461 71.9069 75.7813 71.6549 76.0052L71.2685 76.333L71.2654 76.3356C69.679 77.6093 68.2176 78.3074 66.5432 78.9435C66.6541 79.2705 66.7482 79.6172 66.8056 79.9729C66.9275 80.7294 66.896 81.5933 66.4581 82.4068C66.1802 82.9232 65.7209 83.3246 65.2854 83.6041C64.841 83.8892 64.3259 84.1094 63.8365 84.2088C59.4344 85.1032 54.7657 83.1931 51.2575 81.25L51.2453 81.2431C50.0437 80.555 48.4838 79.5529 47.0979 78.3681C45.7378 77.2052 44.4245 75.7657 43.8865 74.1798C43.7635 73.8168 43.7351 73.4164 43.7702 73.0561C43.8049 72.699 43.9108 72.2867 44.1429 71.9306C44.7213 71.0433 45.529 70.5843 46.2969 70.2971C46.0863 69.8965 45.8815 69.4793 45.69 69.0116C44.4589 66.0051 44.5708 62.9925 44.9563 60.0609C43.2766 59.0752 41.3097 57.6915 39.5006 56.1499C37.4803 54.4283 35.5749 52.4436 34.5111 50.5383C33.6057 48.9164 32.7255 47.0307 33.3641 44.7622C33.5715 44.0021 33.9856 43.2033 34.5036 42.5161C35.0184 41.8332 35.6918 41.1858 36.4651 40.8043C39.9654 39.0777 43.4628 40.9065 46.1191 43.2718C48.4464 45.3442 50.4091 48.0593 51.6533 50.1074C51.7819 50.0302 51.9103 49.9549 52.0349 49.8841C52.1926 49.7946 52.3528 49.709 52.5071 49.6256C52.1518 48.8082 51.8511 47.9567 51.5777 47.1692L51.5759 47.1635C50.1596 43.003 48.7411 37.9929 49.6635 33.3027C50.3301 29.9142 52.9293 27.9832 55.7404 27.6481C58.532 27.3155 61.583 28.5451 63.2373 31.436C66.2969 36.7827 66.3156 43.1502 65.1025 48.8427C65.2905 48.909 65.4749 48.9754 65.6584 49.0446C65.8596 48.3217 66.116 47.5068 66.2599 47.0764L66.2621 47.0699C67.8791 42.3407 70.1801 36.95 74.422 33.5814C77.4691 31.1617 82.2945 31.4073 84.6714 34.8162Z" stroke="white" stroke-width="2"/>
<path d="M52.6523 71.3588L52.5936 63.5969M57.0393 72.2274L62.2361 60.9472" stroke="white" stroke-width="2" stroke-linecap="round"/>
<path d="M60.5947 73.8432L65.9828 70.807" stroke="white" stroke-width="2" stroke-linecap="round"/>
<path d="M26.4248 136L30.2119 125.979H31.3877L35.1748 136H33.8076L31.0732 128.48C31.0186 128.33 30.9707 128.184 30.9297 128.043C30.8887 127.902 30.8522 127.756 30.8203 127.605H30.752C30.7201 127.756 30.6836 127.902 30.6426 128.043C30.6016 128.184 30.5537 128.33 30.499 128.48L27.7373 136H26.4248ZM28.0518 133.402L28.4551 132.322H33.1309L33.5273 133.402H28.0518ZM36.1865 136V128.809H37.335L37.3896 129.731H37.4307C37.6904 129.403 38.0072 129.146 38.3809 128.959C38.7591 128.768 39.1761 128.672 39.6318 128.672C40.3564 128.672 40.9329 128.879 41.3613 129.294C41.7943 129.704 42.0107 130.392 42.0107 131.358V136H40.7393V131.345C40.7393 130.771 40.6094 130.36 40.3496 130.114C40.0944 129.864 39.7298 129.738 39.2559 129.738C38.8503 129.738 38.4925 129.848 38.1826 130.066C37.8727 130.285 37.6312 130.568 37.458 130.914V136H36.1865ZM44.0273 136V128.809H45.2988V136H44.0273ZM43.8701 126.635C43.8701 126.421 43.9385 126.241 44.0752 126.095C44.2119 125.949 44.4079 125.876 44.6631 125.876C44.9183 125.876 45.1143 125.949 45.251 126.095C45.3877 126.241 45.4561 126.421 45.4561 126.635C45.4561 126.849 45.3877 127.029 45.251 127.175C45.1143 127.321 44.9183 127.394 44.6631 127.394C44.4079 127.394 44.2119 127.321 44.0752 127.175C43.9385 127.029 43.8701 126.849 43.8701 126.635ZM47.3838 136V128.809H48.5322L48.5869 129.731H48.6279C48.8831 129.408 49.1908 129.15 49.5508 128.959C49.9154 128.768 50.3187 128.672 50.7607 128.672C51.2438 128.672 51.6608 128.768 52.0117 128.959C52.3626 129.15 52.6292 129.46 52.8115 129.889H52.8525C53.1533 129.46 53.486 129.15 53.8506 128.959C54.2152 128.768 54.6344 128.672 55.1084 128.672C55.8558 128.672 56.4391 128.879 56.8584 129.294C57.2777 129.704 57.4873 130.392 57.4873 131.358V136H56.2158V131.345C56.2158 130.771 56.0928 130.36 55.8467 130.114C55.6006 129.864 55.252 129.738 54.8008 129.738C54.4089 129.738 54.0648 129.848 53.7686 130.066C53.4769 130.285 53.2445 130.568 53.0713 130.914V136H51.7998V131.345C51.7998 130.771 51.6768 130.36 51.4307 130.114C51.1846 129.864 50.8359 129.738 50.3848 129.738C49.9928 129.738 49.6488 129.848 49.3525 130.066C49.0609 130.285 48.8285 130.568 48.6553 130.914V136H47.3838ZM59.0459 133.881C59.0459 133.152 59.3353 132.584 59.9141 132.179C60.4928 131.773 61.2288 131.57 62.1221 131.57H63.749V131.078C63.749 130.645 63.6374 130.294 63.4141 130.025C63.1908 129.752 62.8057 129.615 62.2588 129.615C61.7119 129.615 61.32 129.729 61.083 129.957C60.8506 130.18 60.7344 130.44 60.7344 130.736V130.771H59.4697V130.736C59.4697 130.167 59.7227 129.67 60.2285 129.246C60.7389 128.818 61.4271 128.604 62.293 128.604C63.1589 128.604 63.8288 128.811 64.3027 129.226C64.7812 129.64 65.0205 130.258 65.0205 131.078V134.359C65.0205 134.656 65.0433 134.936 65.0889 135.2C65.1344 135.46 65.1982 135.69 65.2803 135.891V136H64.0498C63.986 135.886 63.9268 135.738 63.8721 135.556C63.8219 135.373 63.79 135.191 63.7764 135.009C63.6077 135.305 63.3343 135.567 62.9561 135.795C62.5824 136.023 62.0993 136.137 61.5068 136.137C60.8232 136.137 60.2422 135.943 59.7637 135.556C59.2852 135.168 59.0459 134.61 59.0459 133.881ZM60.3174 133.812C60.3174 134.223 60.4359 134.544 60.6729 134.776C60.9098 135.009 61.279 135.125 61.7803 135.125C62.2816 135.125 62.735 134.952 63.1406 134.605C63.5462 134.259 63.749 133.892 63.749 133.505V132.473H62.2588C61.6208 132.473 61.1377 132.593 60.8096 132.835C60.4814 133.076 60.3174 133.402 60.3174 133.812ZM65.9912 129.779V128.809H70.0928V129.779H65.9912ZM67.2764 134.223V129.396V129.191V127.031H68.5479V134.223C68.5479 134.542 68.6117 134.77 68.7393 134.906C68.8669 135.043 69.0674 135.111 69.3408 135.111C69.4684 135.111 69.5938 135.098 69.7168 135.07C69.8398 135.043 69.9652 135.007 70.0928 134.961V136C69.9743 136.055 69.8193 136.103 69.6279 136.144C69.4365 136.185 69.2269 136.205 68.999 136.205C68.4749 136.205 68.0557 136.046 67.7412 135.727C67.4313 135.408 67.2764 134.906 67.2764 134.223ZM71.5078 136V128.809H72.7793V136H71.5078ZM71.3506 126.635C71.3506 126.421 71.4189 126.241 71.5557 126.095C71.6924 125.949 71.8883 125.876 72.1436 125.876C72.3988 125.876 72.5947 125.949 72.7314 126.095C72.8682 126.241 72.9365 126.421 72.9365 126.635C72.9365 126.849 72.8682 127.029 72.7314 127.175C72.5947 127.321 72.3988 127.394 72.1436 127.394C71.8883 127.394 71.6924 127.321 71.5557 127.175C71.4189 127.029 71.3506 126.849 71.3506 126.635ZM74.4336 132.514V132.295C74.4336 131.21 74.7412 130.324 75.3564 129.636C75.9717 128.948 76.7943 128.604 77.8242 128.604C78.8542 128.604 79.6768 128.948 80.292 129.636C80.9072 130.324 81.2148 131.21 81.2148 132.295V132.514C81.2148 133.598 80.9072 134.485 80.292 135.173C79.6768 135.861 78.8542 136.205 77.8242 136.205C76.7943 136.205 75.9717 135.861 75.3564 135.173C74.7412 134.485 74.4336 133.598 74.4336 132.514ZM75.7324 132.295V132.514C75.7324 133.257 75.9079 133.885 76.2588 134.4C76.6097 134.911 77.1315 135.166 77.8242 135.166C78.5169 135.166 79.0387 134.911 79.3896 134.4C79.7406 133.885 79.916 133.257 79.916 132.514V132.295C79.916 131.552 79.7406 130.925 79.3896 130.415C79.0387 129.9 78.5169 129.643 77.8242 129.643C77.1315 129.643 76.6097 129.9 76.2588 130.415C75.9079 130.925 75.7324 131.552 75.7324 132.295ZM82.8076 136V128.809H83.9561L84.0107 129.731H84.0518C84.3115 129.403 84.6283 129.146 85.002 128.959C85.3802 128.768 85.7972 128.672 86.2529 128.672C86.9775 128.672 87.554 128.879 87.9824 129.294C88.4154 129.704 88.6318 130.392 88.6318 131.358V136H87.3604V131.345C87.3604 130.771 87.2305 130.36 86.9707 130.114C86.7155 129.864 86.3509 129.738 85.877 129.738C85.4714 129.738 85.1136 129.848 84.8037 130.066C84.4938 130.285 84.2523 130.568 84.0791 130.914V136H82.8076Z" fill="white"/>
</svg>
