<svg width="116" height="139" viewBox="0 0 116 139" fill="none" xmlns="http://www.w3.org/2000/svg">
<circle cx="58" cy="58" r="54" stroke="white" stroke-width="2"/>
<path d="M84.5 28.4954C85.3719 27.5036 85.5191 28.3675 87.0513 28.4954C90.5168 28.9407 91.3383 39.2146 91.3158 43.2959C91.1919 45.4933 85.6812 47.4203 82.9413 48.1091C80.9749 48.6463 76.1456 50.3465 72.5592 52.8494C68.9728 55.3522 63.3334 56.3459 60.962 56.5299C47.868 57.6115 42.4199 50.5588 41.3325 46.8972C44.0077 38.8503 51.324 39.8736 54.6477 41.3911C60.9666 41.881 64.6041 37.684 66 35.5392C69.0829 29.9075 73.7316 29.3697 75.5 30.5" stroke="white" stroke-width="2"/>
<path d="M41.2319 46.9903C39.8217 48.1724 37.4032 51.2388 39.0118 54.0478C47 65.5 65.5 64 78.6028 53.7546L79.749 56.3358C83.61 55.4856 91.5909 53.2001 92.6261 50.8597C93.2245 48.3852 93.8357 43.3691 91.4931 43.1006" stroke="white" stroke-width="2"/>
<path d="M63.4673 46.6886C63.1829 45.9112 62.8286 43.9721 63.6865 42.4352C64.5445 40.8982 69.4172 37.1975 71.7462 35.5392C76.2294 36.3684 85.4514 37.2628 86.4745 34.2073C86.6367 33.424 86.3798 31.7892 84.0547 31.5166" stroke="white" stroke-width="2"/>
<path d="M30 97.6206C41.2473 103.24 45.1691 96.0184 45.724 91.705C45.724 97.6206 51.767 101.441 54.7885 102.612C63.076 105.126 65.3945 103.659 65.5179 102.612C58.8583 100.393 55.0968 94.4163 54.0485 91.705L51.8287 82.0922C49.4238 73.5886 45.724 71.74 43.1342 73.034C41.0623 74.0692 40.791 78.5182 40.9143 80.6133V87.8229C40.6184 94.7737 33.5148 97.2508 30 97.6206Z" stroke="white" stroke-width="2" stroke-linejoin="round"/>
<path d="M54.6416 92.1607C58.2671 92.1607 65.5181 90.35 65.5181 83.1071C62.3842 84.9933 55.4896 88.0489 52.9824 85.1819" stroke="white" stroke-width="2" stroke-linejoin="round"/>
<path d="M46.0181 86.5893C46.0181 82.3229 45.461 73.5642 43.2324 72.6607" stroke="white" stroke-width="2" stroke-linecap="round" stroke-linejoin="round"/>
<path d="M42.0291 73.3571L39.75 66.7829L43.4105 65L43.9286 72.2429" stroke="white" stroke-width="2" stroke-linejoin="round"/>
<path d="M33.1992 131.338V130.709C33.1992 129.178 33.5911 127.984 34.375 127.127C35.1634 126.27 36.1501 125.842 37.335 125.842C38.5199 125.842 39.4473 126.168 40.1172 126.819C40.7917 127.466 41.1289 128.248 41.1289 129.164V129.232H39.8164V129.164C39.8164 128.531 39.6113 128.007 39.2012 127.592C38.791 127.173 38.1689 126.963 37.335 126.963C36.5192 126.963 35.847 127.271 35.3184 127.886C34.7897 128.501 34.5254 129.442 34.5254 130.709V131.338C34.5254 132.505 34.7874 133.421 35.3115 134.086C35.8402 134.751 36.5146 135.084 37.335 135.084C38.1188 135.084 38.7113 134.872 39.1123 134.448C39.5133 134.024 39.7458 133.503 39.8096 132.883L39.8164 132.814H41.1289L41.1221 132.883C41.0309 133.794 40.6732 134.576 40.0488 135.228C39.4245 135.879 38.5199 136.205 37.335 136.205C36.1501 136.205 35.1634 135.777 34.375 134.92C33.5911 134.063 33.1992 132.869 33.1992 131.338ZM42.291 132.514V132.295C42.291 131.21 42.5986 130.324 43.2139 129.636C43.8291 128.948 44.6517 128.604 45.6816 128.604C46.7116 128.604 47.5342 128.948 48.1494 129.636C48.7646 130.324 49.0723 131.21 49.0723 132.295V132.514C49.0723 133.598 48.7646 134.485 48.1494 135.173C47.5342 135.861 46.7116 136.205 45.6816 136.205C44.6517 136.205 43.8291 135.861 43.2139 135.173C42.5986 134.485 42.291 133.598 42.291 132.514ZM43.5898 132.295V132.514C43.5898 133.257 43.7653 133.885 44.1162 134.4C44.4671 134.911 44.9889 135.166 45.6816 135.166C46.3743 135.166 46.8962 134.911 47.2471 134.4C47.598 133.885 47.7734 133.257 47.7734 132.514V132.295C47.7734 131.552 47.598 130.925 47.2471 130.415C46.8962 129.9 46.3743 129.643 45.6816 129.643C44.9889 129.643 44.4671 129.9 44.1162 130.415C43.7653 130.925 43.5898 131.552 43.5898 132.295ZM50.665 136V128.809H51.8135L51.8682 129.731H51.9092C52.1644 129.408 52.472 129.15 52.832 128.959C53.1966 128.768 53.5999 128.672 54.042 128.672C54.5251 128.672 54.9421 128.768 55.293 128.959C55.6439 129.15 55.9105 129.46 56.0928 129.889H56.1338C56.4346 129.46 56.7673 129.15 57.1318 128.959C57.4964 128.768 57.9157 128.672 58.3896 128.672C59.137 128.672 59.7204 128.879 60.1396 129.294C60.5589 129.704 60.7686 130.392 60.7686 131.358V136H59.4971V131.345C59.4971 130.771 59.374 130.36 59.1279 130.114C58.8818 129.864 58.5332 129.738 58.082 129.738C57.6901 129.738 57.346 129.848 57.0498 130.066C56.7581 130.285 56.5257 130.568 56.3525 130.914V136H55.0811V131.345C55.0811 130.771 54.958 130.36 54.7119 130.114C54.4658 129.864 54.1172 129.738 53.666 129.738C53.2741 129.738 52.93 129.848 52.6338 130.066C52.3421 130.285 52.1097 130.568 51.9365 130.914V136H50.665ZM62.293 132.514V132.295C62.293 131.21 62.5892 130.324 63.1816 129.636C63.7786 128.948 64.5671 128.604 65.5469 128.604C66.5267 128.604 67.2809 128.925 67.8096 129.567C68.3382 130.21 68.6025 131.078 68.6025 132.172V132.691H63.0723V131.68H67.3242V131.516C67.3242 130.996 67.1761 130.554 66.8799 130.189C66.5837 129.825 66.1576 129.643 65.6016 129.643C64.9271 129.643 64.4235 129.9 64.0908 130.415C63.7581 130.925 63.5918 131.552 63.5918 132.295V132.514C63.5918 133.257 63.7673 133.885 64.1182 134.4C64.4691 134.911 65.0137 135.166 65.752 135.166C66.2077 135.166 66.5996 135.066 66.9277 134.865C67.2559 134.665 67.5225 134.428 67.7275 134.154L68.5479 134.804C68.32 135.146 67.9668 135.465 67.4883 135.761C67.0143 136.057 66.4355 136.205 65.752 136.205C64.6354 136.205 63.7786 135.861 63.1816 135.173C62.5892 134.485 62.293 133.598 62.293 132.514ZM69.7305 132.514V132.295C69.7305 131.247 70.0039 130.381 70.5508 129.697C71.0977 129.014 71.8268 128.672 72.7383 128.672C73.2396 128.672 73.6657 128.763 74.0166 128.945C74.3721 129.123 74.6546 129.36 74.8643 129.656V125.5H76.1357V136H74.9873L74.9326 135.063H74.8916C74.7093 135.36 74.429 135.613 74.0508 135.822C73.6771 136.032 73.2396 136.137 72.7383 136.137C71.8268 136.137 71.0977 135.795 70.5508 135.111C70.0039 134.428 69.7305 133.562 69.7305 132.514ZM71.0293 132.514C71.0293 133.243 71.1888 133.856 71.5078 134.353C71.8268 134.849 72.3281 135.098 73.0117 135.098C73.4674 135.098 73.8548 134.972 74.1738 134.722C74.4928 134.471 74.723 134.186 74.8643 133.867V130.941C74.723 130.622 74.4928 130.338 74.1738 130.087C73.8548 129.836 73.4674 129.711 73.0117 129.711C72.3281 129.711 71.8268 129.959 71.5078 130.456C71.1888 130.953 71.0293 131.566 71.0293 132.295V132.514ZM77.4893 138.844V137.764C77.6077 137.8 77.7399 137.83 77.8857 137.853C78.0316 137.875 78.1729 137.887 78.3096 137.887C78.6286 137.887 78.9066 137.766 79.1436 137.524C79.3805 137.287 79.6312 136.77 79.8955 135.973V135.966L77.2158 128.809H78.4463L80.1484 133.539C80.2122 133.721 80.2692 133.892 80.3193 134.052C80.3695 134.211 80.4128 134.359 80.4492 134.496H80.4902C80.5312 134.359 80.5768 134.211 80.627 134.052C80.6816 133.892 80.7386 133.721 80.7979 133.539L82.3838 128.809H83.5869L80.668 136.957C80.4401 137.595 80.137 138.092 79.7588 138.447C79.3851 138.803 78.9248 138.98 78.3779 138.98C78.1956 138.98 78.0339 138.969 77.8926 138.946C77.7513 138.924 77.6169 138.889 77.4893 138.844Z" fill="white"/>
<path d="M75.5 31.5L71 6.5" stroke="white" stroke-width="2"/>
<path d="M84.5 32.5L86 12" stroke="white" stroke-width="2"/>
</svg>
