<svg width="116" height="137" viewBox="0 0 116 137" fill="none" xmlns="http://www.w3.org/2000/svg">
<circle cx="58" cy="58" r="54" stroke="white" stroke-width="2"/>
<path d="M40.2881 131.338V130.709C40.2881 129.178 40.68 127.984 41.4639 127.127C42.2523 126.27 43.2389 125.842 44.4238 125.842C45.6087 125.842 46.5361 126.168 47.2061 126.819C47.8805 127.466 48.2178 128.248 48.2178 129.164V129.232H46.9053V129.164C46.9053 128.531 46.7002 128.007 46.29 127.592C45.8799 127.173 45.2578 126.963 44.4238 126.963C43.6081 126.963 42.9359 127.271 42.4072 127.886C41.8786 128.501 41.6143 129.442 41.6143 130.709V131.338C41.6143 132.505 41.8763 133.421 42.4004 134.086C42.929 134.751 43.6035 135.084 44.4238 135.084C45.2077 135.084 45.8001 134.872 46.2012 134.448C46.6022 134.024 46.8346 133.503 46.8984 132.883L46.9053 132.814H48.2178L48.2109 132.883C48.1198 133.794 47.762 134.576 47.1377 135.228C46.5133 135.879 45.6087 136.205 44.4238 136.205C43.2389 136.205 42.2523 135.777 41.4639 134.92C40.68 134.063 40.2881 132.869 40.2881 131.338ZM49.8105 136V128.809H50.959L51.0137 129.731H51.0547C51.237 129.431 51.4762 129.169 51.7725 128.945C52.0687 128.717 52.4219 128.604 52.832 128.604C52.9323 128.604 53.0371 128.615 53.1465 128.638C53.2559 128.66 53.3333 128.681 53.3789 128.699V129.875C53.2878 129.857 53.1921 129.843 53.0918 129.834C52.9915 129.825 52.8822 129.82 52.7637 129.82C52.3535 129.82 52.0049 129.927 51.7178 130.142C51.4307 130.356 51.2188 130.622 51.082 130.941V136H49.8105ZM54.6572 136V128.809H55.9287V136H54.6572ZM54.5 126.635C54.5 126.421 54.5684 126.241 54.7051 126.095C54.8418 125.949 55.0378 125.876 55.293 125.876C55.5482 125.876 55.7441 125.949 55.8809 126.095C56.0176 126.241 56.0859 126.421 56.0859 126.635C56.0859 126.849 56.0176 127.029 55.8809 127.175C55.7441 127.321 55.5482 127.394 55.293 127.394C55.0378 127.394 54.8418 127.321 54.7051 127.175C54.5684 127.029 54.5 126.849 54.5 126.635ZM58.0137 136V128.809H59.1621L59.2168 129.731H59.2578C59.513 129.408 59.8206 129.15 60.1807 128.959C60.5452 128.768 60.9486 128.672 61.3906 128.672C61.8737 128.672 62.2907 128.768 62.6416 128.959C62.9925 129.15 63.2591 129.46 63.4414 129.889H63.4824C63.7832 129.46 64.1159 129.15 64.4805 128.959C64.8451 128.768 65.2643 128.672 65.7383 128.672C66.4857 128.672 67.069 128.879 67.4883 129.294C67.9076 129.704 68.1172 130.392 68.1172 131.358V136H66.8457V131.345C66.8457 130.771 66.7227 130.36 66.4766 130.114C66.2305 129.864 65.8818 129.738 65.4307 129.738C65.0387 129.738 64.6947 129.848 64.3984 130.066C64.1068 130.285 63.8743 130.568 63.7012 130.914V136H62.4297V131.345C62.4297 130.771 62.3066 130.36 62.0605 130.114C61.8145 129.864 61.4658 129.738 61.0146 129.738C60.6227 129.738 60.2786 129.848 59.9824 130.066C59.6908 130.285 59.4583 130.568 59.2852 130.914V136H58.0137ZM69.6416 132.514V132.295C69.6416 131.21 69.9378 130.324 70.5303 129.636C71.1273 128.948 71.9157 128.604 72.8955 128.604C73.8753 128.604 74.6296 128.925 75.1582 129.567C75.6868 130.21 75.9512 131.078 75.9512 132.172V132.691H70.4209V131.68H74.6729V131.516C74.6729 130.996 74.5247 130.554 74.2285 130.189C73.9323 129.825 73.5062 129.643 72.9502 129.643C72.2757 129.643 71.7721 129.9 71.4395 130.415C71.1068 130.925 70.9404 131.552 70.9404 132.295V132.514C70.9404 133.257 71.1159 133.885 71.4668 134.4C71.8177 134.911 72.3623 135.166 73.1006 135.166C73.5563 135.166 73.9482 135.066 74.2764 134.865C74.6045 134.665 74.8711 134.428 75.0762 134.154L75.8965 134.804C75.6686 135.146 75.3154 135.465 74.8369 135.761C74.363 136.057 73.7842 136.205 73.1006 136.205C71.984 136.205 71.1273 135.861 70.5303 135.173C69.9378 134.485 69.6416 133.598 69.6416 132.514Z" fill="white"/>
<path d="M52.2432 49V63H55.2432" stroke="white" stroke-width="2.40541"/>
<path d="M53.8447 104.5V73.919L75.4934 63.0947C76.4956 62.4933 78.5001 60.6893 78.5001 58.2839C78.5001 56.2094 76.2101 55.2799 74 55.1005H71" stroke="white" stroke-width="2.40541"/>
<path d="M78.5 81V58.6757" stroke="white" stroke-width="2.40541"/>
<path d="M47 56.5L34 64.0878L47 92.5" stroke="white" stroke-width="2.40541"/>
<path d="M30.0508 48H87" stroke="white" stroke-width="2.40541"/>
<mask id="path-8-inside-1_28_718" fill="white">
<path d="M58.8115 23.2227C65.8867 23.2229 71.6221 28.9589 71.6221 36.0342V44.0654H46V36.0342C46 28.9588 51.7361 23.2227 58.8115 23.2227Z"/>
</mask>
<path d="M58.8115 23.2227L58.8116 20.8173H58.8115V23.2227ZM71.6221 44.0654V46.4708H74.0275V44.0654H71.6221ZM46 44.0654H43.5946V46.4708H46V44.0654ZM58.8115 23.2227L58.8114 25.6281C64.5581 25.6282 69.2167 30.2872 69.2167 36.0342H71.6221H74.0275C74.0275 27.6306 67.2154 20.8175 58.8116 20.8173L58.8115 23.2227ZM71.6221 36.0342H69.2167V44.0654H71.6221H74.0275V36.0342H71.6221ZM71.6221 44.0654V41.66H46V44.0654V46.4708H71.6221V44.0654ZM46 44.0654H48.4054V36.0342H46H43.5946V44.0654H46ZM46 36.0342H48.4054C48.4054 30.2873 53.0646 25.6281 58.8115 25.6281V23.2227V20.8173C50.4077 20.8173 43.5946 27.6303 43.5946 36.0342H46Z" fill="white" mask="url(#path-8-inside-1_28_718)"/>
<path d="M50 67.5H57" stroke="white" stroke-width="2"/>
<path d="M47 41V72.5H50" stroke="white" stroke-width="2"/>
<path d="M71 60.5V48" stroke="white" stroke-width="2"/>
<path d="M38.5 75.5L27.2412 82" stroke="white" stroke-width="2"/>
<path d="M78 75.5L94 85.5" stroke="white" stroke-width="2"/>
</svg>
