<svg width="116" height="139" viewBox="0 0 116 139" fill="none" xmlns="http://www.w3.org/2000/svg">
<circle cx="58" cy="58" r="54" stroke="white" stroke-width="2"/>
<circle cx="58" cy="60" r="22" stroke="white" stroke-width="2"/>
<path d="M36.5 55.5L41 59.7423C41.3261 60.5525 44.2369 61.6867 43 64.5C43.1223 65.5127 43.9923 66.9608 45.949 67.6413C46.4381 67.8034 47.3186 69.0267 46.9273 72.6238C46.536 76.2208 48.5578 77.0391 49.6177 76.9986C50.0661 76.7555 50.9384 75.5403 50.8406 72.6238C51.9412 71.8541 54.2159 70.0475 54.5094 68.9781C55.3246 68.0059 56.7595 65.5997 55.9769 63.7526C54.9578 63.3475 52.9196 62.3672 52.9196 61.6867C52.9196 60.836 48.425 58.5271 45.949 59.7423L44.726 57.5549L43.6254 56.7043C42.9324 55.9346 42.0845 54.2495 44.2369 53.6662C45.5413 53.9092 48.1991 53.9092 48.3948 51.9649C48.5171 51.2762 49.1774 49.7775 50.8406 49.2914C51.8189 49.1698 53.6044 48.3678 52.9196 46.1318C51.8189 45.4026 49.74 43.5555 50.2292 42M68.5729 43.3368C66.6162 43.3368 66.1271 44.39 66.1271 44.9165C66.1271 46.0913 65.9559 48.4407 65.271 48.4407C64.5862 48.4407 63.6812 49.737 63.3144 50.3851C63.3144 52.8155 65.1895 52.856 66.1271 52.5725C68.3772 50.8226 71.4671 51.8434 72.7308 52.5725C73.5135 54.2252 72.4047 55.0435 71.7525 55.246H66.1271C62.9964 54.9543 62.0507 57.3119 61.9691 58.5271C61.9691 61.3464 62.866 62.7804 63.3144 63.145C64.6596 64.6438 67.8881 67.6413 70.0404 67.6413C72.7308 67.6413 72.7308 70.6794 72.7308 72.6238" stroke="white" stroke-width="2"/>
<path d="M17.6543 136V126.047H20.6074C21.8835 126.047 22.9453 126.468 23.793 127.312C24.6452 128.155 25.0713 129.287 25.0713 130.709V131.338C25.0713 132.76 24.6452 133.892 23.793 134.735C22.9453 135.578 21.8835 136 20.6074 136H17.6543ZM18.9668 134.92H20.6074C21.5645 134.92 22.3255 134.603 22.8906 133.97C23.4603 133.336 23.7451 132.459 23.7451 131.338V130.709C23.7451 129.588 23.4603 128.711 22.8906 128.077C22.3255 127.444 21.5645 127.127 20.6074 127.127H18.9668V134.92ZM26.4385 132.514V132.295C26.4385 131.21 26.7461 130.324 27.3613 129.636C27.9766 128.948 28.7992 128.604 29.8291 128.604C30.859 128.604 31.6816 128.948 32.2969 129.636C32.9121 130.324 33.2197 131.21 33.2197 132.295V132.514C33.2197 133.598 32.9121 134.485 32.2969 135.173C31.6816 135.861 30.859 136.205 29.8291 136.205C28.7992 136.205 27.9766 135.861 27.3613 135.173C26.7461 134.485 26.4385 133.598 26.4385 132.514ZM27.7373 132.295V132.514C27.7373 133.257 27.9128 133.885 28.2637 134.4C28.6146 134.911 29.1364 135.166 29.8291 135.166C30.5218 135.166 31.0436 134.911 31.3945 134.4C31.7454 133.885 31.9209 133.257 31.9209 132.514V132.295C31.9209 131.552 31.7454 130.925 31.3945 130.415C31.0436 129.9 30.5218 129.643 29.8291 129.643C29.1364 129.643 28.6146 129.9 28.2637 130.415C27.9128 130.925 27.7373 131.552 27.7373 132.295ZM34.3818 132.514V132.295C34.3818 131.21 34.6758 130.324 35.2637 129.636C35.8561 128.948 36.6696 128.604 37.7041 128.604C38.6611 128.604 39.388 128.863 39.8848 129.383C40.3815 129.898 40.6299 130.474 40.6299 131.112V131.146H39.3994V131.112C39.3994 130.725 39.265 130.383 38.9961 130.087C38.7272 129.791 38.2965 129.643 37.7041 129.643C37.0114 129.643 36.501 129.9 36.1729 130.415C35.8447 130.925 35.6807 131.552 35.6807 132.295V132.514C35.6807 133.257 35.8447 133.885 36.1729 134.4C36.501 134.911 37.0114 135.166 37.7041 135.166C38.2965 135.166 38.7272 135.018 38.9961 134.722C39.265 134.425 39.3994 134.084 39.3994 133.696V133.662H40.6299V133.696C40.6299 134.334 40.3815 134.913 39.8848 135.433C39.388 135.948 38.6611 136.205 37.7041 136.205C36.6696 136.205 35.8561 135.861 35.2637 135.173C34.6758 134.485 34.3818 133.598 34.3818 132.514ZM42.0449 133.45V128.809H43.3164V133.464C43.3164 134.038 43.444 134.451 43.6992 134.701C43.959 134.947 44.3258 135.07 44.7998 135.07C45.2054 135.07 45.5632 134.961 45.873 134.742C46.1829 134.523 46.4245 134.241 46.5977 133.895V128.809H47.8691V136H46.7207L46.666 135.077H46.625C46.3652 135.405 46.0462 135.665 45.668 135.856C45.2943 136.043 44.8796 136.137 44.4238 136.137C43.6992 136.137 43.1204 135.932 42.6875 135.521C42.2591 135.107 42.0449 134.416 42.0449 133.45ZM49.8926 136V128.809H51.041L51.0957 129.731H51.1367C51.3919 129.408 51.6995 129.15 52.0596 128.959C52.4242 128.768 52.8275 128.672 53.2695 128.672C53.7526 128.672 54.1696 128.768 54.5205 128.959C54.8714 129.15 55.138 129.46 55.3203 129.889H55.3613C55.6621 129.46 55.9948 129.15 56.3594 128.959C56.724 128.768 57.1432 128.672 57.6172 128.672C58.3646 128.672 58.9479 128.879 59.3672 129.294C59.7865 129.704 59.9961 130.392 59.9961 131.358V136H58.7246V131.345C58.7246 130.771 58.6016 130.36 58.3555 130.114C58.1094 129.864 57.7607 129.738 57.3096 129.738C56.9176 129.738 56.5736 129.848 56.2773 130.066C55.9857 130.285 55.7533 130.568 55.5801 130.914V136H54.3086V131.345C54.3086 130.771 54.1855 130.36 53.9395 130.114C53.6934 129.864 53.3447 129.738 52.8936 129.738C52.5016 129.738 52.1576 129.848 51.8613 130.066C51.5697 130.285 51.3372 130.568 51.1641 130.914V136H49.8926ZM61.5205 132.514V132.295C61.5205 131.21 61.8167 130.324 62.4092 129.636C63.0062 128.948 63.7946 128.604 64.7744 128.604C65.7542 128.604 66.5085 128.925 67.0371 129.567C67.5658 130.21 67.8301 131.078 67.8301 132.172V132.691H62.2998V131.68H66.5518V131.516C66.5518 130.996 66.4036 130.554 66.1074 130.189C65.8112 129.825 65.3851 129.643 64.8291 129.643C64.1546 129.643 63.651 129.9 63.3184 130.415C62.9857 130.925 62.8193 131.552 62.8193 132.295V132.514C62.8193 133.257 62.9948 133.885 63.3457 134.4C63.6966 134.911 64.2412 135.166 64.9795 135.166C65.4352 135.166 65.8271 135.066 66.1553 134.865C66.4834 134.665 66.75 134.428 66.9551 134.154L67.7754 134.804C67.5475 135.146 67.1943 135.465 66.7158 135.761C66.2419 136.057 65.6631 136.205 64.9795 136.205C63.863 136.205 63.0062 135.861 62.4092 135.173C61.8167 134.485 61.5205 133.598 61.5205 132.514ZM69.3887 136V128.809H70.5371L70.5918 129.731H70.6328C70.8926 129.403 71.2093 129.146 71.583 128.959C71.9613 128.768 72.3783 128.672 72.834 128.672C73.5586 128.672 74.1351 128.879 74.5635 129.294C74.9964 129.704 75.2129 130.392 75.2129 131.358V136H73.9414V131.345C73.9414 130.771 73.8115 130.36 73.5518 130.114C73.2965 129.864 72.932 129.738 72.458 129.738C72.0524 129.738 71.6947 129.848 71.3848 130.066C71.0749 130.285 70.8333 130.568 70.6602 130.914V136H69.3887ZM76.1562 129.779V128.809H80.2578V129.779H76.1562ZM77.4414 134.223V129.396V129.191V127.031H78.7129V134.223C78.7129 134.542 78.7767 134.77 78.9043 134.906C79.0319 135.043 79.2324 135.111 79.5059 135.111C79.6335 135.111 79.7588 135.098 79.8818 135.07C80.0049 135.043 80.1302 135.007 80.2578 134.961V136C80.1393 136.055 79.9844 136.103 79.793 136.144C79.6016 136.185 79.3919 136.205 79.1641 136.205C78.64 136.205 78.2207 136.046 77.9062 135.727C77.5964 135.408 77.4414 134.906 77.4414 134.223ZM81.2148 133.881C81.2148 133.152 81.5042 132.584 82.083 132.179C82.6618 131.773 83.3978 131.57 84.291 131.57H85.918V131.078C85.918 130.645 85.8063 130.294 85.583 130.025C85.3597 129.752 84.9746 129.615 84.4277 129.615C83.8809 129.615 83.4889 129.729 83.252 129.957C83.0195 130.18 82.9033 130.44 82.9033 130.736V130.771H81.6387V130.736C81.6387 130.167 81.8916 129.67 82.3975 129.246C82.9079 128.818 83.596 128.604 84.4619 128.604C85.3278 128.604 85.9977 128.811 86.4717 129.226C86.9502 129.64 87.1895 130.258 87.1895 131.078V134.359C87.1895 134.656 87.2122 134.936 87.2578 135.2C87.3034 135.46 87.3672 135.69 87.4492 135.891V136H86.2188C86.1549 135.886 86.0957 135.738 86.041 135.556C85.9909 135.373 85.959 135.191 85.9453 135.009C85.7767 135.305 85.5033 135.567 85.125 135.795C84.7513 136.023 84.2682 136.137 83.6758 136.137C82.9922 136.137 82.4111 135.943 81.9326 135.556C81.4541 135.168 81.2148 134.61 81.2148 133.881ZM82.4863 133.812C82.4863 134.223 82.6048 134.544 82.8418 134.776C83.0788 135.009 83.4479 135.125 83.9492 135.125C84.4505 135.125 84.904 134.952 85.3096 134.605C85.7152 134.259 85.918 133.892 85.918 133.505V132.473H84.4277C83.7897 132.473 83.3066 132.593 82.9785 132.835C82.6504 133.076 82.4863 133.402 82.4863 133.812ZM89.1719 136V128.809H90.3203L90.375 129.731H90.416C90.5983 129.431 90.8376 129.169 91.1338 128.945C91.43 128.717 91.7832 128.604 92.1934 128.604C92.2936 128.604 92.3984 128.615 92.5078 128.638C92.6172 128.66 92.6947 128.681 92.7402 128.699V129.875C92.6491 129.857 92.5534 129.843 92.4531 129.834C92.3529 129.825 92.2435 129.82 92.125 129.82C91.7148 129.82 91.3662 129.927 91.0791 130.142C90.792 130.356 90.5801 130.622 90.4434 130.941V136H89.1719ZM93.4102 138.844V137.764C93.5286 137.8 93.6608 137.83 93.8066 137.853C93.9525 137.875 94.0938 137.887 94.2305 137.887C94.5495 137.887 94.8275 137.766 95.0645 137.524C95.3014 137.287 95.5521 136.77 95.8164 135.973V135.966L93.1367 128.809H94.3672L96.0693 133.539C96.1331 133.721 96.1901 133.892 96.2402 134.052C96.2904 134.211 96.3337 134.359 96.3701 134.496H96.4111C96.4521 134.359 96.4977 134.211 96.5479 134.052C96.6025 133.892 96.6595 133.721 96.7188 133.539L98.3047 128.809H99.5078L96.5889 136.957C96.361 137.595 96.0579 138.092 95.6797 138.447C95.306 138.803 94.8457 138.98 94.2988 138.98C94.1165 138.98 93.9548 138.969 93.8135 138.946C93.6722 138.924 93.5378 138.889 93.4102 138.844Z" fill="white"/>
<path d="M35 36H23V48" stroke="white" stroke-width="2"/>
<path d="M79 87L91 87L91 75" stroke="white" stroke-width="2"/>
<path d="M79 36H91V48" stroke="white" stroke-width="2"/>
<path d="M35 87L23 87L23 75" stroke="white" stroke-width="2"/>
</svg>
