<svg width="116" height="136" viewBox="0 0 116 136" fill="none" xmlns="http://www.w3.org/2000/svg">
<circle cx="58" cy="58" r="54" stroke="white" stroke-width="2"/>
<path d="M43.2285 135H40.5353V126.273H43.3478C44.1944 126.273 44.9189 126.447 45.5211 126.797C46.1234 127.143 46.585 127.642 46.9061 128.293C47.2271 128.94 47.3876 129.716 47.3876 130.619C47.3876 131.528 47.2257 132.311 46.9018 132.967C46.5779 133.621 46.1064 134.124 45.487 134.476C44.8677 134.825 44.1149 135 43.2285 135ZM41.5922 134.062H43.1603C43.8819 134.062 44.4799 133.923 44.9544 133.645C45.4288 133.366 45.7825 132.97 46.0154 132.456C46.2484 131.942 46.3649 131.33 46.3649 130.619C46.3649 129.915 46.2498 129.308 46.0197 128.8C45.7896 128.288 45.4458 127.896 44.9885 127.624C44.5311 127.348 43.9615 127.21 43.2797 127.21H41.5922V134.062ZM49.024 135V128.455H49.9956V129.443H50.0637C50.1831 129.119 50.399 128.857 50.7115 128.655C51.024 128.453 51.3762 128.352 51.7683 128.352C51.8422 128.352 51.9345 128.354 52.0453 128.357C52.1561 128.359 52.2399 128.364 52.2967 128.369V129.392C52.2626 129.384 52.1845 129.371 52.0623 129.354C51.943 129.334 51.8166 129.324 51.6831 129.324C51.3649 129.324 51.0808 129.391 50.8308 129.524C50.5836 129.655 50.3876 129.837 50.2427 130.07C50.1007 130.3 50.0297 130.562 50.0297 130.858V135H49.024ZM55.415 135.153C55.0002 135.153 54.6238 135.075 54.2857 134.919C53.9476 134.76 53.6792 134.531 53.4803 134.233C53.2814 133.932 53.182 133.568 53.182 133.142C53.182 132.767 53.2559 132.463 53.4036 132.23C53.5513 131.994 53.7488 131.81 53.9959 131.676C54.2431 131.543 54.5158 131.443 54.8141 131.378C55.1152 131.31 55.4178 131.256 55.7218 131.216C56.1195 131.165 56.4419 131.126 56.6891 131.101C56.9391 131.072 57.1209 131.026 57.2346 130.96C57.351 130.895 57.4093 130.781 57.4093 130.619V130.585C57.4093 130.165 57.2942 129.838 57.0641 129.605C56.8368 129.372 56.4917 129.256 56.0286 129.256C55.5485 129.256 55.1721 129.361 54.8993 129.571C54.6266 129.781 54.4348 130.006 54.324 130.244L53.3695 129.903C53.54 129.506 53.7672 129.196 54.0513 128.974C54.3382 128.75 54.6507 128.594 54.9888 128.506C55.3297 128.415 55.665 128.369 55.9945 128.369C56.2047 128.369 56.4462 128.395 56.7189 128.446C56.9945 128.494 57.2601 128.595 57.5158 128.749C57.7743 128.902 57.9888 129.134 58.1593 129.443C58.3297 129.753 58.415 130.168 58.415 130.688V135H57.4093V134.114H57.3581C57.29 134.256 57.1763 134.408 57.0172 134.57C56.8581 134.732 56.6465 134.869 56.3823 134.983C56.1181 135.097 55.7956 135.153 55.415 135.153ZM55.5684 134.25C55.9661 134.25 56.3013 134.172 56.574 134.016C56.8496 133.859 57.057 133.658 57.1962 133.411C57.3382 133.163 57.4093 132.903 57.4093 132.631V131.71C57.3667 131.761 57.2729 131.808 57.128 131.851C56.986 131.891 56.8212 131.926 56.6337 131.957C56.449 131.986 56.2686 132.011 56.0925 132.034C55.9192 132.054 55.7786 132.071 55.6706 132.085C55.4093 132.119 55.165 132.175 54.9377 132.251C54.7132 132.325 54.5314 132.437 54.3922 132.588C54.2559 132.736 54.1877 132.937 54.1877 133.193C54.1877 133.543 54.3169 133.807 54.5755 133.986C54.8368 134.162 55.1678 134.25 55.5684 134.25ZM60.2505 135V128.455H61.2221V129.477H61.3074C61.4437 129.128 61.6639 128.857 61.9679 128.663C62.2718 128.467 62.6369 128.369 63.063 128.369C63.4949 128.369 63.8542 128.467 64.1412 128.663C64.4309 128.857 64.6568 129.128 64.8187 129.477H64.8869C65.0545 129.139 65.3059 128.871 65.6412 128.672C65.9764 128.47 66.3784 128.369 66.8471 128.369C67.4324 128.369 67.911 128.553 68.2832 128.919C68.6554 129.283 68.8414 129.849 68.8414 130.619V135H67.8358V130.619C67.8358 130.136 67.7037 129.791 67.4395 129.584C67.1752 129.376 66.8642 129.273 66.5062 129.273C66.046 129.273 65.6895 129.412 65.4366 129.69C65.1838 129.966 65.0574 130.315 65.0574 130.739V135H64.0346V130.517C64.0346 130.145 63.9139 129.845 63.6724 129.618C63.4309 129.388 63.1199 129.273 62.7392 129.273C62.4778 129.273 62.2335 129.342 62.0062 129.482C61.7818 129.621 61.6 129.814 61.4608 130.061C61.3244 130.305 61.2562 130.588 61.2562 130.909V135H60.2505ZM72.6064 135.153C72.1916 135.153 71.8152 135.075 71.4771 134.919C71.139 134.76 70.8706 134.531 70.6717 134.233C70.4728 133.932 70.3734 133.568 70.3734 133.142C70.3734 132.767 70.4473 132.463 70.595 132.23C70.7427 131.994 70.9402 131.81 71.1873 131.676C71.4345 131.543 71.7072 131.443 72.0055 131.378C72.3066 131.31 72.6092 131.256 72.9132 131.216C73.3109 131.165 73.6333 131.126 73.8805 131.101C74.1305 131.072 74.3123 131.026 74.426 130.96C74.5424 130.895 74.6007 130.781 74.6007 130.619V130.585C74.6007 130.165 74.4856 129.838 74.2555 129.605C74.0282 129.372 73.6831 129.256 73.22 129.256C72.7399 129.256 72.3635 129.361 72.0907 129.571C71.818 129.781 71.6262 130.006 71.5154 130.244L70.5609 129.903C70.7314 129.506 70.9586 129.196 71.2427 128.974C71.5297 128.75 71.8422 128.594 72.1802 128.506C72.5211 128.415 72.8564 128.369 73.1859 128.369C73.3961 128.369 73.6376 128.395 73.9103 128.446C74.1859 128.494 74.4515 128.595 74.7072 128.749C74.9657 128.902 75.1802 129.134 75.3507 129.443C75.5211 129.753 75.6064 130.168 75.6064 130.688V135H74.6007V134.114H74.5495C74.4814 134.256 74.3677 134.408 74.2086 134.57C74.0495 134.732 73.8379 134.869 73.5737 134.983C73.3095 135.097 72.987 135.153 72.6064 135.153ZM72.7598 134.25C73.1575 134.25 73.4927 134.172 73.7654 134.016C74.041 133.859 74.2484 133.658 74.3876 133.411C74.5297 133.163 74.6007 132.903 74.6007 132.631V131.71C74.5581 131.761 74.4643 131.808 74.3194 131.851C74.1774 131.891 74.0126 131.926 73.8251 131.957C73.6404 131.986 73.46 132.011 73.2839 132.034C73.1106 132.054 72.97 132.071 72.862 132.085C72.6007 132.119 72.3564 132.175 72.1291 132.251C71.9047 132.325 71.7228 132.437 71.5836 132.588C71.4473 132.736 71.3791 132.937 71.3791 133.193C71.3791 133.543 71.5083 133.807 71.7669 133.986C72.0282 134.162 72.3592 134.25 72.7598 134.25Z" fill="white"/>
<path d="M45.2548 77.5647C44.4638 71.2668 47.2651 70.0443 52.9815 69.3263L53.1877 68.5055" stroke="white" stroke-width="2"/>
<path d="M52.8555 69.493L55.6022 59.4494C56.0328 57.8931 57.6435 56.9805 59.1998 57.411C60.7561 57.8416 61.6687 59.4523 61.2382 61.0087L58.8435 69.6639" stroke="white" stroke-width="2"/>
<path d="M60.6296 70.5678L67.6579 55.67C68.3554 54.2136 70.1015 53.5984 71.5579 54.2959C73.0143 54.9935 73.6294 56.7395 72.9319 58.1959L66.9537 69.7735" stroke="white" stroke-width="2"/>
<path d="M79.1792 74.2856L87.6333 71.2567C89.1535 70.7121 89.9443 69.0382 89.3997 67.518C88.855 65.9978 87.1812 65.207 85.661 65.7517L67.6698 70.8728L66.1561 71.4525L68.572 66.6137" stroke="white" stroke-width="2"/>
<path d="M80 74L49.5444 85.2526C45.5002 87 40.635 92.3096 38.7599 95.5141L34.0002 106" stroke="white" stroke-width="2"/>
<path d="M53.0002 66L39.5 66.5L43 56L42.367 49.0411C43.6628 48.6257 46.3374 47.4158 46.6691 45.8991" stroke="white" stroke-width="2"/>
<path d="M82.9999 66.5C92.4823 64.8405 93.6919 57.758 94.7786 47.7081C96.0952 35.5332 87.2903 22.4442 75.1153 21.1276C67.1525 19.6724 50.6952 22.4651 48.5589 36.6702L46.5 46.5" stroke="white" stroke-width="2"/>
<path d="M70.7152 38.3131C68.6966 40.9437 65.8691 46.6421 70.7085 48.391C75.548 50.1398 77.6241 50.7892 78.0572 50.8954" stroke="white" stroke-width="2"/>
<path d="M19.4997 94.4997L45 66.5" stroke="white" stroke-width="2"/>
<ellipse cx="55.5005" cy="42.5" rx="4.5" ry="5.5" transform="rotate(7.96168 55.5005 42.5)" fill="white"/>
<path d="M50 65.5V60" stroke="white" stroke-width="2"/>
<path d="M45 65.5V60" stroke="white" stroke-width="2"/>
</svg>
