<svg width="116" height="138" viewBox="0 0 116 138" fill="none" xmlns="http://www.w3.org/2000/svg">
<circle cx="58" cy="58" r="54" stroke="white" stroke-width="2"/>
<path d="M40.7666 137H37.6246V126.818H40.9058C41.8935 126.818 42.7387 127.022 43.4413 127.43C44.144 127.834 44.6826 128.416 45.0571 129.175C45.4316 129.93 45.6189 130.835 45.6189 131.889C45.6189 132.95 45.43 133.863 45.0521 134.629C44.6743 135.391 44.1241 135.978 43.4015 136.388C42.679 136.796 41.8007 137 40.7666 137ZM38.8575 135.906H40.6871C41.5289 135.906 42.2266 135.744 42.7801 135.419C43.3336 135.094 43.7462 134.632 44.018 134.032C44.2898 133.432 44.4257 132.718 44.4257 131.889C44.4257 131.067 44.2915 130.36 44.023 129.766C43.7545 129.17 43.3535 128.712 42.8199 128.394C42.2863 128.073 41.6217 127.912 40.8263 127.912H38.8575V135.906ZM47.528 137V129.364H48.6615V130.517H48.741C48.8802 130.139 49.1321 129.833 49.4967 129.597C49.8613 129.362 50.2723 129.244 50.7297 129.244C50.8158 129.244 50.9236 129.246 51.0528 129.249C51.1821 129.253 51.2799 129.258 51.3461 129.264V130.457C51.3064 130.447 51.2152 130.433 51.0727 130.413C50.9335 130.389 50.786 130.378 50.6302 130.378C50.259 130.378 49.9276 130.456 49.6359 130.612C49.3476 130.764 49.1189 130.976 48.9498 131.248C48.7841 131.516 48.7013 131.823 48.7013 132.168V137H47.528ZM54.9841 137.179C54.5002 137.179 54.0611 137.088 53.6666 136.906C53.2722 136.72 52.959 136.453 52.727 136.105C52.495 135.754 52.379 135.33 52.379 134.832C52.379 134.395 52.4652 134.04 52.6375 133.768C52.8099 133.493 53.0402 133.278 53.3286 133.122C53.6169 132.966 53.9351 132.85 54.2831 132.774C54.6344 132.695 54.9874 132.632 55.3421 132.585C55.8061 132.526 56.1823 132.481 56.4706 132.451C56.7623 132.418 56.9744 132.363 57.107 132.287C57.2429 132.211 57.3108 132.078 57.3108 131.889V131.849C57.3108 131.359 57.1766 130.978 56.9081 130.706C56.643 130.434 56.2403 130.298 55.7 130.298C55.1399 130.298 54.7007 130.421 54.3825 130.666C54.0644 130.911 53.8406 131.173 53.7114 131.452L52.5977 131.054C52.7966 130.59 53.0618 130.229 53.3932 129.97C53.728 129.708 54.0925 129.526 54.4869 129.423C54.8847 129.317 55.2758 129.264 55.6602 129.264C55.9055 129.264 56.1872 129.294 56.5054 129.354C56.8269 129.41 57.1368 129.528 57.4351 129.707C57.7367 129.886 57.9869 130.156 58.1858 130.517C58.3847 130.878 58.4841 131.362 58.4841 131.969V137H57.3108V135.966H57.2512C57.1716 136.132 57.039 136.309 56.8534 136.498C56.6678 136.687 56.4209 136.848 56.1127 136.98C55.8044 137.113 55.4282 137.179 54.9841 137.179ZM55.1631 136.125C55.6271 136.125 56.0182 136.034 56.3364 135.852C56.6579 135.669 56.8998 135.434 57.0622 135.146C57.228 134.857 57.3108 134.554 57.3108 134.236V133.162C57.2611 133.222 57.1517 133.276 56.9827 133.326C56.817 133.372 56.6247 133.414 56.406 133.45C56.1905 133.483 55.9801 133.513 55.7746 133.54C55.5724 133.563 55.4084 133.583 55.2824 133.599C54.9775 133.639 54.6924 133.704 54.4273 133.793C54.1655 133.879 53.9533 134.01 53.7909 134.186C53.6318 134.358 53.5523 134.594 53.5523 134.892C53.5523 135.3 53.7031 135.608 54.0047 135.817C54.3096 136.022 54.6958 136.125 55.1631 136.125ZM60.6256 137V129.364H61.7591V130.557H61.8586C62.0177 130.149 62.2745 129.833 62.6292 129.607C62.9838 129.379 63.4097 129.264 63.9069 129.264C64.4107 129.264 64.8299 129.379 65.1647 129.607C65.5028 129.833 65.7662 130.149 65.9552 130.557H66.0347C66.2303 130.162 66.5236 129.849 66.9147 129.617C67.3058 129.382 67.7748 129.264 68.3216 129.264C69.0044 129.264 69.5629 129.478 69.9971 129.906C70.4313 130.33 70.6483 130.991 70.6483 131.889V137H69.4751V131.889C69.4751 131.326 69.3209 130.923 69.0127 130.681C68.7045 130.439 68.3415 130.318 67.9239 130.318C67.387 130.318 66.971 130.481 66.676 130.805C66.3811 131.127 66.2336 131.535 66.2336 132.028V137H65.0404V131.77C65.0404 131.336 64.8995 130.986 64.6178 130.721C64.3361 130.452 63.9732 130.318 63.529 130.318C63.2241 130.318 62.9391 130.399 62.6739 130.562C62.4121 130.724 62.2 130.95 62.0376 131.238C61.8785 131.523 61.7989 131.853 61.7989 132.227V137H60.6256ZM75.0407 137.179C74.5568 137.179 74.1177 137.088 73.7233 136.906C73.3289 136.72 73.0157 136.453 72.7836 136.105C72.5516 135.754 72.4356 135.33 72.4356 134.832C72.4356 134.395 72.5218 134.04 72.6942 133.768C72.8665 133.493 73.0969 133.278 73.3852 133.122C73.6736 132.966 73.9917 132.85 74.3398 132.774C74.6911 132.695 75.0441 132.632 75.3987 132.585C75.8627 132.526 76.2389 132.481 76.5273 132.451C76.8189 132.418 77.031 132.363 77.1636 132.287C77.2995 132.211 77.3675 132.078 77.3675 131.889V131.849C77.3675 131.359 77.2332 130.978 76.9648 130.706C76.6996 130.434 76.2969 130.298 75.7567 130.298C75.1965 130.298 74.7574 130.421 74.4392 130.666C74.121 130.911 73.8973 131.173 73.768 131.452L72.6544 131.054C72.8532 130.59 73.1184 130.229 73.4498 129.97C73.7846 129.708 74.1492 129.526 74.5436 129.423C74.9413 129.317 75.3324 129.264 75.7169 129.264C75.9622 129.264 76.2439 129.294 76.5621 129.354C76.8836 129.41 77.1934 129.528 77.4917 129.707C77.7934 129.886 78.0436 130.156 78.2425 130.517C78.4413 130.878 78.5407 131.362 78.5407 131.969V137H77.3675V135.966H77.3078C77.2282 136.132 77.0957 136.309 76.9101 136.498C76.7245 136.687 76.4775 136.848 76.1693 136.98C75.8611 137.113 75.4849 137.179 75.0407 137.179ZM75.2197 136.125C75.6837 136.125 76.0748 136.034 76.393 135.852C76.7145 135.669 76.9565 135.434 77.1189 135.146C77.2846 134.857 77.3675 134.554 77.3675 134.236V133.162C77.3177 133.222 77.2084 133.276 77.0393 133.326C76.8736 133.372 76.6814 133.414 76.4626 133.45C76.2472 133.483 76.0367 133.513 75.8312 133.54C75.6291 133.563 75.465 133.583 75.339 133.599C75.0341 133.639 74.7491 133.704 74.4839 133.793C74.2221 133.879 74.01 134.01 73.8476 134.186C73.6885 134.358 73.6089 134.594 73.6089 134.892C73.6089 135.3 73.7597 135.608 74.0613 135.817C74.3663 136.022 74.7524 136.125 75.2197 136.125Z" fill="white"/>
<path d="M45.2548 77.5647C44.4638 71.2668 47.2651 70.0443 52.9815 69.3263L53.1877 68.5055" stroke="white" stroke-width="2"/>
<path d="M52.8555 69.493L55.6022 59.4494C56.0328 57.8931 57.6435 56.9805 59.1998 57.411C60.7561 57.8416 61.6687 59.4523 61.2382 61.0087L58.8435 69.6639" stroke="white" stroke-width="2"/>
<path d="M60.6296 70.5678L67.6579 55.67C68.3554 54.2136 70.1015 53.5984 71.5579 54.2959C73.0143 54.9935 73.6294 56.7395 72.9319 58.1959L66.9537 69.7735" stroke="white" stroke-width="2"/>
<path d="M79.1792 74.2856L87.6333 71.2567C89.1535 70.7121 89.9443 69.0382 89.3997 67.518C88.855 65.9978 87.1812 65.207 85.661 65.7517L67.6698 70.8728L66.1561 71.4525L68.572 66.6137" stroke="white" stroke-width="2"/>
<path d="M80 74L49.5444 85.2526C45.5002 87 40.635 92.3096 38.7599 95.5141L34.0002 106" stroke="white" stroke-width="2"/>
<path d="M53.0002 66L39.5 66.5L43 56L42.367 49.0411C43.6628 48.6257 46.3374 47.4158 46.6691 45.8991" stroke="white" stroke-width="2"/>
<path d="M82.9999 66.5C92.4823 64.8405 93.6919 57.758 94.7786 47.7081C96.0952 35.5332 87.2903 22.4442 75.1153 21.1276C67.1525 19.6724 50.6952 22.4651 48.5589 36.6702L46.5 46.5" stroke="white" stroke-width="2"/>
<path d="M70.7152 38.3131C68.6966 40.9437 65.8691 46.6421 70.7085 48.391C75.548 50.1398 77.6241 50.7892 78.0572 50.8954" stroke="white" stroke-width="2"/>
<path d="M19.4997 94.4997L45 66.5" stroke="white" stroke-width="2"/>
<path d="M57.9039 43.4134C56.7359 48.5297 54.7155 48.3269 52.2926 47.7737C49.8697 47.2206 51.3359 44.917 52.0121 41.9556C52.6882 38.9943 52.3181 36.4965 54.7411 37.0497C57.164 37.6029 58.4423 41.0553 57.9039 43.4134Z" fill="white"/>
<path d="M50 65.5V60" stroke="white" stroke-width="2"/>
<path d="M45 65.5V60" stroke="white" stroke-width="2"/>
</svg>
