<svg width="116" height="138" viewBox="0 0 116 138" fill="none" xmlns="http://www.w3.org/2000/svg">
<circle cx="58" cy="58" r="54" stroke="white" stroke-width="2"/>
<path d="M40.7521 135V126.273H45.9851V127.21H41.8089V130.159H45.593V131.097H41.8089V135H40.7521ZM49.5849 135.153C49.1701 135.153 48.7937 135.075 48.4556 134.919C48.1175 134.76 47.8491 134.531 47.6502 134.233C47.4513 133.932 47.3519 133.568 47.3519 133.142C47.3519 132.767 47.4258 132.463 47.5735 132.23C47.7212 131.994 47.9187 131.81 48.1658 131.676C48.413 131.543 48.6857 131.443 48.984 131.378C49.2852 131.31 49.5877 131.256 49.8917 131.216C50.2894 131.165 50.6119 131.126 50.859 131.101C51.109 131.072 51.2908 131.026 51.4045 130.96C51.521 130.895 51.5792 130.781 51.5792 130.619V130.585C51.5792 130.165 51.4641 129.838 51.234 129.605C51.0067 129.372 50.6616 129.256 50.1985 129.256C49.7184 129.256 49.342 129.361 49.0692 129.571C48.7965 129.781 48.6048 130.006 48.494 130.244L47.5394 129.903C47.7099 129.506 47.9371 129.196 48.2212 128.974C48.5082 128.75 48.8207 128.594 49.1587 128.506C49.4996 128.415 49.8349 128.369 50.1644 128.369C50.3746 128.369 50.6161 128.395 50.8888 128.446C51.1644 128.494 51.43 128.595 51.6857 128.749C51.9442 128.902 52.1587 129.134 52.3292 129.443C52.4996 129.753 52.5849 130.168 52.5849 130.688V135H51.5792V134.114H51.5281C51.4599 134.256 51.3462 134.408 51.1871 134.57C51.0281 134.732 50.8164 134.869 50.5522 134.983C50.288 135.097 49.9656 135.153 49.5849 135.153ZM49.7383 134.25C50.136 134.25 50.4712 134.172 50.744 134.016C51.0195 133.859 51.2269 133.658 51.3661 133.411C51.5082 133.163 51.5792 132.903 51.5792 132.631V131.71C51.5366 131.761 51.4428 131.808 51.2979 131.851C51.1559 131.891 50.9911 131.926 50.8036 131.957C50.619 131.986 50.4386 132.011 50.2624 132.034C50.0891 132.054 49.9485 132.071 49.8406 132.085C49.5792 132.119 49.3349 132.175 49.1076 132.251C48.8832 132.325 48.7013 132.437 48.5621 132.588C48.4258 132.736 48.3576 132.937 48.3576 133.193C48.3576 133.543 48.4869 133.807 48.7454 133.986C49.0067 134.162 49.3377 134.25 49.7383 134.25ZM54.4205 135V128.455H55.392V129.477H55.4773C55.6136 129.128 55.8338 128.857 56.1378 128.663C56.4418 128.467 56.8068 128.369 57.233 128.369C57.6648 128.369 58.0241 128.467 58.3111 128.663C58.6009 128.857 58.8267 129.128 58.9886 129.477H59.0568C59.2244 129.139 59.4759 128.871 59.8111 128.672C60.1463 128.47 60.5483 128.369 61.017 128.369C61.6023 128.369 62.081 128.553 62.4531 128.919C62.8253 129.283 63.0114 129.849 63.0114 130.619V135H62.0057V130.619C62.0057 130.136 61.8736 129.791 61.6094 129.584C61.3452 129.376 61.0341 129.273 60.6761 129.273C60.2159 129.273 59.8594 129.412 59.6065 129.69C59.3537 129.966 59.2273 130.315 59.2273 130.739V135H58.2045V130.517C58.2045 130.145 58.0838 129.845 57.8423 129.618C57.6009 129.388 57.2898 129.273 56.9091 129.273C56.6477 129.273 56.4034 129.342 56.1761 129.482C55.9517 129.621 55.7699 129.814 55.6307 130.061C55.4943 130.305 55.4261 130.588 55.4261 130.909V135H54.4205ZM64.8501 135V128.455H65.8558V135H64.8501ZM65.3615 127.364C65.1655 127.364 64.9964 127.297 64.8544 127.163C64.7152 127.03 64.6456 126.869 64.6456 126.682C64.6456 126.494 64.7152 126.334 64.8544 126.2C64.9964 126.067 65.1655 126 65.3615 126C65.5575 126 65.7251 126.067 65.8643 126.2C66.0064 126.334 66.0774 126.494 66.0774 126.682C66.0774 126.869 66.0064 127.03 65.8643 127.163C65.7251 127.297 65.5575 127.364 65.3615 127.364ZM68.7035 126.273V135H67.6978V126.273H68.7035ZM71.1932 137.455C71.0227 137.455 70.8707 137.44 70.7372 137.412C70.6037 137.386 70.5114 137.361 70.4602 137.335L70.7159 136.449C70.9602 136.511 71.1761 136.534 71.3636 136.517C71.5511 136.5 71.7173 136.416 71.8622 136.266C72.0099 136.118 72.1449 135.878 72.267 135.545L72.4545 135.034L70.0341 128.455H71.125L72.9318 133.67H73L74.8068 128.455H75.8977L73.1193 135.955C72.9943 136.293 72.8395 136.572 72.6548 136.794C72.4702 137.018 72.2557 137.185 72.0114 137.293C71.7699 137.401 71.4972 137.455 71.1932 137.455Z" fill="white"/>
<path d="M68.8887 31C78.2519 31 85.8887 38.809 85.8887 48.5C85.8887 58.191 78.2519 66 68.8887 66C59.5255 66 51.8887 58.191 51.8887 48.5C51.8887 38.809 59.5255 31 68.8887 31Z" stroke="white" stroke-width="2"/>
<path d="M35.8887 54C45.2519 54 52.8887 61.809 52.8887 71.5C52.8887 81.191 45.2519 89 35.8887 89C26.5255 89 18.8887 81.191 18.8887 71.5C18.8887 61.809 26.5255 54 35.8887 54Z" stroke="white" stroke-width="2"/>
<path d="M57 111C57 99.402 47.8218 90 36.5 90C30.3089 90 24.7589 92.8114 21 97.2559" stroke="white" stroke-width="2"/>
<path d="M29 73V70.5" stroke="white" stroke-width="2" stroke-linecap="round" stroke-linejoin="round"/>
<path d="M43 73V70.5" stroke="white" stroke-width="2" stroke-linecap="round" stroke-linejoin="round"/>
<path d="M61 50.5V48" stroke="white" stroke-width="2" stroke-linecap="round" stroke-linejoin="round"/>
<path d="M75 50.5V48" stroke="white" stroke-width="2" stroke-linecap="round" stroke-linejoin="round"/>
<path d="M52.8887 45C60.0609 45 67.8887 38.732 67.8887 31" stroke="white" stroke-width="2"/>
<path d="M84.8887 45C77.2383 45 68.8887 38.732 68.8887 31" stroke="white" stroke-width="2"/>
<path d="M51 65C40.6105 67.7839 31.7916 65.2385 29.0049 54.8382" stroke="white" stroke-width="2"/>
<path d="M18.8887 66C24.4115 66 28.8887 61.5228 28.8887 56" stroke="white" stroke-width="2"/>
<path d="M51.9361 28.3139C54.9697 30.0654 56.4286 33.4987 55.8131 36.7588C53.2975 38.922 49.5947 39.3752 46.5611 37.6237C43.5272 35.872 42.0675 32.4383 42.6832 29.1783C45.1986 27.0151 48.9022 26.5624 51.9361 28.3139Z" stroke="white" stroke-width="2"/>
<path d="M86.0698 28.3139C83.0362 30.0654 81.5773 33.4987 82.1928 36.7588C84.7083 38.922 88.4111 39.3752 91.4448 37.6237C94.4786 35.872 95.9384 32.4383 95.3227 29.1783C92.8072 27.0151 89.1037 26.5624 86.0698 28.3139Z" stroke="white" stroke-width="2"/>
<path d="M34.7438 81.5967C30.9931 82.6017 27.1378 80.3758 26.1328 76.6251" stroke="white" stroke-width="2"/>
<path d="M69.2074 58.6505C72.9581 59.6555 76.8134 57.4297 77.8184 53.679" stroke="white" stroke-width="2"/>
<path d="M51 96V84.5C51 74.2827 59.2827 66 69.5 66C79.7173 66 88 74.2827 88 84.5V102.5" stroke="white" stroke-width="2"/>
</svg>
