<svg width="116" height="140" viewBox="0 0 116 140" fill="none" xmlns="http://www.w3.org/2000/svg">
<circle cx="58" cy="58" r="54" stroke="white" stroke-width="2"/>
<path d="M37.8775 137V126.818H43.9826V127.912H39.1104V131.352H43.5252V132.446H39.1104V137H37.8775ZM48.1824 137.179C47.6984 137.179 47.2593 137.088 46.8649 136.906C46.4705 136.72 46.1573 136.453 45.9252 136.105C45.6932 135.754 45.5772 135.33 45.5772 134.832C45.5772 134.395 45.6634 134.04 45.8358 133.768C46.0081 133.493 46.2385 133.278 46.5268 133.122C46.8152 132.966 47.1333 132.85 47.4814 132.774C47.8327 132.695 48.1857 132.632 48.5403 132.585C49.0043 132.526 49.3805 132.481 49.6689 132.451C49.9605 132.418 50.1726 132.363 50.3052 132.287C50.4411 132.211 50.5091 132.078 50.5091 131.889V131.849C50.5091 131.359 50.3748 130.978 50.1064 130.706C49.8412 130.434 49.4385 130.298 48.8983 130.298C48.3381 130.298 47.899 130.421 47.5808 130.666C47.2626 130.911 47.0389 131.173 46.9096 131.452L45.796 131.054C45.9949 130.59 46.26 130.229 46.5914 129.97C46.9262 129.708 47.2908 129.526 47.6852 129.423C48.0829 129.317 48.474 129.264 48.8585 129.264C49.1038 129.264 49.3855 129.294 49.7037 129.354C50.0252 129.41 50.335 129.528 50.6333 129.707C50.935 129.886 51.1852 130.156 51.3841 130.517C51.5829 130.878 51.6824 131.362 51.6824 131.969V137H50.5091V135.966H50.4494C50.3699 136.132 50.2373 136.309 50.0517 136.498C49.8661 136.687 49.6191 136.848 49.3109 136.98C49.0027 137.113 48.6265 137.179 48.1824 137.179ZM48.3613 136.125C48.8253 136.125 49.2164 136.034 49.5346 135.852C49.8561 135.669 50.0981 135.434 50.2605 135.146C50.4262 134.857 50.5091 134.554 50.5091 134.236V133.162C50.4593 133.222 50.35 133.276 50.1809 133.326C50.0152 133.372 49.823 133.414 49.6042 133.45C49.3888 133.483 49.1783 133.513 48.9728 133.54C48.7707 133.563 48.6066 133.583 48.4806 133.599C48.1757 133.639 47.8907 133.704 47.6255 133.793C47.3637 133.879 47.1516 134.01 46.9892 134.186C46.8301 134.358 46.7505 134.594 46.7505 134.892C46.7505 135.3 46.9013 135.608 47.2029 135.817C47.5079 136.022 47.894 136.125 48.3613 136.125ZM53.8239 137V129.364H54.9574V130.557H55.0568C55.2159 130.149 55.4728 129.833 55.8274 129.607C56.1821 129.379 56.608 129.264 57.1051 129.264C57.6089 129.264 58.0282 129.379 58.3629 129.607C58.701 129.833 58.9645 130.149 59.1534 130.557H59.233C59.4285 130.162 59.7218 129.849 60.1129 129.617C60.504 129.382 60.973 129.264 61.5199 129.264C62.2027 129.264 62.7611 129.478 63.1953 129.906C63.6295 130.33 63.8466 130.991 63.8466 131.889V137H62.6733V131.889C62.6733 131.326 62.5192 130.923 62.2109 130.681C61.9027 130.439 61.5398 130.318 61.1222 130.318C60.5852 130.318 60.1693 130.481 59.8743 130.805C59.5793 131.127 59.4318 131.535 59.4318 132.028V137H58.2386V131.77C58.2386 131.336 58.0978 130.986 57.8161 130.721C57.5343 130.452 57.1714 130.318 56.7273 130.318C56.4223 130.318 56.1373 130.399 55.8722 130.562C55.6103 130.724 55.3982 130.95 55.2358 131.238C55.0767 131.523 54.9972 131.853 54.9972 132.227V137H53.8239ZM65.9918 137V129.364H67.1651V137H65.9918ZM66.5884 128.091C66.3597 128.091 66.1625 128.013 65.9968 127.857C65.8344 127.701 65.7532 127.514 65.7532 127.295C65.7532 127.077 65.8344 126.889 65.9968 126.734C66.1625 126.578 66.3597 126.5 66.5884 126.5C66.8171 126.5 67.0127 126.578 67.1751 126.734C67.3408 126.889 67.4237 127.077 67.4237 127.295C67.4237 127.514 67.3408 127.701 67.1751 127.857C67.0127 128.013 66.8171 128.091 66.5884 128.091ZM70.4874 126.818V137H69.3141V126.818H70.4874ZM73.392 139.864C73.1932 139.864 73.0159 139.847 72.8601 139.814C72.7043 139.784 72.5966 139.754 72.5369 139.724L72.8352 138.69C73.1203 138.763 73.3722 138.79 73.5909 138.77C73.8097 138.75 74.0036 138.652 74.1726 138.477C74.3449 138.304 74.5024 138.024 74.6449 137.636L74.8636 137.04L72.0398 129.364H73.3125L75.4205 135.449H75.5L77.608 129.364H78.8807L75.6392 138.114C75.4934 138.508 75.3127 138.835 75.0973 139.093C74.8819 139.355 74.6316 139.549 74.3466 139.675C74.0649 139.801 73.7467 139.864 73.392 139.864Z" fill="white"/>
<path d="M68.8887 31C78.2519 31 85.8887 38.809 85.8887 48.5C85.8887 58.191 78.2519 66 68.8887 66C59.5255 66 51.8887 58.191 51.8887 48.5C51.8887 38.809 59.5255 31 68.8887 31Z" stroke="white" stroke-width="2"/>
<path d="M35.8887 54C45.2519 54 52.8887 61.809 52.8887 71.5C52.8887 81.191 45.2519 89 35.8887 89C26.5255 89 18.8887 81.191 18.8887 71.5C18.8887 61.809 26.5255 54 35.8887 54Z" stroke="white" stroke-width="2"/>
<path d="M57 111C57 99.402 47.8218 90 36.5 90C30.3089 90 24.7589 92.8114 21 97.2559" stroke="white" stroke-width="2"/>
<path d="M29 73V70.5" stroke="white" stroke-width="2" stroke-linecap="round" stroke-linejoin="round"/>
<path d="M43 73V70.5" stroke="white" stroke-width="2" stroke-linecap="round" stroke-linejoin="round"/>
<path d="M61 50.5V48" stroke="white" stroke-width="2" stroke-linecap="round" stroke-linejoin="round"/>
<path d="M75 50.5V48" stroke="white" stroke-width="2" stroke-linecap="round" stroke-linejoin="round"/>
<path d="M52.8887 45C60.0609 45 67.8887 38.732 67.8887 31" stroke="white" stroke-width="2"/>
<path d="M84.8887 45C77.2383 45 68.8887 38.732 68.8887 31" stroke="white" stroke-width="2"/>
<path d="M51 65C40.6105 67.7839 31.7916 65.2385 29.0049 54.8382" stroke="white" stroke-width="2"/>
<path d="M18.8887 66C24.4115 66 28.8887 61.5228 28.8887 56" stroke="white" stroke-width="2"/>
<path d="M51.9361 28.3139C54.9697 30.0654 56.4286 33.4988 55.8131 36.7588C53.2975 38.922 49.5947 39.3752 46.5611 37.6237C43.5272 35.872 42.0675 32.4383 42.6832 29.1783C45.1986 27.0151 48.9022 26.5624 51.9361 28.3139Z" stroke="white" stroke-width="2"/>
<path d="M86.0698 28.3139C83.0362 30.0654 81.5773 33.4988 82.1928 36.7588C84.7083 38.922 88.4111 39.3752 91.4448 37.6237C94.4786 35.872 95.9384 32.4383 95.3227 29.1783C92.8072 27.0151 89.1037 26.5624 86.0698 28.3139Z" stroke="white" stroke-width="2"/>
<path d="M34.7438 81.5967C30.9931 82.6017 27.1378 80.3758 26.1328 76.6251" stroke="white" stroke-width="2"/>
<path d="M69.2074 58.6505C72.9581 59.6555 76.8134 57.4297 77.8184 53.679" stroke="white" stroke-width="2"/>
<path d="M51 96V84.5C51 74.2827 59.2827 66 69.5 66C79.7173 66 88 74.2827 88 84.5V102.5" stroke="white" stroke-width="2"/>
</svg>
