<svg width="116" height="140" viewBox="0 0 116 140" fill="none" xmlns="http://www.w3.org/2000/svg">
<path d="M54 69.3276C48.5886 74.1401 43.1162 85 37.8232 85C33.6811 85 30.3232 81.6421 30.3232 77.5C30.3232 72.4481 30.3617 67.7457 30.749 62.7129L24.1172 64.4932C23.7523 64.5361 23.3928 64.3749 23.1816 64.0742C22.9706 63.7735 22.9411 63.3813 23.1054 63.0527L32.0908 44.0801C32.7375 37.2897 36.7796 31.4894 42.5 28.3959" stroke="white" stroke-width="2" stroke-linecap="round"/>
<circle cx="58" cy="58" r="54" stroke="white" stroke-width="2"/>
<path d="M33.0445 137V126.818H39.1496V127.912H34.2774V131.352H38.6922V132.446H34.2774V137H33.0445ZM43.3493 137.179C42.8654 137.179 42.4263 137.088 42.0319 136.906C41.6375 136.72 41.3242 136.453 41.0922 136.105C40.8602 135.754 40.7442 135.33 40.7442 134.832C40.7442 134.395 40.8304 134.04 41.0028 133.768C41.1751 133.493 41.4055 133.278 41.6938 133.122C41.9822 132.966 42.3003 132.85 42.6483 132.774C42.9997 132.695 43.3527 132.632 43.7073 132.585C44.1713 132.526 44.5475 132.481 44.8358 132.451C45.1275 132.418 45.3396 132.363 45.4722 132.287C45.6081 132.211 45.676 132.078 45.676 131.889V131.849C45.676 131.359 45.5418 130.978 45.2733 130.706C45.0082 130.434 44.6055 130.298 44.0653 130.298C43.5051 130.298 43.066 130.421 42.7478 130.666C42.4296 130.911 42.2059 131.173 42.0766 131.452L40.963 131.054C41.1618 130.59 41.427 130.229 41.7584 129.97C42.0932 129.708 42.4578 129.526 42.8522 129.423C43.2499 129.317 43.641 129.264 44.0255 129.264C44.2707 129.264 44.5525 129.294 44.8706 129.354C45.1921 129.41 45.502 129.528 45.8003 129.707C46.1019 129.886 46.3522 130.156 46.551 130.517C46.7499 130.878 46.8493 131.362 46.8493 131.969V137H45.676V135.966H45.6164C45.5368 136.132 45.4043 136.309 45.2187 136.498C45.0331 136.687 44.7861 136.848 44.4779 136.98C44.1697 137.113 43.7935 137.179 43.3493 137.179ZM43.5283 136.125C43.9923 136.125 44.3834 136.034 44.7016 135.852C45.0231 135.669 45.2651 135.434 45.4275 135.146C45.5932 134.857 45.676 134.554 45.676 134.236V133.162C45.6263 133.222 45.517 133.276 45.3479 133.326C45.1822 133.372 44.99 133.414 44.7712 133.45C44.5558 133.483 44.3453 133.513 44.1398 133.54C43.9376 133.563 43.7736 133.583 43.6476 133.599C43.3427 133.639 43.0577 133.704 42.7925 133.793C42.5307 133.879 42.3186 134.01 42.1562 134.186C41.9971 134.358 41.9175 134.594 41.9175 134.892C41.9175 135.3 42.0683 135.608 42.3699 135.817C42.6749 136.022 43.061 136.125 43.5283 136.125ZM50.1642 132.406V137H48.9909V129.364H50.1244V130.557H50.2238C50.4028 130.169 50.6746 129.857 51.0392 129.622C51.4037 129.384 51.8744 129.264 52.4511 129.264C52.9681 129.264 53.4205 129.37 53.8083 129.582C54.1961 129.791 54.4977 130.109 54.7132 130.537C54.9286 130.961 55.0363 131.498 55.0363 132.148V137H53.863V132.227C53.863 131.627 53.7072 131.16 53.3957 130.825C53.0841 130.487 52.6566 130.318 52.113 130.318C51.7385 130.318 51.4037 130.399 51.1088 130.562C50.8171 130.724 50.5867 130.961 50.4177 131.273C50.2487 131.584 50.1642 131.962 50.1642 132.406ZM60.5013 129.364V130.358H56.5439V129.364H60.5013ZM57.6974 127.534H58.8706V134.812C58.8706 135.144 58.9187 135.393 59.0148 135.558C59.1143 135.721 59.2402 135.83 59.3927 135.886C59.5484 135.939 59.7125 135.966 59.8849 135.966C60.0141 135.966 60.1202 135.959 60.203 135.946C60.2859 135.929 60.3522 135.916 60.4019 135.906L60.6405 136.96C60.561 136.99 60.45 137.02 60.3074 137.05C60.1649 137.083 59.9843 137.099 59.7655 137.099C59.4341 137.099 59.1093 137.028 58.7911 136.886C58.4762 136.743 58.2144 136.526 58.0056 136.234C57.8001 135.943 57.6974 135.575 57.6974 135.131V127.534ZM64.5134 137.179C64.0295 137.179 63.5903 137.088 63.1959 136.906C62.8015 136.72 62.4883 136.453 62.2563 136.105C62.0243 135.754 61.9083 135.33 61.9083 134.832C61.9083 134.395 61.9945 134.04 62.1668 133.768C62.3392 133.493 62.5695 133.278 62.8579 133.122C63.1462 132.966 63.4644 132.85 63.8124 132.774C64.1637 132.695 64.5167 132.632 64.8714 132.585C65.3354 132.526 65.7116 132.481 65.9999 132.451C66.2916 132.418 66.5037 132.363 66.6363 132.287C66.7722 132.211 66.8401 132.078 66.8401 131.889V131.849C66.8401 131.359 66.7059 130.978 66.4374 130.706C66.1723 130.434 65.7696 130.298 65.2293 130.298C64.6692 130.298 64.23 130.421 63.9118 130.666C63.5937 130.911 63.3699 131.173 63.2407 131.452L62.127 131.054C62.3259 130.59 62.5911 130.229 62.9225 129.97C63.2573 129.708 63.6218 129.526 64.0162 129.423C64.414 129.317 64.8051 129.264 65.1895 129.264C65.4348 129.264 65.7165 129.294 66.0347 129.354C66.3562 129.41 66.6661 129.528 66.9644 129.707C67.266 129.886 67.5162 130.156 67.7151 130.517C67.914 130.878 68.0134 131.362 68.0134 131.969V137H66.8401V135.966H66.7805C66.7009 136.132 66.5683 136.309 66.3827 136.498C66.1971 136.687 65.9502 136.848 65.642 136.98C65.3337 137.113 64.9575 137.179 64.5134 137.179ZM64.6924 136.125C65.1564 136.125 65.5475 136.034 65.8657 135.852C66.1872 135.669 66.4291 135.434 66.5915 135.146C66.7573 134.857 66.8401 134.554 66.8401 134.236V133.162C66.7904 133.222 66.681 133.276 66.512 133.326C66.3463 133.372 66.154 133.414 65.9353 133.45C65.7198 133.483 65.5094 133.513 65.3039 133.54C65.1017 133.563 64.9376 133.583 64.8117 133.599C64.5068 133.639 64.2217 133.704 63.9566 133.793C63.6948 133.879 63.4826 134.01 63.3202 134.186C63.1611 134.358 63.0816 134.594 63.0816 134.892C63.0816 135.3 63.2324 135.608 63.534 135.817C63.8389 136.022 64.2251 136.125 64.6924 136.125ZM75.564 131.074L74.51 131.372C74.4437 131.196 74.346 131.026 74.2167 130.86C74.0908 130.691 73.9184 130.552 73.6997 130.442C73.4809 130.333 73.2008 130.278 72.8595 130.278C72.3921 130.278 72.0027 130.386 71.6911 130.602C71.3829 130.814 71.2288 131.084 71.2288 131.412C71.2288 131.704 71.3348 131.934 71.547 132.103C71.7591 132.272 72.0905 132.413 72.5413 132.526L73.6748 132.804C74.3576 132.97 74.8663 133.223 75.2011 133.565C75.5358 133.903 75.7032 134.339 75.7032 134.872C75.7032 135.31 75.5773 135.701 75.3254 136.045C75.0768 136.39 74.7288 136.662 74.2813 136.861C73.8339 137.06 73.3135 137.159 72.7203 137.159C71.9414 137.159 71.2967 136.99 70.7863 136.652C70.2759 136.314 69.9527 135.82 69.8169 135.17L70.9305 134.892C71.0365 135.303 71.2371 135.611 71.532 135.817C71.8303 136.022 72.2198 136.125 72.7004 136.125C73.2472 136.125 73.6814 136.009 74.0029 135.777C74.3277 135.542 74.4901 135.26 74.4901 134.932C74.4901 134.667 74.3973 134.445 74.2117 134.266C74.0261 134.083 73.7411 133.947 73.3566 133.858L72.0839 133.56C71.3846 133.394 70.8708 133.137 70.5427 132.789C70.2179 132.438 70.0555 131.999 70.0555 131.472C70.0555 131.041 70.1765 130.66 70.4184 130.328C70.6637 129.997 70.9968 129.737 71.4177 129.548C71.8419 129.359 72.3225 129.264 72.8595 129.264C73.6151 129.264 74.2084 129.43 74.6393 129.761C75.0735 130.093 75.3817 130.53 75.564 131.074ZM78.2251 139.864C78.0262 139.864 77.8489 139.847 77.6931 139.814C77.5373 139.784 77.4296 139.754 77.3699 139.724L77.6682 138.69C77.9533 138.763 78.2052 138.79 78.4239 138.77C78.6427 138.75 78.8366 138.652 79.0056 138.477C79.1779 138.304 79.3354 138.024 79.4779 137.636L79.6966 137.04L76.8728 129.364H78.1455L80.2535 135.449H80.333L82.441 129.364H83.7137L80.4722 138.114C80.3264 138.508 80.1457 138.835 79.9303 139.093C79.7149 139.355 79.4646 139.549 79.1796 139.675C78.8979 139.801 78.5797 139.864 78.2251 139.864Z" fill="white"/>
<path d="M58.5811 59.5C61.6835 60.1971 65.4985 57.644 66.6929 54.8141L80.1151 36.1464C80.3892 35.765 80.3609 35.2435 80.0472 34.894C79.7332 34.5446 79.2177 34.4611 78.8092 34.6929L58.5811 46.1881" stroke="white" stroke-width="2" stroke-linecap="round" stroke-linejoin="round"/>
<path d="M45 46C45 47.6569 43.433 49 41.5 49C39.567 49 38 47.6569 38 46" stroke="white" stroke-width="2"/>
<path d="M37.7699 67.4751C37.0716 70.0812 34.0407 71.5335 31.0003 70.7188" stroke="white" stroke-width="2"/>
<path d="M95.5 51C95.9106 51 96.28 51.2508 96.4307 51.6328L97.2598 53.7393L99.3672 54.5693C99.7492 54.72 100 55.0894 100 55.5C100 55.9106 99.7492 56.28 99.3672 56.4307L97.2598 57.2598L96.4307 59.3672C96.28 59.7492 95.9106 60 95.5 60C95.0894 60 94.72 59.7492 94.5693 59.3672L93.7393 57.2598L91.6328 56.4307C91.2508 56.28 91 55.9106 91 55.5C91 55.0894 91.2508 54.72 91.6328 54.5693L93.7393 53.7393L94.5693 51.6328L94.6357 51.4961C94.8129 51.1921 95.1406 51 95.5 51Z" stroke="white" stroke-width="2" stroke-linejoin="round"/>
<path d="M20.5 38C20.9106 38 21.28 38.2508 21.4307 38.6328L22.2598 40.7393L24.3672 41.5693C24.7492 41.72 25 42.0894 25 42.5C25 42.9106 24.7492 43.28 24.3672 43.4307L22.2598 44.2598L21.4307 46.3672C21.28 46.7492 20.9106 47 20.5 47C20.0894 47 19.72 46.7492 19.5693 46.3672L18.7393 44.2598L16.6328 43.4307C16.2508 43.28 16 42.9106 16 42.5C16 42.0894 16.2508 41.72 16.6328 41.5693L18.7393 40.7393L19.5693 38.6328L19.6357 38.4961C19.8129 38.1921 20.1406 38 20.5 38Z" stroke="white" stroke-width="2" stroke-linejoin="round"/>
<path d="M43 29C44.5 50 55.1 36.5 67.5 40.5" stroke="white" stroke-width="2" stroke-linecap="round" stroke-linejoin="round"/>
<path d="M43 30.5C42.6667 28 43.0408 19.0831 44.5 19.5C58.5002 23.5 70 13 76.5 35.5" stroke="white" stroke-width="2" stroke-linecap="round" stroke-linejoin="round"/>
<path d="M35.5 34C34.3333 30.5 34.2007 24.1 43.0007 22.5" stroke="white" stroke-width="2" stroke-linecap="round" stroke-linejoin="round"/>
<path d="M58.5 59.5L55 112" stroke="white" stroke-width="2" stroke-linecap="round" stroke-linejoin="round"/>
<path d="M77.4997 40.5C76.1664 59 86.6 89.8 95 95" stroke="white" stroke-width="2" stroke-linecap="round" stroke-linejoin="round"/>
<path d="M54 69.5L41 109" stroke="white" stroke-width="2" stroke-linecap="round" stroke-linejoin="round"/>
</svg>
