<svg width="116" height="138" viewBox="0 0 116 138" fill="none" xmlns="http://www.w3.org/2000/svg">
<path d="M54 69.3276C48.5886 74.1401 43.1162 85 37.8232 85C33.6811 85 30.3232 81.6421 30.3232 77.5C30.3232 72.4481 30.3617 67.7457 30.749 62.7129L24.1172 64.4932C23.7523 64.5361 23.3928 64.3749 23.1816 64.0742C22.9706 63.7735 22.9411 63.3813 23.1054 63.0527L32.0908 44.0801C32.7375 37.2897 36.7796 31.4894 42.5 28.3959" stroke="white" stroke-width="2" stroke-linecap="round"/>
<circle cx="58" cy="58" r="54" stroke="white" stroke-width="2"/>
<path d="M36.6096 135V126.273H41.8425V127.21H37.6664V130.159H41.4505V131.097H37.6664V135H36.6096ZM45.4423 135.153C45.0275 135.153 44.6511 135.075 44.313 134.919C43.975 134.76 43.7065 134.531 43.5076 134.233C43.3088 133.932 43.2093 133.568 43.2093 133.142C43.2093 132.767 43.2832 132.463 43.4309 132.23C43.5787 131.994 43.7761 131.81 44.0233 131.676C44.2704 131.543 44.5431 131.443 44.8414 131.378C45.1426 131.31 45.4451 131.256 45.7491 131.216C46.1468 131.165 46.4693 131.126 46.7164 131.101C46.9664 131.072 47.1483 131.026 47.2619 130.96C47.3784 130.895 47.4366 130.781 47.4366 130.619V130.585C47.4366 130.165 47.3216 129.838 47.0914 129.605C46.8642 129.372 46.519 129.256 46.0559 129.256C45.5758 129.256 45.1994 129.361 44.9267 129.571C44.6539 129.781 44.4622 130.006 44.3514 130.244L43.3968 129.903C43.5673 129.506 43.7946 129.196 44.0787 128.974C44.3656 128.75 44.6781 128.594 45.0162 128.506C45.3571 128.415 45.6923 128.369 46.0218 128.369C46.2321 128.369 46.4735 128.395 46.7463 128.446C47.0218 128.494 47.2875 128.595 47.5431 128.749C47.8017 128.902 48.0162 129.134 48.1866 129.443C48.3571 129.753 48.4423 130.168 48.4423 130.688V135H47.4366V134.114H47.3855C47.3173 134.256 47.2037 134.408 47.0446 134.57C46.8855 134.732 46.6738 134.869 46.4096 134.983C46.1454 135.097 45.823 135.153 45.4423 135.153ZM45.5957 134.25C45.9934 134.25 46.3287 134.172 46.6014 134.016C46.877 133.859 47.0843 133.658 47.2235 133.411C47.3656 133.163 47.4366 132.903 47.4366 132.631V131.71C47.394 131.761 47.3002 131.808 47.1554 131.851C47.0133 131.891 46.8485 131.926 46.661 131.957C46.4764 131.986 46.296 132.011 46.1199 132.034C45.9466 132.054 45.8059 132.071 45.698 132.085C45.4366 132.119 45.1923 132.175 44.965 132.251C44.7406 132.325 44.5588 132.437 44.4196 132.588C44.2832 132.736 44.215 132.937 44.215 133.193C44.215 133.543 44.3443 133.807 44.6028 133.986C44.8642 134.162 45.1951 134.25 45.5957 134.25ZM51.2836 131.062V135H50.2779V128.455H51.2495V129.477H51.3347C51.4881 129.145 51.7211 128.878 52.0336 128.676C52.3461 128.472 52.7495 128.369 53.2438 128.369C53.687 128.369 54.0748 128.46 54.4071 128.642C54.7395 128.821 54.998 129.094 55.1827 129.46C55.3674 129.824 55.4597 130.284 55.4597 130.841V135H54.454V130.909C54.454 130.395 54.3205 129.994 54.0534 129.707C53.7864 129.418 53.4199 129.273 52.954 129.273C52.633 129.273 52.3461 129.342 52.0932 129.482C51.8432 129.621 51.6458 129.824 51.5009 130.091C51.356 130.358 51.2836 130.682 51.2836 131.062ZM60.144 128.455V129.307H56.752V128.455H60.144ZM57.7406 126.886H58.7463V133.125C58.7463 133.409 58.7875 133.622 58.8699 133.764C58.9551 133.903 59.063 133.997 59.1937 134.045C59.3272 134.091 59.4679 134.114 59.6156 134.114C59.7264 134.114 59.8173 134.108 59.8883 134.097C59.9593 134.082 60.0162 134.071 60.0588 134.062L60.2633 134.966C60.1951 134.991 60.1 135.017 59.9778 135.043C59.8556 135.071 59.7008 135.085 59.5133 135.085C59.2292 135.085 58.9508 135.024 58.6781 134.902C58.4082 134.78 58.1838 134.594 58.0048 134.344C57.8287 134.094 57.7406 133.778 57.7406 133.398V126.886ZM63.5829 135.153C63.1681 135.153 62.7917 135.075 62.4537 134.919C62.1156 134.76 61.8471 134.531 61.6483 134.233C61.4494 133.932 61.35 133.568 61.35 133.142C61.35 132.767 61.4238 132.463 61.5716 132.23C61.7193 131.994 61.9167 131.81 62.1639 131.676C62.411 131.543 62.6838 131.443 62.9821 131.378C63.2832 131.31 63.5858 131.256 63.8897 131.216C64.2875 131.165 64.6099 131.126 64.8571 131.101C65.1071 131.072 65.2889 131.026 65.4025 130.96C65.519 130.895 65.5772 130.781 65.5772 130.619V130.585C65.5772 130.165 65.4622 129.838 65.2321 129.605C65.0048 129.372 64.6596 129.256 64.1966 129.256C63.7164 129.256 63.34 129.361 63.0673 129.571C62.7946 129.781 62.6028 130.006 62.492 130.244L61.5375 129.903C61.7079 129.506 61.9352 129.196 62.2193 128.974C62.5062 128.75 62.8187 128.594 63.1568 128.506C63.4977 128.415 63.8329 128.369 64.1625 128.369C64.3727 128.369 64.6142 128.395 64.8869 128.446C65.1625 128.494 65.4281 128.595 65.6838 128.749C65.9423 128.902 66.1568 129.134 66.3272 129.443C66.4977 129.753 66.5829 130.168 66.5829 130.688V135H65.5772V134.114H65.5261C65.4579 134.256 65.3443 134.408 65.1852 134.57C65.0261 134.732 64.8145 134.869 64.5502 134.983C64.286 135.097 63.9636 135.153 63.5829 135.153ZM63.7363 134.25C64.1341 134.25 64.4693 134.172 64.742 134.016C65.0176 133.859 65.225 133.658 65.3642 133.411C65.5062 133.163 65.5772 132.903 65.5772 132.631V131.71C65.5346 131.761 65.4409 131.808 65.296 131.851C65.1539 131.891 64.9892 131.926 64.8017 131.957C64.617 131.986 64.4366 132.011 64.2605 132.034C64.0872 132.054 63.9466 132.071 63.8386 132.085C63.5772 132.119 63.3329 132.175 63.1056 132.251C62.8812 132.325 62.6994 132.437 62.5602 132.588C62.4238 132.736 62.3556 132.937 62.3556 133.193C62.3556 133.543 62.4849 133.807 62.7434 133.986C63.0048 134.162 63.3358 134.25 63.7363 134.25ZM73.0549 129.92L72.1515 130.176C72.0946 130.026 72.0108 129.879 71.9 129.737C71.7921 129.592 71.6444 129.473 71.4569 129.379C71.2694 129.286 71.0293 129.239 70.7367 129.239C70.3361 129.239 70.0023 129.331 69.7353 129.516C69.4711 129.697 69.339 129.929 69.339 130.21C69.339 130.46 69.4299 130.658 69.6117 130.803C69.7935 130.947 70.0776 131.068 70.464 131.165L71.4355 131.403C72.0208 131.545 72.4569 131.763 72.7438 132.055C73.0307 132.345 73.1742 132.719 73.1742 133.176C73.1742 133.551 73.0662 133.886 72.8503 134.182C72.6373 134.477 72.339 134.71 71.9554 134.881C71.5719 135.051 71.1259 135.136 70.6174 135.136C69.9498 135.136 69.3972 134.991 68.9597 134.702C68.5222 134.412 68.2452 133.989 68.1287 133.432L69.0833 133.193C69.1742 133.545 69.3461 133.81 69.5989 133.986C69.8546 134.162 70.1884 134.25 70.6003 134.25C71.0691 134.25 71.4412 134.151 71.7168 133.952C71.9952 133.75 72.1344 133.509 72.1344 133.227C72.1344 133 72.0549 132.81 71.8958 132.656C71.7367 132.5 71.4924 132.384 71.1628 132.307L70.0719 132.051C69.4725 131.909 69.0321 131.689 68.7509 131.391C68.4725 131.089 68.3333 130.713 68.3333 130.261C68.3333 129.892 68.437 129.565 68.6444 129.281C68.8546 128.997 69.1401 128.774 69.5009 128.612C69.8645 128.45 70.2765 128.369 70.7367 128.369C71.3844 128.369 71.8929 128.511 72.2623 128.795C72.6344 129.08 72.8986 129.455 73.0549 129.92ZM75.3358 137.455C75.1653 137.455 75.0133 137.44 74.8798 137.412C74.7463 137.386 74.6539 137.361 74.6028 137.335L74.8585 136.449C75.1028 136.511 75.3187 136.534 75.5062 136.517C75.6937 136.5 75.8599 136.416 76.0048 136.266C76.1525 136.118 76.2875 135.878 76.4096 135.545L76.5971 135.034L74.1767 128.455H75.2676L77.0744 133.67H77.1426L78.9494 128.455H80.0403L77.2619 135.955C77.1369 136.293 76.9821 136.572 76.7974 136.794C76.6127 137.018 76.3983 137.185 76.1539 137.293C75.9125 137.401 75.6397 137.455 75.3358 137.455Z" fill="white"/>
<path d="M58.5811 59.5C61.6835 60.1971 65.4985 57.644 66.6929 54.8141L80.1151 36.1464C80.3892 35.765 80.3609 35.2435 80.0472 34.894C79.7332 34.5446 79.2177 34.4611 78.8092 34.6929L58.5811 46.1881" stroke="white" stroke-width="2" stroke-linecap="round" stroke-linejoin="round"/>
<path d="M45 46C45 47.6569 43.433 49 41.5 49C39.567 49 38 47.6569 38 46" stroke="white" stroke-width="2"/>
<path d="M37.7699 67.4751C37.0716 70.0812 34.0407 71.5335 31.0003 70.7188" stroke="white" stroke-width="2"/>
<path d="M95.5 51C95.9106 51 96.28 51.2508 96.4307 51.6328L97.2598 53.7393L99.3672 54.5693C99.7492 54.72 100 55.0894 100 55.5C100 55.9106 99.7492 56.28 99.3672 56.4307L97.2598 57.2598L96.4307 59.3672C96.28 59.7492 95.9106 60 95.5 60C95.0894 60 94.72 59.7492 94.5693 59.3672L93.7393 57.2598L91.6328 56.4307C91.2508 56.28 91 55.9106 91 55.5C91 55.0894 91.2508 54.72 91.6328 54.5693L93.7393 53.7393L94.5693 51.6328L94.6357 51.4961C94.8129 51.1921 95.1406 51 95.5 51Z" stroke="white" stroke-width="2" stroke-linejoin="round"/>
<path d="M20.5 38C20.9106 38 21.28 38.2508 21.4307 38.6328L22.2598 40.7393L24.3672 41.5693C24.7492 41.72 25 42.0894 25 42.5C25 42.9106 24.7492 43.28 24.3672 43.4307L22.2598 44.2598L21.4307 46.3672C21.28 46.7492 20.9106 47 20.5 47C20.0894 47 19.72 46.7492 19.5693 46.3672L18.7393 44.2598L16.6328 43.4307C16.2508 43.28 16 42.9106 16 42.5C16 42.0894 16.2508 41.72 16.6328 41.5693L18.7393 40.7393L19.5693 38.6328L19.6357 38.4961C19.8129 38.1921 20.1406 38 20.5 38Z" stroke="white" stroke-width="2" stroke-linejoin="round"/>
<path d="M43 29C44.5 50 55.1 36.5 67.5 40.5" stroke="white" stroke-width="2" stroke-linecap="round" stroke-linejoin="round"/>
<path d="M43 30.5C42.6667 28 43.0408 19.0831 44.5 19.5C58.5002 23.5 70 13 76.5 35.5" stroke="white" stroke-width="2" stroke-linecap="round" stroke-linejoin="round"/>
<path d="M35.5 34C34.3333 30.5 34.2007 24.1 43.0007 22.5" stroke="white" stroke-width="2" stroke-linecap="round" stroke-linejoin="round"/>
<path d="M58.5 59.5L55 112" stroke="white" stroke-width="2" stroke-linecap="round" stroke-linejoin="round"/>
<path d="M77.4997 40.5C76.1664 59 86.6 89.8 95 95" stroke="white" stroke-width="2" stroke-linecap="round" stroke-linejoin="round"/>
<path d="M54 69.5L41 109" stroke="white" stroke-width="2" stroke-linecap="round" stroke-linejoin="round"/>
</svg>
