<svg width="116" height="138" viewBox="0 0 116 138" fill="none" xmlns="http://www.w3.org/2000/svg">
<circle cx="58" cy="58" r="54" stroke="white" stroke-width="2"/>
<path d="M39.9693 137V126.818H41.2022V131.352H46.6312V126.818H47.8642V137H46.6312V132.446H41.2022V137H39.9693ZM53.2757 137.159C52.5864 137.159 51.9815 136.995 51.4611 136.667C50.9441 136.339 50.5397 135.88 50.248 135.29C49.9597 134.7 49.8155 134.01 49.8155 133.222C49.8155 132.426 49.9597 131.732 50.248 131.138C50.5397 130.545 50.9441 130.085 51.4611 129.756C51.9815 129.428 52.5864 129.264 53.2757 129.264C53.9651 129.264 54.5684 129.428 55.0854 129.756C55.6058 130.085 56.0101 130.545 56.2985 131.138C56.5901 131.732 56.736 132.426 56.736 133.222C56.736 134.01 56.5901 134.7 56.2985 135.29C56.0101 135.88 55.6058 136.339 55.0854 136.667C54.5684 136.995 53.9651 137.159 53.2757 137.159ZM53.2757 136.105C53.7994 136.105 54.2303 135.971 54.5684 135.702C54.9064 135.434 55.1567 135.081 55.3191 134.643C55.4815 134.206 55.5627 133.732 55.5627 133.222C55.5627 132.711 55.4815 132.236 55.3191 131.795C55.1567 131.354 54.9064 130.998 54.5684 130.726C54.2303 130.454 53.7994 130.318 53.2757 130.318C52.7521 130.318 52.3212 130.454 51.9831 130.726C51.6451 130.998 51.3948 131.354 51.2324 131.795C51.07 132.236 50.9888 132.711 50.9888 133.222C50.9888 133.732 51.07 134.206 51.2324 134.643C51.3948 135.081 51.6451 135.434 51.9831 135.702C52.3212 135.971 52.7521 136.105 53.2757 136.105ZM58.527 137V129.364H59.6605V130.517H59.7401C59.8793 130.139 60.1312 129.833 60.4957 129.597C60.8603 129.362 61.2713 129.244 61.7287 129.244C61.8149 129.244 61.9226 129.246 62.0518 129.249C62.1811 129.253 62.2789 129.258 62.3452 129.264V130.457C62.3054 130.447 62.2143 130.433 62.0717 130.413C61.9325 130.389 61.785 130.378 61.6293 130.378C61.258 130.378 60.9266 130.456 60.6349 130.612C60.3466 130.764 60.1179 130.976 59.9489 131.248C59.7831 131.516 59.7003 131.823 59.7003 132.168V137H58.527ZM63.736 137V129.364H64.8695V130.517H64.949C65.0882 130.139 65.3401 129.833 65.7047 129.597C66.0693 129.362 66.4803 129.244 66.9377 129.244C67.0239 129.244 67.1316 129.246 67.2608 129.249C67.3901 129.253 67.4879 129.258 67.5542 129.264V130.457C67.5144 130.447 67.4232 130.433 67.2807 130.413C67.1415 130.389 66.994 130.378 66.8382 130.378C66.467 130.378 66.1356 130.456 65.8439 130.612C65.5556 130.764 65.3269 130.976 65.1578 131.248C64.9921 131.516 64.9093 131.823 64.9093 132.168V137H63.736ZM71.8148 137.159C71.1254 137.159 70.5205 136.995 70.0002 136.667C69.4831 136.339 69.0788 135.88 68.7871 135.29C68.4988 134.7 68.3546 134.01 68.3546 133.222C68.3546 132.426 68.4988 131.732 68.7871 131.138C69.0788 130.545 69.4831 130.085 70.0002 129.756C70.5205 129.428 71.1254 129.264 71.8148 129.264C72.5042 129.264 73.1074 129.428 73.6245 129.756C74.1448 130.085 74.5492 130.545 74.8375 131.138C75.1292 131.732 75.275 132.426 75.275 133.222C75.275 134.01 75.1292 134.7 74.8375 135.29C74.5492 135.88 74.1448 136.339 73.6245 136.667C73.1074 136.995 72.5042 137.159 71.8148 137.159ZM71.8148 136.105C72.3385 136.105 72.7694 135.971 73.1074 135.702C73.4455 135.434 73.6957 135.081 73.8581 134.643C74.0205 134.206 74.1017 133.732 74.1017 133.222C74.1017 132.711 74.0205 132.236 73.8581 131.795C73.6957 131.354 73.4455 130.998 73.1074 130.726C72.7694 130.454 72.3385 130.318 71.8148 130.318C71.2911 130.318 70.8603 130.454 70.5222 130.726C70.1841 130.998 69.9339 131.354 69.7715 131.795C69.6091 132.236 69.5279 132.711 69.5279 133.222C69.5279 133.732 69.6091 134.206 69.7715 134.643C69.9339 135.081 70.1841 135.434 70.5222 135.702C70.8603 135.971 71.2911 136.105 71.8148 136.105ZM77.0661 137V129.364H78.1996V130.517H78.2791C78.4183 130.139 78.6702 129.833 79.0348 129.597C79.3994 129.362 79.8104 129.244 80.2678 129.244C80.3539 129.244 80.4616 129.246 80.5909 129.249C80.7202 129.253 80.8179 129.258 80.8842 129.264V130.457C80.8445 130.447 80.7533 130.433 80.6108 130.413C80.4716 130.389 80.3241 130.378 80.1683 130.378C79.7971 130.378 79.4657 130.456 79.174 130.612C78.8857 130.764 78.657 130.976 78.4879 131.248C78.3222 131.516 78.2393 131.823 78.2393 132.168V137H77.0661Z" fill="white"/>
<path d="M90.4831 67.6053C90.7939 67.7848 90.9846 68.117 90.983 68.4758C90.9814 68.8346 90.7874 69.1651 90.4751 69.3418C87.5565 70.9928 83.7158 71.7487 79.5004 71.8936C75.2696 72.039 70.5748 71.5717 65.8845 70.7036C56.5175 68.9697 47.0299 65.6117 41.1043 62.1905C40.0538 61.584 39.045 60.933 38.0771 60.2443C37.6571 59.9454 37.5329 59.3764 37.7907 58.9299L46.7072 43.486C46.9834 43.0077 47.5949 42.8439 48.0732 43.12L90.4831 67.6053Z" stroke="white" stroke-width="2" stroke-linejoin="round"/>
<path d="M20.5 31.4641C21.6046 29.5509 24.0509 28.8954 25.9641 30L44.1506 40.5L39.6506 48.2942L21.4641 37.7942C19.5509 36.6897 18.8954 34.2433 20 32.3301L20.5 31.4641Z" fill="white"/>
<path d="M50.9715 66.0864C52.5671 64.722 57.0495 60.5999 60.9536 62.5966C65.8337 65.0924 67.7988 68.0213 71.1887 65.9072C74.5786 63.793 87.7534 64.889 90.0026 70.2718" stroke="white" stroke-width="2"/>
<path d="M91 74.75C91.453 74.75 91.849 75.0546 91.9658 75.4922L93.6699 81.8857C93.879 82.2937 94 82.7574 94 83.25C94 84.9069 92.6569 86.25 91 86.25C89.3431 86.25 88 84.9069 88 83.25C88 82.7574 88.121 82.2937 88.3301 81.8857L90.0342 75.4922L90.0898 75.335C90.2501 74.9832 90.6035 74.75 91 74.75Z" stroke="white" stroke-width="2" stroke-linejoin="round"/>
</svg>
