<svg width="116" height="136" viewBox="0 0 116 136" fill="none" xmlns="http://www.w3.org/2000/svg">
<circle cx="58" cy="58" r="54" stroke="white" stroke-width="2"/>
<path d="M42.5451 135V126.273H43.6019V130.159H48.2553V126.273H49.3121V135H48.2553V131.097H43.6019V135H42.5451ZM53.9506 135.136C53.3597 135.136 52.8413 134.996 52.3952 134.714C51.9521 134.433 51.6055 134.04 51.3555 133.534C51.1083 133.028 50.9847 132.437 50.9847 131.761C50.9847 131.08 51.1083 130.484 51.3555 129.976C51.6055 129.467 51.9521 129.072 52.3952 128.791C52.8413 128.51 53.3597 128.369 53.9506 128.369C54.5415 128.369 55.0586 128.51 55.5018 128.791C55.9478 129.072 56.2944 129.467 56.5415 129.976C56.7915 130.484 56.9165 131.08 56.9165 131.761C56.9165 132.437 56.7915 133.028 56.5415 133.534C56.2944 134.04 55.9478 134.433 55.5018 134.714C55.0586 134.996 54.5415 135.136 53.9506 135.136ZM53.9506 134.233C54.3995 134.233 54.7688 134.118 55.0586 133.888C55.3484 133.658 55.5629 133.355 55.7021 132.98C55.8413 132.605 55.9109 132.199 55.9109 131.761C55.9109 131.324 55.8413 130.916 55.7021 130.538C55.5629 130.161 55.3484 129.855 55.0586 129.622C54.7688 129.389 54.3995 129.273 53.9506 129.273C53.5018 129.273 53.1325 129.389 52.8427 129.622C52.5529 129.855 52.3384 130.161 52.1992 130.538C52.06 130.916 51.9904 131.324 51.9904 131.761C51.9904 132.199 52.06 132.605 52.1992 132.98C52.3384 133.355 52.5529 133.658 52.8427 133.888C53.1325 134.118 53.5018 134.233 53.9506 134.233ZM58.4517 135V128.455H59.4233V129.443H59.4915C59.6108 129.119 59.8267 128.857 60.1392 128.655C60.4517 128.453 60.804 128.352 61.196 128.352C61.2699 128.352 61.3622 128.354 61.473 128.357C61.5838 128.359 61.6676 128.364 61.7244 128.369V129.392C61.6903 129.384 61.6122 129.371 61.4901 129.354C61.3707 129.334 61.2443 129.324 61.1108 129.324C60.7926 129.324 60.5085 129.391 60.2585 129.524C60.0114 129.655 59.8153 129.837 59.6705 130.07C59.5284 130.3 59.4574 130.562 59.4574 130.858V135H58.4517ZM62.9165 135V128.455H63.8881V129.443H63.9563C64.0756 129.119 64.2915 128.857 64.604 128.655C64.9165 128.453 65.2688 128.352 65.6609 128.352C65.7347 128.352 65.8271 128.354 65.9379 128.357C66.0487 128.359 66.1325 128.364 66.1893 128.369V129.392C66.1552 129.384 66.0771 129.371 65.9549 129.354C65.8356 129.334 65.7092 129.324 65.5756 129.324C65.2575 129.324 64.9734 129.391 64.7234 129.524C64.4762 129.655 64.2802 129.837 64.1353 130.07C63.9933 130.3 63.9222 130.562 63.9222 130.858V135H62.9165ZM69.8413 135.136C69.2504 135.136 68.7319 134.996 68.2859 134.714C67.8427 134.433 67.4961 134.04 67.2461 133.534C66.9989 133.028 66.8754 132.437 66.8754 131.761C66.8754 131.08 66.9989 130.484 67.2461 129.976C67.4961 129.467 67.8427 129.072 68.2859 128.791C68.7319 128.51 69.2504 128.369 69.8413 128.369C70.4322 128.369 70.9492 128.51 71.3924 128.791C71.8384 129.072 72.185 129.467 72.4322 129.976C72.6822 130.484 72.8072 131.08 72.8072 131.761C72.8072 132.437 72.6822 133.028 72.4322 133.534C72.185 134.04 71.8384 134.433 71.3924 134.714C70.9492 134.996 70.4322 135.136 69.8413 135.136ZM69.8413 134.233C70.2901 134.233 70.6594 134.118 70.9492 133.888C71.239 133.658 71.4535 133.355 71.5927 132.98C71.7319 132.605 71.8015 132.199 71.8015 131.761C71.8015 131.324 71.7319 130.916 71.5927 130.538C71.4535 130.161 71.239 129.855 70.9492 129.622C70.6594 129.389 70.2901 129.273 69.8413 129.273C69.3924 129.273 69.0231 129.389 68.7333 129.622C68.4435 129.855 68.229 130.161 68.0898 130.538C67.9506 130.916 67.881 131.324 67.881 131.761C67.881 132.199 67.9506 132.605 68.0898 132.98C68.229 133.355 68.4435 133.658 68.7333 133.888C69.0231 134.118 69.3924 134.233 69.8413 134.233ZM74.3423 135V128.455H75.3139V129.443H75.3821C75.5014 129.119 75.7173 128.857 76.0298 128.655C76.3423 128.453 76.6946 128.352 77.0866 128.352C77.1605 128.352 77.2528 128.354 77.3636 128.357C77.4744 128.359 77.5582 128.364 77.6151 128.369V129.392C77.581 129.384 77.5028 129.371 77.3807 129.354C77.2614 129.334 77.1349 129.324 77.0014 129.324C76.6832 129.324 76.3991 129.391 76.1491 129.524C75.902 129.655 75.706 129.837 75.5611 130.07C75.419 130.3 75.348 130.562 75.348 130.858V135H74.3423Z" fill="white"/>
<path d="M90.4831 67.6053C90.7939 67.7848 90.9846 68.117 90.983 68.4758C90.9814 68.8346 90.7874 69.1651 90.4751 69.3418C87.5565 70.9928 83.7158 71.7487 79.5004 71.8936C75.2696 72.039 70.5748 71.5717 65.8845 70.7036C56.8103 69.0239 47.6226 65.8204 41.67 62.5115L41.1043 62.1905C40.0538 61.584 39.045 60.933 38.0771 60.2443C37.6571 59.9454 37.5329 59.3764 37.7907 58.9299L46.7072 43.486C46.9834 43.0077 47.5949 42.8439 48.0732 43.12L90.4831 67.6053Z" stroke="white" stroke-width="2" stroke-linejoin="round"/>
<path d="M20.5 31.4641C21.6046 29.5509 24.0509 28.8954 25.9641 30L44.1506 40.5L39.6506 48.2942L21.4641 37.7942C19.5509 36.6897 18.8954 34.2433 20 32.3301L20.5 31.4641Z" fill="white"/>
<path d="M50.9715 66.0864C52.5671 64.722 57.0495 60.5999 60.9536 62.5966C65.8337 65.0924 67.7988 68.0213 71.1887 65.9072C74.5786 63.793 87.7534 64.889 90.0026 70.2718" stroke="white" stroke-width="2"/>
<path d="M91 74.75C91.453 74.75 91.849 75.0546 91.9658 75.4922L93.6699 81.8857C93.879 82.2937 94 82.7574 94 83.25C94 84.9069 92.6569 86.25 91 86.25C89.3431 86.25 88 84.9069 88 83.25C88 82.7574 88.121 82.2937 88.3301 81.8857L90.0342 75.4922L90.0898 75.335C90.2501 74.9832 90.6035 74.75 91 74.75Z" stroke="white" stroke-width="2" stroke-linejoin="round"/>
</svg>
