<svg width="116" height="138" viewBox="0 0 116 138" fill="none" xmlns="http://www.w3.org/2000/svg">
<circle cx="58" cy="58" r="54" stroke="white" stroke-width="2"/>
<path d="M39.7095 126.818H41.1811L44.6413 135.27H44.7607L48.2209 126.818H49.6925V137H48.5391V129.264H48.4396L45.2578 137H44.1442L40.9624 129.264H40.8629V137H39.7095V126.818ZM56.818 133.878V129.364H57.9913V137H56.818V135.707H56.7385C56.5595 136.095 56.2811 136.425 55.9032 136.697C55.5254 136.965 55.0481 137.099 54.4714 137.099C53.9941 137.099 53.5699 136.995 53.1987 136.786C52.8275 136.574 52.5358 136.256 52.3237 135.832C52.1116 135.404 52.0055 134.866 52.0055 134.216V129.364H53.1788V134.136C53.1788 134.693 53.3346 135.137 53.6461 135.469C53.961 135.8 54.362 135.966 54.8493 135.966C55.1409 135.966 55.4376 135.891 55.7392 135.742C56.0441 135.593 56.2993 135.364 56.5048 135.056C56.7136 134.748 56.818 134.355 56.818 133.878ZM65.5494 131.074L64.4954 131.372C64.4291 131.196 64.3313 131.026 64.2021 130.86C64.0761 130.691 63.9038 130.552 63.685 130.442C63.4663 130.333 63.1862 130.278 62.8448 130.278C62.3775 130.278 61.988 130.386 61.6765 130.602C61.3683 130.814 61.2141 131.084 61.2141 131.412C61.2141 131.704 61.3202 131.934 61.5323 132.103C61.7444 132.272 62.0759 132.413 62.5266 132.526L63.6602 132.804C64.3429 132.97 64.8517 133.223 65.1864 133.565C65.5212 133.903 65.6886 134.339 65.6886 134.872C65.6886 135.31 65.5626 135.701 65.3107 136.045C65.0621 136.39 64.7141 136.662 64.2667 136.861C63.8192 137.06 63.2989 137.159 62.7056 137.159C61.9267 137.159 61.2821 136.99 60.7717 136.652C60.2612 136.314 59.9381 135.82 59.8022 135.17L60.9158 134.892C61.0219 135.303 61.2224 135.611 61.5174 135.817C61.8157 136.022 62.2051 136.125 62.6857 136.125C63.2326 136.125 63.6668 136.009 63.9883 135.777C64.3131 135.542 64.4755 135.26 64.4755 134.932C64.4755 134.667 64.3827 134.445 64.1971 134.266C64.0115 134.083 63.7264 133.947 63.342 133.858L62.0692 133.56C61.3699 133.394 60.8562 133.137 60.5281 132.789C60.2032 132.438 60.0408 131.999 60.0408 131.472C60.0408 131.041 60.1618 130.66 60.4038 130.328C60.649 129.997 60.9821 129.737 61.4031 129.548C61.8273 129.359 62.3079 129.264 62.8448 129.264C63.6005 129.264 64.1938 129.43 64.6246 129.761C65.0588 130.093 65.3671 130.53 65.5494 131.074ZM67.4547 137V129.364H68.628V137H67.4547ZM68.0513 128.091C67.8226 128.091 67.6254 128.013 67.4597 127.857C67.2973 127.701 67.2161 127.514 67.2161 127.295C67.2161 127.077 67.2973 126.889 67.4597 126.734C67.6254 126.578 67.8226 126.5 68.0513 126.5C68.28 126.5 68.4756 126.578 68.638 126.734C68.8037 126.889 68.8865 127.077 68.8865 127.295C68.8865 127.514 68.8037 127.701 68.638 127.857C68.4756 128.013 68.28 128.091 68.0513 128.091ZM73.8793 137.159C73.1634 137.159 72.5469 136.99 72.0298 136.652C71.5128 136.314 71.1151 135.848 70.8366 135.255C70.5582 134.662 70.419 133.984 70.419 133.222C70.419 132.446 70.5616 131.762 70.8466 131.168C71.1349 130.572 71.536 130.106 72.0497 129.771C72.5668 129.433 73.17 129.264 73.8594 129.264C74.3963 129.264 74.8802 129.364 75.3111 129.562C75.742 129.761 76.0949 130.04 76.37 130.398C76.6451 130.756 76.8158 131.173 76.8821 131.651H75.7088C75.6193 131.303 75.4205 130.994 75.1122 130.726C74.8073 130.454 74.3963 130.318 73.8793 130.318C73.4219 130.318 73.0208 130.437 72.6761 130.676C72.3348 130.911 72.0679 131.245 71.8757 131.675C71.6868 132.103 71.5923 132.605 71.5923 133.182C71.5923 133.772 71.6851 134.286 71.8707 134.723C72.0597 135.161 72.3248 135.5 72.6662 135.742C73.0109 135.984 73.4152 136.105 73.8793 136.105C74.1842 136.105 74.4609 136.052 74.7095 135.946C74.9581 135.84 75.1686 135.688 75.3409 135.489C75.5133 135.29 75.6359 135.051 75.7088 134.773H76.8821C76.8158 135.223 76.6518 135.629 76.3899 135.991C76.1314 136.349 75.7884 136.634 75.3608 136.846C74.9366 137.055 74.4427 137.159 73.8793 137.159Z" fill="white"/>
<path d="M89 81H30V41H89V81ZM32 79H44V66H41V43H32V79ZM51 66H47V79H59V66H55V43H51V66ZM65 66H61V79H73V66H69V43H65V66ZM79 66H75V79H87V43H79V66ZM43 64H49V43H43V64ZM57 64H63V43H57V64ZM71 43V64H77V43H71Z" fill="white"/>
</svg>
