<svg width="116" height="136" viewBox="0 0 116 136" fill="none" xmlns="http://www.w3.org/2000/svg">
<circle cx="58" cy="58" r="54" stroke="white" stroke-width="2"/>
<path d="M42.3224 126.273H43.5838L46.5497 133.517H46.652L49.6179 126.273H50.8793V135H49.8906V128.369H49.8054L47.0781 135H46.1236L43.3963 128.369H43.3111V135H42.3224V126.273ZM56.9869 132.324V128.455H57.9925V135H56.9869V133.892H56.9187C56.7653 134.224 56.5266 134.507 56.2028 134.74C55.8789 134.97 55.4698 135.085 54.9755 135.085C54.5664 135.085 54.2028 134.996 53.8846 134.817C53.5664 134.635 53.3164 134.362 53.1346 133.999C52.9528 133.632 52.8619 133.17 52.8619 132.614V128.455H53.8675V132.545C53.8675 133.023 54.0011 133.403 54.2681 133.688C54.538 133.972 54.8817 134.114 55.2994 134.114C55.5494 134.114 55.8036 134.05 56.0621 133.922C56.3235 133.794 56.5423 133.598 56.7184 133.334C56.8974 133.07 56.9869 132.733 56.9869 132.324ZM64.4709 129.92L63.5675 130.176C63.5107 130.026 63.4268 129.879 63.3161 129.737C63.2081 129.592 63.0604 129.473 62.8729 129.379C62.6854 129.286 62.4453 129.239 62.1527 129.239C61.7521 129.239 61.4183 129.331 61.1513 129.516C60.8871 129.697 60.755 129.929 60.755 130.21C60.755 130.46 60.8459 130.658 61.0277 130.803C61.2095 130.947 61.4936 131.068 61.88 131.165L62.8516 131.403C63.4368 131.545 63.8729 131.763 64.1598 132.055C64.4467 132.345 64.5902 132.719 64.5902 133.176C64.5902 133.551 64.4822 133.886 64.2663 134.182C64.0533 134.477 63.755 134.71 63.3714 134.881C62.9879 135.051 62.5419 135.136 62.0334 135.136C61.3658 135.136 60.8132 134.991 60.3757 134.702C59.9382 134.412 59.6612 133.989 59.5447 133.432L60.4993 133.193C60.5902 133.545 60.7621 133.81 61.0149 133.986C61.2706 134.162 61.6044 134.25 62.0163 134.25C62.4851 134.25 62.8572 134.151 63.1328 133.952C63.4112 133.75 63.5504 133.509 63.5504 133.227C63.5504 133 63.4709 132.81 63.3118 132.656C63.1527 132.5 62.9084 132.384 62.5788 132.307L61.4879 132.051C60.8885 131.909 60.4482 131.689 60.1669 131.391C59.8885 131.089 59.7493 130.713 59.7493 130.261C59.7493 129.892 59.853 129.565 60.0604 129.281C60.2706 128.997 60.5561 128.774 60.9169 128.612C61.2805 128.45 61.6925 128.369 62.1527 128.369C62.8004 128.369 63.3089 128.511 63.6783 128.795C64.0504 129.08 64.3146 129.455 64.4709 129.92ZM66.104 135V128.455H67.1097V135H66.104ZM66.6154 127.364C66.4194 127.364 66.2504 127.297 66.1083 127.163C65.9691 127.03 65.8995 126.869 65.8995 126.682C65.8995 126.494 65.9691 126.334 66.1083 126.2C66.2504 126.067 66.4194 126 66.6154 126C66.8114 126 66.979 126.067 67.1183 126.2C67.2603 126.334 67.3313 126.494 67.3313 126.682C67.3313 126.869 67.2603 127.03 67.1183 127.163C66.979 127.297 66.8114 127.364 66.6154 127.364ZM71.6108 135.136C70.9972 135.136 70.4688 134.991 70.0256 134.702C69.5824 134.412 69.2415 134.013 69.0028 133.504C68.7642 132.996 68.6449 132.415 68.6449 131.761C68.6449 131.097 68.767 130.51 69.0114 130.001C69.2585 129.49 69.6023 129.091 70.0426 128.804C70.4858 128.514 71.0028 128.369 71.5938 128.369C72.054 128.369 72.4688 128.455 72.8381 128.625C73.2074 128.795 73.5099 129.034 73.7457 129.341C73.9815 129.648 74.1278 130.006 74.1847 130.415H73.179C73.1023 130.116 72.9318 129.852 72.6676 129.622C72.4063 129.389 72.054 129.273 71.6108 129.273C71.2188 129.273 70.875 129.375 70.5795 129.58C70.2869 129.781 70.0582 130.067 69.8935 130.436C69.7315 130.803 69.6506 131.233 69.6506 131.727C69.6506 132.233 69.7301 132.673 69.8892 133.048C70.0511 133.423 70.2784 133.714 70.571 133.922C70.8665 134.129 71.2131 134.233 71.6108 134.233C71.8722 134.233 72.1094 134.188 72.3224 134.097C72.5355 134.006 72.7159 133.875 72.8636 133.705C73.0114 133.534 73.1165 133.33 73.179 133.091H74.1847C74.1278 133.477 73.9872 133.825 73.7628 134.135C73.5412 134.442 73.2472 134.686 72.8807 134.868C72.517 135.047 72.0938 135.136 71.6108 135.136Z" fill="white"/>
<path d="M89 81H30V41H89V81ZM32 79H44V66H41V43H32V79ZM51 66H47V79H59V66H55V43H51V66ZM65 66H61V79H73V66H69V43H65V66ZM79 66H75V79H87V43H79V66ZM43 64H49V43H43V64ZM57 64H63V43H57V64ZM71 43V64H77V43H71Z" fill="white"/>
</svg>
