<svg width="116" height="138" viewBox="0 0 116 138" fill="none" xmlns="http://www.w3.org/2000/svg">
<circle cx="58" cy="58" r="54" stroke="white" stroke-width="2"/>
<path d="M35.9357 126.273H37.1971L40.163 133.517H40.2653L43.2312 126.273H44.4925V135H43.5039V128.369H43.4187L40.6914 135H39.7369L37.0096 128.369H36.9244V135H35.9357V126.273ZM47.1229 137.455C46.9524 137.455 46.8004 137.44 46.6669 137.412C46.5334 137.386 46.4411 137.361 46.3899 137.335L46.6456 136.449C46.8899 136.511 47.1058 136.534 47.2933 136.517C47.4808 136.5 47.647 136.416 47.7919 136.266C47.9396 136.118 48.0746 135.878 48.1967 135.545L48.3842 135.034L45.9638 128.455H47.0547L48.8615 133.67H48.9297L50.7365 128.455H51.8274L49.049 135.955C48.924 136.293 48.7692 136.572 48.5845 136.794C48.3999 137.018 48.1854 137.185 47.9411 137.293C47.6996 137.401 47.4268 137.455 47.1229 137.455ZM57.7912 129.92L56.8878 130.176C56.831 130.026 56.7472 129.879 56.6364 129.737C56.5284 129.592 56.3807 129.473 56.1932 129.379C56.0057 129.286 55.7656 129.239 55.473 129.239C55.0724 129.239 54.7386 129.331 54.4716 129.516C54.2074 129.697 54.0753 129.929 54.0753 130.21C54.0753 130.46 54.1662 130.658 54.348 130.803C54.5298 130.947 54.8139 131.068 55.2003 131.165L56.1719 131.403C56.7571 131.545 57.1932 131.763 57.4801 132.055C57.767 132.345 57.9105 132.719 57.9105 133.176C57.9105 133.551 57.8026 133.886 57.5866 134.182C57.3736 134.477 57.0753 134.71 56.6918 134.881C56.3082 135.051 55.8622 135.136 55.3537 135.136C54.6861 135.136 54.1335 134.991 53.696 134.702C53.2585 134.412 52.9815 133.989 52.8651 133.432L53.8196 133.193C53.9105 133.545 54.0824 133.81 54.3352 133.986C54.5909 134.162 54.9247 134.25 55.3366 134.25C55.8054 134.25 56.1776 134.151 56.4531 133.952C56.7315 133.75 56.8707 133.509 56.8707 133.227C56.8707 133 56.7912 132.81 56.6321 132.656C56.473 132.5 56.2287 132.384 55.8991 132.307L54.8082 132.051C54.2088 131.909 53.7685 131.689 53.4872 131.391C53.2088 131.089 53.0696 130.713 53.0696 130.261C53.0696 129.892 53.1733 129.565 53.3807 129.281C53.5909 128.997 53.8764 128.774 54.2372 128.612C54.6009 128.45 55.0128 128.369 55.473 128.369C56.1207 128.369 56.6293 128.511 56.9986 128.795C57.3707 129.08 57.6349 129.455 57.7912 129.92ZM62.271 128.455V129.307H58.8789V128.455H62.271ZM59.8675 126.886H60.8732V133.125C60.8732 133.409 60.9144 133.622 60.9968 133.764C61.082 133.903 61.19 133.997 61.3207 134.045C61.4542 134.091 61.5948 134.114 61.7425 134.114C61.8533 134.114 61.9442 134.108 62.0153 134.097C62.0863 134.082 62.1431 134.071 62.1857 134.062L62.3903 134.966C62.3221 134.991 62.2269 135.017 62.1048 135.043C61.9826 135.071 61.8278 135.085 61.6403 135.085C61.3562 135.085 61.0778 135.024 60.805 134.902C60.5352 134.78 60.3107 134.594 60.1317 134.344C59.9556 134.094 59.8675 133.778 59.8675 133.398V126.886ZM66.4577 135.136C65.8271 135.136 65.283 134.997 64.8256 134.719C64.3711 134.438 64.0202 134.045 63.7731 133.543C63.5288 133.037 63.4066 132.449 63.4066 131.778C63.4066 131.108 63.5288 130.517 63.7731 130.006C64.0202 129.491 64.364 129.091 64.8043 128.804C65.2475 128.514 65.7646 128.369 66.3555 128.369C66.6964 128.369 67.033 128.426 67.3654 128.54C67.6978 128.653 68.0004 128.838 68.2731 129.094C68.5458 129.347 68.7631 129.682 68.9251 130.099C69.087 130.517 69.168 131.031 69.168 131.642V132.068H64.1225V131.199H68.1452C68.1452 130.83 68.0714 130.5 67.9237 130.21C67.7788 129.92 67.5714 129.692 67.3015 129.524C67.0344 129.357 66.7191 129.273 66.3555 129.273C65.9549 129.273 65.6083 129.372 65.3157 129.571C65.0259 129.767 64.8029 130.023 64.6467 130.338C64.4904 130.653 64.4123 130.991 64.4123 131.352V131.932C64.4123 132.426 64.4975 132.845 64.668 133.189C64.8413 133.53 65.0813 133.79 65.3881 133.969C65.695 134.145 66.0515 134.233 66.4577 134.233C66.7219 134.233 66.9606 134.196 67.1737 134.122C67.3896 134.045 67.5756 133.932 67.7319 133.781C67.8881 133.628 68.0089 133.437 68.0941 133.21L69.0657 133.483C68.9634 133.812 68.7915 134.102 68.5501 134.352C68.3086 134.599 68.0103 134.793 67.6552 134.932C67.3001 135.068 66.9009 135.136 66.4577 135.136ZM70.6978 135V128.455H71.6694V129.443H71.7376C71.8569 129.119 72.0728 128.857 72.3853 128.655C72.6978 128.453 73.0501 128.352 73.4421 128.352C73.516 128.352 73.6083 128.354 73.7191 128.357C73.8299 128.359 73.9137 128.364 73.9705 128.369V129.392C73.9364 129.384 73.8583 129.371 73.7362 129.354C73.6168 129.334 73.4904 129.324 73.3569 129.324C73.0387 129.324 72.7546 129.391 72.5046 129.524C72.2575 129.655 72.0614 129.837 71.9165 130.07C71.7745 130.3 71.7035 130.562 71.7035 130.858V135H70.6978ZM76.0096 137.455C75.8391 137.455 75.6871 137.44 75.5536 137.412C75.4201 137.386 75.3278 137.361 75.2766 137.335L75.5323 136.449C75.7766 136.511 75.9925 136.534 76.18 136.517C76.3675 136.5 76.5337 136.416 76.6786 136.266C76.8263 136.118 76.9613 135.878 77.0835 135.545L77.271 135.034L74.8505 128.455H75.9414L77.7482 133.67H77.8164L79.6232 128.455H80.7141L77.9357 135.955C77.8107 136.293 77.6559 136.572 77.4712 136.794C77.2866 137.018 77.0721 137.185 76.8278 137.293C76.5863 137.401 76.3136 137.455 76.0096 137.455Z" fill="white"/>
<mask id="path-3-outside-1_28_739" maskUnits="userSpaceOnUse" x="41" y="45" width="32" height="22" fill="black">
<rect fill="white" x="41" y="45" width="32" height="22"/>
<path d="M57.001 47C62.3304 47.0001 67.0559 50.5405 70 56C67.0559 61.4594 62.3303 64.9999 57.001 65C51.6713 65 46.9442 61.4598 44 56C46.9442 50.5401 51.6713 47 57.001 47Z"/>
</mask>
<path d="M57.001 47L57.001 45H57.001V47ZM70 56L71.7603 56.9493L72.2723 56L71.7603 55.0507L70 56ZM57.001 65V67H57.001L57.001 65ZM44 56L42.2396 55.0507L41.7277 56L42.2396 56.9493L44 56ZM57.001 47L57.0009 49C61.3699 49.0001 65.5228 51.9113 68.2397 56.9493L70 56L71.7603 55.0507C68.589 49.1698 63.2909 45.0001 57.001 45L57.001 47ZM70 56L68.2397 55.0507C65.5228 60.0886 61.3698 62.9999 57.0009 63L57.001 65L57.001 67C63.2908 66.9998 68.589 62.8301 71.7603 56.9493L70 56ZM57.001 65V63C52.6315 63 48.4771 60.0888 45.7604 55.0507L44 56L42.2396 56.9493C45.4112 62.8308 50.7111 67 57.001 67V65ZM44 56L45.7604 56.9493C48.4771 51.9112 52.6315 49 57.001 49V47V45C50.711 45 45.4112 49.1691 42.2396 55.0507L44 56Z" fill="white" mask="url(#path-3-outside-1_28_739)"/>
<path d="M57 46C60.3137 46 63 48.6863 63 52C63 55.3137 60.3137 58 57 58C53.6863 58 51 55.3137 51 52C51 48.6863 53.6863 46 57 46ZM59 48C57.8954 48 57 48.8954 57 50C57 51.1046 57.8954 52 59 52C60.1046 52 61 51.1046 61 50C61 48.8954 60.1046 48 59 48Z" fill="white"/>
<circle cx="57" cy="56" r="27" stroke="white" stroke-width="2"/>
<path d="M76 75.5L83 82.5" stroke="white" stroke-width="2"/>
<path d="M99.1682 92.8256L86.0269 79.6843L80.1738 85.5374L93.3151 98.6787" stroke="white" stroke-width="2"/>
</svg>
