<svg width="116" height="140" viewBox="0 0 116 140" fill="none" xmlns="http://www.w3.org/2000/svg">
<circle cx="58" cy="58" r="54" stroke="white" stroke-width="2"/>
<path d="M32.2583 126.818H33.7299L37.1902 135.27H37.3095L40.7697 126.818H42.2413V137H41.0879V129.264H40.9885L37.8066 137H36.693L33.5112 129.264H33.4118V137H32.2583V126.818ZM45.31 139.864C45.1112 139.864 44.9338 139.847 44.7781 139.814C44.6223 139.784 44.5146 139.754 44.4549 139.724L44.7532 138.69C45.0382 138.763 45.2901 138.79 45.5089 138.77C45.7276 138.75 45.9215 138.652 46.0906 138.477C46.2629 138.304 46.4203 138.024 46.5629 137.636L46.7816 137.04L43.9577 129.364H45.2305L47.3384 135.449H47.418L49.5259 129.364H50.7987L47.5572 138.114C47.4113 138.508 47.2307 138.835 47.0153 139.093C46.7998 139.355 46.5496 139.549 46.2646 139.675C45.9828 139.801 45.6647 139.864 45.31 139.864ZM57.7564 131.074L56.7024 131.372C56.6361 131.196 56.5384 131.026 56.4091 130.86C56.2831 130.691 56.1108 130.552 55.892 130.442C55.6733 130.333 55.3932 130.278 55.0518 130.278C54.5845 130.278 54.1951 130.386 53.8835 130.602C53.5753 130.814 53.4212 131.084 53.4212 131.412C53.4212 131.704 53.5272 131.934 53.7393 132.103C53.9515 132.272 54.2829 132.413 54.7337 132.526L55.8672 132.804C56.55 132.97 57.0587 133.223 57.3935 133.565C57.7282 133.903 57.8956 134.339 57.8956 134.872C57.8956 135.31 57.7696 135.701 57.5178 136.045C57.2692 136.39 56.9212 136.662 56.4737 136.861C56.0263 137.06 55.5059 137.159 54.9126 137.159C54.1338 137.159 53.4891 136.99 52.9787 136.652C52.4683 136.314 52.1451 135.82 52.0092 135.17L53.1229 134.892C53.2289 135.303 53.4295 135.611 53.7244 135.817C54.0227 136.022 54.4122 136.125 54.8928 136.125C55.4396 136.125 55.8738 136.009 56.1953 135.777C56.5201 135.542 56.6825 135.26 56.6825 134.932C56.6825 134.667 56.5897 134.445 56.4041 134.266C56.2185 134.083 55.9335 133.947 55.549 133.858L54.2763 133.56C53.5769 133.394 53.0632 133.137 52.7351 132.789C52.4103 132.438 52.2479 131.999 52.2479 131.472C52.2479 131.041 52.3688 130.66 52.6108 130.328C52.8561 129.997 53.1892 129.737 53.6101 129.548C54.0343 129.359 54.5149 129.264 55.0518 129.264C55.8075 129.264 56.4008 129.43 56.8317 129.761C57.2659 130.093 57.5741 130.53 57.7564 131.074ZM62.9828 129.364V130.358H59.0254V129.364H62.9828ZM60.1788 127.534H61.3521V134.812C61.3521 135.144 61.4002 135.393 61.4963 135.558C61.5957 135.721 61.7217 135.83 61.8741 135.886C62.0299 135.939 62.194 135.966 62.3663 135.966C62.4956 135.966 62.6016 135.959 62.6845 135.946C62.7673 135.929 62.8336 135.916 62.8833 135.906L63.122 136.96C63.0424 136.99 62.9314 137.02 62.7889 137.05C62.6464 137.083 62.4657 137.099 62.247 137.099C61.9155 137.099 61.5907 137.028 61.2725 136.886C60.9577 136.743 60.6958 136.526 60.487 136.234C60.2815 135.943 60.1788 135.575 60.1788 135.131V127.534ZM67.8674 137.159C67.1316 137.159 66.4969 136.997 65.9632 136.672C65.4329 136.344 65.0236 135.886 64.7353 135.3C64.4502 134.71 64.3077 134.024 64.3077 133.241C64.3077 132.459 64.4502 131.77 64.7353 131.173C65.0236 130.573 65.4247 130.106 65.9384 129.771C66.4554 129.433 67.0587 129.264 67.748 129.264C68.1458 129.264 68.5385 129.33 68.9263 129.463C69.3141 129.596 69.6671 129.811 69.9853 130.109C70.3034 130.404 70.557 130.795 70.7459 131.283C70.9348 131.77 71.0293 132.37 71.0293 133.082V133.58H65.1429V132.565H69.8361C69.8361 132.134 69.7499 131.75 69.5776 131.412C69.4086 131.074 69.1666 130.807 68.8517 130.612C68.5402 130.416 68.1723 130.318 67.748 130.318C67.2807 130.318 66.8764 130.434 66.535 130.666C66.1969 130.895 65.9367 131.193 65.7544 131.561C65.5721 131.929 65.481 132.323 65.481 132.744V133.42C65.481 133.997 65.5804 134.486 65.7793 134.887C65.9815 135.285 66.2615 135.588 66.6195 135.797C66.9775 136.002 67.3934 136.105 67.8674 136.105C68.1756 136.105 68.454 136.062 68.7026 135.976C68.9545 135.886 69.1716 135.754 69.3539 135.578C69.5362 135.399 69.677 135.177 69.7765 134.912L70.91 135.23C70.7907 135.615 70.5901 135.953 70.3084 136.244C70.0267 136.533 69.6787 136.758 69.2644 136.92C68.8501 137.08 68.3844 137.159 67.8674 137.159ZM72.8141 137V129.364H73.9476V130.517H74.0272C74.1664 130.139 74.4183 129.833 74.7828 129.597C75.1474 129.362 75.5584 129.244 76.0158 129.244C76.102 129.244 76.2097 129.246 76.339 129.249C76.4682 129.253 76.566 129.258 76.6323 129.264V130.457C76.5925 130.447 76.5014 130.433 76.3588 130.413C76.2196 130.389 76.0721 130.378 75.9164 130.378C75.5452 130.378 75.2137 130.456 74.9221 130.612C74.6337 130.764 74.405 130.976 74.236 131.248C74.0703 131.516 73.9874 131.823 73.9874 132.168V137H72.8141ZM79.0112 139.864C78.8123 139.864 78.635 139.847 78.4792 139.814C78.3234 139.784 78.2157 139.754 78.1561 139.724L78.4544 138.69C78.7394 138.763 78.9913 138.79 79.21 138.77C79.4288 138.75 79.6227 138.652 79.7917 138.477C79.9641 138.304 80.1215 138.024 80.264 137.636L80.4828 137.04L77.6589 129.364H78.9316L81.0396 135.449H81.1191L83.2271 129.364H84.4998L81.2583 138.114C81.1125 138.508 80.9319 138.835 80.7164 139.093C80.501 139.355 80.2508 139.549 79.9657 139.675C79.684 139.801 79.3658 139.864 79.0112 139.864Z" fill="white"/>
<mask id="path-3-outside-1_28_739" maskUnits="userSpaceOnUse" x="41" y="45" width="32" height="22" fill="black">
<rect fill="white" x="41" y="45" width="32" height="22"/>
<path d="M57.001 47C62.3304 47.0001 67.0559 50.5405 70 56C67.0559 61.4594 62.3303 64.9999 57.001 65C51.6713 65 46.9442 61.4598 44 56C46.9442 50.5401 51.6713 47 57.001 47Z"/>
</mask>
<path d="M57.001 47L57.001 45H57.001V47ZM70 56L71.7603 56.9493L72.2723 56L71.7603 55.0507L70 56ZM57.001 65V67H57.001L57.001 65ZM44 56L42.2396 55.0507L41.7277 56L42.2396 56.9493L44 56ZM57.001 47L57.0009 49C61.3699 49.0001 65.5228 51.9113 68.2397 56.9493L70 56L71.7603 55.0507C68.589 49.1698 63.2909 45.0001 57.001 45L57.001 47ZM70 56L68.2397 55.0507C65.5228 60.0886 61.3698 62.9999 57.0009 63L57.001 65L57.001 67C63.2908 66.9998 68.589 62.8301 71.7603 56.9493L70 56ZM57.001 65V63C52.6315 63 48.4771 60.0888 45.7604 55.0507L44 56L42.2396 56.9493C45.4112 62.8308 50.7111 67 57.001 67V65ZM44 56L45.7604 56.9493C48.4771 51.9112 52.6315 49 57.001 49V47V45C50.711 45 45.4112 49.1691 42.2396 55.0507L44 56Z" fill="white" mask="url(#path-3-outside-1_28_739)"/>
<path d="M57 46C60.3137 46 63 48.6863 63 52C63 55.3137 60.3137 58 57 58C53.6863 58 51 55.3137 51 52C51 48.6863 53.6863 46 57 46ZM59 48C57.8954 48 57 48.8954 57 50C57 51.1046 57.8954 52 59 52C60.1046 52 61 51.1046 61 50C61 48.8954 60.1046 48 59 48Z" fill="white"/>
<circle cx="57" cy="56" r="27" stroke="white" stroke-width="2"/>
<path d="M76 75.5L83 82.5" stroke="white" stroke-width="2"/>
<path d="M99.1682 92.8256L86.0269 79.6843L80.1738 85.5374L93.3151 98.6787" stroke="white" stroke-width="2"/>
</svg>
