<svg width="116" height="138" viewBox="0 0 116 138" fill="none" xmlns="http://www.w3.org/2000/svg">
<circle cx="58" cy="58" r="54" stroke="white" stroke-width="2"/>
<path d="M28.5123 137V126.818H31.9526C32.748 126.818 33.401 126.954 33.9114 127.226C34.4218 127.494 34.7997 127.864 35.0449 128.335C35.2902 128.805 35.4128 129.34 35.4128 129.94C35.4128 130.54 35.2902 131.072 35.0449 131.536C34.7997 132 34.4235 132.365 33.9164 132.63C33.4093 132.892 32.7613 133.023 31.9725 133.023H29.1884V131.909H31.9327C32.4763 131.909 32.9138 131.83 33.2452 131.67C33.58 131.511 33.8219 131.286 33.9711 130.994C34.1235 130.699 34.1998 130.348 34.1998 129.94C34.1998 129.533 34.1235 129.176 33.9711 128.871C33.8186 128.567 33.575 128.331 33.2402 128.165C32.9055 127.996 32.463 127.912 31.9128 127.912H29.7452V137H28.5123ZM33.3049 132.426L35.8105 137H34.3787L31.9128 132.426H33.3049ZM40.3285 137.159C39.6391 137.159 39.0342 136.995 38.5138 136.667C37.9968 136.339 37.5924 135.88 37.3008 135.29C37.0124 134.7 36.8683 134.01 36.8683 133.222C36.8683 132.426 37.0124 131.732 37.3008 131.138C37.5924 130.545 37.9968 130.085 38.5138 129.756C39.0342 129.428 39.6391 129.264 40.3285 129.264C41.0179 129.264 41.6211 129.428 42.1381 129.756C42.6585 130.085 43.0629 130.545 43.3512 131.138C43.6429 131.732 43.7887 132.426 43.7887 133.222C43.7887 134.01 43.6429 134.7 43.3512 135.29C43.0629 135.88 42.6585 136.339 42.1381 136.667C41.6211 136.995 41.0179 137.159 40.3285 137.159ZM40.3285 136.105C40.8522 136.105 41.283 135.971 41.6211 135.702C41.9592 135.434 42.2094 135.081 42.3718 134.643C42.5342 134.206 42.6154 133.732 42.6154 133.222C42.6154 132.711 42.5342 132.236 42.3718 131.795C42.2094 131.354 41.9592 130.998 41.6211 130.726C41.283 130.454 40.8522 130.318 40.3285 130.318C39.8048 130.318 39.3739 130.454 39.0359 130.726C38.6978 130.998 38.4476 131.354 38.2852 131.795C38.1228 132.236 38.0415 132.711 38.0415 133.222C38.0415 133.732 38.1228 134.206 38.2852 134.643C38.4476 135.081 38.6978 135.434 39.0359 135.702C39.3739 135.971 39.8048 136.105 40.3285 136.105ZM45.5797 137V129.364H46.7132V130.557H46.8127C46.9718 130.149 47.2286 129.833 47.5833 129.607C47.9379 129.379 48.3638 129.264 48.861 129.264C49.3648 129.264 49.784 129.379 50.1188 129.607C50.4569 129.833 50.7203 130.149 50.9093 130.557H50.9888C51.1844 130.162 51.4777 129.849 51.8688 129.617C52.2599 129.382 52.7289 129.264 53.2757 129.264C53.9585 129.264 54.517 129.478 54.9512 129.906C55.3854 130.33 55.6025 130.991 55.6025 131.889V137H54.4292V131.889C54.4292 131.326 54.275 130.923 53.9668 130.681C53.6586 130.439 53.2956 130.318 52.878 130.318C52.3411 130.318 51.9251 130.481 51.6301 130.805C51.3352 131.127 51.1877 131.535 51.1877 132.028V137H49.9945V131.77C49.9945 131.336 49.8536 130.986 49.5719 130.721C49.2902 130.452 48.9273 130.318 48.4831 130.318C48.1782 130.318 47.8932 130.399 47.628 130.562C47.3662 130.724 47.1541 130.95 46.9917 131.238C46.8326 131.523 46.753 131.853 46.753 132.227V137H45.5797ZM59.9949 137.179C59.5109 137.179 59.0718 137.088 58.6774 136.906C58.283 136.72 57.9698 136.453 57.7377 136.105C57.5057 135.754 57.3897 135.33 57.3897 134.832C57.3897 134.395 57.4759 134.04 57.6483 133.768C57.8206 133.493 58.051 133.278 58.3393 133.122C58.6277 132.966 58.9458 132.85 59.2939 132.774C59.6452 132.695 59.9982 132.632 60.3528 132.585C60.8168 132.526 61.193 132.481 61.4814 132.451C61.773 132.418 61.9851 132.363 62.1177 132.287C62.2536 132.211 62.3216 132.078 62.3216 131.889V131.849C62.3216 131.359 62.1873 130.978 61.9189 130.706C61.6537 130.434 61.251 130.298 60.7108 130.298C60.1506 130.298 59.7115 130.421 59.3933 130.666C59.0751 130.911 58.8514 131.173 58.7221 131.452L57.6085 131.054C57.8074 130.59 58.0725 130.229 58.4039 129.97C58.7387 129.708 59.1033 129.526 59.4977 129.423C59.8954 129.317 60.2865 129.264 60.671 129.264C60.9163 129.264 61.198 129.294 61.5162 129.354C61.8377 129.41 62.1475 129.528 62.4458 129.707C62.7475 129.886 62.9977 130.156 63.1966 130.517C63.3954 130.878 63.4949 131.362 63.4949 131.969V137H62.3216V135.966H62.2619C62.1824 136.132 62.0498 136.309 61.8642 136.498C61.6786 136.687 61.4316 136.848 61.1234 136.98C60.8152 137.113 60.439 137.179 59.9949 137.179ZM60.1738 136.125C60.6378 136.125 61.0289 136.034 61.3471 135.852C61.6686 135.669 61.9106 135.434 62.073 135.146C62.2387 134.857 62.3216 134.554 62.3216 134.236V133.162C62.2718 133.222 62.1625 133.276 61.9934 133.326C61.8277 133.372 61.6355 133.414 61.4167 133.45C61.2013 133.483 60.9908 133.513 60.7853 133.54C60.5832 133.563 60.4191 133.583 60.2931 133.599C59.9882 133.639 59.7032 133.704 59.438 133.793C59.1762 133.879 58.9641 134.01 58.8017 134.186C58.6426 134.358 58.563 134.594 58.563 134.892C58.563 135.3 58.7138 135.608 59.0154 135.817C59.3204 136.022 59.7065 136.125 60.1738 136.125ZM66.8097 132.406V137H65.6364V129.364H66.7699V130.557H66.8693C67.0483 130.169 67.3201 129.857 67.6847 129.622C68.0492 129.384 68.5199 129.264 69.0966 129.264C69.6136 129.264 70.0661 129.37 70.4538 129.582C70.8416 129.791 71.1432 130.109 71.3587 130.537C71.5741 130.961 71.6818 131.498 71.6818 132.148V137H70.5085V132.227C70.5085 131.627 70.3527 131.16 70.0412 130.825C69.7296 130.487 69.3021 130.318 68.7585 130.318C68.384 130.318 68.0492 130.399 67.7543 130.562C67.4626 130.724 67.2322 130.961 67.0632 131.273C66.8942 131.584 66.8097 131.962 66.8097 132.406ZM76.9281 137.159C76.2122 137.159 75.5957 136.99 75.0787 136.652C74.5616 136.314 74.1639 135.848 73.8855 135.255C73.6071 134.662 73.4679 133.984 73.4679 133.222C73.4679 132.446 73.6104 131.762 73.8954 131.168C74.1838 130.572 74.5848 130.106 75.0985 129.771C75.6156 129.433 76.2188 129.264 76.9082 129.264C77.4451 129.264 77.929 129.364 78.3599 129.562C78.7908 129.761 79.1438 130.04 79.4189 130.398C79.694 130.756 79.8646 131.173 79.9309 131.651H78.7576C78.6681 131.303 78.4693 130.994 78.161 130.726C77.8561 130.454 77.4451 130.318 76.9281 130.318C76.4707 130.318 76.0697 130.437 75.725 130.676C75.3836 130.911 75.1168 131.245 74.9245 131.675C74.7356 132.103 74.6412 132.605 74.6412 133.182C74.6412 133.772 74.734 134.286 74.9196 134.723C75.1085 135.161 75.3736 135.5 75.715 135.742C76.0597 135.984 76.4641 136.105 76.9281 136.105C77.233 136.105 77.5098 136.052 77.7583 135.946C78.0069 135.84 78.2174 135.688 78.3897 135.489C78.5621 135.29 78.6847 135.051 78.7576 134.773H79.9309C79.8646 135.223 79.7006 135.629 79.4387 135.991C79.1802 136.349 78.8372 136.634 78.4096 136.846C77.9854 137.055 77.4915 137.159 76.9281 137.159ZM84.8478 137.159C84.112 137.159 83.4773 136.997 82.9437 136.672C82.4134 136.344 82.0041 135.886 81.7157 135.3C81.4307 134.71 81.2882 134.024 81.2882 133.241C81.2882 132.459 81.4307 131.77 81.7157 131.173C82.0041 130.573 82.4051 130.106 82.9189 129.771C83.4359 129.433 84.0391 129.264 84.7285 129.264C85.1262 129.264 85.519 129.33 85.9068 129.463C86.2946 129.596 86.6476 129.811 86.9657 130.109C87.2839 130.404 87.5375 130.795 87.7264 131.283C87.9153 131.77 88.0098 132.37 88.0098 133.082V133.58H82.1234V132.565H86.8166C86.8166 132.134 86.7304 131.75 86.5581 131.412C86.389 131.074 86.1471 130.807 85.8322 130.612C85.5207 130.416 85.1528 130.318 84.7285 130.318C84.2612 130.318 83.8568 130.434 83.5154 130.666C83.1774 130.895 82.9172 131.193 82.7349 131.561C82.5526 131.929 82.4615 132.323 82.4615 132.744V133.42C82.4615 133.997 82.5609 134.486 82.7598 134.887C82.9619 135.285 83.242 135.588 83.6 135.797C83.9579 136.002 84.3739 136.105 84.8478 136.105C85.1561 136.105 85.4345 136.062 85.6831 135.976C85.935 135.886 86.152 135.754 86.3343 135.578C86.5166 135.399 86.6575 135.177 86.7569 134.912L87.8904 135.23C87.7711 135.615 87.5706 135.953 87.2889 136.244C87.0072 136.533 86.6592 136.758 86.2449 136.92C85.8306 137.08 85.3649 137.159 84.8478 137.159Z" fill="white"/>
<path d="M65.7373 41.75C73.6132 41.7503 80 48.1271 80 55.9961C80 60.3361 78.053 64.2192 74.9922 66.8301L56.3184 84.4766C55.942 84.8322 55.3565 84.8421 54.9688 84.499L35.0303 66.8506L34.7451 66.6025C31.8355 63.9963 30 60.2111 30 55.9961C30 48.1271 36.3868 41.7502 44.2627 41.75C48.5465 41.75 52.3871 43.6389 55 46.623C57.6129 43.6389 61.4535 41.75 65.7373 41.75Z" stroke="white" stroke-width="2" stroke-linecap="round" stroke-linejoin="round"/>
<path d="M35 86L45 76" stroke="white" stroke-width="2"/>
<path d="M32 89L34.5 86.5" stroke="white" stroke-width="2"/>
<path d="M71 50L81.5 39.5" stroke="white" stroke-width="2"/>
<path d="M32.0003 82.9997H37.9997V88.9992" stroke="white" stroke-width="2"/>
<path d="M36.0003 78.9997H41.9997V84.9992" stroke="white" stroke-width="2"/>
<path d="M87.0848 33.2089L76 37.876L81.834 39.0431L83.0005 44.8765L87.0848 33.2089Z" stroke="white" stroke-width="2" stroke-linejoin="round"/>
<path d="M74 51C71.7909 51 70 49.2091 70 47" stroke="white" stroke-width="2"/>
<path d="M90 30L92 28" stroke="white" stroke-width="2" stroke-linecap="round"/>
<path d="M86.3658 29.366L85.6338 26.6339" stroke="white" stroke-width="2" stroke-linecap="round"/>
<path d="M93.7321 34.7321L91 34" stroke="white" stroke-width="2" stroke-linecap="round"/>
</svg>
