<svg width="116" height="136" viewBox="0 0 116 136" fill="none" xmlns="http://www.w3.org/2000/svg">
<circle cx="58" cy="58" r="54" stroke="white" stroke-width="2"/>
<path d="M32.7248 135V126.273H35.6737C36.3555 126.273 36.9151 126.389 37.3526 126.622C37.7901 126.852 38.114 127.169 38.3242 127.572C38.5344 127.976 38.6396 128.435 38.6396 128.949C38.6396 129.463 38.5344 129.919 38.3242 130.317C38.114 130.714 37.7915 131.027 37.3569 131.254C36.9222 131.479 36.3668 131.591 35.6907 131.591H33.3043V130.636H35.6566C36.1225 130.636 36.4975 130.568 36.7816 130.432C37.0685 130.295 37.2759 130.102 37.4038 129.852C37.5344 129.599 37.5998 129.298 37.5998 128.949C37.5998 128.599 37.5344 128.294 37.4038 128.033C37.2731 127.771 37.0643 127.57 36.7773 127.428C36.4904 127.283 36.1112 127.21 35.6396 127.21H33.7816V135H32.7248ZM36.8327 131.08L38.9805 135H37.7532L35.6396 131.08H36.8327ZM42.853 135.136C42.2621 135.136 41.7436 134.996 41.2976 134.714C40.8544 134.433 40.5078 134.04 40.2578 133.534C40.0107 133.028 39.8871 132.437 39.8871 131.761C39.8871 131.08 40.0107 130.484 40.2578 129.976C40.5078 129.467 40.8544 129.072 41.2976 128.791C41.7436 128.51 42.2621 128.369 42.853 128.369C43.4439 128.369 43.9609 128.51 44.4041 128.791C44.8501 129.072 45.1967 129.467 45.4439 129.976C45.6939 130.484 45.8189 131.08 45.8189 131.761C45.8189 132.437 45.6939 133.028 45.4439 133.534C45.1967 134.04 44.8501 134.433 44.4041 134.714C43.9609 134.996 43.4439 135.136 42.853 135.136ZM42.853 134.233C43.3018 134.233 43.6712 134.118 43.9609 133.888C44.2507 133.658 44.4652 133.355 44.6044 132.98C44.7436 132.605 44.8132 132.199 44.8132 131.761C44.8132 131.324 44.7436 130.916 44.6044 130.538C44.4652 130.161 44.2507 129.855 43.9609 129.622C43.6712 129.389 43.3018 129.273 42.853 129.273C42.4041 129.273 42.0348 129.389 41.745 129.622C41.4553 129.855 41.2408 130.161 41.1016 130.538C40.9624 130.916 40.8928 131.324 40.8928 131.761C40.8928 132.199 40.9624 132.605 41.1016 132.98C41.2408 133.355 41.4553 133.658 41.745 133.888C42.0348 134.118 42.4041 134.233 42.853 134.233ZM47.354 135V128.455H48.3256V129.477H48.4109C48.5472 129.128 48.7674 128.857 49.0714 128.663C49.3754 128.467 49.7404 128.369 50.1665 128.369C50.5984 128.369 50.9577 128.467 51.2447 128.663C51.5344 128.857 51.7603 129.128 51.9222 129.477H51.9904C52.158 129.139 52.4094 128.871 52.7447 128.672C53.0799 128.47 53.4819 128.369 53.9506 128.369C54.5359 128.369 55.0146 128.553 55.3867 128.919C55.7589 129.283 55.945 129.849 55.945 130.619V135H54.9393V130.619C54.9393 130.136 54.8072 129.791 54.543 129.584C54.2788 129.376 53.9677 129.273 53.6097 129.273C53.1495 129.273 52.793 129.412 52.5401 129.69C52.2873 129.966 52.1609 130.315 52.1609 130.739V135H51.1381V130.517C51.1381 130.145 51.0174 129.845 50.7759 129.618C50.5344 129.388 50.2234 129.273 49.8427 129.273C49.5813 129.273 49.337 129.342 49.1097 129.482C48.8853 129.621 48.7035 129.814 48.5643 130.061C48.4279 130.305 48.3597 130.588 48.3597 130.909V135H47.354ZM59.7099 135.153C59.2951 135.153 58.9187 135.075 58.5806 134.919C58.2425 134.76 57.9741 134.531 57.7752 134.233C57.5763 133.932 57.4769 133.568 57.4769 133.142C57.4769 132.767 57.5508 132.463 57.6985 132.23C57.8462 131.994 58.0437 131.81 58.2908 131.676C58.538 131.543 58.8107 131.443 59.109 131.378C59.4102 131.31 59.7127 131.256 60.0167 131.216C60.4144 131.165 60.7369 131.126 60.984 131.101C61.234 131.072 61.4158 131.026 61.5295 130.96C61.646 130.895 61.7042 130.781 61.7042 130.619V130.585C61.7042 130.165 61.5891 129.838 61.359 129.605C61.1317 129.372 60.7866 129.256 60.3235 129.256C59.8434 129.256 59.467 129.361 59.1942 129.571C58.9215 129.781 58.7298 130.006 58.619 130.244L57.6644 129.903C57.8349 129.506 58.0621 129.196 58.3462 128.974C58.6332 128.75 58.9457 128.594 59.2837 128.506C59.6246 128.415 59.9599 128.369 60.2894 128.369C60.4996 128.369 60.7411 128.395 61.0138 128.446C61.2894 128.494 61.555 128.595 61.8107 128.749C62.0692 128.902 62.2837 129.134 62.4542 129.443C62.6246 129.753 62.7099 130.168 62.7099 130.688V135H61.7042V134.114H61.6531C61.5849 134.256 61.4712 134.408 61.3121 134.57C61.1531 134.732 60.9414 134.869 60.6772 134.983C60.413 135.097 60.0906 135.153 59.7099 135.153ZM59.8633 134.25C60.261 134.25 60.5962 134.172 60.869 134.016C61.1445 133.859 61.3519 133.658 61.4911 133.411C61.6332 133.163 61.7042 132.903 61.7042 132.631V131.71C61.6616 131.761 61.5678 131.808 61.4229 131.851C61.2809 131.891 61.1161 131.926 60.9286 131.957C60.744 131.986 60.5636 132.011 60.3874 132.034C60.2141 132.054 60.0735 132.071 59.9656 132.085C59.7042 132.119 59.4599 132.175 59.2326 132.251C59.0082 132.325 58.8263 132.437 58.6871 132.588C58.5508 132.736 58.4826 132.937 58.4826 133.193C58.4826 133.543 58.6119 133.807 58.8704 133.986C59.1317 134.162 59.4627 134.25 59.8633 134.25ZM65.5511 131.062V135H64.5455V128.455H65.517V129.477H65.6023C65.7557 129.145 65.9886 128.878 66.3011 128.676C66.6136 128.472 67.017 128.369 67.5114 128.369C67.9545 128.369 68.3423 128.46 68.6747 128.642C69.0071 128.821 69.2656 129.094 69.4503 129.46C69.6349 129.824 69.7273 130.284 69.7273 130.841V135H68.7216V130.909C68.7216 130.395 68.5881 129.994 68.321 129.707C68.054 129.418 67.6875 129.273 67.2216 129.273C66.9006 129.273 66.6136 129.342 66.3608 129.482C66.1108 129.621 65.9134 129.824 65.7685 130.091C65.6236 130.358 65.5511 130.682 65.5511 131.062ZM74.2241 135.136C73.6104 135.136 73.082 134.991 72.6388 134.702C72.1957 134.412 71.8548 134.013 71.6161 133.504C71.3775 132.996 71.2582 132.415 71.2582 131.761C71.2582 131.097 71.3803 130.51 71.6246 130.001C71.8718 129.49 72.2156 129.091 72.6559 128.804C73.0991 128.514 73.6161 128.369 74.207 128.369C74.6673 128.369 75.082 128.455 75.4513 128.625C75.8207 128.795 76.1232 129.034 76.359 129.341C76.5948 129.648 76.7411 130.006 76.7979 130.415H75.7923C75.7156 130.116 75.5451 129.852 75.2809 129.622C75.0195 129.389 74.6673 129.273 74.2241 129.273C73.832 129.273 73.4883 129.375 73.1928 129.58C72.9002 129.781 72.6715 130.067 72.5067 130.436C72.3448 130.803 72.2638 131.233 72.2638 131.727C72.2638 132.233 72.3434 132.673 72.5025 133.048C72.6644 133.423 72.8917 133.714 73.1843 133.922C73.4798 134.129 73.8263 134.233 74.2241 134.233C74.4854 134.233 74.7227 134.188 74.9357 134.097C75.1488 134.006 75.3292 133.875 75.4769 133.705C75.6246 133.534 75.7298 133.33 75.7923 133.091H76.7979C76.7411 133.477 76.6005 133.825 76.3761 134.135C76.1545 134.442 75.8604 134.686 75.494 134.868C75.1303 135.047 74.707 135.136 74.2241 135.136ZM81.0124 135.136C80.3817 135.136 79.8377 134.997 79.3803 134.719C78.9258 134.438 78.5749 134.045 78.3278 133.543C78.0835 133.037 77.9613 132.449 77.9613 131.778C77.9613 131.108 78.0835 130.517 78.3278 130.006C78.5749 129.491 78.9187 129.091 79.359 128.804C79.8022 128.514 80.3192 128.369 80.9102 128.369C81.2511 128.369 81.5877 128.426 81.9201 128.54C82.2525 128.653 82.555 128.838 82.8278 129.094C83.1005 129.347 83.3178 129.682 83.4798 130.099C83.6417 130.517 83.7227 131.031 83.7227 131.642V132.068H78.6772V131.199H82.6999C82.6999 130.83 82.6261 130.5 82.4783 130.21C82.3335 129.92 82.1261 129.692 81.8562 129.524C81.5891 129.357 81.2738 129.273 80.9102 129.273C80.5096 129.273 80.163 129.372 79.8704 129.571C79.5806 129.767 79.3576 130.023 79.2013 130.338C79.0451 130.653 78.967 130.991 78.967 131.352V131.932C78.967 132.426 79.0522 132.845 79.2227 133.189C79.396 133.53 79.636 133.79 79.9428 133.969C80.2496 134.145 80.6062 134.233 81.0124 134.233C81.2766 134.233 81.5153 134.196 81.7283 134.122C81.9442 134.045 82.1303 133.932 82.2866 133.781C82.4428 133.628 82.5636 133.437 82.6488 133.21L83.6204 133.483C83.5181 133.812 83.3462 134.102 83.1048 134.352C82.8633 134.599 82.565 134.793 82.2099 134.932C81.8548 135.068 81.4556 135.136 81.0124 135.136Z" fill="white"/>
<path d="M65.7373 41.75C73.6132 41.7503 80 48.1271 80 55.9961C80 60.3361 78.0529 64.2192 74.9922 66.8301L56.3184 84.4766C55.942 84.8322 55.3565 84.8421 54.9688 84.499L35.0303 66.8506L34.7451 66.6025C31.8355 63.9963 30 60.2111 30 55.9961C30 48.1271 36.3868 41.7502 44.2627 41.75C48.5465 41.75 52.3871 43.6389 55 46.623C57.6129 43.6389 61.4535 41.75 65.7373 41.75Z" stroke="white" stroke-width="2" stroke-linecap="round" stroke-linejoin="round"/>
<path d="M35 86L45 76" stroke="white" stroke-width="2"/>
<path d="M32 89L34.5 86.5" stroke="white" stroke-width="2"/>
<path d="M71 50L81.5 39.5" stroke="white" stroke-width="2"/>
<path d="M32.0003 82.9997H37.9997V88.9992" stroke="white" stroke-width="2"/>
<path d="M36.0003 78.9997H41.9997V84.9992" stroke="white" stroke-width="2"/>
<path d="M87.0848 33.2089L76 37.876L81.834 39.0431L83.0005 44.8765L87.0848 33.2089Z" stroke="white" stroke-width="2" stroke-linejoin="round"/>
<path d="M74 51C71.7909 51 70 49.2091 70 47" stroke="white" stroke-width="2"/>
<path d="M90 30L92 28" stroke="white" stroke-width="2" stroke-linecap="round"/>
<path d="M86.3658 29.366L85.6338 26.6339" stroke="white" stroke-width="2" stroke-linecap="round"/>
<path d="M93.7321 34.7321L91 34" stroke="white" stroke-width="2" stroke-linecap="round"/>
</svg>
