<svg width="116" height="138" viewBox="0 0 116 138" fill="none" xmlns="http://www.w3.org/2000/svg">
<circle cx="58" cy="58" r="54" stroke="white" stroke-width="2"/>
<path d="M47 30C48.6415 25.3317 52.947 22 58 22C63.053 22 67.3585 25.3317 69 30" stroke="white" stroke-width="2" stroke-linejoin="round"/>
<path d="M53 48.5L37 92" stroke="white" stroke-width="2"/>
<path d="M64 48.5L80 92" stroke="white" stroke-width="2"/>
<path d="M58 30C67.1665 30 75.4974 30.8764 81.5645 32.3086C84.5898 33.0228 87.1076 33.888 88.8936 34.8848C90.5953 35.8345 92 37.1143 92 38.79C92 39.6651 91.6064 40.4368 91.0244 41.084C90.4477 41.7252 89.6438 42.2948 88.6934 42.8047C86.7966 43.8222 84.1244 44.7014 80.918 45.4189L63.9004 50.0957C62.284 50.6697 60.3065 51 58.1895 51C56.2069 51 54.3493 50.7089 52.7959 50.2021L32.8975 44.8857L32.2969 44.7256L32.2939 44.7129C29.9814 44.0535 28.0505 43.2906 26.6484 42.4268C25.1848 41.5249 24 40.3262 24 38.79C24 37.1143 25.4047 35.8345 27.1064 34.8848C28.8924 33.888 31.4102 33.0228 34.4355 32.3086C40.5026 30.8764 48.8335 30 58 30Z" stroke="white" stroke-width="2"/>
<path d="M58.5 46C59.8201 46 61.0568 46.1765 61.998 46.4902C62.4635 46.6454 62.9127 46.8527 63.2656 47.1309C63.6073 47.4002 64 47.8553 64 48.5C64 49.1447 63.6073 49.5998 63.2656 49.8691C62.9127 50.1473 62.4635 50.3546 61.998 50.5098C61.0568 50.8235 59.8201 51 58.5 51C57.1799 51 55.9432 50.8235 55.002 50.5098C54.5365 50.3546 54.0873 50.1473 53.7344 49.8691C53.3927 49.5998 53 49.1447 53 48.5C53 47.8553 53.3927 47.4002 53.7344 47.1309C54.0873 46.8527 54.5365 46.6454 55.002 46.4902C55.9432 46.1765 57.1799 46 58.5 46Z" stroke="white" stroke-width="2"/>
<path d="M80 92C80 94.7614 70.3741 101 58.5 101C46.6259 101 37 94.7614 37 92" stroke="white" stroke-width="2" stroke-linecap="round"/>
<path d="M16.4574 129.364C16.3977 128.86 16.1558 128.469 15.7315 128.19C15.3073 127.912 14.7869 127.773 14.1705 127.773C13.7197 127.773 13.3253 127.846 12.9872 127.991C12.6525 128.137 12.3906 128.338 12.2017 128.593C12.0161 128.848 11.9233 129.138 11.9233 129.463C11.9233 129.735 11.9879 129.969 12.1172 130.164C12.2498 130.356 12.4188 130.517 12.6243 130.646C12.8298 130.772 13.0452 130.877 13.2706 130.96C13.496 131.039 13.7031 131.104 13.892 131.153L14.9261 131.432C15.1913 131.501 15.4863 131.598 15.8111 131.72C16.1392 131.843 16.4524 132.01 16.7507 132.222C17.0523 132.431 17.3009 132.7 17.4964 133.028C17.692 133.356 17.7898 133.759 17.7898 134.236C17.7898 134.786 17.6456 135.283 17.3572 135.727C17.0722 136.171 16.6546 136.524 16.1044 136.786C15.5575 137.048 14.893 137.179 14.1108 137.179C13.3816 137.179 12.7502 137.061 12.2166 136.826C11.6863 136.591 11.2687 136.263 10.9638 135.842C10.6622 135.421 10.4915 134.932 10.4517 134.375H11.7244C11.7576 134.759 11.8868 135.078 12.1122 135.33C12.3409 135.578 12.6293 135.764 12.9773 135.886C13.3286 136.006 13.7064 136.065 14.1108 136.065C14.5814 136.065 15.004 135.989 15.3786 135.837C15.7531 135.681 16.0497 135.465 16.2685 135.19C16.4872 134.912 16.5966 134.587 16.5966 134.216C16.5966 133.878 16.5021 133.603 16.3132 133.391C16.1243 133.179 15.8757 133.006 15.5675 132.874C15.2592 132.741 14.9261 132.625 14.5682 132.526L13.3153 132.168C12.5199 131.939 11.8902 131.612 11.4261 131.188C10.9621 130.764 10.7301 130.209 10.7301 129.523C10.7301 128.953 10.8842 128.455 11.1925 128.031C11.504 127.604 11.9216 127.272 12.4453 127.037C12.9723 126.798 13.5606 126.679 14.2102 126.679C14.8665 126.679 15.4498 126.797 15.9602 127.032C16.4706 127.264 16.875 127.582 17.1733 127.987C17.4749 128.391 17.634 128.85 17.6506 129.364H16.4574ZM22.7601 137.159C22.0442 137.159 21.4277 136.99 20.9107 136.652C20.3936 136.314 19.9959 135.848 19.7175 135.255C19.4391 134.662 19.2999 133.984 19.2999 133.222C19.2999 132.446 19.4424 131.762 19.7275 131.168C20.0158 130.572 20.4168 130.106 20.9306 129.771C21.4476 129.433 22.0508 129.264 22.7402 129.264C23.2772 129.264 23.7611 129.364 24.1919 129.562C24.6228 129.761 24.9758 130.04 25.2509 130.398C25.526 130.756 25.6967 131.173 25.763 131.651H24.5897C24.5002 131.303 24.3013 130.994 23.9931 130.726C23.6882 130.454 23.2772 130.318 22.7601 130.318C22.3027 130.318 21.9017 130.437 21.557 130.676C21.2156 130.911 20.9488 131.245 20.7566 131.675C20.5676 132.103 20.4732 132.605 20.4732 133.182C20.4732 133.772 20.566 134.286 20.7516 134.723C20.9405 135.161 21.2057 135.5 21.5471 135.742C21.8917 135.984 22.2961 136.105 22.7601 136.105C23.065 136.105 23.3418 136.052 23.5904 135.946C23.839 135.84 24.0494 135.688 24.2218 135.489C24.3941 135.29 24.5167 135.051 24.5897 134.773H25.763C25.6967 135.223 25.5326 135.629 25.2708 135.991C25.0123 136.349 24.6692 136.634 24.2417 136.846C23.8174 137.055 23.3236 137.159 22.7601 137.159ZM27.4782 137V129.364H28.6515V137H27.4782ZM28.0748 128.091C27.8461 128.091 27.6489 128.013 27.4831 127.857C27.3207 127.701 27.2395 127.514 27.2395 127.295C27.2395 127.077 27.3207 126.889 27.4831 126.734C27.6489 126.578 27.8461 126.5 28.0748 126.5C28.3034 126.5 28.499 126.578 28.6614 126.734C28.8271 126.889 28.91 127.077 28.91 127.295C28.91 127.514 28.8271 127.701 28.6614 127.857C28.499 128.013 28.3034 128.091 28.0748 128.091ZM34.0021 137.159C33.2663 137.159 32.6316 136.997 32.098 136.672C31.5677 136.344 31.1584 135.886 30.87 135.3C30.585 134.71 30.4425 134.024 30.4425 133.241C30.4425 132.459 30.585 131.77 30.87 131.173C31.1584 130.573 31.5594 130.106 32.0732 129.771C32.5902 129.433 33.1934 129.264 33.8828 129.264C34.2805 129.264 34.6733 129.33 35.0611 129.463C35.4489 129.596 35.8018 129.811 36.12 130.109C36.4382 130.404 36.6918 130.795 36.8807 131.283C37.0696 131.77 37.1641 132.37 37.1641 133.082V133.58H31.2777V132.565H35.9709C35.9709 132.134 35.8847 131.75 35.7124 131.412C35.5433 131.074 35.3014 130.807 34.9865 130.612C34.675 130.416 34.3071 130.318 33.8828 130.318C33.4155 130.318 33.0111 130.434 32.6697 130.666C32.3317 130.895 32.0715 131.193 31.8892 131.561C31.7069 131.929 31.6158 132.323 31.6158 132.744V133.42C31.6158 133.997 31.7152 134.486 31.9141 134.887C32.1162 135.285 32.3963 135.588 32.7543 135.797C33.1122 136.002 33.5282 136.105 34.0021 136.105C34.3104 136.105 34.5888 136.062 34.8374 135.976C35.0893 135.886 35.3063 135.754 35.4886 135.578C35.6709 135.399 35.8118 135.177 35.9112 134.912L37.0447 135.23C36.9254 135.615 36.7249 135.953 36.4432 136.244C36.1615 136.533 35.8134 136.758 35.3991 136.92C34.9848 137.08 34.5192 137.159 34.0021 137.159ZM40.1222 132.406V137H38.9489V129.364H40.0824V130.557H40.1818C40.3608 130.169 40.6326 129.857 40.9972 129.622C41.3617 129.384 41.8324 129.264 42.4091 129.264C42.9261 129.264 43.3786 129.37 43.7663 129.582C44.1541 129.791 44.4557 130.109 44.6712 130.537C44.8866 130.961 44.9943 131.498 44.9943 132.148V137H43.821V132.227C43.821 131.627 43.6652 131.16 43.3537 130.825C43.0421 130.487 42.6146 130.318 42.071 130.318C41.6965 130.318 41.3617 130.399 41.0668 130.562C40.7751 130.724 40.5447 130.961 40.3757 131.273C40.2067 131.584 40.1222 131.962 40.1222 132.406ZM50.2406 137.159C49.5247 137.159 48.9082 136.99 48.3912 136.652C47.8741 136.314 47.4764 135.848 47.198 135.255C46.9196 134.662 46.7804 133.984 46.7804 133.222C46.7804 132.446 46.9229 131.762 47.2079 131.168C47.4963 130.572 47.8973 130.106 48.411 129.771C48.9281 129.433 49.5313 129.264 50.2207 129.264C50.7576 129.264 51.2415 129.364 51.6724 129.562C52.1033 129.761 52.4563 130.04 52.7314 130.398C53.0065 130.756 53.1771 131.173 53.2434 131.651H52.0701C51.9806 131.303 51.7818 130.994 51.4735 130.726C51.1686 130.454 50.7576 130.318 50.2406 130.318C49.7832 130.318 49.3822 130.437 49.0375 130.676C48.6961 130.911 48.4293 131.245 48.237 131.675C48.0481 132.103 47.9537 132.605 47.9537 133.182C47.9537 133.772 48.0465 134.286 48.2321 134.723C48.421 135.161 48.6861 135.5 49.0275 135.742C49.3722 135.984 49.7766 136.105 50.2406 136.105C50.5455 136.105 50.8223 136.052 51.0708 135.946C51.3194 135.84 51.5299 135.688 51.7022 135.489C51.8746 135.29 51.9972 135.051 52.0701 134.773H53.2434C53.1771 135.223 53.0131 135.629 52.7512 135.991C52.4927 136.349 52.1497 136.634 51.7221 136.846C51.2979 137.055 50.804 137.159 50.2406 137.159ZM58.1603 137.159C57.4245 137.159 56.7898 136.997 56.2562 136.672C55.7259 136.344 55.3166 135.886 55.0282 135.3C54.7432 134.71 54.6007 134.024 54.6007 133.241C54.6007 132.459 54.7432 131.77 55.0282 131.173C55.3166 130.573 55.7176 130.106 56.2314 129.771C56.7484 129.433 57.3516 129.264 58.041 129.264C58.4387 129.264 58.8315 129.33 59.2193 129.463C59.6071 129.596 59.9601 129.811 60.2782 130.109C60.5964 130.404 60.85 130.795 61.0389 131.283C61.2278 131.77 61.3223 132.37 61.3223 133.082V133.58H55.4359V132.565H60.1291C60.1291 132.134 60.0429 131.75 59.8706 131.412C59.7015 131.074 59.4596 130.807 59.1447 130.612C58.8332 130.416 58.4653 130.318 58.041 130.318C57.5737 130.318 57.1693 130.434 56.8279 130.666C56.4899 130.895 56.2297 131.193 56.0474 131.561C55.8651 131.929 55.774 132.323 55.774 132.744V133.42C55.774 133.997 55.8734 134.486 56.0723 134.887C56.2744 135.285 56.5545 135.588 56.9125 135.797C57.2704 136.002 57.6864 136.105 58.1603 136.105C58.4686 136.105 58.747 136.062 58.9956 135.976C59.2475 135.886 59.4645 135.754 59.6468 135.578C59.8291 135.399 59.97 135.177 60.0694 134.912L61.2029 135.23C61.0836 135.615 60.8831 135.953 60.6014 136.244C60.3197 136.533 59.9717 136.758 59.5574 136.92C59.1431 137.08 58.6774 137.159 58.1603 137.159ZM67.2037 137V126.818H73.3088V127.912H68.4366V131.352H72.8514V132.446H68.4366V137H67.2037ZM75.2614 137V129.364H76.4347V137H75.2614ZM75.858 128.091C75.6293 128.091 75.4321 128.013 75.2663 127.857C75.1039 127.701 75.0227 127.514 75.0227 127.295C75.0227 127.077 75.1039 126.889 75.2663 126.734C75.4321 126.578 75.6293 126.5 75.858 126.5C76.0866 126.5 76.2822 126.578 76.4446 126.734C76.6103 126.889 76.6932 127.077 76.6932 127.295C76.6932 127.514 76.6103 127.701 76.4446 127.857C76.2822 128.013 76.0866 128.091 75.858 128.091ZM81.6859 137.159C80.97 137.159 80.3535 136.99 79.8365 136.652C79.3194 136.314 78.9217 135.848 78.6433 135.255C78.3649 134.662 78.2257 133.984 78.2257 133.222C78.2257 132.446 78.3682 131.762 78.6532 131.168C78.9416 130.572 79.3426 130.106 79.8564 129.771C80.3734 129.433 80.9766 129.264 81.666 129.264C82.2029 129.264 82.6868 129.364 83.1177 129.562C83.5486 129.761 83.9016 130.04 84.1767 130.398C84.4518 130.756 84.6225 131.173 84.6887 131.651H83.5154C83.426 131.303 83.2271 130.994 82.9189 130.726C82.6139 130.454 82.2029 130.318 81.6859 130.318C81.2285 130.318 80.8275 130.437 80.4828 130.676C80.1414 130.911 79.8746 131.245 79.6824 131.675C79.4934 132.103 79.399 132.605 79.399 133.182C79.399 133.772 79.4918 134.286 79.6774 134.723C79.8663 135.161 80.1315 135.5 80.4728 135.742C80.8175 135.984 81.2219 136.105 81.6859 136.105C81.9908 136.105 82.2676 136.052 82.5162 135.946C82.7647 135.84 82.9752 135.688 83.1475 135.489C83.3199 135.29 83.4425 135.051 83.5154 134.773H84.6887C84.6225 135.223 84.4584 135.629 84.1966 135.991C83.938 136.349 83.595 136.634 83.1674 136.846C82.7432 137.055 82.2493 137.159 81.6859 137.159ZM89.725 129.364V130.358H85.7676V129.364H89.725ZM86.921 127.534H88.0943V134.812C88.0943 135.144 88.1423 135.393 88.2385 135.558C88.3379 135.721 88.4638 135.83 88.6163 135.886C88.7721 135.939 88.9361 135.966 89.1085 135.966C89.2377 135.966 89.3438 135.959 89.4267 135.946C89.5095 135.929 89.5758 135.916 89.6255 135.906L89.8642 136.96C89.7846 136.99 89.6736 137.02 89.5311 137.05C89.3886 137.083 89.2079 137.099 88.9892 137.099C88.6577 137.099 88.3329 137.028 88.0147 136.886C87.6999 136.743 87.438 136.526 87.2292 136.234C87.0237 135.943 86.921 135.575 86.921 135.131V127.534ZM91.4899 137V129.364H92.6632V137H91.4899ZM92.0865 128.091C91.8578 128.091 91.6606 128.013 91.4949 127.857C91.3324 127.701 91.2512 127.514 91.2512 127.295C91.2512 127.077 91.3324 126.889 91.4949 126.734C91.6606 126.578 91.8578 126.5 92.0865 126.5C92.3152 126.5 92.5107 126.578 92.6731 126.734C92.8388 126.889 92.9217 127.077 92.9217 127.295C92.9217 127.514 92.8388 127.701 92.6731 127.857C92.5107 128.013 92.3152 128.091 92.0865 128.091ZM97.9144 137.159C97.225 137.159 96.6201 136.995 96.0998 136.667C95.5827 136.339 95.1784 135.88 94.8867 135.29C94.5984 134.7 94.4542 134.01 94.4542 133.222C94.4542 132.426 94.5984 131.732 94.8867 131.138C95.1784 130.545 95.5827 130.085 96.0998 129.756C96.6201 129.428 97.225 129.264 97.9144 129.264C98.6038 129.264 99.207 129.428 99.7241 129.756C100.244 130.085 100.649 130.545 100.937 131.138C101.229 131.732 101.375 132.426 101.375 133.222C101.375 134.01 101.229 134.7 100.937 135.29C100.649 135.88 100.244 136.339 99.7241 136.667C99.207 136.995 98.6038 137.159 97.9144 137.159ZM97.9144 136.105C98.4381 136.105 98.869 135.971 99.207 135.702C99.5451 135.434 99.7953 135.081 99.9577 134.643C100.12 134.206 100.201 133.732 100.201 133.222C100.201 132.711 100.12 132.236 99.9577 131.795C99.7953 131.354 99.5451 130.998 99.207 130.726C98.869 130.454 98.4381 130.318 97.9144 130.318C97.3907 130.318 96.9599 130.454 96.6218 130.726C96.2837 130.998 96.0335 131.354 95.8711 131.795C95.7087 132.236 95.6275 132.711 95.6275 133.222C95.6275 133.732 95.7087 134.206 95.8711 134.643C96.0335 135.081 96.2837 135.434 96.6218 135.702C96.9599 135.971 97.3907 136.105 97.9144 136.105ZM104.339 132.406V137H103.166V129.364H104.299V130.557H104.399C104.578 130.169 104.849 129.857 105.214 129.622C105.579 129.384 106.049 129.264 106.626 129.264C107.143 129.264 107.595 129.37 107.983 129.582C108.371 129.791 108.673 130.109 108.888 130.537C109.103 130.961 109.211 131.498 109.211 132.148V137H108.038V132.227C108.038 131.627 107.882 131.16 107.57 130.825C107.259 130.487 106.831 130.318 106.288 130.318C105.913 130.318 105.579 130.399 105.284 130.562C104.992 130.724 104.762 130.961 104.593 131.273C104.423 131.584 104.339 131.962 104.339 132.406Z" fill="white"/>
<path d="M40 57L46.9277 53" stroke="white" stroke-width="2" stroke-linecap="round"/>
<path d="M76.9277 57L70 53" stroke="white" stroke-width="2" stroke-linecap="round"/>
<ellipse cx="58" cy="69.5" rx="2" ry="2.5" fill="white"/>
<path d="M52.5 68.5C53 70 54.8 72.9 58 72.5C61.2 72.9 63 70 63.5 68.5" stroke="white" stroke-width="2" stroke-linecap="round" stroke-linejoin="round"/>
<path d="M54.5 84.5C55 84 55 84 56 84L57 78" stroke="white" stroke-width="2" stroke-linecap="round" stroke-linejoin="round"/>
<path d="M61.5 84.5C61 84 61 84 60 84L59 78" stroke="white" stroke-width="2" stroke-linecap="round" stroke-linejoin="round"/>
<rect x="56" y="73" width="4" height="5" fill="white"/>
</svg>
