<svg width="116" height="136" viewBox="0 0 116 136" fill="none" xmlns="http://www.w3.org/2000/svg">
<circle cx="58" cy="58" r="54" stroke="white" stroke-width="2"/>
<path d="M47 30C48.6415 25.3317 52.947 22 58 22C63.053 22 67.3585 25.3317 69 30" stroke="white" stroke-width="2" stroke-linejoin="round"/>
<path d="M53 48.5L37 92" stroke="white" stroke-width="2"/>
<path d="M64 48.5L80 92" stroke="white" stroke-width="2"/>
<path d="M58 30C67.1665 30 75.4974 30.8764 81.5645 32.3086C84.5898 33.0228 87.1076 33.888 88.8936 34.8848C90.5953 35.8345 92 37.1143 92 38.79C92 39.6651 91.6064 40.4368 91.0244 41.084C90.4477 41.7252 89.6438 42.2948 88.6934 42.8047C86.7966 43.8222 84.1244 44.7014 80.918 45.4189L63.9004 50.0957C62.284 50.6697 60.3065 51 58.1895 51C56.2069 51 54.3493 50.7089 52.7959 50.2021L32.8975 44.8857L32.2969 44.7256L32.2939 44.7129C29.9814 44.0535 28.0505 43.2906 26.6484 42.4268C25.1848 41.5249 24 40.3262 24 38.79C24 37.1143 25.4047 35.8345 27.1064 34.8848C28.8924 33.888 31.4102 33.0228 34.4355 32.3086C40.5026 30.8764 48.8335 30 58 30Z" stroke="white" stroke-width="2"/>
<path d="M58.5 46C59.8201 46 61.0568 46.1765 61.998 46.4902C62.4635 46.6454 62.9127 46.8527 63.2656 47.1309C63.6073 47.4002 64 47.8553 64 48.5C64 49.1447 63.6073 49.5998 63.2656 49.8691C62.9127 50.1473 62.4635 50.3546 61.998 50.5098C61.0568 50.8235 59.8201 51 58.5 51C57.1799 51 55.9432 50.8235 55.002 50.5098C54.5365 50.3546 54.0873 50.1473 53.7344 49.8691C53.3927 49.5998 53 49.1447 53 48.5C53 47.8553 53.3927 47.4002 53.7344 47.1309C54.0873 46.8527 54.5365 46.6454 55.002 46.4902C55.9432 46.1765 57.1799 46 58.5 46Z" stroke="white" stroke-width="2"/>
<path d="M80 92C80 94.7614 70.3741 101 58.5 101C46.6259 101 37 94.7614 37 92" stroke="white" stroke-width="2" stroke-linecap="round"/>
<path d="M22.392 128.455C22.3409 128.023 22.1335 127.688 21.7699 127.449C21.4063 127.21 20.9602 127.091 20.4318 127.091C20.0455 127.091 19.7074 127.153 19.4176 127.278C19.1307 127.403 18.9063 127.575 18.7443 127.794C18.5852 128.013 18.5057 128.261 18.5057 128.54C18.5057 128.773 18.5611 128.973 18.6719 129.141C18.7855 129.305 18.9304 129.443 19.1065 129.554C19.2827 129.662 19.4673 129.751 19.6605 129.822C19.8537 129.891 20.0312 129.946 20.1932 129.989L21.0795 130.227C21.3068 130.287 21.5597 130.369 21.8381 130.474C22.1193 130.58 22.3878 130.723 22.6435 130.905C22.902 131.084 23.1151 131.314 23.2827 131.595C23.4503 131.876 23.5341 132.222 23.5341 132.631C23.5341 133.102 23.4105 133.528 23.1634 133.909C22.919 134.29 22.5611 134.592 22.0895 134.817C21.6207 135.041 21.0511 135.153 20.3807 135.153C19.7557 135.153 19.2145 135.053 18.7571 134.851C18.3026 134.649 17.9446 134.368 17.6832 134.007C17.4247 133.646 17.2784 133.227 17.2443 132.75H18.3352C18.3636 133.08 18.4744 133.352 18.6676 133.568C18.8636 133.781 19.1108 133.94 19.4091 134.045C19.7102 134.148 20.0341 134.199 20.3807 134.199C20.7841 134.199 21.1463 134.134 21.4673 134.003C21.7884 133.869 22.0426 133.685 22.2301 133.449C22.4176 133.21 22.5114 132.932 22.5114 132.614C22.5114 132.324 22.4304 132.088 22.2685 131.906C22.1065 131.724 21.8935 131.577 21.6293 131.463C21.3651 131.349 21.0795 131.25 20.7727 131.165L19.6989 130.858C19.017 130.662 18.4773 130.382 18.0795 130.018C17.6818 129.655 17.483 129.179 17.483 128.591C17.483 128.102 17.6151 127.676 17.8793 127.312C18.1463 126.946 18.5043 126.662 18.9531 126.46C19.4048 126.256 19.9091 126.153 20.4659 126.153C21.0284 126.153 21.5284 126.254 21.9659 126.456C22.4034 126.655 22.75 126.928 23.0057 127.274C23.2642 127.621 23.4006 128.014 23.4148 128.455H22.392ZM27.7944 135.136C27.1808 135.136 26.6523 134.991 26.2092 134.702C25.766 134.412 25.4251 134.013 25.1864 133.504C24.9478 132.996 24.8285 132.415 24.8285 131.761C24.8285 131.097 24.9506 130.51 25.195 130.001C25.4421 129.49 25.7859 129.091 26.2262 128.804C26.6694 128.514 27.1864 128.369 27.7773 128.369C28.2376 128.369 28.6523 128.455 29.0217 128.625C29.391 128.795 29.6935 129.034 29.9293 129.341C30.1651 129.648 30.3114 130.006 30.3683 130.415H29.3626C29.2859 130.116 29.1154 129.852 28.8512 129.622C28.5898 129.389 28.2376 129.273 27.7944 129.273C27.4023 129.273 27.0586 129.375 26.7631 129.58C26.4705 129.781 26.2418 130.067 26.0771 130.436C25.9151 130.803 25.8342 131.233 25.8342 131.727C25.8342 132.233 25.9137 132.673 26.0728 133.048C26.2347 133.423 26.462 133.714 26.7546 133.922C27.0501 134.129 27.3967 134.233 27.7944 134.233C28.0558 134.233 28.293 134.188 28.506 134.097C28.7191 134.006 28.8995 133.875 29.0472 133.705C29.195 133.534 29.3001 133.33 29.3626 133.091H30.3683C30.3114 133.477 30.1708 133.825 29.9464 134.135C29.7248 134.442 29.4308 134.686 29.0643 134.868C28.7006 135.047 28.2773 135.136 27.7944 135.136ZM31.8384 135V128.455H32.8441V135H31.8384ZM32.3498 127.364C32.1538 127.364 31.9847 127.297 31.8427 127.163C31.7035 127.03 31.6339 126.869 31.6339 126.682C31.6339 126.494 31.7035 126.334 31.8427 126.2C31.9847 126.067 32.1538 126 32.3498 126C32.5458 126 32.7134 126.067 32.8526 126.2C32.9947 126.334 33.0657 126.494 33.0657 126.682C33.0657 126.869 32.9947 127.03 32.8526 127.163C32.7134 127.297 32.5458 127.364 32.3498 127.364ZM37.4304 135.136C36.7997 135.136 36.2557 134.997 35.7983 134.719C35.3438 134.438 34.9929 134.045 34.7457 133.543C34.5014 133.037 34.3793 132.449 34.3793 131.778C34.3793 131.108 34.5014 130.517 34.7457 130.006C34.9929 129.491 35.3366 129.091 35.777 128.804C36.2202 128.514 36.7372 128.369 37.3281 128.369C37.669 128.369 38.0057 128.426 38.3381 128.54C38.6705 128.653 38.973 128.838 39.2457 129.094C39.5185 129.347 39.7358 129.682 39.8977 130.099C40.0597 130.517 40.1406 131.031 40.1406 131.642V132.068H35.0952V131.199H39.1179C39.1179 130.83 39.044 130.5 38.8963 130.21C38.7514 129.92 38.544 129.692 38.2741 129.524C38.0071 129.357 37.6918 129.273 37.3281 129.273C36.9276 129.273 36.581 129.372 36.2884 129.571C35.9986 129.767 35.7756 130.023 35.6193 130.338C35.4631 130.653 35.3849 130.991 35.3849 131.352V131.932C35.3849 132.426 35.4702 132.845 35.6406 133.189C35.8139 133.53 36.054 133.79 36.3608 133.969C36.6676 134.145 37.0241 134.233 37.4304 134.233C37.6946 134.233 37.9332 134.196 38.1463 134.122C38.3622 134.045 38.5483 133.932 38.7045 133.781C38.8608 133.628 38.9815 133.437 39.0668 133.21L40.0384 133.483C39.9361 133.812 39.7642 134.102 39.5227 134.352C39.2813 134.599 38.983 134.793 38.6278 134.932C38.2727 135.068 37.8736 135.136 37.4304 135.136ZM42.6761 131.062V135H41.6705V128.455H42.642V129.477H42.7273C42.8807 129.145 43.1136 128.878 43.4261 128.676C43.7386 128.472 44.142 128.369 44.6364 128.369C45.0795 128.369 45.4673 128.46 45.7997 128.642C46.1321 128.821 46.3906 129.094 46.5753 129.46C46.7599 129.824 46.8523 130.284 46.8523 130.841V135H45.8466V130.909C45.8466 130.395 45.7131 129.994 45.446 129.707C45.179 129.418 44.8125 129.273 44.3466 129.273C44.0256 129.273 43.7386 129.342 43.4858 129.482C43.2358 129.621 43.0384 129.824 42.8935 130.091C42.7486 130.358 42.6761 130.682 42.6761 131.062ZM51.3491 135.136C50.7354 135.136 50.207 134.991 49.7638 134.702C49.3207 134.412 48.9798 134.013 48.7411 133.504C48.5025 132.996 48.3832 132.415 48.3832 131.761C48.3832 131.097 48.5053 130.51 48.7496 130.001C48.9968 129.49 49.3406 129.091 49.7809 128.804C50.2241 128.514 50.7411 128.369 51.332 128.369C51.7923 128.369 52.207 128.455 52.5763 128.625C52.9457 128.795 53.2482 129.034 53.484 129.341C53.7198 129.648 53.8661 130.006 53.9229 130.415H52.9173C52.8406 130.116 52.6701 129.852 52.4059 129.622C52.1445 129.389 51.7923 129.273 51.3491 129.273C50.957 129.273 50.6133 129.375 50.3178 129.58C50.0252 129.781 49.7965 130.067 49.6317 130.436C49.4698 130.803 49.3888 131.233 49.3888 131.727C49.3888 132.233 49.4684 132.673 49.6275 133.048C49.7894 133.423 50.0167 133.714 50.3093 133.922C50.6048 134.129 50.9513 134.233 51.3491 134.233C51.6104 134.233 51.8477 134.188 52.0607 134.097C52.2738 134.006 52.4542 133.875 52.6019 133.705C52.7496 133.534 52.8548 133.33 52.9173 133.091H53.9229C53.8661 133.477 53.7255 133.825 53.5011 134.135C53.2795 134.442 52.9854 134.686 52.619 134.868C52.2553 135.047 51.832 135.136 51.3491 135.136ZM58.1374 135.136C57.5067 135.136 56.9627 134.997 56.5053 134.719C56.0508 134.438 55.6999 134.045 55.4528 133.543C55.2085 133.037 55.0863 132.449 55.0863 131.778C55.0863 131.108 55.2085 130.517 55.4528 130.006C55.6999 129.491 56.0437 129.091 56.484 128.804C56.9272 128.514 57.4442 128.369 58.0352 128.369C58.3761 128.369 58.7127 128.426 59.0451 128.54C59.3775 128.653 59.68 128.838 59.9528 129.094C60.2255 129.347 60.4428 129.682 60.6048 130.099C60.7667 130.517 60.8477 131.031 60.8477 131.642V132.068H55.8022V131.199H59.8249C59.8249 130.83 59.7511 130.5 59.6033 130.21C59.4585 129.92 59.2511 129.692 58.9812 129.524C58.7141 129.357 58.3988 129.273 58.0352 129.273C57.6346 129.273 57.288 129.372 56.9954 129.571C56.7056 129.767 56.4826 130.023 56.3263 130.338C56.1701 130.653 56.092 130.991 56.092 131.352V131.932C56.092 132.426 56.1772 132.845 56.3477 133.189C56.521 133.53 56.761 133.79 57.0678 133.969C57.3746 134.145 57.7312 134.233 58.1374 134.233C58.4016 134.233 58.6403 134.196 58.8533 134.122C59.0692 134.045 59.2553 133.932 59.4116 133.781C59.5678 133.628 59.6886 133.437 59.7738 133.21L60.7454 133.483C60.6431 133.812 60.4712 134.102 60.2298 134.352C59.9883 134.599 59.69 134.793 59.3349 134.932C58.9798 135.068 58.5806 135.136 58.1374 135.136ZM65.8888 135V126.273H71.1218V127.21H66.9457V130.159H70.7298V131.097H66.9457V135H65.8888ZM72.7955 135V128.455H73.8011V135H72.7955ZM73.3068 127.364C73.1108 127.364 72.9418 127.297 72.7997 127.163C72.6605 127.03 72.5909 126.869 72.5909 126.682C72.5909 126.494 72.6605 126.334 72.7997 126.2C72.9418 126.067 73.1108 126 73.3068 126C73.5028 126 73.6705 126.067 73.8097 126.2C73.9517 126.334 74.0227 126.494 74.0227 126.682C74.0227 126.869 73.9517 127.03 73.8097 127.163C73.6705 127.297 73.5028 127.364 73.3068 127.364ZM78.3022 135.136C77.6886 135.136 77.1602 134.991 76.717 134.702C76.2738 134.412 75.9329 134.013 75.6942 133.504C75.4556 132.996 75.3363 132.415 75.3363 131.761C75.3363 131.097 75.4585 130.51 75.7028 130.001C75.9499 129.49 76.2937 129.091 76.734 128.804C77.1772 128.514 77.6942 128.369 78.2852 128.369C78.7454 128.369 79.1602 128.455 79.5295 128.625C79.8988 128.795 80.2013 129.034 80.4371 129.341C80.6729 129.648 80.8192 130.006 80.8761 130.415H79.8704C79.7937 130.116 79.6232 129.852 79.359 129.622C79.0977 129.389 78.7454 129.273 78.3022 129.273C77.9102 129.273 77.5664 129.375 77.271 129.58C76.9783 129.781 76.7496 130.067 76.5849 130.436C76.4229 130.803 76.342 131.233 76.342 131.727C76.342 132.233 76.4215 132.673 76.5806 133.048C76.7425 133.423 76.9698 133.714 77.2624 133.922C77.5579 134.129 77.9045 134.233 78.3022 134.233C78.5636 134.233 78.8008 134.188 79.0138 134.097C79.2269 134.006 79.4073 133.875 79.555 133.705C79.7028 133.534 79.8079 133.33 79.8704 133.091H80.8761C80.8192 133.477 80.6786 133.825 80.4542 134.135C80.2326 134.442 79.9386 134.686 79.5721 134.868C79.2085 135.047 78.7852 135.136 78.3022 135.136ZM85.1928 128.455V129.307H81.8008V128.455H85.1928ZM82.7894 126.886H83.7951V133.125C83.7951 133.409 83.8363 133.622 83.9187 133.764C84.0039 133.903 84.1119 133.997 84.2425 134.045C84.3761 134.091 84.5167 134.114 84.6644 134.114C84.7752 134.114 84.8661 134.108 84.9371 134.097C85.0082 134.082 85.065 134.071 85.1076 134.062L85.3121 134.966C85.244 134.991 85.1488 135.017 85.0266 135.043C84.9045 135.071 84.7496 135.085 84.5621 135.085C84.2781 135.085 83.9996 135.024 83.7269 134.902C83.457 134.78 83.2326 134.594 83.0536 134.344C82.8775 134.094 82.7894 133.778 82.7894 133.398V126.886ZM86.7056 135V128.455H87.7113V135H86.7056ZM87.217 127.364C87.021 127.364 86.8519 127.297 86.7099 127.163C86.5707 127.03 86.5011 126.869 86.5011 126.682C86.5011 126.494 86.5707 126.334 86.7099 126.2C86.8519 126.067 87.021 126 87.217 126C87.413 126 87.5806 126.067 87.7198 126.2C87.8619 126.334 87.9329 126.494 87.9329 126.682C87.9329 126.869 87.8619 127.03 87.7198 127.163C87.5806 127.297 87.413 127.364 87.217 127.364ZM92.2124 135.136C91.6214 135.136 91.103 134.996 90.657 134.714C90.2138 134.433 89.8672 134.04 89.6172 133.534C89.37 133.028 89.2464 132.437 89.2464 131.761C89.2464 131.08 89.37 130.484 89.6172 129.976C89.8672 129.467 90.2138 129.072 90.657 128.791C91.103 128.51 91.6214 128.369 92.2124 128.369C92.8033 128.369 93.3203 128.51 93.7635 128.791C94.2095 129.072 94.5561 129.467 94.8033 129.976C95.0533 130.484 95.1783 131.08 95.1783 131.761C95.1783 132.437 95.0533 133.028 94.8033 133.534C94.5561 134.04 94.2095 134.433 93.7635 134.714C93.3203 134.996 92.8033 135.136 92.2124 135.136ZM92.2124 134.233C92.6612 134.233 93.0305 134.118 93.3203 133.888C93.6101 133.658 93.8246 133.355 93.9638 132.98C94.103 132.605 94.1726 132.199 94.1726 131.761C94.1726 131.324 94.103 130.916 93.9638 130.538C93.8246 130.161 93.6101 129.855 93.3203 129.622C93.0305 129.389 92.6612 129.273 92.2124 129.273C91.7635 129.273 91.3942 129.389 91.1044 129.622C90.8146 129.855 90.6001 130.161 90.4609 130.538C90.3217 130.916 90.2521 131.324 90.2521 131.761C90.2521 132.199 90.3217 132.605 90.4609 132.98C90.6001 133.355 90.8146 133.658 91.1044 133.888C91.3942 134.118 91.7635 134.233 92.2124 134.233ZM97.7191 131.062V135H96.7134V128.455H97.685V129.477H97.7702C97.9237 129.145 98.1566 128.878 98.4691 128.676C98.7816 128.472 99.185 128.369 99.6793 128.369C100.123 128.369 100.51 128.46 100.843 128.642C101.175 128.821 101.434 129.094 101.618 129.46C101.803 129.824 101.895 130.284 101.895 130.841V135H100.89V130.909C100.89 130.395 100.756 129.994 100.489 129.707C100.222 129.418 99.8555 129.273 99.3896 129.273C99.0685 129.273 98.7816 129.342 98.5288 129.482C98.2788 129.621 98.0813 129.824 97.9364 130.091C97.7915 130.358 97.7191 130.682 97.7191 131.062Z" fill="white"/>
<path d="M40 57L46.9277 53" stroke="white" stroke-width="2" stroke-linecap="round"/>
<path d="M76.9277 57L70 53" stroke="white" stroke-width="2" stroke-linecap="round"/>
<ellipse cx="58" cy="69.5" rx="2" ry="2.5" fill="white"/>
<path d="M52.5 68.5C53 70 54.8 72.9 58 72.5C61.2 72.9 63 70 63.5 68.5" stroke="white" stroke-width="2" stroke-linecap="round" stroke-linejoin="round"/>
<path d="M54.5 84.5C55 84 55 84 56 84L57 78" stroke="white" stroke-width="2" stroke-linecap="round" stroke-linejoin="round"/>
<path d="M61.5 84.5C61 84 61 84 60 84L59 78" stroke="white" stroke-width="2" stroke-linecap="round" stroke-linejoin="round"/>
<rect x="56" y="73" width="4" height="5" fill="white"/>
</svg>
