<svg width="116" height="136" viewBox="0 0 116 136" fill="none" xmlns="http://www.w3.org/2000/svg">
<circle cx="58" cy="58" r="54" stroke="white" stroke-width="2"/>
<path d="M61.0605 54.2031C62.2452 54.2294 63.4752 54.4651 64.6719 55.2695C65.1569 55.5956 65.6042 55.8354 66.1406 56.1523C66.6577 56.4579 67.2083 56.8081 67.7598 57.2979V57.2988C68.1398 57.6365 68.5022 58.1443 68.8174 58.626C69.143 59.1236 69.4892 59.7068 69.8096 60.2295C70.1408 60.77 70.4502 61.2562 70.7363 61.6309C70.8786 61.8171 71.0011 61.9568 71.1025 62.0537C71.1051 62.0561 71.1079 62.0582 71.1104 62.0605C73.0232 61.8557 74.1047 61.1433 75.209 60.1768C76.3927 59.1407 77.7469 57.6421 80.0244 56.4092L80.125 56.3613C80.3661 56.2638 80.6376 56.2641 80.8809 56.3643C81.1588 56.4788 81.3702 56.7122 81.457 57C81.8068 58.1593 81.4864 59.3957 80.9561 60.4834C80.4149 61.5932 79.5813 62.7037 78.6562 63.7031C77.7268 64.7074 76.6745 65.6327 75.6641 66.3672C74.6703 67.0895 73.6521 67.6753 72.792 67.9375H72.791C72.0295 68.1692 71.199 67.906 70.5752 67.6377C69.8933 67.3444 69.1651 66.9098 68.4854 66.4707C67.8067 66.0322 67.1168 65.5493 66.5518 65.167C66.1518 64.8964 65.8287 64.6889 65.583 64.5469C65.5 64.614 65.4034 64.6941 65.2969 64.7871C64.9786 65.0649 64.5939 65.4263 64.2168 65.8018C63.8447 66.1721 63.4926 66.5452 63.2256 66.8545C63.2663 66.8797 63.3086 66.908 63.3545 66.9355C63.9245 67.2772 64.7182 67.6925 65.5898 68.1533C66.4435 68.6046 67.3621 69.0946 68.1201 69.5625C68.4992 69.7965 68.8574 70.0372 69.1572 70.2754C69.4382 70.4986 69.7471 70.7804 69.9443 71.1123L70.0557 71.3193C70.2946 71.8084 70.3783 72.3457 70.2754 72.9111V72.9121C70.1653 73.5147 69.936 74.092 69.7051 74.5967C69.5881 74.8522 69.4639 75.1028 69.3486 75.335C69.2311 75.5717 69.1241 75.7868 69.0273 75.9941C68.3996 77.364 67.5969 78.8457 66.9248 80.2129C66.301 81.482 65.7516 82.725 65.3926 83.9502C67.2424 86.7788 67.33 87.108 69.0078 90.3262C69.2017 90.6981 69.1427 91.1518 68.8604 91.4619C68.5778 91.772 68.1315 91.8733 67.7432 91.7148C67.3936 91.5721 66.7337 91.2171 65.9922 90.7969C65.2263 90.3628 64.3077 89.8213 63.4053 89.2705C62.5038 88.7202 61.6103 88.1558 60.8965 87.6768C60.5405 87.4378 60.2213 87.2145 59.9648 87.0215C59.7345 86.8481 59.4777 86.643 59.3135 86.4482C59.0009 86.0772 58.8256 85.6414 58.8428 85.1553C58.8582 84.7213 59.026 84.349 59.166 84.082V84.0811C59.4999 83.446 59.9883 82.9467 60.3662 82.5605C60.7667 82.1512 61.0556 81.8534 61.2559 81.5215C61.2586 81.514 61.2634 81.5049 61.2676 81.4932C61.2878 81.436 61.3152 81.3528 61.3486 81.2412C61.4152 81.0189 61.4978 80.7174 61.5918 80.3564C61.7793 79.6365 62.0039 78.7089 62.2236 77.7656C62.4432 76.8231 62.6563 75.8708 62.8193 75.1025C62.8844 74.796 62.9367 74.5279 62.9805 74.3066C62.2374 74.0095 61.3476 73.7799 60.4697 73.5273C60.4521 73.5223 60.4343 73.5168 60.417 73.5107C60.0317 73.3765 59.5744 73.2558 59.0498 73.1211C58.54 72.9902 57.9705 72.8476 57.4229 72.6768C56.3804 72.3516 55.1328 71.8485 54.4258 70.8408C53.3866 69.3598 53.2099 67.9768 53.541 66.6562C53.8448 65.4451 54.5831 64.3114 55.1611 63.3418L55.1631 63.3389C55.7249 62.4054 56.2745 61.4642 56.8115 60.5166C56.8818 60.3923 56.9427 60.2796 56.999 60.1777C56.8655 60.1727 56.715 60.1663 56.5449 60.1641C55.9564 60.1562 55.3649 60.1698 54.749 60.1797C52.1501 61.5884 50.779 63.1037 49.1318 64.6885C47.4125 66.3426 45.4877 67.9589 41.8291 69.2334C41.4504 69.3653 41.0294 69.2577 40.7598 68.9609C40.4903 68.6641 40.4243 68.2353 40.5918 67.8711C41.3916 66.1322 43.2022 63.3143 45.2939 60.7783C46.3446 59.5045 47.4863 58.278 48.6299 57.2803C49.7587 56.2955 50.9568 55.4735 52.123 55.0957L52.1504 55.0879C53.9364 54.5656 56.0389 54.5076 57.6982 54.4082C58.7003 54.3481 59.9551 54.1786 61.0605 54.2031Z" stroke="white" stroke-width="2" stroke-linejoin="round"/>
<path d="M54.2031 72.1853C54.4805 71.8191 54.9713 71.689 55.3936 71.8699C57.0876 72.5959 58.6646 73.0812 59.8174 73.3845C60.3927 73.5359 60.8605 73.6415 61.1816 73.7087C61.342 73.7423 61.4657 73.7657 61.5479 73.781C61.5889 73.7887 61.62 73.7941 61.6396 73.7976C61.6491 73.7993 61.656 73.8008 61.6602 73.8015C61.6619 73.8018 61.6633 73.8024 61.6641 73.8025C62.0839 73.8725 62.4134 74.2004 62.4854 74.6199C62.5481 74.9871 62.4017 75.3542 62.1143 75.5779L61.9824 75.6648L61.9746 75.6687C61.9695 75.6715 61.9621 75.6759 61.9521 75.6814C61.9318 75.6926 61.9008 75.7094 61.8613 75.7312C61.7823 75.7748 61.6664 75.8392 61.5186 75.9207C61.2227 76.0837 60.799 76.3169 60.2881 76.5984C59.2656 77.1618 57.8928 77.9185 56.4932 78.6892C53.7013 80.2266 50.7887 81.8273 50.3428 82.0671L50.3438 82.0681L44.7979 85.0632L44.7939 85.0652C44.2956 85.3318 43.5503 85.7008 42.9756 86.0027C42.3423 86.3354 41.7807 86.654 41.3926 86.9402C41.0557 87.1886 40.562 87.6515 39.959 88.2419C39.381 88.8079 38.7169 89.4768 38.1045 90.0535C37.5052 90.6177 36.8698 91.1778 36.332 91.4988C36.0937 91.641 35.696 91.8489 35.25 91.8357C34.986 91.8278 34.6842 91.7409 34.4307 91.5095C34.19 91.2899 34.0794 91.0192 34.0293 90.8025V90.8015C33.9948 90.6511 33.9991 90.5198 34.002 90.4607C34.0056 90.3861 34.0143 90.3144 34.0234 90.2537C34.0419 90.1317 34.0705 89.995 34.1035 89.8562C34.1702 89.5753 34.2702 89.2193 34.3887 88.823C34.6266 88.0268 34.9571 87.0163 35.3027 86.0095C35.6486 85.0019 36.0131 83.9874 36.3203 83.1814C36.4736 82.7792 36.615 82.4223 36.7344 82.1414C36.8369 81.9002 36.9645 81.6128 37.0889 81.4333L37.1807 81.3113C37.6575 80.7347 38.3323 80.6788 38.8115 80.7429C39.2771 80.8053 39.7766 81.0031 40.1367 81.1423C40.5541 81.3037 40.8761 81.4255 41.1602 81.4792C41.4373 81.5317 41.5154 81.4858 41.5244 81.4802L41.6406 81.4031C41.9174 81.2092 42.2265 80.916 42.5771 80.5261C42.9765 80.0821 43.3693 79.5836 43.8076 79.0476C44.2316 78.5291 44.6929 77.9819 45.1787 77.5212C45.6584 77.0664 46.2273 76.6319 46.8848 76.408C47.3863 76.2373 47.8801 76.1993 48.2676 76.1775C48.6932 76.1535 48.9754 76.1466 49.2578 76.0906C50.3104 75.8818 51.5188 74.9947 52.5508 74.0066C53.0452 73.5331 53.4619 73.0729 53.7549 72.7312C53.901 72.5609 54.0161 72.4217 54.0928 72.3259C54.1308 72.2785 54.1591 72.2415 54.1777 72.2175C54.1869 72.2057 54.1941 72.1966 54.1982 72.1912C54.2003 72.1885 54.2024 72.1863 54.2031 72.1853Z" stroke="white" stroke-width="2" stroke-linejoin="round"/>
<path d="M69.1182 44.084C71.8373 43.5825 74.4471 45.3824 74.9434 48.1025C75.4239 50.7376 73.7441 53.2665 71.165 53.8682L70.9131 53.9199C68.2002 54.4094 65.6024 52.6096 65.1074 49.8975C64.6125 47.1851 66.4076 44.5844 69.1182 44.084Z" stroke="white" stroke-width="2" stroke-linejoin="round"/>
<path d="M50.5 82L56.5 112" stroke="white" stroke-width="2"/>
<path d="M36 9.5L46 60.5" stroke="white" stroke-width="2"/>
<path d="M47 66.5L49 75.5" stroke="white" stroke-width="2"/>
<path d="M38.9565 127.21V126.273H45.502V127.21H42.7576V135H41.7008V127.21H38.9565ZM48.0023 131.062V135H46.9966V126.273H48.0023V129.477H48.0875C48.2409 129.139 48.4711 128.871 48.7779 128.672C49.0875 128.47 49.4995 128.369 50.0137 128.369C50.4597 128.369 50.8503 128.459 51.1855 128.638C51.5208 128.814 51.7807 129.085 51.9654 129.452C52.1529 129.815 52.2466 130.278 52.2466 130.841V135H51.2409V130.909C51.2409 130.389 51.106 129.987 50.8361 129.703C50.5691 129.416 50.1983 129.273 49.7239 129.273C49.3944 129.273 49.0989 129.342 48.8375 129.482C48.579 129.621 48.3745 129.824 48.2239 130.091C48.0762 130.358 48.0023 130.682 48.0023 131.062ZM54.0865 135V128.455H55.0581V129.443H55.1262C55.2456 129.119 55.4615 128.857 55.774 128.655C56.0865 128.453 56.4387 128.352 56.8308 128.352C56.9047 128.352 56.997 128.354 57.1078 128.357C57.2186 128.359 57.3024 128.364 57.3592 128.369V129.392C57.3251 129.384 57.247 129.371 57.1248 129.354C57.0055 129.334 56.8791 129.324 56.7456 129.324C56.4274 129.324 56.1433 129.391 55.8933 129.524C55.6461 129.655 55.4501 129.837 55.3052 130.07C55.1632 130.3 55.0922 130.562 55.0922 130.858V135H54.0865ZM58.5513 135V128.455H59.557V135H58.5513ZM59.0627 127.364C58.8667 127.364 58.6976 127.297 58.5556 127.163C58.4164 127.03 58.3468 126.869 58.3468 126.682C58.3468 126.494 58.4164 126.334 58.5556 126.2C58.6976 126.067 58.8667 126 59.0627 126C59.2587 126 59.4263 126.067 59.5655 126.2C59.7076 126.334 59.7786 126.494 59.7786 126.682C59.7786 126.869 59.7076 127.03 59.5655 127.163C59.4263 127.297 59.2587 127.364 59.0627 127.364ZM62.4047 126.273V135H61.399V126.273H62.4047ZM65.2523 126.273V135H64.2466V126.273H65.2523ZM69.8386 135.136C69.2079 135.136 68.6639 134.997 68.2065 134.719C67.752 134.438 67.4011 134.045 67.1539 133.543C66.9096 133.037 66.7875 132.449 66.7875 131.778C66.7875 131.108 66.9096 130.517 67.1539 130.006C67.4011 129.491 67.7449 129.091 68.1852 128.804C68.6284 128.514 69.1454 128.369 69.7363 128.369C70.0772 128.369 70.4139 128.426 70.7463 128.54C71.0787 128.653 71.3812 128.838 71.6539 129.094C71.9267 129.347 72.144 129.682 72.3059 130.099C72.4679 130.517 72.5488 131.031 72.5488 131.642V132.068H67.5034V131.199H71.5261C71.5261 130.83 71.4522 130.5 71.3045 130.21C71.1596 129.92 70.9522 129.692 70.6824 129.524C70.4153 129.357 70.1 129.273 69.7363 129.273C69.3358 129.273 68.9892 129.372 68.6966 129.571C68.4068 129.767 68.1838 130.023 68.0275 130.338C67.8713 130.653 67.7931 130.991 67.7931 131.352V131.932C67.7931 132.426 67.8784 132.845 68.0488 133.189C68.2221 133.53 68.4622 133.79 68.769 133.969C69.0758 134.145 69.4324 134.233 69.8386 134.233C70.1028 134.233 70.3414 134.196 70.5545 134.122C70.7704 134.045 70.9565 133.932 71.1127 133.781C71.269 133.628 71.3897 133.437 71.475 133.21L72.4466 133.483C72.3443 133.812 72.1724 134.102 71.9309 134.352C71.6895 134.599 71.3912 134.793 71.036 134.932C70.6809 135.068 70.2818 135.136 69.8386 135.136ZM74.0787 135V128.455H75.0502V129.443H75.1184C75.2377 129.119 75.4537 128.857 75.7662 128.655C76.0787 128.453 76.4309 128.352 76.823 128.352C76.8968 128.352 76.9892 128.354 77.1 128.357C77.2108 128.359 77.2946 128.364 77.3514 128.369V129.392C77.3173 129.384 77.2392 129.371 77.117 129.354C76.9977 129.334 76.8713 129.324 76.7377 129.324C76.4196 129.324 76.1355 129.391 75.8855 129.524C75.6383 129.655 75.4423 129.837 75.2974 130.07C75.1554 130.3 75.0843 130.562 75.0843 130.858V135H74.0787Z" fill="white"/>
<path d="M46 6L108 76" stroke="white" stroke-width="2"/>
</svg>
