<svg width="116" height="139" viewBox="0 0 116 139" fill="none" xmlns="http://www.w3.org/2000/svg">
<circle cx="58" cy="58" r="54" stroke="white" stroke-width="2"/>
<circle cx="57.5" cy="57.5" r="30.5" stroke="white" stroke-width="2"/>
<circle cx="57.5" cy="57.5" r="10.4551" stroke="white" stroke-width="2"/>
<path d="M58.5 47L74 31.5" stroke="white" stroke-width="2"/>
<path d="M32 73.5L47 58.5" stroke="white" stroke-width="2"/>
<path d="M27 62L62 27" stroke="white" stroke-width="2"/>
<circle cx="57.5" cy="57.5" r="4.29487" stroke="white" stroke-width="2"/>
<path d="M37.6152 136V126.047H40.8965C41.8991 126.047 42.6875 126.259 43.2617 126.683C43.8359 127.106 44.123 127.774 44.123 128.686C44.123 129.232 43.984 129.677 43.7061 130.019C43.4281 130.36 43.084 130.604 42.6738 130.75V130.777C43.1751 130.923 43.5853 131.192 43.9043 131.584C44.2233 131.976 44.3828 132.491 44.3828 133.129C44.3828 134.04 44.082 134.747 43.4805 135.248C42.8835 135.749 42.0905 136 41.1016 136H37.6152ZM38.9004 134.92H41.1016C41.7852 134.92 42.2865 134.758 42.6055 134.435C42.9245 134.111 43.084 133.676 43.084 133.129C43.084 132.582 42.9245 132.149 42.6055 131.83C42.2865 131.511 41.7852 131.352 41.1016 131.352H38.9004V134.92ZM38.9004 130.285H40.8965C41.5801 130.285 42.0723 130.144 42.373 129.861C42.6738 129.579 42.8242 129.187 42.8242 128.686C42.8242 128.184 42.6738 127.799 42.373 127.53C42.0723 127.261 41.5801 127.127 40.8965 127.127H38.9004V130.285ZM46.1328 136V125.5H47.4043V136H46.1328ZM49.4141 133.45V128.809H50.6855V133.464C50.6855 134.038 50.8132 134.451 51.0684 134.701C51.3281 134.947 51.695 135.07 52.1689 135.07C52.5745 135.07 52.9323 134.961 53.2422 134.742C53.5521 134.523 53.7936 134.241 53.9668 133.895V128.809H55.2383V136H54.0898L54.0352 135.077H53.9941C53.7344 135.405 53.4154 135.665 53.0371 135.856C52.6634 136.043 52.2487 136.137 51.793 136.137C51.0684 136.137 50.4896 135.932 50.0566 135.521C49.6283 135.107 49.4141 134.416 49.4141 133.45ZM56.7627 132.281V131.105H60.6182V132.281H56.7627ZM62.1426 136V128.809H63.291L63.3457 129.731H63.3867C63.569 129.431 63.8083 129.169 64.1045 128.945C64.4007 128.717 64.7539 128.604 65.1641 128.604C65.2643 128.604 65.3691 128.615 65.4785 128.638C65.5879 128.66 65.6654 128.681 65.7109 128.699V129.875C65.6198 129.857 65.5241 129.843 65.4238 129.834C65.3236 129.825 65.2142 129.82 65.0957 129.82C64.6855 129.82 64.3369 129.927 64.0498 130.142C63.7627 130.356 63.5508 130.622 63.4141 130.941V136H62.1426ZM66.2578 133.881C66.2578 133.152 66.5472 132.584 67.126 132.179C67.7048 131.773 68.4408 131.57 69.334 131.57H70.9609V131.078C70.9609 130.645 70.8493 130.294 70.626 130.025C70.4027 129.752 70.0176 129.615 69.4707 129.615C68.9238 129.615 68.5319 129.729 68.2949 129.957C68.0625 130.18 67.9463 130.44 67.9463 130.736V130.771H66.6816V130.736C66.6816 130.167 66.9346 129.67 67.4404 129.246C67.9508 128.818 68.639 128.604 69.5049 128.604C70.3708 128.604 71.0407 128.811 71.5146 129.226C71.9932 129.64 72.2324 130.258 72.2324 131.078V134.359C72.2324 134.656 72.2552 134.936 72.3008 135.2C72.3464 135.46 72.4102 135.69 72.4922 135.891V136H71.2617C71.1979 135.886 71.1387 135.738 71.084 135.556C71.0339 135.373 71.002 135.191 70.9883 135.009C70.8197 135.305 70.5462 135.567 70.168 135.795C69.7943 136.023 69.3112 136.137 68.7188 136.137C68.0352 136.137 67.4541 135.943 66.9756 135.556C66.4971 135.168 66.2578 134.61 66.2578 133.881ZM67.5293 133.812C67.5293 134.223 67.6478 134.544 67.8848 134.776C68.1217 135.009 68.4909 135.125 68.9922 135.125C69.4935 135.125 69.9469 134.952 70.3525 134.605C70.7581 134.259 70.9609 133.892 70.9609 133.505V132.473H69.4707C68.8327 132.473 68.3496 132.593 68.0215 132.835C67.6934 133.076 67.5293 133.402 67.5293 133.812ZM73.4492 138.844V137.764C73.5677 137.8 73.6999 137.83 73.8457 137.853C73.9915 137.875 74.1328 137.887 74.2695 137.887C74.5885 137.887 74.8665 137.766 75.1035 137.524C75.3405 137.287 75.5911 136.77 75.8555 135.973V135.966L73.1758 128.809H74.4062L76.1084 133.539C76.1722 133.721 76.2292 133.892 76.2793 134.052C76.3294 134.211 76.3727 134.359 76.4092 134.496H76.4502C76.4912 134.359 76.5368 134.211 76.5869 134.052C76.6416 133.892 76.6986 133.721 76.7578 133.539L78.3438 128.809H79.5469L76.6279 136.957C76.4001 137.595 76.097 138.092 75.7188 138.447C75.3451 138.803 74.8848 138.98 74.3379 138.98C74.1556 138.98 73.9938 138.969 73.8525 138.946C73.7113 138.924 73.5768 138.889 73.4492 138.844Z" fill="white"/>
</svg>
