<svg width="116" height="137" viewBox="0 0 116 137" fill="none" xmlns="http://www.w3.org/2000/svg">
<circle cx="58" cy="58" r="53" stroke="#F8343B" stroke-width="4"/>
<path d="M36.3643 133.279V133.197H37.6768V133.279C37.6768 133.881 37.8796 134.332 38.2852 134.633C38.6908 134.934 39.2581 135.084 39.9873 135.084C40.7165 135.084 41.2747 134.929 41.6621 134.619C42.0495 134.309 42.2432 133.904 42.2432 133.402C42.2432 132.947 42.054 132.582 41.6758 132.309C41.3021 132.035 40.5934 131.748 39.5498 131.447C38.4652 131.133 37.6973 130.766 37.2461 130.347C36.7949 129.923 36.5693 129.324 36.5693 128.549C36.5693 127.774 36.8656 127.129 37.458 126.614C38.0505 126.099 38.8708 125.842 39.9189 125.842C40.9671 125.842 41.8011 126.113 42.4209 126.655C43.0407 127.198 43.3506 127.888 43.3506 128.727V128.809H42.0381V128.727C42.0381 128.198 41.8604 127.772 41.5049 127.448C41.1494 127.125 40.6208 126.963 39.9189 126.963C39.2171 126.963 38.6999 127.102 38.3672 127.38C38.0345 127.658 37.8682 128.036 37.8682 128.515C37.8682 128.948 38.0391 129.289 38.3809 129.54C38.7227 129.791 39.4268 130.066 40.4932 130.367C41.5596 130.668 42.3343 131.044 42.8174 131.495C43.3005 131.946 43.542 132.582 43.542 133.402C43.542 134.223 43.223 134.895 42.585 135.419C41.9469 135.943 41.0811 136.205 39.9873 136.205C38.8936 136.205 38.0163 135.943 37.3555 135.419C36.6947 134.895 36.3643 134.182 36.3643 133.279ZM44.0889 129.779V128.809H48.1904V129.779H44.0889ZM45.374 134.223V129.396V129.191V127.031H46.6455V134.223C46.6455 134.542 46.7093 134.77 46.8369 134.906C46.9645 135.043 47.165 135.111 47.4385 135.111C47.5661 135.111 47.6914 135.098 47.8145 135.07C47.9375 135.043 48.0628 135.007 48.1904 134.961V136C48.0719 136.055 47.917 136.103 47.7256 136.144C47.5342 136.185 47.3245 136.205 47.0967 136.205C46.5726 136.205 46.1533 136.046 45.8389 135.727C45.529 135.408 45.374 134.906 45.374 134.223ZM49.5439 136V128.809H50.6924L50.7471 129.731H50.7881C50.9704 129.431 51.2096 129.169 51.5059 128.945C51.8021 128.717 52.1553 128.604 52.5654 128.604C52.6657 128.604 52.7705 128.615 52.8799 128.638C52.9893 128.66 53.0667 128.681 53.1123 128.699V129.875C53.0212 129.857 52.9255 129.843 52.8252 129.834C52.7249 129.825 52.6156 129.82 52.4971 129.82C52.0869 129.82 51.7383 129.927 51.4512 130.142C51.1641 130.356 50.9521 130.622 50.8154 130.941V136H49.5439ZM53.7754 132.514V132.295C53.7754 131.21 54.0716 130.324 54.6641 129.636C55.2611 128.948 56.0495 128.604 57.0293 128.604C58.0091 128.604 58.7633 128.925 59.292 129.567C59.8206 130.21 60.085 131.078 60.085 132.172V132.691H54.5547V131.68H58.8066V131.516C58.8066 130.996 58.6585 130.554 58.3623 130.189C58.0661 129.825 57.64 129.643 57.084 129.643C56.4095 129.643 55.9059 129.9 55.5732 130.415C55.2406 130.925 55.0742 131.552 55.0742 132.295V132.514C55.0742 133.257 55.2497 133.885 55.6006 134.4C55.9515 134.911 56.4961 135.166 57.2344 135.166C57.6901 135.166 58.082 135.066 58.4102 134.865C58.7383 134.665 59.0049 134.428 59.21 134.154L60.0303 134.804C59.8024 135.146 59.4492 135.465 58.9707 135.761C58.4967 136.057 57.918 136.205 57.2344 136.205C56.1178 136.205 55.2611 135.861 54.6641 135.173C54.0716 134.485 53.7754 133.598 53.7754 132.514ZM61.2471 133.881C61.2471 133.152 61.5365 132.584 62.1152 132.179C62.694 131.773 63.43 131.57 64.3232 131.57H65.9502V131.078C65.9502 130.645 65.8385 130.294 65.6152 130.025C65.3919 129.752 65.0068 129.615 64.46 129.615C63.9131 129.615 63.5212 129.729 63.2842 129.957C63.0518 130.18 62.9355 130.44 62.9355 130.736V130.771H61.6709V130.736C61.6709 130.167 61.9238 129.67 62.4297 129.246C62.9401 128.818 63.6283 128.604 64.4941 128.604C65.36 128.604 66.0299 128.811 66.5039 129.226C66.9824 129.64 67.2217 130.258 67.2217 131.078V134.359C67.2217 134.656 67.2445 134.936 67.29 135.2C67.3356 135.46 67.3994 135.69 67.4814 135.891V136H66.251C66.1872 135.886 66.1279 135.738 66.0732 135.556C66.0231 135.373 65.9912 135.191 65.9775 135.009C65.8089 135.305 65.5355 135.567 65.1572 135.795C64.7835 136.023 64.3005 136.137 63.708 136.137C63.0244 136.137 62.4434 135.943 61.9648 135.556C61.4863 135.168 61.2471 134.61 61.2471 133.881ZM62.5186 133.812C62.5186 134.223 62.637 134.544 62.874 134.776C63.111 135.009 63.4801 135.125 63.9814 135.125C64.4827 135.125 64.9362 134.952 65.3418 134.605C65.7474 134.259 65.9502 133.892 65.9502 133.505V132.473H64.46C63.8219 132.473 63.3389 132.593 63.0107 132.835C62.6826 133.076 62.5186 133.402 62.5186 133.812ZM69.2041 136V128.809H70.3525L70.4072 129.731H70.4482C70.7035 129.408 71.0111 129.15 71.3711 128.959C71.7357 128.768 72.139 128.672 72.5811 128.672C73.0641 128.672 73.4811 128.768 73.832 128.959C74.1829 129.15 74.4495 129.46 74.6318 129.889H74.6729C74.9736 129.46 75.3063 129.15 75.6709 128.959C76.0355 128.768 76.4548 128.672 76.9287 128.672C77.6761 128.672 78.2594 128.879 78.6787 129.294C79.098 129.704 79.3076 130.392 79.3076 131.358V136H78.0361V131.345C78.0361 130.771 77.9131 130.36 77.667 130.114C77.4209 129.864 77.0723 129.738 76.6211 129.738C76.2292 129.738 75.8851 129.848 75.5889 130.066C75.2972 130.285 75.0648 130.568 74.8916 130.914V136H73.6201V131.345C73.6201 130.771 73.4971 130.36 73.251 130.114C73.0049 129.864 72.6562 129.738 72.2051 129.738C71.8132 129.738 71.4691 129.848 71.1729 130.066C70.8812 130.285 70.6488 130.568 70.4756 130.914V136H69.2041Z" fill="#F8343B"/>
<path d="M76.5811 53.6816C79.8882 55.6112 79.8884 60.39 76.5811 62.3193L52.5195 76.3545C49.1863 78.2989 45.0002 75.8949 45 72.0361L45 43.9639C45.0002 40.1051 49.1863 37.7011 52.5195 39.6455L76.5811 53.6816Z" fill="#F8343B" fill-opacity="0.3" stroke="#F8343B" stroke-width="2"/>
<path d="M90.1797 53.8611C93.7321 55.9334 93.7321 61.0671 90.1797 63.1394L45.002 89.4919C41.4218 91.5803 36.9258 88.998 36.9258 84.8533L36.9258 32.1472C36.9258 28.0026 41.4218 25.4196 45.002 27.5076L90.1797 53.8611Z" stroke="#F8343B" stroke-width="2.14815"/>
</svg>
