<svg width="116" height="139" viewBox="0 0 116 139" fill="none" xmlns="http://www.w3.org/2000/svg">
<circle cx="58" cy="58" r="54" stroke="white" stroke-width="2"/>
<mask id="path-2-outside-1_192_2812" maskUnits="userSpaceOnUse" x="31.4197" y="39.7371" width="54" height="39" fill="black">
<rect fill="white" x="31.4197" y="39.7371" width="54" height="39"/>
<path d="M58.0007 43.7371C67.2579 43.7371 75.4679 49.8858 80.5818 59.3689C75.4679 68.8523 67.258 75.0017 58.0007 75.0017C48.7435 75.0016 40.5335 68.8523 35.4197 59.3689C40.5334 49.8858 48.7436 43.7373 58.0007 43.7371Z"/>
</mask>
<path d="M58.0007 43.7371V40.2632H58.0007L58.0007 43.7371ZM80.5818 59.3689L83.6394 61.0177L84.5286 59.3689L83.6394 57.72L80.5818 59.3689ZM58.0007 75.0017L58.0007 78.4756H58.0007V75.0017ZM35.4197 59.3689L32.362 57.7201L31.4729 59.3689L32.362 61.0177L35.4197 59.3689ZM58.0007 43.7371V47.2109C65.59 47.2109 72.8053 52.2672 77.5242 61.0178L80.5818 59.3689L83.6394 57.72C78.1305 47.5044 68.9258 40.2632 58.0007 40.2632V43.7371ZM80.5818 59.3689L77.5241 57.7201C72.8052 66.4711 65.59 71.5278 58.0007 71.5278V75.0017V78.4756C68.9261 78.4756 78.1307 71.2334 83.6394 61.0177L80.5818 59.3689ZM58.0007 75.0017L58.0008 71.5278C50.4115 71.5277 43.1962 66.4711 38.4773 57.7201L35.4197 59.3689L32.362 61.0177C37.8708 71.2335 47.0755 78.4754 58.0007 78.4756L58.0007 75.0017ZM35.4197 59.3689L38.4773 61.0177C43.196 52.2672 50.4115 47.2111 58.0008 47.2109L58.0007 43.7371L58.0007 40.2632C47.0758 40.2634 37.8709 47.5043 32.362 57.7201L35.4197 59.3689Z" fill="white" mask="url(#path-2-outside-1_192_2812)"/>
<path d="M57.9996 42C52.244 42.0001 47.5787 46.6663 47.5787 52.4219C47.5789 58.1774 52.2441 62.8426 57.9996 62.8428C63.7553 62.8428 68.4214 58.1775 68.4215 52.4219C68.4215 46.6662 63.7553 42 57.9996 42ZM55.3297 45.4736C57.6924 45.4736 59.608 47.3893 59.608 49.752C59.6079 52.1145 57.6923 54.0293 55.3297 54.0293C52.9673 54.029 51.0525 52.1144 51.0524 49.752C51.0524 47.3894 52.9672 45.4739 55.3297 45.4736Z" fill="white"/>
<path d="M24.9346 136L28.7217 125.979H29.8975L33.6846 136H32.3174L29.583 128.48C29.5283 128.33 29.4805 128.184 29.4395 128.043C29.3984 127.902 29.362 127.756 29.3301 127.605H29.2617C29.2298 127.756 29.1934 127.902 29.1523 128.043C29.1113 128.184 29.0635 128.33 29.0088 128.48L26.2471 136H24.9346ZM26.5615 133.402L26.9648 132.322H31.6406L32.0371 133.402H26.5615ZM34.6963 136V128.809H35.8447L35.8994 129.731H35.9404C36.2002 129.403 36.5169 129.146 36.8906 128.959C37.2689 128.768 37.6859 128.672 38.1416 128.672C38.8662 128.672 39.4427 128.879 39.8711 129.294C40.304 129.704 40.5205 130.392 40.5205 131.358V136H39.249V131.345C39.249 130.771 39.1191 130.36 38.8594 130.114C38.6042 129.864 38.2396 129.738 37.7656 129.738C37.36 129.738 37.0023 129.848 36.6924 130.066C36.3825 130.285 36.141 130.568 35.9678 130.914V136H34.6963ZM41.8057 138.844V137.764C41.9242 137.8 42.0563 137.83 42.2021 137.853C42.348 137.875 42.4893 137.887 42.626 137.887C42.945 137.887 43.223 137.766 43.46 137.524C43.6969 137.287 43.9476 136.77 44.2119 135.973V135.966L41.5322 128.809H42.7627L44.4648 133.539C44.5286 133.721 44.5856 133.892 44.6357 134.052C44.6859 134.211 44.7292 134.359 44.7656 134.496H44.8066C44.8477 134.359 44.8932 134.211 44.9434 134.052C44.998 133.892 45.055 133.721 45.1143 133.539L46.7002 128.809H47.9033L44.9844 136.957C44.7565 137.595 44.4535 138.092 44.0752 138.447C43.7015 138.803 43.2412 138.98 42.6943 138.98C42.512 138.98 42.3503 138.969 42.209 138.946C42.0677 138.924 41.9333 138.889 41.8057 138.844ZM52.4834 136V126.047H55.7236C56.79 126.047 57.6126 126.313 58.1914 126.847C58.7702 127.38 59.0596 128.089 59.0596 128.973C59.0596 129.857 58.7702 130.572 58.1914 131.119C57.6126 131.666 56.79 131.939 55.7236 131.939H53.7959V136H52.4834ZM53.7959 130.873H55.7236C56.4801 130.873 57.0065 130.688 57.3027 130.319C57.599 129.95 57.7471 129.501 57.7471 128.973C57.7471 128.444 57.599 128.002 57.3027 127.646C57.0065 127.291 56.4801 127.113 55.7236 127.113H53.7959V130.873ZM58.1299 136L55.6963 131.406L56.9951 131.208L59.5928 136H58.1299ZM60.4814 133.881C60.4814 133.152 60.7708 132.584 61.3496 132.179C61.9284 131.773 62.6644 131.57 63.5576 131.57H65.1846V131.078C65.1846 130.645 65.0729 130.294 64.8496 130.025C64.6263 129.752 64.2412 129.615 63.6943 129.615C63.1475 129.615 62.7555 129.729 62.5186 129.957C62.2861 130.18 62.1699 130.44 62.1699 130.736V130.771H60.9053V130.736C60.9053 130.167 61.1582 129.67 61.6641 129.246C62.1745 128.818 62.8626 128.604 63.7285 128.604C64.5944 128.604 65.2643 128.811 65.7383 129.226C66.2168 129.64 66.4561 130.258 66.4561 131.078V134.359C66.4561 134.656 66.4788 134.936 66.5244 135.2C66.57 135.46 66.6338 135.69 66.7158 135.891V136H65.4854C65.4215 135.886 65.3623 135.738 65.3076 135.556C65.2575 135.373 65.2256 135.191 65.2119 135.009C65.0433 135.305 64.7699 135.567 64.3916 135.795C64.0179 136.023 63.5348 136.137 62.9424 136.137C62.2588 136.137 61.6777 135.943 61.1992 135.556C60.7207 135.168 60.4814 134.61 60.4814 133.881ZM61.7529 133.812C61.7529 134.223 61.8714 134.544 62.1084 134.776C62.3454 135.009 62.7145 135.125 63.2158 135.125C63.7171 135.125 64.1706 134.952 64.5762 134.605C64.9818 134.259 65.1846 133.892 65.1846 133.505V132.473H63.6943C63.0563 132.473 62.5732 132.593 62.2451 132.835C61.917 133.076 61.7529 133.402 61.7529 133.812ZM67.4268 129.779V128.809H71.5283V129.779H67.4268ZM68.7119 134.223V129.396V129.191V127.031H69.9834V134.223C69.9834 134.542 70.0472 134.77 70.1748 134.906C70.3024 135.043 70.5029 135.111 70.7764 135.111C70.904 135.111 71.0293 135.098 71.1523 135.07C71.2754 135.043 71.4007 135.007 71.5283 134.961V136C71.4098 136.055 71.2549 136.103 71.0635 136.144C70.8721 136.185 70.6624 136.205 70.4346 136.205C69.9105 136.205 69.4912 136.046 69.1768 135.727C68.8669 135.408 68.7119 134.906 68.7119 134.223ZM72.9434 136V128.809H74.2148V136H72.9434ZM72.7861 126.635C72.7861 126.421 72.8545 126.241 72.9912 126.095C73.1279 125.949 73.3239 125.876 73.5791 125.876C73.8343 125.876 74.0303 125.949 74.167 126.095C74.3037 126.241 74.3721 126.421 74.3721 126.635C74.3721 126.849 74.3037 127.029 74.167 127.175C74.0303 127.321 73.8343 127.394 73.5791 127.394C73.3239 127.394 73.1279 127.321 72.9912 127.175C72.8545 127.029 72.7861 126.849 72.7861 126.635ZM76.2998 136V128.809H77.4482L77.5029 129.731H77.5439C77.8037 129.403 78.1204 129.146 78.4941 128.959C78.8724 128.768 79.2894 128.672 79.7451 128.672C80.4697 128.672 81.0462 128.879 81.4746 129.294C81.9076 129.704 82.124 130.392 82.124 131.358V136H80.8525V131.345C80.8525 130.771 80.7227 130.36 80.4629 130.114C80.2077 129.864 79.8431 129.738 79.3691 129.738C78.9635 129.738 78.6058 129.848 78.2959 130.066C77.986 130.285 77.7445 130.568 77.5713 130.914V136H76.2998ZM83.915 137.941L84.7148 136.984C84.9154 137.217 85.1979 137.422 85.5625 137.6C85.9271 137.782 86.3372 137.873 86.793 137.873C87.4082 137.873 87.8936 137.698 88.249 137.347C88.6045 136.996 88.7822 136.501 88.7822 135.863V135.152C88.5726 135.449 88.29 135.688 87.9346 135.87C87.5837 136.048 87.1576 136.137 86.6562 136.137C85.7448 136.137 85.0156 135.795 84.4688 135.111C83.9219 134.428 83.6484 133.562 83.6484 132.514V132.295C83.6484 131.247 83.9219 130.381 84.4688 129.697C85.0156 129.014 85.7448 128.672 86.6562 128.672C87.1576 128.672 87.5951 128.777 87.9688 128.986C88.347 129.196 88.6273 129.449 88.8096 129.745H88.8506L88.9053 128.809H90.0537V135.863C90.0537 136.866 89.7552 137.636 89.1582 138.174C88.5612 138.712 87.7842 138.98 86.8271 138.98C86.2347 138.98 85.6878 138.882 85.1865 138.687C84.6852 138.491 84.2614 138.242 83.915 137.941ZM84.9473 132.514C84.9473 133.243 85.1068 133.856 85.4258 134.353C85.7448 134.849 86.2461 135.098 86.9297 135.098C87.3854 135.098 87.7728 134.972 88.0918 134.722C88.4108 134.471 88.641 134.186 88.7822 133.867V130.941C88.641 130.622 88.4108 130.338 88.0918 130.087C87.7728 129.836 87.3854 129.711 86.9297 129.711C86.2461 129.711 85.7448 129.959 85.4258 130.456C85.1068 130.953 84.9473 131.566 84.9473 132.295V132.514Z" fill="white"/>
</svg>
