<svg width="118" height="140" viewBox="0 0 118 140" fill="none" xmlns="http://www.w3.org/2000/svg">
<circle cx="59" cy="59" r="57" stroke="#3077F2" stroke-width="4"/>
<mask id="path-2-outside-1_192_2817" maskUnits="userSpaceOnUse" x="32.4197" y="40.7371" width="54" height="39" fill="black">
<rect fill="white" x="32.4197" y="40.7371" width="54" height="39"/>
<path d="M59.0007 44.7371C68.2579 44.7371 76.4679 50.8858 81.5818 60.3689C76.4679 69.8523 68.258 76.0017 59.0007 76.0017C49.7435 76.0016 41.5335 69.8523 36.4197 60.3689C41.5334 50.8858 49.7436 44.7373 59.0007 44.7371Z"/>
</mask>
<path d="M59.0007 44.7371V41.2632H59.0007L59.0007 44.7371ZM81.5818 60.3689L84.6394 62.0177L85.5286 60.3689L84.6394 58.72L81.5818 60.3689ZM59.0007 76.0017L59.0007 79.4756H59.0007V76.0017ZM36.4197 60.3689L33.362 58.7201L32.4729 60.3689L33.362 62.0177L36.4197 60.3689ZM59.0007 44.7371V48.2109C66.59 48.2109 73.8053 53.2672 78.5242 62.0178L81.5818 60.3689L84.6394 58.72C79.1305 48.5044 69.9258 41.2632 59.0007 41.2632V44.7371ZM81.5818 60.3689L78.5241 58.7201C73.8052 67.4711 66.59 72.5278 59.0007 72.5278V76.0017V79.4756C69.9261 79.4756 79.1307 72.2334 84.6394 62.0177L81.5818 60.3689ZM59.0007 76.0017L59.0008 72.5278C51.4115 72.5277 44.1962 67.4711 39.4773 58.7201L36.4197 60.3689L33.362 62.0177C38.8708 72.2335 48.0755 79.4754 59.0007 79.4756L59.0007 76.0017ZM36.4197 60.3689L39.4773 62.0177C44.196 53.2672 51.4115 48.2111 59.0008 48.2109L59.0007 44.7371L59.0007 41.2632C48.0758 41.2634 38.8709 48.5043 33.362 58.7201L36.4197 60.3689Z" fill="#3077F2" mask="url(#path-2-outside-1_192_2817)"/>
<path d="M58.9996 43C53.244 43.0001 48.5787 47.6663 48.5787 53.4219C48.5789 59.1774 53.2441 63.8426 58.9996 63.8428C64.7553 63.8428 69.4214 59.1775 69.4215 53.4219C69.4215 47.6662 64.7553 43 58.9996 43ZM56.3297 46.4736C58.6924 46.4736 60.608 48.3893 60.608 50.752C60.6079 53.1145 58.6923 55.0293 56.3297 55.0293C53.9673 55.029 52.0525 53.1144 52.0524 50.752C52.0524 48.3894 53.9672 46.4739 56.3297 46.4736Z" fill="#3077F2"/>
<path d="M25.9346 137L29.7217 126.979H30.8975L34.6846 137H33.3174L30.583 129.48C30.5283 129.33 30.4805 129.184 30.4395 129.043C30.3984 128.902 30.362 128.756 30.3301 128.605H30.2617C30.2298 128.756 30.1934 128.902 30.1523 129.043C30.1113 129.184 30.0635 129.33 30.0088 129.48L27.2471 137H25.9346ZM27.5615 134.402L27.9648 133.322H32.6406L33.0371 134.402H27.5615ZM35.6963 137V129.809H36.8447L36.8994 130.731H36.9404C37.2002 130.403 37.5169 130.146 37.8906 129.959C38.2689 129.768 38.6859 129.672 39.1416 129.672C39.8662 129.672 40.4427 129.879 40.8711 130.294C41.304 130.704 41.5205 131.392 41.5205 132.358V137H40.249V132.345C40.249 131.771 40.1191 131.36 39.8594 131.114C39.6042 130.864 39.2396 130.738 38.7656 130.738C38.36 130.738 38.0023 130.848 37.6924 131.066C37.3825 131.285 37.141 131.568 36.9678 131.914V137H35.6963ZM42.8057 139.844V138.764C42.9242 138.8 43.0563 138.83 43.2021 138.853C43.348 138.875 43.4893 138.887 43.626 138.887C43.945 138.887 44.223 138.766 44.46 138.524C44.6969 138.287 44.9476 137.77 45.2119 136.973V136.966L42.5322 129.809H43.7627L45.4648 134.539C45.5286 134.721 45.5856 134.892 45.6357 135.052C45.6859 135.211 45.7292 135.359 45.7656 135.496H45.8066C45.8477 135.359 45.8932 135.211 45.9434 135.052C45.998 134.892 46.055 134.721 46.1143 134.539L47.7002 129.809H48.9033L45.9844 137.957C45.7565 138.595 45.4535 139.092 45.0752 139.447C44.7015 139.803 44.2412 139.98 43.6943 139.98C43.512 139.98 43.3503 139.969 43.209 139.946C43.0677 139.924 42.9333 139.889 42.8057 139.844ZM53.4834 137V127.047H56.7236C57.79 127.047 58.6126 127.313 59.1914 127.847C59.7702 128.38 60.0596 129.089 60.0596 129.973C60.0596 130.857 59.7702 131.572 59.1914 132.119C58.6126 132.666 57.79 132.939 56.7236 132.939H54.7959V137H53.4834ZM54.7959 131.873H56.7236C57.4801 131.873 58.0065 131.688 58.3027 131.319C58.599 130.95 58.7471 130.501 58.7471 129.973C58.7471 129.444 58.599 129.002 58.3027 128.646C58.0065 128.291 57.4801 128.113 56.7236 128.113H54.7959V131.873ZM59.1299 137L56.6963 132.406L57.9951 132.208L60.5928 137H59.1299ZM61.4814 134.881C61.4814 134.152 61.7708 133.584 62.3496 133.179C62.9284 132.773 63.6644 132.57 64.5576 132.57H66.1846V132.078C66.1846 131.645 66.0729 131.294 65.8496 131.025C65.6263 130.752 65.2412 130.615 64.6943 130.615C64.1475 130.615 63.7555 130.729 63.5186 130.957C63.2861 131.18 63.1699 131.44 63.1699 131.736V131.771H61.9053V131.736C61.9053 131.167 62.1582 130.67 62.6641 130.246C63.1745 129.818 63.8626 129.604 64.7285 129.604C65.5944 129.604 66.2643 129.811 66.7383 130.226C67.2168 130.64 67.4561 131.258 67.4561 132.078V135.359C67.4561 135.656 67.4788 135.936 67.5244 136.2C67.57 136.46 67.6338 136.69 67.7158 136.891V137H66.4854C66.4215 136.886 66.3623 136.738 66.3076 136.556C66.2575 136.373 66.2256 136.191 66.2119 136.009C66.0433 136.305 65.7699 136.567 65.3916 136.795C65.0179 137.023 64.5348 137.137 63.9424 137.137C63.2588 137.137 62.6777 136.943 62.1992 136.556C61.7207 136.168 61.4814 135.61 61.4814 134.881ZM62.7529 134.812C62.7529 135.223 62.8714 135.544 63.1084 135.776C63.3454 136.009 63.7145 136.125 64.2158 136.125C64.7171 136.125 65.1706 135.952 65.5762 135.605C65.9818 135.259 66.1846 134.892 66.1846 134.505V133.473H64.6943C64.0563 133.473 63.5732 133.593 63.2451 133.835C62.917 134.076 62.7529 134.402 62.7529 134.812ZM68.4268 130.779V129.809H72.5283V130.779H68.4268ZM69.7119 135.223V130.396V130.191V128.031H70.9834V135.223C70.9834 135.542 71.0472 135.77 71.1748 135.906C71.3024 136.043 71.5029 136.111 71.7764 136.111C71.904 136.111 72.0293 136.098 72.1523 136.07C72.2754 136.043 72.4007 136.007 72.5283 135.961V137C72.4098 137.055 72.2549 137.103 72.0635 137.144C71.8721 137.185 71.6624 137.205 71.4346 137.205C70.9105 137.205 70.4912 137.046 70.1768 136.727C69.8669 136.408 69.7119 135.906 69.7119 135.223ZM73.9434 137V129.809H75.2148V137H73.9434ZM73.7861 127.635C73.7861 127.421 73.8545 127.241 73.9912 127.095C74.1279 126.949 74.3239 126.876 74.5791 126.876C74.8343 126.876 75.0303 126.949 75.167 127.095C75.3037 127.241 75.3721 127.421 75.3721 127.635C75.3721 127.849 75.3037 128.029 75.167 128.175C75.0303 128.321 74.8343 128.394 74.5791 128.394C74.3239 128.394 74.1279 128.321 73.9912 128.175C73.8545 128.029 73.7861 127.849 73.7861 127.635ZM77.2998 137V129.809H78.4482L78.5029 130.731H78.5439C78.8037 130.403 79.1204 130.146 79.4941 129.959C79.8724 129.768 80.2894 129.672 80.7451 129.672C81.4697 129.672 82.0462 129.879 82.4746 130.294C82.9076 130.704 83.124 131.392 83.124 132.358V137H81.8525V132.345C81.8525 131.771 81.7227 131.36 81.4629 131.114C81.2077 130.864 80.8431 130.738 80.3691 130.738C79.9635 130.738 79.6058 130.848 79.2959 131.066C78.986 131.285 78.7445 131.568 78.5713 131.914V137H77.2998ZM84.915 138.941L85.7148 137.984C85.9154 138.217 86.1979 138.422 86.5625 138.6C86.9271 138.782 87.3372 138.873 87.793 138.873C88.4082 138.873 88.8936 138.698 89.249 138.347C89.6045 137.996 89.7822 137.501 89.7822 136.863V136.152C89.5726 136.449 89.29 136.688 88.9346 136.87C88.5837 137.048 88.1576 137.137 87.6562 137.137C86.7448 137.137 86.0156 136.795 85.4688 136.111C84.9219 135.428 84.6484 134.562 84.6484 133.514V133.295C84.6484 132.247 84.9219 131.381 85.4688 130.697C86.0156 130.014 86.7448 129.672 87.6562 129.672C88.1576 129.672 88.5951 129.777 88.9688 129.986C89.347 130.196 89.6273 130.449 89.8096 130.745H89.8506L89.9053 129.809H91.0537V136.863C91.0537 137.866 90.7552 138.636 90.1582 139.174C89.5612 139.712 88.7842 139.98 87.8271 139.98C87.2347 139.98 86.6878 139.882 86.1865 139.687C85.6852 139.491 85.2614 139.242 84.915 138.941ZM85.9473 133.514C85.9473 134.243 86.1068 134.856 86.4258 135.353C86.7448 135.849 87.2461 136.098 87.9297 136.098C88.3854 136.098 88.7728 135.972 89.0918 135.722C89.4108 135.471 89.641 135.186 89.7822 134.867V131.941C89.641 131.622 89.4108 131.338 89.0918 131.087C88.7728 130.836 88.3854 130.711 87.9297 130.711C87.2461 130.711 86.7448 130.959 86.4258 131.456C86.1068 131.953 85.9473 132.566 85.9473 133.295V133.514Z" fill="#3077F2"/>
</svg>
