<svg width="116" height="137" viewBox="0 0 116 137" fill="none" xmlns="http://www.w3.org/2000/svg">
<circle cx="58" cy="58" r="54" stroke="white" stroke-width="2"/>
<path d="M55.5245 38.0286C60.8518 37.8716 71.5559 38.2979 76.3115 40.9055C77.4235 41.5151 78.2318 42.3481 78.597 43.6036C79.1874 45.6338 79.1272 49.5888 78.0859 51.4952C77.5866 52.4094 76.7544 53.1912 75.7448 53.4821C73.9101 54.0107 70.961 54.1488 69.2428 53.163C66.9965 51.8743 67.2676 48.2572 66.6665 46.0074C66.4004 45.0113 65.9739 44.0636 65.0441 43.5338C62.8296 42.2722 55.6919 42.6002 53.2594 43.2773C51.1855 43.8546 49.4825 44.9904 48.4091 46.9007C47.6824 48.194 47.3093 49.6652 47.0754 51.1232C46.5952 54.1156 46.6579 57.1892 46.7104 60.2094C46.7634 63.2567 46.7489 66.506 47.5614 69.4623C48.1391 71.5643 49.2047 73.37 51.1317 74.4571C52.1364 75.0239 53.3004 75.37 54.4311 75.5622C56.7166 75.9506 61.4442 75.9176 63.6654 75.2836C64.6079 75.0146 65.5958 74.5173 66.0835 73.6182C66.7811 72.3324 66.8023 67.4937 66.3854 66.0999C66.2897 65.7799 66.1443 65.4355 65.9013 65.1999C64.8075 64.1398 62.1153 64.1464 60.6815 63.3501C60.1907 63.0775 59.5848 62.6504 59.4286 62.0724C59.3383 61.7388 59.4111 61.371 59.5869 61.0779C59.9348 60.4983 60.6047 60.3015 61.2183 60.1521C61.6471 60.0766 62.0987 60.0182 62.5342 60.0193C66.085 60.0282 69.6288 60.0164 73.1791 59.9713C75.0944 59.9421 77.0098 59.9293 78.9253 59.933C80.1075 59.9328 84.947 59.5987 85 61.6441C84.8878 63.2301 82.0519 63.7242 80.9858 64.1588C77.933 65.4031 78.4071 67.8244 78.4108 70.499L78.413 76.3755C78.3037 76.5198 78.187 76.6582 78.0634 76.7901C74.6678 80.3883 64.2549 80.8895 59.584 80.9864C57.5449 81.0169 55.5054 80.9961 53.4675 80.924C48.5397 80.7792 42.6157 80.4936 38.8795 76.8798C34.9767 73.1047 34.0855 66.1211 34.005 60.8732C33.9135 54.906 35.0454 47.3552 39.3251 42.9668C43.8291 38.3484 49.6167 38.1246 55.5245 38.0286Z" fill="white"/>
<path d="M42.5166 131.338V130.709C42.5166 129.178 42.9085 127.984 43.6924 127.127C44.4808 126.27 45.4971 125.842 46.7412 125.842C47.8669 125.842 48.7487 126.145 49.3867 126.751C50.0293 127.353 50.387 128.063 50.46 128.884L50.4668 128.959H49.1543V128.891C49.1543 128.435 48.9424 128 48.5186 127.585C48.0947 127.17 47.4977 126.963 46.7275 126.963C45.8571 126.963 45.1576 127.296 44.6289 127.961C44.1048 128.626 43.8428 129.542 43.8428 130.709V131.338C43.8428 132.505 44.1048 133.421 44.6289 134.086C45.1576 134.751 45.9004 135.084 46.8574 135.084C47.3587 135.084 47.7917 135.032 48.1562 134.927C48.5208 134.822 48.8672 134.656 49.1953 134.428V132.104H46.7207V131.023H50.4668V134.906C50.1569 135.225 49.6943 135.521 49.0791 135.795C48.4639 136.068 47.7233 136.205 46.8574 136.205C45.5358 136.205 44.4808 135.777 43.6924 134.92C42.9085 134.063 42.5166 132.869 42.5166 131.338ZM52.0732 132.281V131.105H55.9287V132.281H52.0732ZM57.6035 136V126.047H60.8984C61.9922 126.047 62.833 126.323 63.4209 126.874C64.0088 127.421 64.3027 128.15 64.3027 129.062C64.3027 129.973 64.0088 130.709 63.4209 131.27C62.833 131.826 61.9922 132.104 60.8984 132.104H58.916V136H57.6035ZM58.916 131.023H60.8984C61.6732 131.023 62.2155 130.834 62.5254 130.456C62.8353 130.073 62.9902 129.608 62.9902 129.062C62.9902 128.515 62.8353 128.057 62.5254 127.688C62.2155 127.314 61.6732 127.127 60.8984 127.127H58.916V131.023ZM65.4307 131.338V130.709C65.4307 129.178 65.8226 127.984 66.6064 127.127C67.3949 126.27 68.4111 125.842 69.6553 125.842C70.7809 125.842 71.6628 126.145 72.3008 126.751C72.9434 127.353 73.3011 128.063 73.374 128.884L73.3809 128.959H72.0684V128.891C72.0684 128.435 71.8564 128 71.4326 127.585C71.0088 127.17 70.4118 126.963 69.6416 126.963C68.7712 126.963 68.0716 127.296 67.543 127.961C67.0189 128.626 66.7568 129.542 66.7568 130.709V131.338C66.7568 132.505 67.0189 133.421 67.543 134.086C68.0716 134.751 68.8145 135.084 69.7715 135.084C70.2728 135.084 70.7057 135.032 71.0703 134.927C71.4349 134.822 71.7812 134.656 72.1094 134.428V132.104H69.6348V131.023H73.3809V134.906C73.071 135.225 72.6084 135.521 71.9932 135.795C71.3779 136.068 70.6374 136.205 69.7715 136.205C68.4499 136.205 67.3949 135.777 66.6064 134.92C65.8226 134.063 65.4307 132.869 65.4307 131.338Z" fill="white"/>
</svg>
