<svg width="118" height="138" viewBox="0 0 118 138" fill="none" xmlns="http://www.w3.org/2000/svg">
<circle cx="59" cy="59" r="57" stroke="#19DC82" stroke-width="4"/>
<path d="M56.5245 39.0286C61.8518 38.8716 72.5559 39.2979 77.3115 41.9055C78.4235 42.5151 79.2318 43.3481 79.597 44.6036C80.1874 46.6338 80.1272 50.5888 79.0859 52.4952C78.5866 53.4094 77.7544 54.1912 76.7448 54.4821C74.9101 55.0107 71.961 55.1488 70.2428 54.163C67.9965 52.8743 68.2676 49.2572 67.6665 47.0074C67.4004 46.0113 66.9739 45.0636 66.0441 44.5338C63.8296 43.2722 56.6919 43.6002 54.2594 44.2773C52.1855 44.8546 50.4825 45.9904 49.4091 47.9007C48.6824 49.194 48.3093 50.6652 48.0754 52.1232C47.5952 55.1156 47.6579 58.1892 47.7104 61.2094C47.7634 64.2567 47.7489 67.506 48.5614 70.4623C49.1391 72.5643 50.2047 74.37 52.1317 75.4571C53.1364 76.0239 54.3004 76.37 55.4311 76.5622C57.7166 76.9506 62.4442 76.9176 64.6654 76.2836C65.6079 76.0146 66.5958 75.5173 67.0835 74.6182C67.7811 73.3324 67.8023 68.4937 67.3854 67.0999C67.2897 66.7799 67.1443 66.4355 66.9013 66.1999C65.8075 65.1398 63.1153 65.1464 61.6815 64.3501C61.1907 64.0775 60.5848 63.6504 60.4286 63.0724C60.3383 62.7388 60.4111 62.371 60.5869 62.0779C60.9348 61.4983 61.6047 61.3015 62.2183 61.1521C62.6471 61.0766 63.0987 61.0182 63.5342 61.0193C67.085 61.0282 70.6288 61.0164 74.1791 60.9713C76.0944 60.9421 78.0098 60.9293 79.9253 60.933C81.1075 60.9328 85.947 60.5987 86 62.6441C85.8878 64.2301 83.0519 64.7242 81.9858 65.1588C78.933 66.4031 79.4071 68.8244 79.4108 71.499L79.413 77.3755C79.3037 77.5198 79.187 77.6582 79.0634 77.7901C75.6678 81.3883 65.2549 81.8895 60.584 81.9864C58.5449 82.0169 56.5054 81.9961 54.4675 81.924C49.5397 81.7792 43.6157 81.4936 39.8795 77.8798C35.9767 74.1047 35.0855 67.1211 35.005 61.8732C34.9135 55.906 36.0454 48.3552 40.3251 43.9668C44.8291 39.3484 50.6167 39.1246 56.5245 39.0286Z" fill="#19DC82"/>
<path d="M43.5166 132.338V131.709C43.5166 130.178 43.9085 128.984 44.6924 128.127C45.4808 127.27 46.4971 126.842 47.7412 126.842C48.8669 126.842 49.7487 127.145 50.3867 127.751C51.0293 128.353 51.387 129.063 51.46 129.884L51.4668 129.959H50.1543V129.891C50.1543 129.435 49.9424 129 49.5186 128.585C49.0947 128.17 48.4977 127.963 47.7275 127.963C46.8571 127.963 46.1576 128.296 45.6289 128.961C45.1048 129.626 44.8428 130.542 44.8428 131.709V132.338C44.8428 133.505 45.1048 134.421 45.6289 135.086C46.1576 135.751 46.9004 136.084 47.8574 136.084C48.3587 136.084 48.7917 136.032 49.1562 135.927C49.5208 135.822 49.8672 135.656 50.1953 135.428V133.104H47.7207V132.023H51.4668V135.906C51.1569 136.225 50.6943 136.521 50.0791 136.795C49.4639 137.068 48.7233 137.205 47.8574 137.205C46.5358 137.205 45.4808 136.777 44.6924 135.92C43.9085 135.063 43.5166 133.869 43.5166 132.338ZM53.0732 133.281V132.105H56.9287V133.281H53.0732ZM58.6035 137V127.047H61.8984C62.9922 127.047 63.833 127.323 64.4209 127.874C65.0088 128.421 65.3027 129.15 65.3027 130.062C65.3027 130.973 65.0088 131.709 64.4209 132.27C63.833 132.826 62.9922 133.104 61.8984 133.104H59.916V137H58.6035ZM59.916 132.023H61.8984C62.6732 132.023 63.2155 131.834 63.5254 131.456C63.8353 131.073 63.9902 130.608 63.9902 130.062C63.9902 129.515 63.8353 129.057 63.5254 128.688C63.2155 128.314 62.6732 128.127 61.8984 128.127H59.916V132.023ZM66.4307 132.338V131.709C66.4307 130.178 66.8226 128.984 67.6064 128.127C68.3949 127.27 69.4111 126.842 70.6553 126.842C71.7809 126.842 72.6628 127.145 73.3008 127.751C73.9434 128.353 74.3011 129.063 74.374 129.884L74.3809 129.959H73.0684V129.891C73.0684 129.435 72.8564 129 72.4326 128.585C72.0088 128.17 71.4118 127.963 70.6416 127.963C69.7712 127.963 69.0716 128.296 68.543 128.961C68.0189 129.626 67.7568 130.542 67.7568 131.709V132.338C67.7568 133.505 68.0189 134.421 68.543 135.086C69.0716 135.751 69.8145 136.084 70.7715 136.084C71.2728 136.084 71.7057 136.032 72.0703 135.927C72.4349 135.822 72.7812 135.656 73.1094 135.428V133.104H70.6348V132.023H74.3809V135.906C74.071 136.225 73.6084 136.521 72.9932 136.795C72.3779 137.068 71.6374 137.205 70.7715 137.205C69.4499 137.205 68.3949 136.777 67.6064 135.92C66.8226 135.063 66.4307 133.869 66.4307 132.338Z" fill="#19DC82"/>
</svg>
