<svg width="116" height="137" viewBox="0 0 116 137" fill="none" xmlns="http://www.w3.org/2000/svg">
<circle cx="58" cy="58" r="54" stroke="white" stroke-width="2"/>
<path d="M30.2978 51.5028C32.2758 51.5221 35.5419 51.5251 36.9931 53.0282C38.1676 54.3137 38.0749 56.2084 38.0946 57.828C38.1633 63.4615 33.9371 63.1849 29.7079 63.1806L25.7323 63.1659C25.7502 64.1786 25.595 67.0984 26.0351 67.8456C26.6224 68.8423 28.1876 68.751 29.1688 69.0155C29.6583 69.1475 29.9758 69.3631 30.2333 69.7997C30.5414 71.2446 28.4643 70.9178 27.5585 70.9149L23.8632 70.9022L19.8349 70.9061C19.056 70.9087 17.4243 71.0484 16.7284 70.6181C16.2335 70.3115 16.4351 69.3882 17.0253 69.1864C18.3065 68.7485 19.8696 68.8441 19.9979 67.0663C20.0566 66.3239 20.0286 65.5158 20.0292 64.747L20.0312 60.5507L20.0302 57.0429C20.0299 56.1774 20.243 54.4429 19.3144 54.0067C18.5675 53.6734 16.5156 53.513 16.331 52.5253C16.0989 51.2838 19.3221 51.5516 20.0019 51.5526C21.292 51.5593 22.583 51.5512 23.8729 51.5272C26.0143 51.496 28.1562 51.488 30.2978 51.5028ZM27.495 53.702C27.0128 53.7198 26.2729 53.666 25.912 54.0507C25.653 54.3322 25.7743 60.0889 25.7733 60.911C26.8821 60.9834 29.0379 60.9864 30.0956 60.7626C31.5573 60.2839 31.8048 59.2098 31.8993 57.8104C32.1422 54.2111 30.6348 53.6749 27.495 53.702Z" fill="white"/>
<path d="M48.8388 51.0604C51.3697 50.9737 54.1436 51.0902 56.5898 51.7653C57.5634 52.034 58.6868 52.3261 59.2132 53.2775C59.7228 54.1983 59.6773 56.0064 59.3887 57.0022C59.2182 57.5908 58.8841 58.1153 58.332 58.4081C57.6397 58.7751 56.3279 58.7642 55.5982 58.5267C53.9788 57.9996 54.4247 55.8616 53.7685 54.6026C53.4791 54.0473 53.028 53.6979 52.4318 53.5177C51.0857 53.1108 48.4497 53.2217 47.1948 53.8986C46.2518 54.4071 45.7053 55.2658 45.4108 56.2757C44.7832 58.428 44.7616 65.4316 45.8316 67.3597C46.3039 68.2107 47.0555 68.7622 47.986 69.0267C49.1828 69.3669 52.0494 69.4292 53.153 68.8078C53.5228 68.5995 53.766 68.296 53.8786 67.886C54.0607 67.2233 54.1501 64.9082 53.784 64.3205C53.4247 63.7435 52.5147 63.6652 51.9094 63.5037C51.472 63.387 51.0437 63.1782 50.8202 62.7634C50.7406 62.6156 50.7042 62.4519 50.7598 62.2889C50.8504 62.0228 51.0841 61.8919 51.3219 61.7803L51.3845 61.7512C52.2004 61.556 54.3185 61.655 55.2984 61.6435C56.5134 61.6268 57.7287 61.6174 58.9438 61.6151C59.6993 61.6131 60.4704 61.5825 61.212 61.6689C62.6856 61.8407 62.5972 62.9523 61.293 63.3519C60.6693 63.5305 59.4679 64.0548 59.3993 64.8305C59.27 66.2942 59.3327 68.047 59.3379 69.5251C59.2765 69.6134 59.2087 69.697 59.1348 69.775C57.6676 71.3506 53.5258 71.6691 51.5161 71.7343C50.3896 71.7648 49.2624 71.7622 48.136 71.7265C45.9445 71.6558 43.3368 71.5287 41.6441 69.9435C39.703 68.1256 39.3197 64.5832 39.2796 62.0769C39.2334 59.201 39.736 55.4009 41.8487 53.2498C43.802 51.261 46.2521 51.112 48.8388 51.0604Z" fill="white"/>
<path d="M87.8708 50.7441C88.0752 50.7258 88.3233 50.7245 88.5329 50.7243C92.0969 50.7224 97.6607 50.2822 98.8278 54.7164C99.0665 55.6239 99.0421 57.0284 98.8465 57.932C98.586 59.1364 97.5549 59.7611 96.5757 60.3292C98.3618 61.6353 98.8797 62.9276 98.8911 65.0441C98.9186 70.1054 95.0236 71.4521 90.6911 71.3355C88.837 71.2857 87.0146 71.3148 85.1516 70.9872C83.078 70.6226 82.5223 69.7751 82.5685 67.7121C82.5757 66.0335 83.2835 65.015 85.0619 64.9857C85.7084 64.975 86.2102 65.3027 86.6316 65.749C87.4525 66.7464 87.2574 67.6324 87.9377 68.3375C88.6341 68.8776 90.3253 68.7581 91.0897 68.6836C93.4897 68.3927 93.8799 66.5745 93.8809 64.5875C93.8825 61.4105 91.2459 62.2078 89.0856 61.9498C87.9637 61.8158 87.7743 60.7234 88.2818 59.8751C88.5791 59.3781 90.2194 59.5202 90.7181 59.4662C92.1726 59.3665 93.5094 59.2362 93.6993 57.5081C94.0833 54.0109 92.8638 52.9136 89.4867 53.2863C85.9093 53.681 88.4489 56.8123 85.1952 57.1202C83.7163 57.1763 82.7138 57.0991 82.5534 55.4603C82.1642 51.4739 84.2767 50.9332 87.8708 50.7441Z" fill="white"/>
<path d="M75.6704 51.4744C76.1966 51.4581 77.7331 51.3716 78.1467 51.5469C78.3024 51.7782 78.2453 55.5122 78.2453 56.0225L78.2489 63.5798C78.2458 64.827 78.1903 66.3736 78.2915 67.57C78.4602 69.4003 80.0392 68.6204 81.0921 69.2912C81.6681 69.658 81.2665 70.7524 80.6708 70.7848C79.746 70.8351 78.7891 70.8103 77.8566 70.8098L71.7775 70.8055C71.436 70.8125 71.0733 70.8409 70.7345 70.8022C70.46 70.7709 70.2264 70.6661 70.0536 70.4444C69.9073 70.2563 69.7553 69.9872 69.7957 69.742C69.9587 68.7481 71.7661 69.1159 72.3234 68.6395C72.7769 68.2519 72.7603 67.2084 72.7738 66.6566C72.8293 64.3964 72.7899 62.1277 72.807 59.8663C72.8164 58.6454 72.93 56.8948 72.8081 55.7286C72.7883 55.5397 72.751 55.3844 72.6093 55.2477C72.217 54.8698 71.4163 55.0731 70.9259 55.0987C70.4703 55.1224 69.8585 55.0894 69.5114 54.7492C69.3126 54.5544 69.2109 54.2458 69.2062 53.9706C69.2016 53.691 69.2867 53.4593 69.4823 53.2587C69.9307 52.7981 73.2279 51.7969 74.0052 51.6379C74.5625 51.5239 75.1022 51.4838 75.6704 51.4744Z" fill="white"/>
<path d="M65.2188 58.8307C66.0413 58.7538 68.227 58.7882 69.0599 58.8634C70.6997 59.0114 70.9591 62.3573 68.8066 62.5917C67.774 62.5898 64.8729 62.7658 64.1146 62.2444C63.7701 62.0075 63.5799 61.6262 63.514 61.221C63.4212 60.6499 63.5114 59.9883 63.8651 59.5169C64.213 59.0534 64.6706 58.9161 65.2188 58.8307Z" fill="white"/>
<path d="M39.8027 136V126.047H43.0977C44.1914 126.047 45.0322 126.323 45.6201 126.874C46.208 127.421 46.502 128.15 46.502 129.062C46.502 129.973 46.208 130.709 45.6201 131.27C45.0322 131.826 44.1914 132.104 43.0977 132.104H41.1152V136H39.8027ZM41.1152 131.023H43.0977C43.8724 131.023 44.4147 130.834 44.7246 130.456C45.0345 130.073 45.1895 129.608 45.1895 129.062C45.1895 128.515 45.0345 128.057 44.7246 127.688C44.4147 127.314 43.8724 127.127 43.0977 127.127H41.1152V131.023ZM47.6299 131.338V130.709C47.6299 129.178 48.0218 127.984 48.8057 127.127C49.5941 126.27 50.6104 125.842 51.8545 125.842C52.9801 125.842 53.862 126.145 54.5 126.751C55.1426 127.353 55.5003 128.063 55.5732 128.884L55.5801 128.959H54.2676V128.891C54.2676 128.435 54.0557 128 53.6318 127.585C53.208 127.17 52.611 126.963 51.8408 126.963C50.9704 126.963 50.2708 127.296 49.7422 127.961C49.2181 128.626 48.9561 129.542 48.9561 130.709V131.338C48.9561 132.505 49.2181 133.421 49.7422 134.086C50.2708 134.751 51.0137 135.084 51.9707 135.084C52.472 135.084 52.9049 135.032 53.2695 134.927C53.6341 134.822 53.9805 134.656 54.3086 134.428V132.104H51.834V131.023H55.5801V134.906C55.2702 135.225 54.8076 135.521 54.1924 135.795C53.5771 136.068 52.8366 136.205 51.9707 136.205C50.6491 136.205 49.5941 135.777 48.8057 134.92C48.0218 134.063 47.6299 132.869 47.6299 131.338ZM57.1865 132.281V131.105H61.042V132.281H57.1865ZM65.2461 136V127.489L62.7305 128.549V127.277L66.3535 125.91H66.5586V136H65.2461ZM70.0039 133.402V133.334H71.2754V133.402C71.2754 133.949 71.4577 134.373 71.8223 134.674C72.1868 134.975 72.6699 135.125 73.2715 135.125C73.873 135.125 74.3538 134.975 74.7139 134.674C75.0739 134.373 75.2539 133.904 75.2539 133.266C75.2539 132.628 75.0511 132.147 74.6455 131.823C74.2399 131.5 73.6953 131.338 73.0117 131.338H72.2256V130.285H72.9434C73.5723 130.285 74.0576 130.132 74.3994 129.827C74.7412 129.522 74.9121 129.096 74.9121 128.549C74.9121 128.002 74.764 127.594 74.4678 127.325C74.1715 127.056 73.7728 126.922 73.2715 126.922C72.7428 126.922 72.3236 127.056 72.0137 127.325C71.7038 127.594 71.5488 127.979 71.5488 128.48V128.549H70.2773V128.48C70.2773 127.751 70.5531 127.129 71.1045 126.614C71.6559 126.099 72.3783 125.842 73.2715 125.842C74.1374 125.842 74.846 126.088 75.3975 126.58C75.9489 127.072 76.2246 127.706 76.2246 128.48C76.2246 128.936 76.0993 129.374 75.8486 129.793C75.598 130.212 75.2083 130.536 74.6797 130.764V130.791C75.2539 130.937 75.7142 131.226 76.0605 131.659C76.4069 132.092 76.5801 132.625 76.5801 133.259C76.5801 134.175 76.2679 134.895 75.6436 135.419C75.0192 135.943 74.2285 136.205 73.2715 136.205C72.2598 136.205 71.4622 135.943 70.8789 135.419C70.2956 134.895 70.0039 134.223 70.0039 133.402Z" fill="white"/>
</svg>
