<svg width="118" height="138" viewBox="0 0 118 138" fill="none" xmlns="http://www.w3.org/2000/svg">
<circle cx="59" cy="59" r="57" stroke="#9C36C3" stroke-width="4"/>
<path d="M31.2975 52.5023C33.2756 52.5216 36.5417 52.5255 37.9929 54.0287C39.1674 55.3143 39.0747 57.2088 39.0944 58.8285C39.1629 64.4617 34.9368 64.1844 30.7077 64.1801L26.7321 64.1654C26.75 65.1778 26.5948 68.0978 27.0348 68.8451C27.622 69.8421 29.1873 69.7506 30.1686 70.015C30.658 70.147 30.9756 70.3627 31.2331 70.7992C31.5415 72.2445 29.464 71.9183 28.5583 71.9154L24.863 71.9017L20.8346 71.9057C20.0557 71.9082 18.424 72.0488 17.7282 71.6185C17.2331 71.3121 17.4349 70.3878 18.0251 70.1859C19.3064 69.7479 20.8695 69.844 20.9977 68.0658C21.0564 67.3234 21.0294 66.5153 21.03 65.7465L21.0309 61.5512L21.03 58.0433C21.0296 57.178 21.243 55.4434 20.3141 55.0072C19.5673 54.6739 17.5163 54.5126 17.3317 53.5248C17.1 52.2836 20.3215 52.552 21.0016 52.5531C22.2918 52.5598 23.5828 52.5507 24.8727 52.5267C27.0141 52.4955 29.1559 52.4875 31.2975 52.5023ZM28.4948 54.7015C28.0127 54.7193 27.2737 54.6658 26.9128 55.0502C26.6533 55.3268 26.7741 61.0879 26.7731 61.9105C27.8819 61.9829 30.0377 61.986 31.0954 61.7621C32.5572 61.2834 32.8046 60.2094 32.8991 58.8099C33.1419 55.2109 31.6345 54.6744 28.4948 54.7015Z" fill="#9C36C3"/>
<path d="M49.8388 52.0604C52.3697 51.9737 55.1436 52.0902 57.5898 52.7653C58.5634 53.034 59.6868 53.3261 60.2132 54.2775C60.7228 55.1983 60.6773 57.0064 60.3887 58.0022C60.2182 58.5908 59.8841 59.1153 59.332 59.4081C58.6397 59.7751 57.3279 59.7642 56.5982 59.5267C54.9788 58.9996 55.4247 56.8616 54.7685 55.6026C54.4791 55.0473 54.028 54.6979 53.4318 54.5177C52.0857 54.1108 49.4497 54.2217 48.1948 54.8986C47.2518 55.4071 46.7053 56.2658 46.4108 57.2757C45.7832 59.428 45.7616 66.4316 46.8316 68.3597C47.3039 69.2107 48.0555 69.7622 48.986 70.0267C50.1828 70.3669 53.0494 70.4292 54.153 69.8078C54.5228 69.5995 54.766 69.296 54.8786 68.886C55.0607 68.2233 55.1501 65.9082 54.784 65.3205C54.4247 64.7435 53.5147 64.6652 52.9094 64.5037C52.472 64.387 52.0437 64.1782 51.8202 63.7634C51.7406 63.6156 51.7042 63.4519 51.7598 63.2889C51.8504 63.0228 52.0841 62.8919 52.3219 62.7803L52.3845 62.7512C53.2004 62.556 55.3185 62.655 56.2984 62.6435C57.5134 62.6268 58.7287 62.6174 59.9438 62.6151C60.6993 62.6131 61.4704 62.5825 62.212 62.6689C63.6856 62.8407 63.5972 63.9523 62.293 64.3519C61.6693 64.5305 60.4679 65.0548 60.3993 65.8305C60.27 67.2942 60.3327 69.047 60.3379 70.5251C60.2765 70.6134 60.2087 70.697 60.1348 70.775C58.6676 72.3506 54.5258 72.6691 52.5161 72.7343C51.3896 72.7648 50.2624 72.7622 49.136 72.7265C46.9445 72.6558 44.3368 72.5287 42.6441 70.9435C40.703 69.1256 40.3197 65.5832 40.2796 63.0769C40.2334 60.201 40.736 56.4009 42.8487 54.2498C44.802 52.261 47.2521 52.112 49.8388 52.0604Z" fill="#9C36C3"/>
<path d="M88.8708 51.7441C89.0753 51.7258 89.3233 51.7245 89.533 51.7243C93.0969 51.7224 98.6608 51.2822 99.8279 55.7164C100.067 56.6239 100.042 58.0284 99.8465 58.932C99.586 60.1364 98.5549 60.7611 97.5757 61.3292C99.3619 62.6353 99.8798 63.9276 99.8912 66.0441C99.9187 71.1054 96.0237 72.4521 91.6912 72.3355C89.8371 72.2857 88.0146 72.3148 86.1517 71.9872C84.0781 71.6226 83.5223 70.7751 83.5685 68.7121C83.5758 67.0335 84.2836 66.015 86.0619 65.9857C86.7085 65.975 87.2103 66.3027 87.6317 66.749C88.4526 67.7464 88.2575 68.6324 88.9378 69.3375C89.6342 69.8776 91.3253 69.7581 92.0897 69.6836C94.4897 69.3927 94.8799 67.5745 94.881 65.5875C94.8825 62.4105 92.2459 63.2078 90.0856 62.9498C88.9637 62.8158 88.7743 61.7234 89.2818 60.8751C89.5792 60.3781 91.2195 60.5202 91.7182 60.4662C93.1727 60.3665 94.5094 60.2362 94.6994 58.5081C95.0834 55.0109 93.8639 53.9136 90.4868 54.2863C86.9093 54.681 89.4489 57.8123 86.1953 58.1202C84.7164 58.1763 83.7138 58.0991 83.5535 56.4603C83.1643 52.4739 85.2768 51.9332 88.8708 51.7441Z" fill="#9C36C3"/>
<path d="M76.6704 52.4744C77.1966 52.4581 78.7331 52.3716 79.1467 52.5469C79.3024 52.7782 79.2453 56.5122 79.2453 57.0225L79.2489 64.5798C79.2458 65.827 79.1903 67.3736 79.2915 68.57C79.4602 70.4003 81.0392 69.6204 82.0921 70.2912C82.6681 70.658 82.2665 71.7524 81.6708 71.7848C80.746 71.8351 79.7891 71.8103 78.8566 71.8098L72.7775 71.8055C72.436 71.8125 72.0733 71.8409 71.7345 71.8022C71.46 71.7709 71.2264 71.6661 71.0536 71.4444C70.9073 71.2563 70.7553 70.9872 70.7957 70.742C70.9587 69.7481 72.7661 70.1159 73.3234 69.6395C73.7769 69.2519 73.7603 68.2084 73.7738 67.6566C73.8293 65.3964 73.7899 63.1277 73.807 60.8663C73.8164 59.6454 73.93 57.8948 73.8081 56.7286C73.7883 56.5397 73.751 56.3844 73.6093 56.2477C73.217 55.8698 72.4163 56.0731 71.9259 56.0987C71.4703 56.1224 70.8585 56.0894 70.5114 55.7492C70.3126 55.5544 70.2109 55.2458 70.2062 54.9706C70.2016 54.691 70.2867 54.4593 70.4823 54.2587C70.9307 53.7981 74.2279 52.7969 75.0052 52.6379C75.5625 52.5239 76.1022 52.4838 76.6704 52.4744Z" fill="#9C36C3"/>
<path d="M66.2188 59.8307C67.0413 59.7538 69.227 59.7882 70.0599 59.8634C71.6997 60.0114 71.9591 63.3573 69.8066 63.5917C68.774 63.5898 65.8729 63.7658 65.1146 63.2444C64.7701 63.0075 64.5799 62.6262 64.514 62.221C64.4212 61.6499 64.5114 60.9883 64.8651 60.5169C65.213 60.0534 65.6706 59.9161 66.2188 59.8307Z" fill="#9C36C3"/>
<path d="M40.8027 137V127.047H44.0977C45.1914 127.047 46.0322 127.323 46.6201 127.874C47.208 128.421 47.502 129.15 47.502 130.062C47.502 130.973 47.208 131.709 46.6201 132.27C46.0322 132.826 45.1914 133.104 44.0977 133.104H42.1152V137H40.8027ZM42.1152 132.023H44.0977C44.8724 132.023 45.4147 131.834 45.7246 131.456C46.0345 131.073 46.1895 130.608 46.1895 130.062C46.1895 129.515 46.0345 129.057 45.7246 128.688C45.4147 128.314 44.8724 128.127 44.0977 128.127H42.1152V132.023ZM48.6299 132.338V131.709C48.6299 130.178 49.0218 128.984 49.8057 128.127C50.5941 127.27 51.6104 126.842 52.8545 126.842C53.9801 126.842 54.862 127.145 55.5 127.751C56.1426 128.353 56.5003 129.063 56.5732 129.884L56.5801 129.959H55.2676V129.891C55.2676 129.435 55.0557 129 54.6318 128.585C54.208 128.17 53.611 127.963 52.8408 127.963C51.9704 127.963 51.2708 128.296 50.7422 128.961C50.2181 129.626 49.9561 130.542 49.9561 131.709V132.338C49.9561 133.505 50.2181 134.421 50.7422 135.086C51.2708 135.751 52.0137 136.084 52.9707 136.084C53.472 136.084 53.9049 136.032 54.2695 135.927C54.6341 135.822 54.9805 135.656 55.3086 135.428V133.104H52.834V132.023H56.5801V135.906C56.2702 136.225 55.8076 136.521 55.1924 136.795C54.5771 137.068 53.8366 137.205 52.9707 137.205C51.6491 137.205 50.5941 136.777 49.8057 135.92C49.0218 135.063 48.6299 133.869 48.6299 132.338ZM58.1865 133.281V132.105H62.042V133.281H58.1865ZM66.2461 137V128.489L63.7305 129.549V128.277L67.3535 126.91H67.5586V137H66.2461ZM71.0039 134.402V134.334H72.2754V134.402C72.2754 134.949 72.4577 135.373 72.8223 135.674C73.1868 135.975 73.6699 136.125 74.2715 136.125C74.873 136.125 75.3538 135.975 75.7139 135.674C76.0739 135.373 76.2539 134.904 76.2539 134.266C76.2539 133.628 76.0511 133.147 75.6455 132.823C75.2399 132.5 74.6953 132.338 74.0117 132.338H73.2256V131.285H73.9434C74.5723 131.285 75.0576 131.132 75.3994 130.827C75.7412 130.522 75.9121 130.096 75.9121 129.549C75.9121 129.002 75.764 128.594 75.4678 128.325C75.1715 128.056 74.7728 127.922 74.2715 127.922C73.7428 127.922 73.3236 128.056 73.0137 128.325C72.7038 128.594 72.5488 128.979 72.5488 129.48V129.549H71.2773V129.48C71.2773 128.751 71.5531 128.129 72.1045 127.614C72.6559 127.099 73.3783 126.842 74.2715 126.842C75.1374 126.842 75.846 127.088 76.3975 127.58C76.9489 128.072 77.2246 128.706 77.2246 129.48C77.2246 129.936 77.0993 130.374 76.8486 130.793C76.598 131.212 76.2083 131.536 75.6797 131.764V131.791C76.2539 131.937 76.7142 132.226 77.0605 132.659C77.4069 133.092 77.5801 133.625 77.5801 134.259C77.5801 135.175 77.2679 135.895 76.6436 136.419C76.0192 136.943 75.2285 137.205 74.2715 137.205C73.2598 137.205 72.4622 136.943 71.8789 136.419C71.2956 135.895 71.0039 135.223 71.0039 134.402Z" fill="#9C36C3"/>
</svg>
