<svg width="116" height="136" viewBox="0 0 116 136" fill="none" xmlns="http://www.w3.org/2000/svg">
<circle cx="58" cy="58" r="54" stroke="white" stroke-width="2"/>
<path d="M30.1751 38.0325C34.1958 37.9446 38.7611 38.0597 42.8118 38.0891L58.8372 38.1858C63.3529 38.2544 67.7005 37.9717 72.2083 38.5149C78.6763 39.2855 79.4002 44.921 79.4172 50.2346C79.4439 58.5265 77.8465 61.9727 69.1028 62.0305C69.9363 63.4174 71.6942 65.4974 72.7571 66.7913C76.2398 71.0309 79.4422 75.9857 84.6497 78.2366C86.3047 78.9519 89.817 79.0601 89.4954 81.637C89.4198 82.2134 89.1126 82.7341 88.6448 83.0794C88.2999 83.3325 87.8915 83.485 87.4651 83.5198C86.5907 83.5985 84.872 83.544 83.9553 83.5413L77.344 83.5227L73.0901 83.5335C71.6049 83.5405 70.2423 83.7557 69.009 82.7532C66.8127 80.9678 65.0194 78.5115 63.3694 76.2219C61.4117 73.4015 59.5429 70.4835 57.5686 67.7122C56.3444 65.9938 54.4214 63.0074 51.97 63.9456C49.9167 64.8554 50.1838 68.3477 50.2698 70.1907C50.4341 72.4123 50.1458 75.295 51.0715 77.3596C52.6755 80.9367 58.8106 77.6955 60.5442 80.9329C61.0423 81.8635 59.9888 83.0472 59.1067 83.2346C56.9473 83.6929 54.4199 83.5201 52.1868 83.5218L42.2776 83.5286L34.4934 83.5442C32.5881 83.5491 29.9335 83.8102 28.1672 83.0061C27.464 82.686 27.1723 82.1583 26.9475 81.4407C27.4724 79.3841 29.257 79.5076 30.967 79.3118C32.5682 79.1497 35.5251 78.8585 36.4124 77.2766C37.5846 75.1856 37.3835 71.1608 37.3831 68.8382L37.3811 62.2639L37.385 55.0598C37.3852 51.188 37.9366 44.0903 32.4319 43.1145C30.7211 42.8114 24.5408 42.7715 26.3176 39.5413C26.822 38.6249 28.4724 38.2416 29.4251 38.0637C29.6748 38.0489 29.9249 38.0385 30.1751 38.0325ZM56.6838 42.8811C55.8287 42.8802 54.6422 42.8958 53.7083 42.9319C52.3438 42.9588 50.905 43.3438 50.6799 44.9651C50.4798 46.4066 50.5724 48.0925 50.5706 49.5667C50.5713 52.4073 50.5527 55.2479 50.5149 58.0882C53.2945 58.1174 56.0747 58.1022 58.8538 58.0432C59.6459 58.0199 61.3791 57.9942 62.0803 57.8479C65.7553 57.1365 65.1649 53.7956 65.4006 50.9212C66.0026 43.5824 63.2233 42.871 56.6838 42.8811Z" fill="white"/>
<path d="M54.8896 136V126.047H58.1299C59.1963 126.047 60.0189 126.313 60.5977 126.847C61.1764 127.38 61.4658 128.089 61.4658 128.973C61.4658 129.857 61.1764 130.572 60.5977 131.119C60.0189 131.666 59.1963 131.939 58.1299 131.939H56.2021V136H54.8896ZM56.2021 130.873H58.1299C58.8864 130.873 59.4128 130.688 59.709 130.319C60.0052 129.95 60.1533 129.501 60.1533 128.973C60.1533 128.444 60.0052 128.002 59.709 127.646C59.4128 127.291 58.8864 127.113 58.1299 127.113H56.2021V130.873ZM60.5361 136L58.1025 131.406L59.4014 131.208L61.999 136H60.5361Z" fill="white"/>
</svg>
