<svg width="118" height="137" viewBox="0 0 118 137" fill="none" xmlns="http://www.w3.org/2000/svg">
<circle cx="59" cy="59" r="57" stroke="#F8343B" stroke-width="4"/>
<path d="M31.1758 39.0332C35.1964 38.9453 39.7611 39.0604 43.8116 39.0899L59.837 39.1865C64.3529 39.2552 68.7011 38.9714 73.209 39.5147C79.6768 40.2853 80.4009 45.9208 80.418 51.2344C80.4447 59.5265 78.8463 62.9725 70.1026 63.0303C70.9362 64.4173 72.695 66.4982 73.7579 67.792C77.2404 72.0315 80.4421 76.9865 85.6495 79.2373C87.3045 79.9526 90.8168 80.0598 90.4952 82.6367C90.4196 83.2133 90.1124 83.7338 89.6446 84.0791C89.2997 84.3323 88.8913 84.4848 88.4649 84.5195C87.5905 84.5983 85.8728 84.5447 84.9561 84.542L78.3438 84.5225L74.0899 84.5332C72.6049 84.5403 71.243 84.7552 70.0098 83.7529C67.8134 81.9675 66.0192 79.5112 64.3692 77.2217C62.4115 74.4012 60.5427 71.4832 58.5684 68.7119C57.3442 66.9935 55.4212 64.0081 52.9698 64.9463C50.9169 65.8564 51.1836 69.3476 51.2696 71.1904C51.434 73.4121 51.1465 76.2946 52.0723 78.3594C53.6763 81.9364 59.8102 78.6955 61.544 81.9326C62.0424 82.8633 60.9887 84.0471 60.1065 84.2344C57.9471 84.6927 55.4197 84.5199 53.1866 84.5215L43.2774 84.5293L35.4932 84.544C33.5879 84.5489 30.9332 84.8101 29.167 84.0059C28.4638 83.6857 28.1721 83.1581 27.9473 82.4404C28.4723 80.3839 30.2577 80.5084 31.9678 80.3125C33.5692 80.1504 36.5262 79.8585 37.4131 78.2764C38.5852 76.1853 38.3833 72.1605 38.3829 69.8379L38.3819 63.2637L38.3848 56.0596C38.385 52.1876 38.9366 45.0899 33.4317 44.1143C31.7209 43.8112 25.5416 43.7722 27.3184 40.542C27.8225 39.6256 29.4721 39.2423 30.4248 39.0645C30.6747 39.0496 30.9256 39.0392 31.1758 39.0332ZM57.6836 43.8809C56.8285 43.88 55.642 43.8955 54.708 43.9317C53.3437 43.9586 51.9049 44.3437 51.6797 45.9649C51.4796 47.4064 51.5722 49.0922 51.5704 50.5664C51.5711 53.407 51.5525 56.2476 51.5147 59.0879C54.2944 59.1172 57.0744 59.103 59.8536 59.044C60.6455 59.0206 62.3788 58.994 63.0801 58.8477C66.7553 58.1363 66.1646 54.7954 66.4004 51.9209C67.0024 44.5821 64.2232 43.8707 57.6836 43.8809Z" fill="#F8343B"/>
<path d="M52.3896 137V127.047H55.6299C56.6963 127.047 57.5189 127.313 58.0977 127.847C58.6764 128.38 58.9658 129.089 58.9658 129.973C58.9658 130.857 58.6764 131.572 58.0977 132.119C57.5189 132.666 56.6963 132.939 55.6299 132.939H53.7021V137H52.3896ZM53.7021 131.873H55.6299C56.3864 131.873 56.9128 131.688 57.209 131.319C57.5052 130.95 57.6533 130.501 57.6533 129.973C57.6533 129.444 57.5052 129.002 57.209 128.646C56.9128 128.291 56.3864 128.113 55.6299 128.113H53.7021V131.873ZM58.0361 137L55.6025 132.406L56.9014 132.208L59.499 137H58.0361ZM60.1621 132.96V131.839H66.3828V132.96H60.1621ZM62.6572 135.715V129.07H63.8877V135.715H62.6572Z" fill="#F8343B"/>
</svg>
