<svg width="116" height="137" viewBox="0 0 116 137" fill="none" xmlns="http://www.w3.org/2000/svg">
<circle cx="58" cy="58" r="54" stroke="white" stroke-width="2"/>
<path d="M41.416 136V127.489L38.9004 128.549V127.277L42.5234 125.91H42.7285V136H41.416ZM46.1191 129.15C46.1191 128.166 46.4313 127.368 47.0557 126.758C47.68 126.147 48.4707 125.842 49.4277 125.842C50.3848 125.842 51.2074 126.188 51.8955 126.881C52.5837 127.574 52.9277 128.695 52.9277 130.244V130.449C52.9277 132.058 52.4583 133.386 51.5195 134.435C50.5853 135.478 49.2523 136 47.5205 136H47.377V134.92H47.5137C48.7897 134.92 49.7969 134.555 50.5352 133.826C51.2734 133.092 51.6426 131.99 51.6426 130.518V130.176C51.6426 128.991 51.4329 128.152 51.0137 127.66C50.5944 127.168 50.0658 126.922 49.4277 126.922C48.7897 126.922 48.2952 127.118 47.9443 127.51C47.5934 127.897 47.418 128.444 47.418 129.15C47.418 129.857 47.5934 130.404 47.9443 130.791C48.2952 131.174 48.7897 131.365 49.4277 131.365C50.0202 131.365 50.5443 131.174 51 130.791C51.4557 130.404 51.6836 129.857 51.6836 129.15H52.1621C52.1621 130.135 51.8887 130.93 51.3418 131.536C50.7949 132.142 50.0658 132.445 49.1543 132.445C48.2474 132.445 47.5137 132.142 46.9531 131.536C46.3971 130.93 46.1191 130.135 46.1191 129.15ZM54.0215 129.15C54.0215 128.166 54.3337 127.368 54.958 126.758C55.5824 126.147 56.373 125.842 57.3301 125.842C58.2871 125.842 59.1097 126.188 59.7979 126.881C60.486 127.574 60.8301 128.695 60.8301 130.244V130.449C60.8301 132.058 60.3607 133.386 59.4219 134.435C58.4876 135.478 57.1546 136 55.4229 136H55.2793V134.92H55.416C56.6921 134.92 57.6992 134.555 58.4375 133.826C59.1758 133.092 59.5449 131.99 59.5449 130.518V130.176C59.5449 128.991 59.3353 128.152 58.916 127.66C58.4967 127.168 57.9681 126.922 57.3301 126.922C56.6921 126.922 56.1976 127.118 55.8467 127.51C55.4958 127.897 55.3203 128.444 55.3203 129.15C55.3203 129.857 55.4958 130.404 55.8467 130.791C56.1976 131.174 56.6921 131.365 57.3301 131.365C57.9225 131.365 58.4466 131.174 58.9023 130.791C59.3581 130.404 59.5859 129.857 59.5859 129.15H60.0645C60.0645 130.135 59.791 130.93 59.2441 131.536C58.6973 132.142 57.9681 132.445 57.0566 132.445C56.1497 132.445 55.416 132.142 54.8555 131.536C54.2995 130.93 54.0215 130.135 54.0215 129.15ZM62.1836 132.855V129.191C62.1836 128.189 62.4661 127.38 63.0312 126.765C63.5964 126.149 64.3802 125.842 65.3828 125.842C66.3763 125.842 67.1579 126.149 67.7275 126.765C68.2972 127.38 68.582 128.189 68.582 129.191V132.855C68.582 133.858 68.2972 134.667 67.7275 135.282C67.1579 135.897 66.3763 136.205 65.3828 136.205C64.3802 136.205 63.5964 135.897 63.0312 135.282C62.4661 134.667 62.1836 133.858 62.1836 132.855ZM63.5098 132.924C63.5098 133.562 63.6624 134.088 63.9678 134.503C64.2731 134.918 64.7448 135.125 65.3828 135.125C66.0208 135.125 66.4925 134.918 66.7979 134.503C67.1032 134.088 67.2559 133.562 67.2559 132.924V129.123C67.2559 128.485 67.1032 127.959 66.7979 127.544C66.4925 127.129 66.0208 126.922 65.3828 126.922C64.7448 126.922 64.2731 127.129 63.9678 127.544C63.6624 127.959 63.5098 128.485 63.5098 129.123V132.924ZM71.5078 126.033V126.908C71.5078 127.318 71.403 127.756 71.1934 128.221C70.9883 128.686 70.6989 129.073 70.3252 129.383L69.6006 128.884C69.8148 128.583 69.9766 128.275 70.0859 127.961C70.1953 127.642 70.25 127.298 70.25 126.929V126.033H71.5078ZM71.918 133.881H73.1895V133.915C73.1895 134.33 73.3421 134.642 73.6475 134.852C73.9528 135.061 74.3561 135.166 74.8574 135.166C75.3587 135.166 75.7529 135.066 76.04 134.865C76.3317 134.665 76.4775 134.405 76.4775 134.086C76.4775 133.767 76.3613 133.523 76.1289 133.354C75.8965 133.181 75.3929 133.004 74.6182 132.821C73.8434 132.639 73.2282 132.384 72.7725 132.056C72.3167 131.723 72.0889 131.26 72.0889 130.668C72.0889 130.076 72.3327 129.583 72.8203 129.191C73.3125 128.799 73.9688 128.604 74.7891 128.604C75.6094 128.604 76.2702 128.799 76.7715 129.191C77.2728 129.579 77.5234 130.105 77.5234 130.771V130.805H76.2588V130.743C76.2588 130.401 76.138 130.132 75.8965 129.937C75.6595 129.741 75.2904 129.643 74.7891 129.643C74.2878 129.643 73.9209 129.734 73.6885 129.916C73.4606 130.098 73.3467 130.326 73.3467 130.6C73.3467 130.873 73.4788 131.09 73.7432 131.249C74.0075 131.409 74.527 131.579 75.3018 131.762C76.0765 131.944 76.6735 132.206 77.0928 132.548C77.5166 132.89 77.7285 133.38 77.7285 134.018C77.7285 134.656 77.4893 135.18 77.0107 135.59C76.5322 136 75.8145 136.205 74.8574 136.205C73.9004 136.205 73.1712 135.998 72.6699 135.583C72.1686 135.164 71.918 134.608 71.918 133.915V133.881Z" fill="white"/>
<path d="M33.207 57.9154C33.207 55.7462 33.8997 54.0098 35.2852 52.7065C36.6706 51.394 38.6211 50.7377 41.1367 50.7377C43.5794 50.7377 45.5436 51.4076 47.0293 52.7475C48.515 54.0873 49.2578 56.2475 49.2578 59.2279V60.1576C49.2578 63.53 48.1686 66.1732 45.9902 68.0873C43.821 70.0014 40.5716 71.004 36.2422 71.0951H35.2441V66.1459H36.1055C38.375 66.155 40.0977 65.713 41.2734 64.8197C42.4492 63.9265 43.0371 62.1583 43.0371 59.515L42.7637 58.9408C42.7637 57.4734 42.6497 56.4844 42.4219 55.974C42.194 55.4545 41.7611 55.1947 41.123 55.1947C40.5853 55.1947 40.2298 55.3861 40.0566 55.769C39.8835 56.1426 39.7969 56.8627 39.7969 57.9291C39.7969 58.7676 39.888 59.4102 40.0703 59.8568C40.2526 60.3035 40.6263 60.5268 41.1914 60.5268C41.7474 60.5268 42.1484 60.3126 42.3945 59.8842C42.6497 59.4558 42.7773 58.9363 42.7773 58.3256H43.9668C43.9668 59.9115 43.5794 61.3334 42.8047 62.5912C42.0391 63.8399 40.8132 64.4643 39.127 64.4643C37.2585 64.4643 35.8047 63.8809 34.7656 62.7143C33.7266 61.5476 33.207 59.948 33.207 57.9154ZM50.0234 63.3568V58.7357C50.0234 56.3113 50.6934 54.3744 52.0332 52.9252C53.3822 51.4669 55.3327 50.7377 57.8848 50.7377C60.446 50.7377 62.3965 51.4532 63.7363 52.8842C65.0853 54.3152 65.7598 56.2657 65.7598 58.7357V63.3568C65.7598 65.8451 65.0625 67.8002 63.668 69.2221C62.2734 70.644 60.3457 71.3549 57.8848 71.3549C55.3145 71.3549 53.3594 70.644 52.0195 69.2221C50.6888 67.8002 50.0234 65.8451 50.0234 63.3568ZM56.6816 64.3822C56.6816 65.1387 56.7637 65.7403 56.9277 66.1869C57.1009 66.6244 57.4245 66.8432 57.8984 66.8432C58.3815 66.8432 58.7051 66.6244 58.8691 66.1869C59.0332 65.7403 59.1152 65.1387 59.1152 64.3822V57.7924C59.1152 57.0085 59.0286 56.3979 58.8555 55.9604C58.6914 55.5229 58.3724 55.3041 57.8984 55.3041C57.4245 55.3041 57.1009 55.5229 56.9277 55.9604C56.7637 56.3979 56.6816 57.0085 56.6816 57.7924V64.3822ZM74.5371 51.0795V53.5131C74.5371 54.9441 74.1999 56.1973 73.5254 57.2729C72.86 58.3393 71.7845 59.3601 70.2988 60.3354L66.5801 57.7514C67.0085 57.2227 67.332 56.6257 67.5508 55.9604C67.7695 55.295 67.8789 54.4792 67.8789 53.5131V51.0795H74.5371ZM75.2754 66.3236L81.1953 66.3783V66.7065C81.1953 67.1531 81.3275 67.4538 81.5918 67.6088C81.8652 67.7637 82.2435 67.8412 82.7266 67.8412C83.237 67.8412 83.5924 67.7637 83.793 67.6088C83.9935 67.4538 84.0938 67.2442 84.0938 66.9799C84.0938 66.6882 83.9434 66.4877 83.6426 66.3783C83.3509 66.2598 82.362 66.0548 80.6758 65.7631C78.7982 65.4532 77.4993 64.9246 76.7793 64.1772C76.0684 63.4298 75.7129 62.491 75.7129 61.3607C75.7129 59.8477 76.3555 58.6947 77.6406 57.9018C78.9258 57.0997 80.6849 56.6986 82.918 56.6986C85.1237 56.6986 86.8737 57.1225 88.168 57.9701C89.4622 58.8178 90.1003 59.989 90.082 61.4838V61.7572H84.1758V61.4291C84.1758 61.0919 84.0664 60.8321 83.8477 60.6498C83.6289 60.4584 83.2917 60.3627 82.8359 60.3627C82.3893 60.3627 82.0703 60.4219 81.8789 60.5404C81.6966 60.6498 81.6055 60.8275 81.6055 61.0736C81.6055 61.3197 81.7513 61.5157 82.043 61.6615C82.3346 61.8074 83.3236 62.0124 85.0098 62.2768C86.8418 62.5593 88.1725 63.0469 89.002 63.7397C89.8405 64.4232 90.2598 65.3712 90.2598 66.5834C90.2598 68.1602 89.6126 69.3588 88.3184 70.1791C87.0241 70.9903 85.1921 71.3959 82.8223 71.3959C80.498 71.3959 78.666 70.9903 77.3262 70.1791C75.9954 69.3679 75.3164 68.1602 75.2891 66.5561L75.2754 66.3236Z" fill="white"/>
</svg>
