<svg width="116" height="137" viewBox="0 0 116 137" fill="none" xmlns="http://www.w3.org/2000/svg">
<circle cx="58" cy="58" r="54" stroke="white" stroke-width="2"/>
<path d="M33.4395 70.9994V67.308L40.4668 59.9389C40.9772 59.3647 41.3965 58.8178 41.7246 58.2982C42.0618 57.7787 42.2305 57.2364 42.2305 56.6713C42.2305 56.1882 42.1484 55.8419 41.9844 55.6322C41.8294 55.4135 41.5378 55.3041 41.1094 55.3041C40.681 55.3041 40.3802 55.4682 40.207 55.7963C40.043 56.1244 39.9609 56.7488 39.9609 57.6693V58.394H33.3301V57.1635C33.3301 55.3223 34.0091 53.7911 35.3672 52.5697C36.7344 51.3484 38.653 50.7377 41.123 50.7377C43.8757 50.7377 45.8581 51.2481 47.0703 52.269C48.2826 53.2807 48.8932 54.6706 48.9023 56.4389C48.9023 57.8243 48.5879 59.0092 47.959 59.9936C47.3392 60.9688 46.5599 61.935 45.6211 62.892L42.5176 66.0912H49.2441V70.9994H33.4395ZM50.0234 63.3568V58.7357C50.0234 56.3113 50.6934 54.3744 52.0332 52.9252C53.3822 51.4669 55.3327 50.7377 57.8848 50.7377C60.446 50.7377 62.3965 51.4532 63.7363 52.8842C65.0853 54.3152 65.7598 56.2657 65.7598 58.7357V63.3568C65.7598 65.8451 65.0625 67.8002 63.668 69.2221C62.2734 70.644 60.3457 71.3549 57.8848 71.3549C55.3145 71.3549 53.3594 70.644 52.0195 69.2221C50.6888 67.8002 50.0234 65.8451 50.0234 63.3568ZM56.6816 64.3822C56.6816 65.1387 56.7637 65.7403 56.9277 66.1869C57.1009 66.6244 57.4245 66.8432 57.8984 66.8432C58.3815 66.8432 58.7051 66.6244 58.8691 66.1869C59.0332 65.7403 59.1152 65.1387 59.1152 64.3822V57.7924C59.1152 57.0085 59.0286 56.3979 58.8555 55.9604C58.6914 55.5229 58.3724 55.3041 57.8984 55.3041C57.4245 55.3041 57.1009 55.5229 56.9277 55.9604C56.7637 56.3979 56.6816 57.0085 56.6816 57.7924V64.3822ZM74.5371 51.0795V53.5131C74.5371 54.9441 74.1999 56.1973 73.5254 57.2729C72.86 58.3393 71.7845 59.3601 70.2988 60.3354L66.5801 57.7514C67.0085 57.2227 67.332 56.6257 67.5508 55.9604C67.7695 55.295 67.8789 54.4792 67.8789 53.5131V51.0795H74.5371ZM75.2754 66.3236L81.1953 66.3783V66.7065C81.1953 67.1531 81.3275 67.4538 81.5918 67.6088C81.8652 67.7637 82.2435 67.8412 82.7266 67.8412C83.237 67.8412 83.5924 67.7637 83.793 67.6088C83.9935 67.4538 84.0938 67.2442 84.0938 66.9799C84.0938 66.6882 83.9434 66.4877 83.6426 66.3783C83.3509 66.2598 82.362 66.0548 80.6758 65.7631C78.7982 65.4532 77.4993 64.9246 76.7793 64.1772C76.0684 63.4298 75.7129 62.491 75.7129 61.3607C75.7129 59.8477 76.3555 58.6947 77.6406 57.9018C78.9258 57.0997 80.6849 56.6986 82.918 56.6986C85.1237 56.6986 86.8737 57.1225 88.168 57.9701C89.4622 58.8178 90.1003 59.989 90.082 61.4838V61.7572H84.1758V61.4291C84.1758 61.0919 84.0664 60.8321 83.8477 60.6498C83.6289 60.4584 83.2917 60.3627 82.8359 60.3627C82.3893 60.3627 82.0703 60.4219 81.8789 60.5404C81.6966 60.6498 81.6055 60.8275 81.6055 61.0736C81.6055 61.3197 81.7513 61.5157 82.043 61.6615C82.3346 61.8074 83.3236 62.0124 85.0098 62.2768C86.8418 62.5593 88.1725 63.0469 89.002 63.7397C89.8405 64.4232 90.2598 65.3712 90.2598 66.5834C90.2598 68.1602 89.6126 69.3588 88.3184 70.1791C87.0241 70.9903 85.1921 71.3959 82.8223 71.3959C80.498 71.3959 78.666 70.9903 77.3262 70.1791C75.9954 69.3679 75.3164 68.1602 75.2891 66.5561L75.2754 66.3236Z" fill="white"/>
<path d="M38.4766 136V135.043L42.0312 131.215C42.5052 130.714 42.863 130.269 43.1045 129.882C43.346 129.494 43.4668 129.073 43.4668 128.617C43.4668 128.161 43.3118 127.765 43.002 127.428C42.6966 127.09 42.2705 126.922 41.7236 126.922C41.1768 126.922 40.7142 127.102 40.3359 127.462C39.9622 127.822 39.7754 128.321 39.7754 128.959V129.027H38.4766V128.959C38.4766 128.048 38.7865 127.3 39.4062 126.717C40.0306 126.133 40.8031 125.842 41.7236 125.842C42.6351 125.842 43.3688 126.111 43.9248 126.648C44.4854 127.186 44.7656 127.82 44.7656 128.549C44.7656 129.196 44.5833 129.784 44.2188 130.312C43.8542 130.841 43.4098 131.381 42.8857 131.933L40.1035 134.865H45.0391V136H38.4766ZM46.3789 132.855V129.191C46.3789 128.189 46.6615 127.38 47.2266 126.765C47.7917 126.149 48.5755 125.842 49.5781 125.842C50.5716 125.842 51.3532 126.149 51.9229 126.765C52.4925 127.38 52.7773 128.189 52.7773 129.191V132.855C52.7773 133.858 52.4925 134.667 51.9229 135.282C51.3532 135.897 50.5716 136.205 49.5781 136.205C48.5755 136.205 47.7917 135.897 47.2266 135.282C46.6615 134.667 46.3789 133.858 46.3789 132.855ZM47.7051 132.924C47.7051 133.562 47.8577 134.088 48.1631 134.503C48.4684 134.918 48.9401 135.125 49.5781 135.125C50.2161 135.125 50.6878 134.918 50.9932 134.503C51.2985 134.088 51.4512 133.562 51.4512 132.924V129.123C51.4512 128.485 51.2985 127.959 50.9932 127.544C50.6878 127.129 50.2161 126.922 49.5781 126.922C48.9401 126.922 48.4684 127.129 48.1631 127.544C47.8577 127.959 47.7051 128.485 47.7051 129.123V132.924ZM54.2812 136V135.043L57.8359 131.215C58.3099 130.714 58.6676 130.269 58.9092 129.882C59.1507 129.494 59.2715 129.073 59.2715 128.617C59.2715 128.161 59.1165 127.765 58.8066 127.428C58.5013 127.09 58.0752 126.922 57.5283 126.922C56.9814 126.922 56.5189 127.102 56.1406 127.462C55.7669 127.822 55.5801 128.321 55.5801 128.959V129.027H54.2812V128.959C54.2812 128.048 54.5911 127.3 55.2109 126.717C55.8353 126.133 56.6077 125.842 57.5283 125.842C58.4398 125.842 59.1735 126.111 59.7295 126.648C60.29 127.186 60.5703 127.82 60.5703 128.549C60.5703 129.196 60.388 129.784 60.0234 130.312C59.6589 130.841 59.2145 131.381 58.6904 131.933L55.9082 134.865H60.8438V136H54.2812ZM62.1836 132.855V129.191C62.1836 128.189 62.4661 127.38 63.0312 126.765C63.5964 126.149 64.3802 125.842 65.3828 125.842C66.3763 125.842 67.1579 126.149 67.7275 126.765C68.2972 127.38 68.582 128.189 68.582 129.191V132.855C68.582 133.858 68.2972 134.667 67.7275 135.282C67.1579 135.897 66.3763 136.205 65.3828 136.205C64.3802 136.205 63.5964 135.897 63.0312 135.282C62.4661 134.667 62.1836 133.858 62.1836 132.855ZM63.5098 132.924C63.5098 133.562 63.6624 134.088 63.9678 134.503C64.2731 134.918 64.7448 135.125 65.3828 135.125C66.0208 135.125 66.4925 134.918 66.7979 134.503C67.1032 134.088 67.2559 133.562 67.2559 132.924V129.123C67.2559 128.485 67.1032 127.959 66.7979 127.544C66.4925 127.129 66.0208 126.922 65.3828 126.922C64.7448 126.922 64.2731 127.129 63.9678 127.544C63.6624 127.959 63.5098 128.485 63.5098 129.123V132.924ZM71.5078 126.033V126.908C71.5078 127.318 71.403 127.756 71.1934 128.221C70.9883 128.686 70.6989 129.073 70.3252 129.383L69.6006 128.884C69.8148 128.583 69.9766 128.275 70.0859 127.961C70.1953 127.642 70.25 127.298 70.25 126.929V126.033H71.5078ZM71.918 133.881H73.1895V133.915C73.1895 134.33 73.3421 134.642 73.6475 134.852C73.9528 135.061 74.3561 135.166 74.8574 135.166C75.3587 135.166 75.7529 135.066 76.04 134.865C76.3317 134.665 76.4775 134.405 76.4775 134.086C76.4775 133.767 76.3613 133.523 76.1289 133.354C75.8965 133.181 75.3929 133.004 74.6182 132.821C73.8434 132.639 73.2282 132.384 72.7725 132.056C72.3167 131.723 72.0889 131.26 72.0889 130.668C72.0889 130.076 72.3327 129.583 72.8203 129.191C73.3125 128.799 73.9688 128.604 74.7891 128.604C75.6094 128.604 76.2702 128.799 76.7715 129.191C77.2728 129.579 77.5234 130.105 77.5234 130.771V130.805H76.2588V130.743C76.2588 130.401 76.138 130.132 75.8965 129.937C75.6595 129.741 75.2904 129.643 74.7891 129.643C74.2878 129.643 73.9209 129.734 73.6885 129.916C73.4606 130.098 73.3467 130.326 73.3467 130.6C73.3467 130.873 73.4788 131.09 73.7432 131.249C74.0075 131.409 74.527 131.579 75.3018 131.762C76.0765 131.944 76.6735 132.206 77.0928 132.548C77.5166 132.89 77.7285 133.38 77.7285 134.018C77.7285 134.656 77.4893 135.18 77.0107 135.59C76.5322 136 75.8145 136.205 74.8574 136.205C73.9004 136.205 73.1712 135.998 72.6699 135.583C72.1686 135.164 71.918 134.608 71.918 133.915V133.881Z" fill="white"/>
</svg>
