<svg width="116" height="139" viewBox="0 0 116 139" fill="none" xmlns="http://www.w3.org/2000/svg">
<circle cx="58" cy="58" r="54" stroke="white" stroke-width="2"/>
<path d="M43.2325 44.0423C49.2997 43.5242 53.4748 47.8054 56.2191 52.794C56.8416 53.9255 57.3752 55.1176 58.0283 56.2215C59.1667 53.708 60.6644 51.6637 62.4007 49.5351C64.8395 46.5453 67.3466 44.6255 71.2336 44.3204C73.9576 44.0446 77.7717 45.1295 79.7757 47.0633C87.9297 54.9312 86.6524 73.5695 75.143 77.6336C74.4351 77.8836 73.4925 77.9474 72.7605 77.9885C72.2454 77.995 71.687 78.0107 71.1761 77.9873C65.455 77.7258 61.7358 72.5058 58.8807 67.9846C58.5398 67.4445 58.3675 66.171 57.794 65.8393C57.4394 66.2078 56.8337 67.7544 56.5259 68.3095C54.3594 72.2157 49.4309 77.5723 44.7512 77.7951C36.4737 78.1892 32.1119 70.8977 31.1661 63.4042C30.4958 58.1417 31.8708 52.8193 34.9908 48.5995C37.4213 45.3566 39.3958 44.5426 43.2325 44.0423ZM47.5075 71.3376C50.5107 69.8099 51.9128 67.6684 53.4514 64.7433C53.9949 63.7102 54.7529 62.263 55.1079 61.1771C55.1451 61.063 55.1794 60.9479 55.2106 60.8318C53.4392 56.03 50.1686 49.0998 44.0917 49.9921C35.64 50.971 34.9996 65.4924 40.3717 70.3107C41.9129 71.693 45.7437 72.5225 47.5075 71.3376ZM60.9116 61.2642C62.3759 65.2188 64.8962 70.7059 69.1609 71.8824C71.1164 72.2803 73.1856 72.2909 74.8728 71.0041C79.8749 67.1894 80.6501 58.5622 77.0026 53.4989C75.6509 51.6224 73.9591 50.1797 71.559 50.2248C68.8698 50.2731 67.5873 50.7191 65.6075 52.7333C63.8896 54.4809 61.5802 58.8343 60.9116 61.2642Z" fill="white"/>
<path d="M32.8369 136L36.624 125.979H37.7998L41.5869 136H40.2197L37.4854 128.48C37.4307 128.33 37.3828 128.184 37.3418 128.043C37.3008 127.902 37.2643 127.756 37.2324 127.605H37.1641C37.1322 127.756 37.0957 127.902 37.0547 128.043C37.0137 128.184 36.9658 128.33 36.9111 128.48L34.1494 136H32.8369ZM34.4639 133.402L34.8672 132.322H39.543L39.9395 133.402H34.4639ZM42.5986 136V128.809H43.7471L43.8018 129.731H43.8428C44.1025 129.403 44.4193 129.146 44.793 128.959C45.1712 128.768 45.5882 128.672 46.0439 128.672C46.7686 128.672 47.3451 128.879 47.7734 129.294C48.2064 129.704 48.4229 130.392 48.4229 131.358V136H47.1514V131.345C47.1514 130.771 47.0215 130.36 46.7617 130.114C46.5065 129.864 46.1419 129.738 45.668 129.738C45.2624 129.738 44.9046 129.848 44.5947 130.066C44.2848 130.285 44.0433 130.568 43.8701 130.914V136H42.5986ZM49.708 138.844V137.764C49.8265 137.8 49.9587 137.83 50.1045 137.853C50.2503 137.875 50.3916 137.887 50.5283 137.887C50.8473 137.887 51.1253 137.766 51.3623 137.524C51.5993 137.287 51.8499 136.77 52.1143 135.973V135.966L49.4346 128.809H50.665L52.3672 133.539C52.431 133.721 52.488 133.892 52.5381 134.052C52.5882 134.211 52.6315 134.359 52.668 134.496H52.709C52.75 134.359 52.7956 134.211 52.8457 134.052C52.9004 133.892 52.9574 133.721 53.0166 133.539L54.6025 128.809H55.8057L52.8867 136.957C52.6589 137.595 52.3558 138.092 51.9775 138.447C51.6038 138.803 51.1436 138.98 50.5967 138.98C50.4144 138.98 50.2526 138.969 50.1113 138.946C49.9701 138.924 49.8356 138.889 49.708 138.844ZM55.8057 129.779V128.809H59.9072V129.779H55.8057ZM57.0908 134.223V129.396V129.191V127.031H58.3623V134.223C58.3623 134.542 58.4261 134.77 58.5537 134.906C58.6813 135.043 58.8818 135.111 59.1553 135.111C59.2829 135.111 59.4082 135.098 59.5312 135.07C59.6543 135.043 59.7796 135.007 59.9072 134.961V136C59.7887 136.055 59.6338 136.103 59.4424 136.144C59.251 136.185 59.0413 136.205 58.8135 136.205C58.2894 136.205 57.8701 136.046 57.5557 135.727C57.2458 135.408 57.0908 134.906 57.0908 134.223ZM61.3223 136V128.809H62.5938V136H61.3223ZM61.165 126.635C61.165 126.421 61.2334 126.241 61.3701 126.095C61.5068 125.949 61.7028 125.876 61.958 125.876C62.2132 125.876 62.4092 125.949 62.5459 126.095C62.6826 126.241 62.751 126.421 62.751 126.635C62.751 126.849 62.6826 127.029 62.5459 127.175C62.4092 127.321 62.2132 127.394 61.958 127.394C61.7028 127.394 61.5068 127.321 61.3701 127.175C61.2334 127.029 61.165 126.849 61.165 126.635ZM64.6787 136V128.809H65.8271L65.8818 129.731H65.9229C66.1781 129.408 66.4857 129.15 66.8457 128.959C67.2103 128.768 67.6136 128.672 68.0557 128.672C68.5387 128.672 68.9557 128.768 69.3066 128.959C69.6576 129.15 69.9242 129.46 70.1064 129.889H70.1475C70.4482 129.46 70.7809 129.15 71.1455 128.959C71.5101 128.768 71.9294 128.672 72.4033 128.672C73.1507 128.672 73.734 128.879 74.1533 129.294C74.5726 129.704 74.7822 130.392 74.7822 131.358V136H73.5107V131.345C73.5107 130.771 73.3877 130.36 73.1416 130.114C72.8955 129.864 72.5469 129.738 72.0957 129.738C71.7038 129.738 71.3597 129.848 71.0635 130.066C70.7718 130.285 70.5394 130.568 70.3662 130.914V136H69.0947V131.345C69.0947 130.771 68.9717 130.36 68.7256 130.114C68.4795 129.864 68.1309 129.738 67.6797 129.738C67.2878 129.738 66.9437 129.848 66.6475 130.066C66.3558 130.285 66.1234 130.568 65.9502 130.914V136H64.6787ZM76.3066 132.514V132.295C76.3066 131.21 76.6029 130.324 77.1953 129.636C77.7923 128.948 78.5807 128.604 79.5605 128.604C80.5404 128.604 81.2946 128.925 81.8232 129.567C82.3519 130.21 82.6162 131.078 82.6162 132.172V132.691H77.0859V131.68H81.3379V131.516C81.3379 130.996 81.1898 130.554 80.8936 130.189C80.5973 129.825 80.1712 129.643 79.6152 129.643C78.9408 129.643 78.4372 129.9 78.1045 130.415C77.7718 130.925 77.6055 131.552 77.6055 132.295V132.514C77.6055 133.257 77.7809 133.885 78.1318 134.4C78.4827 134.911 79.0273 135.166 79.7656 135.166C80.2214 135.166 80.6133 135.066 80.9414 134.865C81.2695 134.665 81.5361 134.428 81.7412 134.154L82.5615 134.804C82.3337 135.146 81.9805 135.465 81.502 135.761C81.028 136.057 80.4492 136.205 79.7656 136.205C78.6491 136.205 77.7923 135.861 77.1953 135.173C76.6029 134.485 76.3066 133.598 76.3066 132.514Z" fill="white"/>
</svg>
